<svg id="Слой_1" data-name="Слой 1" xmlns="http://www.w3.org/2000/svg" viewBox="0 0 97.77 117.52"><defs><style>.cls-1{fill:#70a7ff;}</style></defs><title>ava </title><path class="cls-1" d="M51.76,57.75s2.41,0,2.41-1.5a1,1,0,0,0-1-1,1,1,0,0,0-.82.4,1.76,1.76,0,0,1-1.24,0,1,1,0,0,0-1.4-.18,1,1,0,0,0-.39.8C49.34,57.7,51.73,57.75,51.76,57.75Z"/><path class="cls-1" d="M66,49.24A7.56,7.56,0,0,0,62.29,48a4.9,4.9,0,0,0-3.93,1.81,1,1,0,0,0,.23,1.39A1,1,0,0,0,60,51h0a2.93,2.93,0,0,1,2.3-1,5.6,5.6,0,0,1,2.71.93,1,1,0,0,0,1.38-.32h0A1,1,0,0,0,66,49.24Z"/><path class="cls-1" d="M68.17,43.24a8.5,8.5,0,0,0-3-1.11c-1.51-.28-5.28-.74-7.61.84a1,1,0,1,0,1.09,1.68h0c1.18-.8,3.53-1,6.13-.54a6.84,6.84,0,0,1,2.22.82,1,1,0,0,0,.54.16,1.05,1.05,0,0,0,.63-1.85Z"/><path class="cls-1" d="M41.18,48a7.56,7.56,0,0,0-3.71,1.21,1,1,0,0,0,1,1.7A5.32,5.32,0,0,1,41.18,50a3,3,0,0,1,2.3,1,1,1,0,0,0,1.73-1l0,0a.44.44,0,0,0-.08-.11A4.91,4.91,0,0,0,41.18,48Z"/><path class="cls-1" d="M38.28,42.12a8.61,8.61,0,0,0-2.94,1.12,1,1,0,1,0,1.09,1.69,6.7,6.7,0,0,1,2.21-.82c2.65-.47,5-.27,6.15.54a1,1,0,0,0,1.12-1.72C43.57,41.39,39.8,41.85,38.28,42.12Z"/><path class="cls-1" d="M54.21,60.59a36.72,36.72,0,0,1-4.92,0,2.31,2.31,0,0,0-2.5,2.11v0a3.38,3.38,0,0,0,0,.45c.58,5.42,3.67,6,5,6s4.37-.59,5-6a2.34,2.34,0,0,0-2.07-2.58,2.16,2.16,0,0,0-.44,0Zm-2.45,6.59c-2.2,0-2.81-2.65-3-4.23a.3.3,0,0,1,.09-.27.33.33,0,0,1,.23-.1h0a38,38,0,0,0,5.23,0,.38.38,0,0,1,.27.1.35.35,0,0,1,.09.28C54.57,64.54,54,67.18,51.76,67.18Z"/><path class="cls-1" d="M14.59,33A3.38,3.38,0,1,0,18,29.65,3.38,3.38,0,0,0,14.59,33ZM18,31.65A1.37,1.37,0,1,1,16.62,33h0A1.39,1.39,0,0,1,18,31.65Z"/><path class="cls-1" d="M72,6.88a3.44,3.44,0,1,0-3.44-3.44v.05A3.44,3.44,0,0,0,72,6.88ZM72,2a1.44,1.44,0,1,1-1.44,1.49A1.44,1.44,0,0,1,72,2.05h0Z"/><path class="cls-1" d="M27.13,12.93a4,4,0,1,0-4-4A4,4,0,0,0,27.13,12.93Zm0-6a1.41,1.41,0,1,1-.05,0h.05Z"/><path class="cls-1" d="M96,46.08l-.64-.34L95,45.11a2.21,2.21,0,0,0-3-.87,2.13,2.13,0,0,0-.87.89l-.35.63-.63.35a2.22,2.22,0,0,0-.86,3,2.26,2.26,0,0,0,.88.88l.64.34.35.63a2.21,2.21,0,0,0,3.87,0l.34-.64L96,50a2.21,2.21,0,0,0,0-3.87Zm-1,2.13-1.09.6a.16.16,0,0,0-.09.09L93.24,50a.22.22,0,0,1-.29.08h0L92.87,50l-.6-1.09a.16.16,0,0,0-.09-.09l-1.1-.59a.21.21,0,0,1-.08-.29h0a.2.2,0,0,1,.08-.08l1.09-.6a.26.26,0,0,0,.09-.09l.59-1.1a.21.21,0,0,1,.28-.09h0a.2.2,0,0,1,.08.08l.6,1.1a.24.24,0,0,0,.09.08l1.1.59a.2.2,0,0,1,.08.28h0a.24.24,0,0,1-.09.08Z"/><path class="cls-1" d="M7.57,57.2l.9-1.65,1.64-.9a2.2,2.2,0,0,0,.9-3v0a2.24,2.24,0,0,0-.89-.89l-1.64-.83-.9-1.64a2.22,2.22,0,0,0-3-.89h0a2.16,2.16,0,0,0-.88.89L2.8,49.93l-1.65.9a2.2,2.2,0,0,0,0,3.87l1.65.9.9,1.65a2.18,2.18,0,0,0,3,.9l0,0a2.28,2.28,0,0,0,.89-.88Zm-2.28-.87-1.1-2A.39.39,0,0,0,4,54.16l-2-1.1a.37.37,0,0,1-.16-.51v0A.28.28,0,0,1,2,52.38l2-1.1a.41.41,0,0,0,.16-.16l1.1-2a.39.39,0,0,1,.51-.22l.05,0a.29.29,0,0,1,.15.16l1.1,2a.41.41,0,0,0,.16.16l2,1.1a.39.39,0,0,1,.21.51.43.43,0,0,1,0,.07.39.39,0,0,1-.16.15l-2,1.1a.41.41,0,0,0-.16.16L6,56.33a.37.37,0,0,1-.51.16h0A.34.34,0,0,1,5.29,56.33Z"/><path class="cls-1" d="M84.81,25.46l1,.55.55,1a2.27,2.27,0,0,0,4,0l.55-1,1-.55a2.28,2.28,0,0,0,.92-3.08l0,0a2.23,2.23,0,0,0-.9-.9l-1-.55-.55-1A2.28,2.28,0,0,0,87.27,19a2.34,2.34,0,0,0-.91.91l-.55,1-1,.55a2.3,2.3,0,0,0-.91,3.1A2.38,2.38,0,0,0,84.81,25.46Zm1-2.25,1.45-.79a.38.38,0,0,0,.11-.11l.75-1.49a.29.29,0,0,1,.38-.12.34.34,0,0,1,.12.12l.79,1.45.11.11,1.45.79a.28.28,0,0,1,.12.38.34.34,0,0,1-.12.12l-1.45.83-.11.11-.79,1.45a.29.29,0,0,1-.38.12.34.34,0,0,1-.12-.12l-.79-1.45a.38.38,0,0,0-.11-.11l-1.45-.79a.28.28,0,0,1-.11-.38h0a.38.38,0,0,1,.11-.11Z"/><path class="cls-1" d="M49.44,10.27l.73.4.4.73a2.24,2.24,0,0,0,3,.88,2.19,2.19,0,0,0,.88-.88l.4-.73.73-.4a2.24,2.24,0,0,0,.89-3,2.12,2.12,0,0,0-.89-.89L54.85,6l-.4-.73a2.22,2.22,0,0,0-3-.89,2.31,2.31,0,0,0-.89.89l-.4.73-.73.4a2.22,2.22,0,0,0,0,3.88Zm1-2.16,1.18-.64a.32.32,0,0,0,.1-.1l.64-1.19a.21.21,0,0,1,.39,0l.69,1.22a.22.22,0,0,0,.09.1l1.18.64a.24.24,0,0,1,.09.32.34.34,0,0,1-.09.08l-1.18.66a.2.2,0,0,0-.09.09l-.65,1.18a.24.24,0,0,1-.32.09.18.18,0,0,1-.08-.09l-.65-1.19a.28.28,0,0,0-.1-.09l-1.2-.65a.23.23,0,0,1-.09-.31A.2.2,0,0,1,50.44,8.11Z"/><path class="cls-1" d="M96.47,84.74c-1-2.35-2.89-4.22-4.72-6-3.28-3.22-5.2-5.36-3.6-8.68,3.91-8.14,2.92-15.2-2.81-19.88a25.41,25.41,0,0,1-6.39-8c-.64-1-1.3-2.19-2.09-3.42h0a11.48,11.48,0,0,1-1.71-4.48C75,33,75.28,27,74.06,24.61S68.83,15,60,15.14a13.11,13.11,0,0,0-8.2,2.77c-.76.79-.87.88-1.27.78A18.54,18.54,0,0,0,41.2,15C35.13,14.36,31,18,29.06,22.85c-1.65,4.25.18,8.37-1.16,12.91a34.35,34.35,0,0,1-2.66,5.07l-.79,1.33a25.3,25.3,0,0,1-6.39,8C12.38,54.84,11.38,61.93,15.28,70c1.6,3.32-.32,5.46-3.6,8.68a20.34,20.34,0,0,0-4.75,6,14.36,14.36,0,0,0-.1,11.73,13.27,13.27,0,0,0,7.74,6.79c-1.32,3.85,1.68,6,4.17,7.31a42.13,42.13,0,0,0,4.7,2.11,80.72,80.72,0,0,0,28.29,4.89A80.42,80.42,0,0,0,80,112.65h.09a43.17,43.17,0,0,0,4.6-2.08c1.45-.76,5.67-3,4.16-7.33a13.2,13.2,0,0,0,7.68-6.79A14.31,14.31,0,0,0,96.47,84.74ZM23.66,103.82a7.57,7.57,0,0,0-3.1,3.19,1,1,0,0,0,.37,1.36A1,1,0,0,0,22.3,108h0a6.57,6.57,0,0,1,.95-1.33c-.16,1.34-.27,2.62-.33,3.71-1.14-.48-2.22-1-3.21-1.5-3.83-2.06-4-3.71-2.9-5.76l.07,0a7.07,7.07,0,0,1,.49-.84,37.37,37.37,0,0,1,8.86-8.75q-.68,1.78-1.17,3.63a15,15,0,0,0-5.38,4.49,1,1,0,1,0,1.64,1.14,13.09,13.09,0,0,1,3.08-3C24.12,101.1,23.87,102.43,23.66,103.82Zm28.06,11.79a79.14,79.14,0,0,1-26.84-4.51,62.25,62.25,0,0,1,.63-6.39,65.59,65.59,0,0,1,1.31-6.5,26.66,26.66,0,0,1,2.73-7l1.65-1.1a33.8,33.8,0,0,1,6.61-3.18c.53-.2,1.07-.41,1.6-.63C41,87.56,47,92.3,50.18,96.84a2,2,0,0,0,2.74.47,2.1,2.1,0,0,0,.47-.47c3.22-4.55,9.13-9.27,10.75-10.53l1.61.64a33.15,33.15,0,0,1,6.57,3.1l.62.41,1.14.75a27,27,0,0,1,2.69,6.94,65.83,65.83,0,0,1,1.32,6.51,57.24,57.24,0,0,1,.63,6.41A78.82,78.82,0,0,1,51.72,115.61ZM26.41,53.8a5.67,5.67,0,0,1,3,1.9c.34,1.81.69,3.54.92,4.61a4.33,4.33,0,0,1-2.43-.38,6.74,6.74,0,0,1-3.51-4c-.87-2.65-.61-5.79,1.93-6.82a4.29,4.29,0,0,1,2-.33c.12,1.07.34,2.45.58,3.84a7.17,7.17,0,0,0-2.1-.82,1,1,0,0,0-.36,2Zm3.8-5.87a14.14,14.14,0,0,1,.87-3,16,16,0,0,0,1.14-4.18h0s0-.15,0-.4a5.9,5.9,0,0,0,.06-.59c.12-1.24.31-3.24.29-3.61,0-.54-1.12-6.67,1.2-8.7,4.3-3.77,12.06-2.51,14.43-2.13s7.42-.16,9.93-.7,8-.05,10.37,3S71.1,38.29,71.1,38.29v1.77l.07,0a16,16,0,0,0,1.25,4.9,14.14,14.14,0,0,1,.87,3c-.1,1.29-.49,3.77-1.14,7.22-.52,2.78-1,5.05-1.12,5.57-2.2,9.13-7.77,13.4-12,15.36l-.25.11-.83.35A17.69,17.69,0,0,1,51.75,78a17.54,17.54,0,0,1-6.13-1.47l-.13-.05-.93-.4c-4.24-2-9.73-6.15-12-15.09a1,1,0,0,0-.09-.48l-.06-.08c-.19-.83-.63-3-1.08-5.41C30.72,51.73,30.33,49.22,30.21,47.93ZM76.8,51.78a7.4,7.4,0,0,0-2.17.86c.29-1.63.48-2.93.59-3.88a4.7,4.7,0,0,1,2,.32c2.52,1,2.78,4.16,1.92,6.82a6.85,6.85,0,0,1-3.56,4,4.22,4.22,0,0,1-2.45.37c.27-1,.61-2.73.94-4.49a5.7,5.7,0,0,1,3.08-2,1,1,0,1,0-.35-2ZM45.07,78.49A18.8,18.8,0,0,0,51.79,80a19.31,19.31,0,0,0,6.65-1.53c.2,3.68,1.22,5.8,3.23,6.76l.36.17a59,59,0,0,0-9.82,9.71.5.5,0,0,1-.69.11.57.57,0,0,1-.11-.11,59.57,59.57,0,0,0-9.9-9.73l.32-.15C43.83,84.29,44.85,82.17,45.07,78.49Zm38.76,30.33,0,.06c-1,.51-2,1-3.14,1.48-.06-1.09-.17-2.37-.33-3.7a6.94,6.94,0,0,1,1,1.35,1,1,0,0,0,1.88-.47,1.14,1.14,0,0,0-.12-.48,7.35,7.35,0,0,0-3.1-3.19c-.21-1.38-.46-2.71-.74-4a13.74,13.74,0,0,1,3.09,3,1,1,0,0,0,1.65-1.14h0a15.23,15.23,0,0,0-5.39-4.5c-.36-1.31-.75-2.5-1.16-3.58a37.66,37.66,0,0,1,8.79,8.71c.14.21.25.42.37.63a.79.79,0,0,0,.06.22,1.05,1.05,0,0,0,.2.27C87.73,105.31,87.47,106.93,83.83,108.82Zm11-13.13A11.33,11.33,0,0,1,88,101.45l-.17-.28c-3.28-4.91-8.62-8.87-12.4-11.44a.87.87,0,0,0-.28-.19L74,88.78l-.62-.41a35.22,35.22,0,0,0-7-3.29l-2-.79a.92.92,0,0,0-.23-.09c-.6-.24-1.16-.48-1.7-.75-.88-.42-2-1.5-2.14-5.82,4.42-2.19,9.85-6.6,12.29-15.41a5.65,5.65,0,0,0,1.08.11,6.67,6.67,0,0,0,2.67-.6A8.89,8.89,0,0,0,81,56.54c1.38-4.25.15-8-3-9.28a6.54,6.54,0,0,0-2.93-.48,24.4,24.4,0,0,0-.8-2.51C73.52,42.56,73,37.46,73,37.46h0c-.12-1.52-.26-3.54-.26-4.67a12.21,12.21,0,0,0-4.14-7.73,13.61,13.61,0,0,0-9.86-2.19c-3,.65-6.13,1.42-9.35,1a80.87,80.87,0,0,0-10.27-.39c-3.38.06-6.11,2.39-7.38,3.72s-1.48,4.6-1.36,7.33c.08,1.7.06,3.59,0,4.79a14,14,0,0,1-1.16,4.92,22.18,22.18,0,0,0-.8,2.51,6.19,6.19,0,0,0-2.85.47c-3.21,1.3-4.45,5-3.06,9.28a8.82,8.82,0,0,0,4.58,5.17,5.87,5.87,0,0,0,3.73.53c2.44,8.81,7.87,13.22,12.28,15.4C43,81.93,41.84,83,41,83.45c-.59.28-1.18.54-1.76.79h-.06l-2,.8a36.42,36.42,0,0,0-7,3.31l-1.86,1.24c-3.81,2.58-9.26,6.58-12.57,11.56-.07.1-.13.2-.19.3a11.3,11.3,0,0,1-6.91-5.8l.07,0a12.35,12.35,0,0,1,.12-10.1,18.82,18.82,0,0,1,4.32-5.4c3.1-3,6.3-6.19,4-11-2.52-5.12-4.16-12.25,2.2-17.47a27.55,27.55,0,0,0,6.85-8.54c.33-.56.69-1.15,1.06-1.76A12,12,0,0,0,29.44,38a4.06,4.06,0,0,0,.28-.79c.37-1.25,0-7,.16-9s-.13-2.3.75-4.43c2.93-7.16,8.54-7.67,11.17-7.2A32.91,32.91,0,0,1,48.88,19c1.25.59,1.54,1.05,2.39.79s2.82-2.4,6.51-3A12.83,12.83,0,0,1,68.7,19.94c6.3,6,4.67,13.4,4.55,15.44a4.68,4.68,0,0,0,.28,1.95h0a.17.17,0,0,0,0,.05,3.81,3.81,0,0,0,.76,1.24h0c.91,1.42,2.33,3.62,2.87,4.54A27.59,27.59,0,0,0,84,51.71c6.34,5.18,4.74,12.35,2.28,17.46-2.3,4.78.9,7.93,4,11a18.82,18.82,0,0,1,4.32,5.4,12.36,12.36,0,0,1,.12,10.09Z"/></svg>