<svg id="OBJECTS" xmlns="http://www.w3.org/2000/svg" viewBox="0 0 61.88 61.94"><defs><style>.cls-1{fill:#40bced;}</style></defs><title>behance</title><path class="cls-1" d="M42.93,61.89H19A19,19,0,0,1,0,42.93V19A19,19,0,0,1,19,0h24a19,19,0,0,1,19,19v24A19,19,0,0,1,42.93,61.89ZM19,2.3A16.67,16.67,0,0,0,2.3,19v24A16.67,16.67,0,0,0,19,59.59h24A16.67,16.67,0,0,0,59.59,42.93V19A16.67,16.67,0,0,0,42.93,2.3Z"/><path class="cls-1" d="M25.54,30.24h-1a5.32,5.32,0,0,0,5.32-5.32h0a5.32,5.32,0,0,0-5.32-5.31H13.9v21.9H25.54a5.15,5.15,0,0,0,5.15-5.15v-1A5.14,5.14,0,0,0,25.54,30.24ZM18.3,23.58h4.93a2.66,2.66,0,0,1,2.66,2.66h0a2.66,2.66,0,0,1-2.66,2.66H18.3Zm5.61,14.24H18.3V32.5h5.61a2.66,2.66,0,0,1,0,5.32Z"/><path class="cls-1" d="M43.45,36.82a4.09,4.09,0,0,1-3.24,1.65,4.27,4.27,0,0,1-4.06-3.31H47.89A9.71,9.71,0,0,0,48,34a8.07,8.07,0,0,0-7.77-8.33A8.07,8.07,0,0,0,32.44,34a8.07,8.07,0,0,0,7.77,8.33,7.82,7.82,0,0,0,7.29-5.46Zm-3.24-7.46a4.23,4.23,0,0,1,3.67,2.22H36.55A4.23,4.23,0,0,1,40.21,29.36Z"/><rect class="cls-1" x="34.5" y="20.84" width="10.56" height="2.74"/></svg>