<svg id="Слой_1" data-name="Слой 1" xmlns="http://www.w3.org/2000/svg" xmlns:xlink="http://www.w3.org/1999/xlink" viewBox="0 0 348.62 337.22"><defs><style>.cls-1{fill:#150500;}.cls-2{opacity:0.56;}.cls-19,.cls-3{isolation:isolate;}.cls-4{fill:#cbd1d1;}.cls-5{fill:url(#Безымянный_градиент);}.cls-6{fill:#fff;}.cls-7{fill:url(#Безымянный_градиент_2);}.cls-8{fill:url(#Безымянный_градиент_11);}.cls-9{fill:url(#Безымянный_градиент_11-2);}.cls-10{fill:url(#Безымянный_градиент_3);}.cls-11{fill:#aa8551;}.cls-12,.cls-19{opacity:0.46;}.cls-13,.cls-19{fill:#a25600;}.cls-14{fill:url(#Безымянный_градиент_4);}.cls-15{fill:url(#Безымянный_градиент_5);}.cls-16{fill:url(#Безымянный_градиент_6);}.cls-17{fill:url(#Безымянный_градиент_7);}.cls-18{fill:url(#Безымянный_градиент_8);}.cls-20{fill:url(#Безымянный_градиент_9);}.cls-21{fill:url(#Безымянный_градиент_10);}.cls-22{fill:#ebcbce;}.cls-23{fill:url(#Безымянный_градиент_11-3);}.cls-24{fill:url(#Безымянный_градиент_12);}.cls-25{fill:url(#Безымянный_градиент_13);}.cls-26{fill:url(#Безымянный_градиент_14);}.cls-27{fill:url(#Безымянный_градиент_15);}.cls-28{fill:url(#Безымянный_градиент_16);}.cls-29{fill:url(#Безымянный_градиент_17);}.cls-30{fill:url(#Безымянный_градиент_18);}.cls-31{fill:url(#Безымянный_градиент_19);}.cls-32{fill:url(#Безымянный_градиент_20);}</style><linearGradient id="Безымянный_градиент" x1="101.61" y1="458.47" x2="127.67" y2="458.47" gradientTransform="matrix(1, 0, 0, -1, 0, 541.11)" gradientUnits="userSpaceOnUse"><stop offset="0" stop-color="#553400"/><stop offset="0.11" stop-color="#543505"/><stop offset="0.23" stop-color="#503713"/><stop offset="0.36" stop-color="#4a3b2a"/><stop offset="0.5" stop-color="#42414b"/><stop offset="0.64" stop-color="#374876"/><stop offset="0.79" stop-color="#2b51a9"/><stop offset="0.94" stop-color="#1b5be5"/><stop offset="1" stop-color="#155fff"/></linearGradient><linearGradient id="Безымянный_градиент_2" x1="175.48" y1="458.47" x2="201.54" y2="458.47" xlink:href="#Безымянный_градиент"/><linearGradient id="Безымянный_градиент_11" x1="97.62" y1="10.39" x2="98.46" y2="60.46" gradientUnits="userSpaceOnUse"><stop offset="0" stop-color="#ff94a0"/><stop offset="0.13" stop-color="#f78896"/><stop offset="0.37" stop-color="#e06a7a"/><stop offset="0.69" stop-color="#bd384f"/><stop offset="1" stop-color="#94001d"/></linearGradient><linearGradient id="Безымянный_градиент_11-2" x1="200.97" y1="6.78" x2="201.82" y2="57.6" xlink:href="#Безымянный_градиент_11"/><linearGradient id="Безымянный_градиент_3" x1="151.62" y1="450.35" x2="151.62" y2="457.69" gradientTransform="matrix(1, 0, 0, -1, 0, 541.11)" xlink:href="#Безымянный_градиент_11"/><linearGradient id="Безымянный_градиент_4" x1="118.3" y1="293.61" x2="143.83" y2="293.61" gradientTransform="matrix(1, 0, 0, -1, 0, 541.11)" gradientUnits="userSpaceOnUse"><stop offset="0" stop-color="#ffa06a"/><stop offset="1" stop-color="#155fff"/></linearGradient><linearGradient id="Безымянный_градиент_5" x1="117.32" y1="263.41" x2="142.85" y2="263.41" gradientTransform="matrix(1, 0, 0, -1, 0, 541.11)" gradientUnits="userSpaceOnUse"><stop offset="0" stop-color="#ff2a9b"/><stop offset="1" stop-color="#155fff"/></linearGradient><linearGradient id="Безымянный_градиент_6" x1="141.06" y1="286.6" x2="167.1" y2="286.6" gradientTransform="matrix(1, 0, 0, -1, 0, 541.11)" gradientUnits="userSpaceOnUse"><stop offset="0" stop-color="#ff2a9b"/><stop offset="1" stop-color="#ffab15"/></linearGradient><linearGradient id="Безымянный_градиент_7" x1="138.44" y1="256.86" x2="176.8" y2="256.86" gradientTransform="matrix(1, 0, 0, -1, 0, 541.11)" gradientUnits="userSpaceOnUse"><stop offset="0" stop-color="#ff2a9b"/><stop offset="1" stop-color="#94000c"/></linearGradient><linearGradient id="Безымянный_градиент_8" x1="173.74" y1="270.8" x2="199.77" y2="270.8" gradientTransform="matrix(1, 0, 0, -1, 0, 541.11)" gradientUnits="userSpaceOnUse"><stop offset="0" stop-color="#40ff15"/><stop offset="1" stop-color="#155fff"/></linearGradient><linearGradient id="Безымянный_градиент_9" x1="102.09" y1="328.95" x2="130.58" y2="328.95" xlink:href="#Безымянный_градиент_8"/><linearGradient id="Безымянный_градиент_10" x1="152.68" y1="437.24" x2="152.68" y2="446.38" gradientTransform="matrix(1, 0, 0, -1, 0, 541.11)" gradientUnits="userSpaceOnUse"><stop offset="0" stop-color="#94002d"/><stop offset="0.12" stop-color="#880029"/><stop offset="0.34" stop-color="#6a0020"/><stop offset="0.62" stop-color="#380011"/><stop offset="0.9"/></linearGradient><linearGradient id="Безымянный_градиент_11-3" x1="30.72" y1="325.55" x2="44.75" y2="325.55" gradientTransform="matrix(1, 0, 0, -1, 0, 541.11)" xlink:href="#Безымянный_градиент_11"/><linearGradient id="Безымянный_градиент_12" x1="39.28" y1="337.37" x2="44.09" y2="337.37" gradientTransform="matrix(1, 0, 0, -1, 0, 541.11)" xlink:href="#Безымянный_градиент_11"/><linearGradient id="Безымянный_градиент_13" x1="31.97" y1="337.32" x2="36.98" y2="337.32" gradientTransform="matrix(1, 0, 0, -1, 0, 541.11)" xlink:href="#Безымянный_градиент_11"/><linearGradient id="Безымянный_градиент_14" x1="26.77" y1="334.18" x2="32.41" y2="334.18" gradientTransform="matrix(1, 0, 0, -1, 0, 541.11)" xlink:href="#Безымянный_градиент_11"/><linearGradient id="Безымянный_градиент_15" x1="24.53" y1="328.47" x2="30.15" y2="328.47" gradientTransform="matrix(1, 0, 0, -1, 0, 541.11)" xlink:href="#Безымянный_градиент_11"/><linearGradient id="Безымянный_градиент_16" x1="811.43" y1="654.9" x2="825.46" y2="654.9" gradientTransform="matrix(0.4, 0.92, 0.92, -0.4, -654.78, -265.25)" xlink:href="#Безымянный_градиент_11"/><linearGradient id="Безымянный_градиент_17" x1="819.99" y1="666.77" x2="824.8" y2="666.77" gradientTransform="matrix(0.4, 0.92, 0.92, -0.4, -654.78, -265.25)" xlink:href="#Безымянный_градиент_11"/><linearGradient id="Безымянный_градиент_18" x1="812.67" y1="666.71" x2="817.69" y2="666.71" gradientTransform="matrix(0.4, 0.92, 0.92, -0.4, -654.78, -265.25)" xlink:href="#Безымянный_градиент_11"/><linearGradient id="Безымянный_градиент_19" x1="807.47" y1="663.61" x2="813.11" y2="663.61" gradientTransform="matrix(0.4, 0.92, 0.92, -0.4, -654.78, -265.25)" xlink:href="#Безымянный_градиент_11"/><linearGradient id="Безымянный_градиент_20" x1="805.23" y1="657.83" x2="810.85" y2="657.83" gradientTransform="matrix(0.4, 0.92, 0.92, -0.4, -654.78, -265.25)" xlink:href="#Безымянный_градиент_11"/></defs><title>bleack_cat</title><path class="cls-1" d="M163.58,35.84s-13.8-2-22-1.1-12,3.1-12,3.1-19.4-23.1-23.8-26.9-9.1-7.8-15-6.6-8.6,8.1-11.4,20.6-5.1,31.3-4.8,38.3.6,19.4.6,19.4-5.4,3.8-4.8,4.1,3,.6,2.8,1.5-4.6,8.8-4.6,9.9.5,1.9-1.5,4.5-3.8,3.9-3.3,4,3.9-.6,3.6,0-2.5,1.8-.8,1.6,1.9-1.1,1.8-.1-9,13-8.3,13,2.9-1.4,2.3,0-1.8,2.5-.6,2.3,2.4-1.1,2.3-.5,0,5.1,0,5.1.1,12.8-.1,19.5-1.6,16.1-4.8,22-10.4,11.6-12.3,16.6a23.56,23.56,0,0,0-1.3,10S36,184.62,34,194.68c0,0-3.65-3.69-7.94-1.44a4.92,4.92,0,0,0-2.49,6.54s-8.26-4-6,10c2.24,13.6,12,25.32,15.4,32.82s13.8,21.1,22,24.8,11.9,3.1,15.3,1,10-6.9,10-6.9,12.1,7.1,16.4,7.4,21-3.8,28.1-3.9a92,92,0,0,0,17-1.8c3-.7,25.9,4,33,3.8s10.4-4.4,15.5-5.3,10.1,3.8,16.6,4.3,14.8-.4,15.5-.9,12.7,8.8,17.6,9.1,18.3.1,24.8-7.2,23.7-32.42,26.45-38.61c1.49-3.35,5.75-13.79,3.25-16.39s-4.46-.43-4.42-.94c1-11.42-6.5-5.09-6.5-5.09-1.75-9.41-8.44-3-8.44-3s-1-15.37-4-23.57-16.8-22.3-20.3-29-8.6-28.2-10.3-31.3-.8-3.8-.8-3.8l5.7,2.3s-2.3-1.8-3.2-2.7,1.3-.4.1-1.5-3.8-.6-1.6-1.6a33.85,33.85,0,0,0,3.3-1.6c.3-.2-2.8-.8-3.3-.9s-2.8-.7-5.3-5.8-2.6-10.8-3.3-12.8-3.3-14.3-4.4-16.6,3-2.6,2.6-2.8-3.6-.8-3.8-1.8-1.8-26.3-1.3-32-2.7-28-5.3-32.9-7.8-4.3-13.3-1.9-18.5,14.3-24.9,18S168.28,32,166.88,34s-1.8,2.5-1.8,2.5Z"/><g class="cls-2"><image class="cls-3" width="109" height="109" transform="translate(60.58 27.44)" xlink:href="../../../Dropbox/ВЕКТОР/B29B76C6.png"/></g><circle class="cls-4" cx="115.18" cy="82.04" r="17.1"/><circle class="cls-5" cx="114.68" cy="82.64" r="13"/><circle class="cls-6" cx="107.98" cy="74.84" r="4.2"/><g class="cls-2"><image class="cls-3" width="109" height="109" transform="translate(134.58 27.44)" xlink:href="../../../Dropbox/ВЕКТОР/B29B76C5.png"/></g><circle class="cls-4" cx="189.08" cy="82.04" r="17.1"/><circle class="cls-7" cx="188.48" cy="82.64" r="13"/><circle class="cls-6" cx="181.88" cy="74.84" r="4.2"/><path class="cls-8" d="M115.78,41.74c-.5-1.6-13-25.1-17.2-28.5-4.3-3.6-9.7-4.8-12.7,3.4s-6,38.6-4.9,42.5,18.6-.6,21.3-2.6-4.4-2.1-4-3.4,8.7-1.1,3.3-2.3-10.4-3-5.2-3.6,5.8.4,4-1.6-3-3.8-.1-3.3,3.1,0,2.6-1.6-1.7-4.6.8-2.3,3.2-1.4,4.2-.8,1.4,1.8,2,2.6,2-1.4,3.6.1,1.6.9,1.6.9Z"/><path class="cls-9" d="M204.48,10c-5.8,5-22.5,30.6-21.5,31.3s14.1-8.6,13.1-6.6-5.5,4.9-1.3,3.8,5.9-2,4.5-.1-2.1,2.4.9,1.6,6.3-2.6,7-1.1-6.6,4.9-6.9,6.1,5.4,1.3,3.6,2.1-3.5,1.4-4.1,2.5,3.1,2.6,3.1,3-1.9,1.1,6.4,3.5,8.8,1.8,9.8-6.3,1.9-20.6-1-31c-1.6-5.7-3.2-10.6-5.8-11.9C210.08,5.84,207.08,7.74,204.48,10Z"/><image class="cls-3" width="86" height="80" transform="translate(108.58 47.44)" xlink:href="../../../Dropbox/ВЕКТОР/D0782AF9.png"/><path class="cls-10" d="M157.58,85.74a8.85,8.85,0,0,0-6.4-2.3c-3.1,0-6.5,2.3-5.8,3.8s1.5.2,3,.5,1.7,3.3,3.6,3.1,1-3.4,2.3-3.5,2.6,1.1,3.2.3A1.3,1.3,0,0,0,157.58,85.74Z"/><path class="cls-11" d="M217.48,251c-1.5-11.4-5.6-33.9-27-44.7-8.5-4.3-12.5-12.7-6.4-19.2,3.4-3.6,4.9-2,10.8-2.3s11.3-2.5,13.4-8.6,3.6-11.8-3.5-19.9-16.2-14.6-34.2-17.6-37.8,4.9-49,12-26.4,28.8-31.1,45.7c-5.4,19.3-5.5,40.2-1.8,60s9.6,37.5,25.8,50.3,33.3,17.4,52.4,11.3,34.8-20.5,41.8-31.4S219,262.34,217.48,251Zm-37.9-16.9c-3.5.8-7.2-2.4-8.4-7.2s.8-9.4,4.3-10.2,7.2,2.4,8.4,7.2S183.08,233.34,179.58,234.14Z"/><g class="cls-12"><path class="cls-13" d="M138.78,234.74s-5.3-1.3-7.1,2.7-2.2,4.2-5.2,4.9-4.8,1.5-5.2,3.7,2.7,2.5,2.4,4.9-8.3,3.7-2.3,5.4,9.4-2.8,10.1-.6-4.9,5.6,0,4.5,2.3-8.3,6.2-10,4.5-2.4,4.1-4.5.1-2.4,1.3-3.9.3-3.1.6-4.2,2.7-2.5-.8-2.5C139.58,235.14,138.78,234.74,138.78,234.74Z"/><path class="cls-13" d="M137.88,264.94s-5.3-1.3-7.1,2.7-2.2,4.2-5.2,4.9-4.8,1.5-5.2,3.7,2.7,2.5,2.4,4.9-8.3,3.7-2.3,5.4,9.4-2.8,10.1-.6-4.9,5.6,0,4.5,2.3-8.3,6.2-10,4.5-2.4,4.1-4.5.1-2.4,1.3-3.9.3-3.1.6-4.2,2.7-2.5-.8-2.5S137.88,264.94,137.88,264.94Z"/><path class="cls-13" d="M167.88,261s1.1-5.3-2.8-7-4.2-2.1-5-5.1-1.6-4.7-3.8-5.1-2.4,2.7-4.9,2.5-3.8-8.3-5.5-2.2,3,9.4.8,10.1-5.7-4.8-4.5.1,8.4,2.1,10.1,6,2.5,4.5,4.6,4,2.4,0,3.9,1.3,3.1.3,4.2.5,2.6,2.6,2.5-.8C167.48,261.74,167.88,261,167.88,261Z"/><path class="cls-13" d="M177.58,294s1.7-7.8-4.1-10.4-6.2-3.1-7.4-7.5-2.3-7-5.6-7.5-3.6,4-7.2,3.7-5.6-12.2-8-3.3,4.4,13.8,1.2,14.8-8.4-7.1-6.6.1,12.3,3.1,14.9,8.8,3.7,6.6,6.7,5.9,3.6.1,5.8,1.9,4.6.4,6.2.7,3.8,3.9,3.7-1.2C177,295.14,177.58,294,177.58,294Z"/><path class="cls-13" d="M200.58,276.84s1.1-5.3-2.8-7-4.2-2.1-5-5.1-1.6-4.7-3.8-5.1-2.4,2.7-4.9,2.5-3.8-8.3-5.5-2.2,3,9.4.8,10.1-5.7-4.8-4.5.1,8.4,2.1,10.1,6,2.5,4.5,4.6,4,2.4,0,3.9,1.3,3.1.3,4.2.5,2.6,2.6,2.5-.8C200.18,277.54,200.58,276.84,200.58,276.84Z"/></g><path class="cls-14" d="M137.88,234.74s-5.3-1.3-7.1,2.7-2.2,4.2-5.2,4.9-4.8,1.5-5.2,3.7,2.7,2.5,2.4,4.9-8.3,3.7-2.3,5.4,9.4-2.8,10.1-.6-4.9,5.6,0,4.5,2.3-8.3,6.2-10,4.5-2.4,4.1-4.5.1-2.4,1.3-3.9.3-3.1.6-4.2,2.7-2.5-.8-2.5S137.88,234.74,137.88,234.74Z"/><path class="cls-15" d="M136.88,264.94s-5.3-1.3-7.1,2.7-2.2,4.2-5.2,4.9-4.8,1.5-5.2,3.7,2.7,2.5,2.4,4.9-8.3,3.7-2.3,5.4,9.4-2.8,10.1-.6-4.9,5.6,0,4.5,2.3-8.3,6.2-10,4.5-2.4,4.1-4.5.1-2.4,1.3-3.9.3-3.1.6-4.2,2.7-2.5-.8-2.5S136.88,264.94,136.88,264.94Z"/><path class="cls-16" d="M167,261s1.1-5.3-2.8-7-4.2-2.1-5-5.1-1.6-4.7-3.8-5.1-2.4,2.7-4.9,2.5-3.8-8.3-5.5-2.2,3,9.4.8,10.1-5.7-4.8-4.5.1,8.4,2.1,10.1,6,2.5,4.5,4.6,4,2.4,0,3.9,1.3,3.1.3,4.2.5,2.6,2.6,2.5-.8C166.58,261.74,167,261,167,261Z"/><path class="cls-17" d="M176.58,294s1.7-7.8-4.1-10.4-6.2-3.1-7.4-7.5-2.3-7-5.6-7.5-3.6,4-7.2,3.7-5.6-12.2-8-3.3,4.4,13.8,1.2,14.8-8.4-7.1-6.6.1,12.3,3.1,14.9,8.8,3.7,6.6,6.7,5.9,3.6.1,5.8,1.9,4.6.4,6.2.7,3.8,3.9,3.7-1.2C176,295.14,176.58,294,176.58,294Z"/><path class="cls-18" d="M199.58,276.84s1.1-5.3-2.8-7-4.2-2.1-5-5.1-1.6-4.7-3.8-5.1-2.4,2.7-4.9,2.5-3.8-8.3-5.5-2.2,3,9.4.8,10.1-5.7-4.8-4.5.1,8.4,2.1,10.1,6,2.5,4.5,4.6,4,2.4,0,3.9,1.3,3.1.3,4.2.5,2.6,2.6,2.5-.8C199.18,277.54,199.58,276.84,199.58,276.84Z"/><path class="cls-19" d="M114.78,209.84s-9.3-.8-7,3.8,3.5,5,.3,8.5-3.5,5.2-3.3,8.2-1.3,2.7-.5,7.2-.8,5.2,2.5,5.7,4.2-1.2,6.7-4.8,1.3-5,5-7.7,4.3-2.3,6-7,1.3-5.8,3.3-7.1,2.3-2.7,3.2-5.2,2.3-4.5,1.1-6.5-2.1-3-2.2-5.8-4.2-3.2-3.7-7.3,4-4.3.2-6-4.9-2.7-7-3.3-3.1-2.8-5-.5-2.2,2.2-3.2,5.2-2.5,1-3.2,4.7,2.8,2.5,2.8,5-1.8,2.3,0,3.8a6.52,6.52,0,0,1,2.7,5A10.44,10.44,0,0,0,114.78,209.84Z"/><path class="cls-20" d="M112.88,209.84s-9.3-.8-7,3.8,3.5,5,.3,8.5-3.5,5.2-3.3,8.2-1.3,2.7-.5,7.2-.8,5.2,2.5,5.7,4.2-1.2,6.7-4.8,1.3-5,5-7.7,4.3-2.3,6-7,1.3-5.8,3.3-7.1,2.3-2.7,3.2-5.2,2.3-4.5,1.1-6.5-2.1-3-2.2-5.8-4.2-3.2-3.7-7.3,4-4.3.2-6-4.9-2.7-7-3.3-3.1-2.8-5-.5-2.2,2.2-3.2,5.2-2.5,1-3.2,4.7,2.8,2.5,2.8,5-1.8,2.3,0,3.8a6.52,6.52,0,0,1,2.7,5A10.44,10.44,0,0,0,112.88,209.84Z"/><path class="cls-13" d="M196.08,209.74s-4.1-2.6-4.5-2.8c-3.6-1.7-7-3.6-9.9-9.1-3.7-7.1,2.2-12.2,5.2-13.2,3.8-1.3,8.8.9,14.5-1.5s7.6-8.2,8.2-11.9a18,18,0,0,0,.4-3.8,26.48,26.48,0,0,1,0,7.2c-.6,2.8-1.7,6.7-4.8,9.1-2.2,1.7-6.4,2.5-10.3,2.2s-6.2.1-8.9,1.6-5.1,4.6-4.1,8.2,4.6,7.8,6.7,8.8A35.93,35.93,0,0,1,196.08,209.74Z"/><path class="cls-21" d="M141.78,102c4.2-1.1,9.1-5.8,9.7-6.7s1.3-.8,2.1.3,4.2,5.1,7.5,6.1,4.4,1.5,4,2.1c-.2.3-7.8-.8-11.1-2.4a4.94,4.94,0,0,0-4.3-.1,36.34,36.34,0,0,1-7.9,2C139.08,103.54,140.38,102.34,141.78,102Z"/><path class="cls-22" d="M98.26,104.12c-.2-.05-20.87-5-55.72-8.08S0,93.15,0,93.15C.3,93.09,7.66,92,42.63,95S98.26,104.12,98.26,104.12Z"/><path class="cls-22" d="M92.48,107.23c-.15,0-14.54-3.08-38.19-2.89-23.38.1-28.8,1-28.8,1,.2-.08,5.07-1.94,28.79-2S92.48,107.23,92.48,107.23Z"/><path class="cls-22" d="M94.56,97.39c-.11-.06-11.48-5.63-31-9.86s-24-4.28-24-4.28c.17,0,4.53-1,24.22,3.3S94.56,97.39,94.56,97.39Z"/><path class="cls-22" d="M201.7,104.42s20.7-6,55.64-9.08,42.33-2,42.62-1.89c0,0-7.82-.16-42.53,2.89S201.91,104.37,201.7,104.42Z"/><path class="cls-22" d="M207.39,107.53s14.4-4.08,38.2-3.89,28.58,2,28.78,2c0,0-5.42-.94-28.79-1C221.88,104.44,207.53,107.5,207.39,107.53Z"/><path class="cls-22" d="M205.3,97.79S216.44,91.22,236.08,87s24-3.34,24.22-3.3c0,0-4.73.09-24,4.28C216.77,92.17,205.42,97.73,205.3,97.79Z"/><path class="cls-1" d="M174.91,34.6s18-20.8,19.7-21.5,3.3,2.4,3.3,2.4l-12.5,22.4s2.3-1.9,3.5-2.1a2.24,2.24,0,0,1,1.9.7c.1,0,1.4-3.1,2.7-3.7s1.3,3.1,1.5,2.8,5.6-4.1,6.4-3.6-1.8,3.3-1.7,3.3,7.7-2.9,8.3-1.8-4.3,5.1-4.3,5.1,3.1-1,3.4,0-2.9,3.7-2.9,3.7,3.6.4,3.9,1.3-.9,1.9-3.5,2.6-6,1.3-6,1.5,4.1.7,4.7,1.3-1.7,1.3-3.6,2c-3.7,1.3,2.7,3.4,13.3,6.2,1.7.5-3.6,6.9-3.6,7,.1,1.1-25.6-10.3-25.9-10.5C169.81,48.3,174.91,34.6,174.91,34.6Z"/><path class="cls-23" d="M34.88,210.14s-2.6-.1-3.4,3.6-1.6,6,.8,7.3a3.53,3.53,0,0,0,5.1-1.6c.8-1.6.9-2.1,2.8-2.1s3.9-.1,4.4-2.9-.1-4.1-3.6-4.7A12.57,12.57,0,0,0,34.88,210.14Z"/><ellipse class="cls-24" cx="41.68" cy="203.74" rx="2.4" ry="2.9"/><path class="cls-25" d="M36.68,202.94c.6,1.7.2,3.4-1.1,3.9s-2.7-.5-3.4-2.2-.2-3.4,1.1-3.9S36.08,201.24,36.68,202.94Z"/><path class="cls-26" d="M31.38,205.34c1.2,1.3,1.4,3.1.4,4s-2.7.5-4-.8-1.4-3.1-.4-4S30.08,203.94,31.38,205.34Z"/><path class="cls-27" d="M28.28,210.44a2.68,2.68,0,0,1,1.8,3.3,2.71,2.71,0,0,1-3.6,1.1,2.68,2.68,0,0,1-1.8-3.3A2.71,2.71,0,0,1,28.28,210.44Z"/><path class="cls-28" d="M275.38,220.84s-.9-2.4-4.6-1.7-6.2.9-6.4,3.7a3.45,3.45,0,0,0,3.4,4c1.7.1,2.3,0,3,1.7s1.6,3.6,4.4,2.9,3.7-1.7,2.8-5.2A12.35,12.35,0,0,0,275.38,220.84Z"/><path class="cls-29" d="M284.88,226.74c-1.5.6-3.1.2-3.6-1.1a2.76,2.76,0,0,1,1.7-3.4,2.55,2.55,0,0,1,3.6,1.1A2.77,2.77,0,0,1,284.88,226.74Z"/><path class="cls-30" d="M282.68,219.64c-1.3,1.3-3.1,1.5-4,.6s-.6-2.7.7-4,3.1-1.5,4-.6S284,218.34,282.68,219.64Z"/><path class="cls-31" d="M278.38,215.64c-.7,1.7-2.3,2.5-3.5,2s-1.6-2.3-.8-4,2.3-2.5,3.5-2S279.18,214,278.38,215.64Z"/><path class="cls-32" d="M272.38,214.84c0,1.6-1,2.9-2.3,2.9a2.61,2.61,0,0,1-2.4-2.8c0-1.6,1-2.9,2.3-2.9A2.61,2.61,0,0,1,272.38,214.84Z"/><path class="cls-1" d="M101.58,131.34s4.2,4.7,10.6,11.7,19.8,2.2,26.2,13.6,7.7,24,3.6,29.7c-6.46,9.09-10.92,2.25-10.92,2.25-3.66,5.71-12.8-.66-10.91-4.54-2.77,5.24-11.77,1.29-11.87-3.21s-2.6-4.8-10-9.8-17.4-4.7-21.1-6.7a27.56,27.56,0,0,1-5.3-3.5"/><path class="cls-1" d="M219.08,131.34s-21.2,9.8-37.2,12.1-22.5,19.8-20.8,24,10,3,10,3-3.3,1.8,3,6,9.8,1.8,12,0,.1,2.1,7.7,4.4,14.3-.4,24.1-7.2a55.29,55.29,0,0,1,20.3-8.5"/><path class="cls-1" d="M126.68,38.34s-18-20.8-19.7-21.5-3.3,2.4-3.3,2.4l12.5,22.4s-2.3-1.9-3.5-2.1a2.24,2.24,0,0,0-1.9.7c-.1,0-1.4-3.1-2.7-3.7s-1.3,3.1-1.5,2.8-5.6-4.1-6.4-3.6,1.8,3.3,1.7,3.3-7.7-2.9-8.3-1.8,4.3,5.1,4.3,5.1-3.1-1-3.4,0,2.9,3.7,2.9,3.7-3.6.4-3.9,1.3.9,1.9,3.5,2.6,6,1.3,6,1.5-4.1.7-4.7,1.3,1.7,1.3,3.6,2c3.7,1.3-1.8,2.8-12.5,5.6-1.7.5,1.7,5.3,1.7,5.4-.1,1.1,26.5-8.1,26.8-8.3C131.88,52,126.68,38.34,126.68,38.34Z"/><path class="cls-22" d="M163.27,49.43s1-10.91,6.64-27.65,7.77-20,7.86-20.12-1.34,3.91-6.91,20.44A216.92,216.92,0,0,0,163.27,49.43Z"/><path class="cls-22" d="M164.89,47.24a104.41,104.41,0,0,1,6.43-18.4c4.89-11.07,7.51-12.24,7.51-12.24s-1.86,1.91-6.59,12.64C167.42,40.16,164.89,47.24,164.89,47.24Z"/><path class="cls-22" d="M161.59,29.84c2-9.84,3.35-11.73,3.51-11.92,0,0-.61,2.53-2.53,12.12a75.45,75.45,0,0,0-1.69,16.28S159.6,39.79,161.59,29.84Z"/><path class="cls-22" d="M133.89,48.63a217.18,217.18,0,0,0-7.58-27.33C120.73,4.77,119.4.86,119.4.86s2.2,3.35,7.86,20.12S133.89,48.63,133.89,48.63Z"/><path class="cls-22" d="M124.92,28.44c-4.73-10.73-6.51-12.57-6.59-12.64S121,17,125.84,28a103.39,103.39,0,0,1,6.43,18.4S129.74,39.36,124.92,28.44Z"/><path class="cls-22" d="M136.18,45.52a74.66,74.66,0,0,0-1.69-16.28C132.57,19.65,132,17.12,132,17.12c.15.18,1.53,2.08,3.5,11.92S136.18,45.52,136.18,45.52Z"/><path class="cls-1" d="M266.4,241.87s51.33,4.87,66.33,15.8,18.33,24.26,14.33,38.59a29.31,29.31,0,0,1-15.66,19l2.33-6s-8,1.34-25,6c-11.55,3.17-17.56,4-20.22,4.26a14.25,14.25,0,0,1-1.78.08s-14,7-38.67,11-36.79,4.33-48.56,4.33H158.66l9.37-5s-8.1-.67-9.37-.67-32-2.33-19.15-18.33,47.17-16.33,47.17-16.33v-2.34l20.71-1.6-2.09-2.26,35.58-1.47-6.48-4h33.28s-10-3.82,0-5.25,27.72-1.1,35.72-4.77-7-5.23-21-5.78-31.57-1.41-31.57-1.41Z"/></svg>