<svg id="Слой_1" data-name="Слой 1" xmlns="http://www.w3.org/2000/svg" xmlns:xlink="http://www.w3.org/1999/xlink" viewBox="0 0 558.16 381.29"><defs><style>.cls-1{fill:#4e4e4e;}.cls-2{fill:#bfd9f2;}.cls-3{fill:#484848;}.cls-4{fill:#656565;}.cls-5{fill:#424242;}.cls-6{fill:#a9a9a9;}.cls-7{fill:#4c2b08;}.cls-8,.cls-9{fill:#150500;}.cls-8{opacity:0.44;}.cls-10{fill:#00947d;}.cls-11{opacity:0.56;}.cls-12{isolation:isolate;}.cls-13{fill:#cbd1d1;}.cls-14{fill:url(#Безымянный_градиент);}.cls-15{fill:#fff;}.cls-16{fill:url(#Безымянный_градиент-2);}.cls-17{fill:url(#Безымянный_градиент_11);}.cls-18{fill:url(#Безымянный_градиент_11-2);}.cls-19{fill:url(#Безымянный_градиент_11-3);}.cls-20{fill:url(#Безымянный_градиент_10);}.cls-21{fill:#ebcbce;}</style><linearGradient id="Безымянный_градиент" x1="203.39" y1="-464" x2="225.9" y2="-464" gradientTransform="matrix(1, 0, 0, -1, 0, -388.39)" gradientUnits="userSpaceOnUse"><stop offset="0" stop-color="#553400"/><stop offset="0.11" stop-color="#543505"/><stop offset="0.23" stop-color="#503713"/><stop offset="0.36" stop-color="#4a3b2a"/><stop offset="0.5" stop-color="#42414b"/><stop offset="0.64" stop-color="#374876"/><stop offset="0.79" stop-color="#2b51a9"/><stop offset="0.94" stop-color="#1b5be5"/><stop offset="1" stop-color="#155fff"/></linearGradient><linearGradient id="Безымянный_градиент-2" x1="267.2" y1="-464" x2="289.71" y2="-464" xlink:href="#Безымянный_градиент"/><linearGradient id="Безымянный_градиент_11" x1="185.37" y1="34.96" x2="215.63" y2="34.96" gradientUnits="userSpaceOnUse"><stop offset="0" stop-color="#ff94a0"/><stop offset="0.13" stop-color="#f78896"/><stop offset="0.37" stop-color="#e06a7a"/><stop offset="0.69" stop-color="#bd384f"/><stop offset="1" stop-color="#94001d"/></linearGradient><linearGradient id="Безымянный_градиент_11-2" x1="273.64" y1="31.86" x2="305.69" y2="31.86" xlink:href="#Безымянный_градиент_11"/><linearGradient id="Безымянный_градиент_11-3" x1="246.59" y1="-471.02" x2="246.59" y2="-464.67" gradientTransform="matrix(1, 0, 0, -1, 0, -388.39)" xlink:href="#Безымянный_градиент_11"/><linearGradient id="Безымянный_градиент_10" x1="247.51" y1="-482.34" x2="247.51" y2="-474.44" gradientTransform="matrix(1, 0, 0, -1, 0, -388.39)" gradientUnits="userSpaceOnUse"><stop offset="0" stop-color="#94002d"/><stop offset="0.12" stop-color="#880029"/><stop offset="0.34" stop-color="#6a0020"/><stop offset="0.62" stop-color="#380011"/><stop offset="0.9"/></linearGradient></defs><title>brown_cat</title><path class="cls-1" d="M546.22,23.84l-276.15.62a7.54,7.54,0,0,0-6.15,4.64C262.22,33.43,247,208.4,247,208.4s0,2.94,1.87,4.48S511.59,269,511.59,269s3.41,1.55,6.31,0,4.44-4.49,5.63-9.44S558.5,35.91,558.16,33s-2.56-6.5-4.95-7.43A47.4,47.4,0,0,0,546.22,23.84Z"/><path class="cls-2" d="M546.47,32.43s-272.87-2-275.42-1.86-2.95,2.2-3.33,4.53S251.6,207.39,251.6,207.74s-.38,2.44,2.56,3.25,255.72,54.07,256.11,54.07,2.94.69,4.48-3.37S548.9,36.37,548.9,35.44C548.9,32.46,546.47,32.43,546.47,32.43Z"/><path class="cls-3" d="M83,264.94l-17.49-1.16-5.8,2.86.59,7.74S348.7,380.27,349,380.27s3.41,1.39,10.24.93,9.21-1.94,12.19-3.95,145.07-96.69,145.07-96.69v-8.89s0-1.14-2-2S502,268.5,502,268.5Z"/><path class="cls-4" d="M62.53,270.28l284,100.09s10.23,6.5,26.78-3.87,141.4-90.65,142.25-92.2,1.33-4.16-6.46-5.79-260.14-55.63-260.14-55.63-2.38-1.08-10.91,1.4S70.5,261.92,65.55,263.78s-5,2.77-5.17,3.63C60,269.23,62.53,270.28,62.53,270.28Z"/><path class="cls-5" d="M232.54,219.2l-99.29,28.5s-1.19.69-.07,1c22.93,7.14,269.83,84,271.29,84.17s7.93,1.16,11.52-1.39,79.82-49,80.59-50.12-1.15-2.32-4.6-3S237.21,219.31,235.67,219.2A23.59,23.59,0,0,0,232.54,219.2Z"/><path class="cls-6" d="M203.12,279.47l-33.84,12.94s-1.92,1.39,0,2.49S226,314.57,226,314.57s6.59,1.39,11.45-1.28S269.57,299.2,269.89,299s1.73-2-2.23-3.31-54.56-17.23-56-17.41a11.46,11.46,0,0,0-5.25.29A19,19,0,0,0,203.12,279.47Z"/><path d="M414.2,145.87l0-.18,0-.19,0-.19,0-.18,0-.19c0-.1,0-.1-.1-.2s0-.1-.1-.21-.11-.11-.1-.2,0-.09-.11-.11L390.27,109.6h0c0-.09-.1-.09-.09-.18l-.1-.09-.2-.19-.09-.09c-.11,0-.1-.1-.21-.1l-.1-.1h0c-.11,0-.11,0-.21-.09h-.11l-.33,0h-.43c-.11,0-.22,0-.23.08h-.11s-.11,0-.12.09a.43.43,0,0,0-.23.07l-.11.08-.24.17h0c-.12.08-.12.08-.13.17l-.12.08h0l-27.58,28.12a.09.09,0,0,1-.11.08c0,.08-.1.07-.11.15s0,.08-.12.15,0,.08-.11.16l0,.16,0,.17,0,.16,0,.17,0,.16c0,.08,0,.08.08.18s.08.09.07.18,0,.08.09.09l7,13-.36,3.12c-2.09-.25-3.92.9-4.14,2.74l-.55,4.76c-.22,1.84,1.37,3.68,3.54,4.1l35.48,6.79c2.58.49,4.9-.77,5.14-2.8l.62-5.27c.22-2-1.6-3.94-4.06-4.44l.39-3.38,11.86-11.7s0-.09.13-.07.14-.08.15-.18C414.18,146.06,414.19,146,414.2,145.87ZM369.79,156.1l.22-1.88,27.26,4.33-.23,2Zm28.83-1-29.12-4.38L363.09,139l22.58-22.8-1.43,12.23c-3.61.45-6.43,2.79-6.78,5.8-.43,3.62,2.89,7.1,7.39,7.66s8.84-2.07,9.28-5.83c.38-3.22-2-6.07-5.56-7.22L390,116.51l19,28.24ZM386,131.9c2.17.23,3.86,1.92,3.66,3.7s-2.25,3.05-4.42,2.8-3.8-1.94-3.59-3.68S383.86,131.68,386,131.9Zm14.38,38.23-35.48-6.49.56-4.81,1.9.33h0l31.54,5.4.11,0,2,.34-.61,5.21Zm-.21,1.83.21-1.83h0Z"/><path d="M449.24,89.18l-9.47-.05c-1.48,0-2.79.86-2.91,1.92l-.17,1.46-38.78-.46.26-2.23c.12-1-.8-1.79-2-1.79l-9.86,0a2.25,2.25,0,0,0-2.34,1.72l-.25,2.16-31.15-.37.14-1.21A1.51,1.51,0,0,0,351,88.69l-6.18,0a1.91,1.91,0,0,0-1.93,1.56l-.64,5.41a1.51,1.51,0,0,0,1.57,1.61l6.16.16a1.93,1.93,0,0,0,2-1.56l.14-1.2,18.15.35a49.92,49.92,0,0,0-16.9,9.47,6.22,6.22,0,0,0-4-1.62c-3.32-.13-6.33,2.12-6.68,5.11s2,5.53,5.41,5.76,6.51-2,6.87-5.1a3.58,3.58,0,0,0,0-1c7.33-6.59,17.11-10.83,28.33-11.95l-.2,1.73a1.77,1.77,0,0,0,1.92,1.79l9.84.28a2.31,2.31,0,0,0,2.46-1.72l.21-1.79c12.13,1.72,23.14,7.07,31,15.41a3.58,3.58,0,0,0-.27,1.14c-.41,3.54,3.15,6.76,8.18,7.1s9.63-2.36,10.07-6.13-3.36-6.91-8.52-7.12a11.72,11.72,0,0,0-6.3,1.49,55.18,55.18,0,0,0-19.28-12l24.08.47-.17,1.45c-.13,1.07,1,2,2.45,2l9.46.25c1.54,0,2.91-.82,3-1.92l.81-6.89A2.72,2.72,0,0,0,449.24,89.18Zm-100.65,5-2.59,0,.26-2.29,2.59,0Zm-.09,16.26a2.23,2.23,0,0,1-2.26-2.37A2.53,2.53,0,0,1,349,106a2.17,2.17,0,0,1,2.28,2.37A2.59,2.59,0,0,1,348.5,110.43Zm88.8-.17c2,.09,3.64,1.35,3.46,2.92s-1.95,2.65-4.1,2.53-3.58-1.38-3.4-2.93S435.3,110.16,437.3,110.26ZM393,95.88l-5.47-.11.26-2.18h0l.25-2.18,5.48,0L393,95.88Zm52.68.09-4-.07.33-2.84,4,0Z"/><path class="cls-7" d="M304.62,129.42h23.66s13.49,14.71,33.34,20.66,59.45,2.58,75.39,10.46,26.27,22.21,22.61,33.21S446.38,210.08,446,205.42s-3.05,6.46-10.38,7.23-8.34-14.07-8.34-14.07a8.52,8.52,0,0,1-7.33,8.17c-7.33,1.33-14.37-5.67-17.35-14.33s-23-6.67-37.68-6.34-61.64,23.79-61.64,23.79Z"/><path class="cls-8" d="M316.71,130.52a2.73,2.73,0,0,1,5.43-.5,33.8,33.8,0,0,1,.48,8.41c-1,8-2.39,1.65-2.53,2.15s2.69,16.46,1.36,20c-.4,1.05-5.13-1.78-5.5-1.71-1.06.21-.65,5.73-.87,6.8A29.55,29.55,0,0,1,312,174c-1,2.07-1.4,2-2,2.35-.86.49-1.7,4-1.75,5-.18,3.87-.77,8.78-2.75,12.75-2.84,5.67-5.21,1.79-5.37,2.29S298,202.75,297,207.08s-4,9.5-4,8.84-2.33,2.83-4-4.67c-.61-2.75-1.06-5.63-1.39-8.18a2.72,2.72,0,0,0-3.66-2c-.49.14-1-.27-1.45-1.6-1.83-5.34-3.84-12.34-3.5-11.34s2.5,10.34-2.33,6.34-6.67-13-7.5-10.17-3.5,7.17-5,4.33-1.84-14.5-3-10.83-.84,9-3,4.5-3.67-8.1-4.17-8.22-4.22,6.55-6.44,2.05-3.73-5.41-5.06-4.12-3.67-8-3.67-8.75.06,3-2.05,1.27-.95-8.23-.95-8.23.34,4.67-3.91,2.58c-1.64-.8-2.52-3.41-3-6.33a2.72,2.72,0,0,1,3.92-2.85,1,1,0,0,0,.87.1c2.11-.83,3.78-1.5,5.11,1s-.16,1.83,1.34,5.5,4.5-1,5,2.58,1.66,1.72,4,5.65,5.83-1.56,6,1.27,6.8,2.26,7,5.29,7.68-1.46,7.68,2,4.38,2.84,5.78,6.67,9.22-.5,10.06,2.67,4.83,2.16,5.33,2.16,2.67-2.5,5-2.66,4.83-5.08,6.5-6.54,2-8.17,4.5-10.13-.58-10.67,3.25-12.5,2.25-5.83,2.92-8.33-.45-6.17,1.61-7.84,2.08-4.16,2-6Z"/><ellipse class="cls-9" cx="230.18" cy="48.1" rx="4.27" ry="3.07" transform="translate(-4.5 33.18) rotate(-8.17)"/><ellipse class="cls-9" cx="256.66" cy="48.1" rx="3.07" ry="4.27" transform="translate(142.22 282.82) rotate(-74.62)"/><path class="cls-10" d="M232,232.8l-17.83-4c-2.14-.47-1.12-1.6,2.22-2.51h0c3.3-.89,7.74-1.25,9.9-.8l18,3.79c2.35.49,1.54,1.69-1.84,2.66h0C239.08,232.94,234.34,233.31,232,232.8Z"/><path class="cls-10" d="M265.08,240.17l-20.39-4.55c-2.43-.54-1.58-1.8,1.85-2.79h0c3.4-1,8.15-1.36,10.61-.84l20.58,4.31c2.7.57,2.1,1.91-1.37,3h0C272.85,240.36,267.75,240.76,265.08,240.17Z"/><path class="cls-10" d="M302.49,248.5,279,243.27c-2.79-.62-2.15-2,1.36-3.12h0a27.16,27.16,0,0,1,11.41-.9l23.65,5c3.1.65,2.79,2.16-.76,3.35h0A27.1,27.1,0,0,1,302.49,248.5Z"/><path class="cls-10" d="M345.78,258.15l-27.32-6.09c-3.23-.72-2.88-2.31.71-3.53h0a27.82,27.82,0,0,1,12.32-.95l27.45,5.76c3.61.76,3.69,2.47.08,3.81h0A27.84,27.84,0,0,1,345.78,258.15Z"/><path class="cls-10" d="M398.81,270l-32.4-7.22c-3.81-.85-3.89-2.68-.24-4.05h0a28.26,28.26,0,0,1,13.46-1l32.43,6.81c4.3.9,4.92,2.88,1.3,4.41h0C409.69,270.44,403.11,270.93,398.81,270Z"/><path class="cls-10" d="M463.15,284.31l-39.1-8.72c-4.59-1-5.26-3.15-1.6-4.73h0c3.62-1.55,10.25-2,14.83-1.08l39,8.18c5.2,1.09,6.61,3.43,3,5.2h0C475.69,285,468.37,285.47,463.15,284.31Z"/><path class="cls-10" d="M211.4,238.74l-17.47-4.3c-2.09-.52-.9-1.71,2.6-2.66h0c3.47-.94,8-1.31,10.12-.82l17.71,4.1c2.31.54,1.33,1.81-2.23,2.83h0C218.53,238.92,213.68,239.31,211.4,238.74Z"/><path class="cls-10" d="M243.89,246.75l-20-4.94c-2.39-.59-1.34-1.93,2.26-3h0c3.58-1,8.44-1.42,10.86-.86l20.28,4.69c2.66.62,1.88,2.05-1.79,3.18h0C251.74,247,246.52,247.4,243.89,246.75Z"/><path class="cls-10" d="M280.78,255.84l-23.17-5.71c-2.75-.68-1.92-2.18,1.8-3.34h0c3.68-1.14,8.91-1.55,11.69-.91l23.39,5.42c3.07.71,2.57,2.32-1.19,3.59h0C289.5,256.16,283.84,256.6,280.78,255.84Z"/><path class="cls-10" d="M323.67,266.41l-27.09-6.67c-3.2-.79-2.64-2.5,1.16-3.79h0c3.78-1.28,9.44-1.71,12.67-1l27.26,6.31c3.6.84,3.47,2.68-.37,4.11h0C333.42,266.84,327.26,267.3,323.67,266.41Z"/><path class="cls-10" d="M376.49,279.43l-32.31-8c-3.8-.94-3.65-2.91.23-4.38h0a28.18,28.18,0,0,1,13.86-1l32.39,7.5c4.3,1,4.73,3.14.85,4.78h0A28.11,28.11,0,0,1,376.49,279.43Z"/><path class="cls-10" d="M441,295.33l-39.26-9.68c-4.59-1.13-5-3.44-1.12-5.14h0c3.88-1.67,10.73-2.16,15.32-1.1l39.2,9.07c5.23,1.22,6.46,3.77,2.6,5.68h0C453.83,296.09,446.24,296.62,441,295.33Z"/><path class="cls-10" d="M190,245.09l-17.07-4.67c-2-.56-.66-1.83,3-2.83h0c3.64-1,8.28-1.36,10.35-.83l17.35,4.45c2.27.58,1.1,1.94-2.66,3h0C197.2,245.31,192.23,245.7,190,245.09Z"/><path class="cls-10" d="M221.84,253.81l-19.66-5.39c-2.34-.64-1.1-2.06,2.71-3.17h0c3.77-1.09,8.75-1.48,11.12-.87L236,249.49c2.62.67,1.63,2.2-2.25,3.4h0C229.79,254.1,224.42,254.51,221.84,253.81Z"/><path class="cls-10" d="M258.15,263.75l-22.83-6.25c-2.7-.74-1.65-2.35,2.28-3.58h0c3.89-1.21,9.27-1.63,12-.93l23.08,5.92c3.05.78,2.32,2.52-1.67,3.86h0C267,264.13,261.16,264.57,258.15,263.75Z"/><path class="cls-10" d="M300.57,275.36,273.75,268c-3.16-.87-2.38-2.71,1.67-4.08h0c4-1.36,9.84-1.8,13-1l27,6.94c3.58.92,3.23,2.91-.87,4.43h0C310.48,275.86,304.12,276.33,300.57,275.36Z"/><path class="cls-10" d="M353.11,289.75l-32.18-8.81c-3.78-1-3.39-3.17.76-4.74h0c4.11-1.56,10.5-2,14.3-1.05l32.33,8.28c4.3,1.11,4.49,3.45.33,5.21h0A28,28,0,0,1,353.11,289.75Z"/><path class="cls-10" d="M417.74,307.44l-39.4-10.79c-4.59-1.25-4.8-3.78-.58-5.6h0a28.62,28.62,0,0,1,15.86-1.13L433,300c5.28,1.35,6.29,4.15,2.12,6.22h0C430.91,308.35,423,308.89,417.74,307.44Z"/><path class="cls-10" d="M167.58,251.84,151,246.77c-2-.61-.4-2,3.47-3h0c3.83-1,8.58-1.41,10.6-.84L182,247.75c2.22.63.84,2.08-3.12,3.21h0C174.85,252.11,169.75,252.51,167.58,251.84Z"/><path class="cls-10" d="M198.66,261.35l-19.21-5.87c-2.28-.7-.81-2.23,3.2-3.39h0c4-1.16,9.09-1.56,11.42-.89l19.53,5.57c2.57.74,1.36,2.37-2.75,3.65h0C206.7,261.7,201.19,262.12,198.66,261.35Z"/><path class="cls-10" d="M234.28,272.24l-22.41-6.85c-2.66-.81-1.36-2.54,2.8-3.84h0c4.13-1.29,9.65-1.72,12.35-.95l22.73,6.49c3,.86,2,2.73-2.22,4.16h0C243.24,272.7,237.24,273.15,234.28,272.24Z"/><path class="cls-10" d="M276.1,285l-26.47-8.09c-3.12-1-2.07-2.94,2.24-4.41h0c4.26-1.45,10.27-1.9,13.43-1l26.76,7.64c3.55,1,2.94,3.17-1.44,4.81h0C286.19,285.63,279.61,286.11,276.1,285Z"/><path class="cls-10" d="M328.24,301l-32-9.78c-3.74-1.15-3.08-3.47,1.36-5.16h0c4.4-1.66,11-2.14,14.79-1.07l32.19,9.19c4.3,1.23,4.23,3.78-.25,5.68h0C339.81,301.77,332.51,302.28,328.24,301Z"/><path class="cls-10" d="M392.89,320.75l-39.48-12.08c-4.59-1.4-4.52-4.17,0-6.14h0a28.41,28.41,0,0,1,16.45-1.15l39.56,11.29c5.31,1.52,6.06,4.6,1.54,6.86h0C406.41,321.82,398.2,322.37,392.89,320.75Z"/><path class="cls-9" d="M437,160.54c-6.66-3.29-17.46-4.62-29.21-5.48-.45,0-18.35-.28-18.11,2.32S393.5,162,393.5,162s-9.3-2.5-14.8-.25,8.69,8.12,9.71,8.37h0c-.9-.17-11.06-1.78-9.21,5.63.95,3.81,4.73,7.39,8.44,10.09,7.44.51,13.43,2.15,15,6.58,3,8.66,10,15.66,17.35,14.33a8.52,8.52,0,0,0,7.33-8.17s1,14.84,8.34,14.07,10-11.9,10.38-7.23,9.95-.67,13.62-11.67S453,168.42,437,160.54Z"/><path class="cls-7" d="M286.62,196.42s4.2,24.84,11.33,28,34.71,14,42.51,17.33,13.82,9,13.82,18.33-12,7.06-12,7.06,1.7,2.51-1.82,9.06-12,4.55-14.44,3.22-3.4-6.5-3.4-6.5.88,6.23-7.89,7.86S298,281,296.28,276.2s-31.41-23.07-44.23-26.12-22.17-7.66-44.75-14.33c-21-6.21-30-16.6-30-16.6Z"/><path class="cls-7" d="M330.56,129.35c-2.43-6.07-7.43-24.36-8.9-27S321,99,321,99l4.92,2s-2-1.55-2.76-2.33,1.12-.34.08-1.29-3.28-.52-1.38-1.39a29.38,29.38,0,0,0,2.85-1.38c.26-.17-2.42-.69-2.85-.78s-2.42-.6-4.58-5-2.24-9.33-2.85-11-2.85-12.36-3.8-14.34,2.59-2.25,2.25-2.42-3.11-.69-3.29-1.56S308,36.75,308.44,31.82,306.11,7.64,303.86,3.4s-6.73-3.71-11.48-1.64-16,12.36-21.51,15.55-11.58,9.76-12.79,11.49S256.53,31,256.53,31l-1.3-.61s-11.92-1.72-19-1-10.37,2.68-10.37,2.68S209.1,12.13,205.3,8.85s-7.86-6.74-13-5.71-7.43,7-9.85,17.8S178.09,48,178.35,54s.52,16.76.52,16.76-4.66,3.28-4.14,3.54,2.59.52,2.41,1.3c-.13.61-2.49,4.92-3.51,7.22a177.91,177.91,0,0,0-48.55-.17c-9.23.28-19.1.86-26.2,2.07-17.49,3,1.07,3.35,1.07,3.35s-24.18,2.7-25.69,6.34c-.75,1.81,1.29,2.35,3.44,2.5a113.62,113.62,0,0,0-14.11,8.43c-6.5,3-12.48,5.8-13.51,6.74-1.27,1.15.71,1.7,2.83,2-9.6,9.13-16.22,19.69-18.94,31.1h0a52.27,52.27,0,0,0-3.23,13.77c-.8,1.44-1.36,2.51-1.61,3-2.16,4.75-1.35,10.16-.22,8.86.32-.36.72-.77,1.14-1.17q-.06,3.18,0,6.45l-2.3,8.54S26.38,192,30,189c.27-.23.56-.46.86-.7,1.21,11.6,3.63,22.58,6.89,29.63,7.77,16.85,38.87,13.82,63,14.81,6.12.25,21.43.15,40.88-.14q3.5.13,7.07.14,6.66,0,13.13-.48l4.21-.08c3.15.87,5.27.65,7.1-.14l23.24-.48a6,6,0,0,0,1,.17,20.17,20.17,0,0,0,3.53-.27c22.52-.5,44.63-1,61.5-1.46.94.07,1.77.1,2.44.09a18,18,0,0,0,2-.2l23.38-.61c.76.09,2.36.75,2.32-.06C291,194.42,363.42,211.44,330.56,129.35Z"/><path class="cls-9" d="M32.3,198.58a43.5,43.5,0,0,0-18.59,7.6C.87,215.78-2.13,227.13,1.33,239.52a25.32,25.32,0,0,0,13.53,16.41l-2-5.18s6.91,1.15,21.59,5.18c10,2.74,15.16,3.48,17.47,3.68a11.83,11.83,0,0,0,1.53.06s12.1,6.05,33.4,9.5,31.78,3.75,41.95,3.75h35.28L156,268.6s7-.58,8.09-.58,27.67-2,16.54-15.83-40.75-14.11-40.75-14.11v-2L122,234.67l1.8-1.95-30.73-1.27,5.6-3.44H69.9s8.67-3.29,0-4.53S46,222.4,39.05,219.36C36.15,218.09,32.3,198.58,32.3,198.58Z"/><g class="cls-11"><image class="cls-12" width="109" height="109" transform="translate(167.95 27.93) scale(0.86)" xlink:href="../../../Dropbox/ВЕКТОР/B29B76C6.png"/></g><circle class="cls-13" cx="215.11" cy="75.09" r="14.77"/><circle class="cls-14" cx="214.68" cy="75.61" r="11.23"/><circle class="cls-15" cx="208.89" cy="68.87" r="3.63"/><g class="cls-11"><image class="cls-12" width="109" height="109" transform="translate(231.87 27.93) scale(0.86)" xlink:href="../../../Dropbox/ВЕКТОР/B29B76C5.png"/></g><circle class="cls-13" cx="278.95" cy="75.09" r="14.77"/><circle class="cls-16" cx="278.43" cy="75.61" r="11.23"/><circle class="cls-15" cx="272.73" cy="68.87" r="3.63"/><path class="cls-9" d="M264.07,37.6c3.73-2.37,18.84-8,18.84-8s15.15-1.44,17-7.2-1.64,25.34,4.41,31.67c.42.44,5,2.88,4.61-3.44-.39-6.94-.75-15.88-.49-18.82.43-4.92-2.33-24.18-4.58-28.42s-6.73-3.71-11.48-1.64-16,12.36-21.51,15.55-11.58,9.76-12.79,11.49-1.65,2.06-1.72,2.72C256.09,34,260.84,39.65,264.07,37.6Z"/><path class="cls-9" d="M178.87,70.78s.27,1.39.85,1.72c4.61,2.63,7.18-6.78,13-16.09s19.84-15.8,19.84-15.8S222,45.15,225,42s.85-9.91.85-9.91S209.1,12.13,205.3,8.85s-7.86-6.74-13-5.71-7.43,7-9.85,17.8S178.09,48,178.35,54,178.87,70.78,178.87,70.78Z"/><path class="cls-17" d="M215.63,40.28c-.43-1.38-11.23-21.68-14.86-24.62-3.71-3.11-8.37-4.14-11,2.94s-5.18,33.34-4.23,36.71,16.07-.52,18.4-2.24-3.8-1.82-3.46-2.94,7.52-1,2.86-2-9-2.59-4.5-3.11,5,.35,3.46-1.38-2.59-3.28-.09-2.85,2.68,0,2.25-1.38-1.47-4,.69-2,2.76-1.21,3.63-.69S210,38.29,210.53,39s1.73-1.21,3.11.08,1.39.78,1.39.78Z"/><path class="cls-18" d="M292.25,12.9c-5,4.32-19.44,26.43-18.57,27s12.18-7.43,11.31-5.71-4.75,4.24-1.12,3.29,5.1-1.73,3.89-.09-1.82,2.07.78,1.38,5.44-2.24,6-1-5.7,4.23-6,5.27,4.67,1.12,3.11,1.82-3,1.2-3.54,2.15,2.68,2.25,2.68,2.6-1.64.95,5.53,3,7.6,1.55,8.46-5.44,1.64-17.8-.86-26.78c-1.38-4.92-2.77-9.16-5-10.28C297.09,9.27,294.5,10.91,292.25,12.9Z"/><image class="cls-12" width="86" height="80" transform="translate(209.41 45.2) scale(0.86)" xlink:href="../../../Dropbox/ВЕКТОР/D0782AF9.png"/><path class="cls-19" d="M251.74,78.29a7.63,7.63,0,0,0-5.53-2c-2.68,0-5.61,2-5,3.28s1.3.18,2.59.44,1.47,2.85,3.11,2.67.86-2.93,2-3,2.24,1,2.76.26A1.12,1.12,0,0,0,251.74,78.29Z"/><path class="cls-20" d="M238.09,92.37c3.63-1,7.86-5,8.38-5.79s1.12-.69,1.81.26,3.63,4.41,6.48,5.27,3.8,1.29,3.46,1.81c-.18.26-6.74-.69-9.59-2.07a4.29,4.29,0,0,0-3.72-.09,31.1,31.1,0,0,1-6.82,1.73C235.76,93.66,236.88,92.63,238.09,92.37Z"/><path class="cls-21" d="M200.5,94.17c-.18,0-18-4.34-48.14-7s-36.74-2.49-36.74-2.49c.25,0,6.62-1,36.82,1.63S200.5,94.17,200.5,94.17Z"/><path class="cls-21" d="M195.5,96.85c-.12,0-12.55-2.66-33-2.5-20.19.09-24.87.9-24.87.9.17-.07,4.37-1.67,24.87-1.76S195.5,96.85,195.5,96.85Z"/><path class="cls-21" d="M197.3,88.35c-.1,0-9.92-4.86-26.76-8.52s-20.74-3.69-20.74-3.69,3.91-.84,20.92,2.85S197.3,88.35,197.3,88.35Z"/><path class="cls-21" d="M289.85,94.43s17.88-5.2,48.06-7.85,36.56-1.68,36.82-1.64c0,0-6.76-.13-36.75,2.5S290,94.39,289.85,94.43Z"/><path class="cls-21" d="M294.76,97.11s12.44-3.53,33-3.36,24.69,1.69,24.86,1.76c0,0-4.68-.81-24.87-.9C307.28,94.44,294.88,97.08,294.76,97.11Z"/><path class="cls-21" d="M293,88.7s9.62-5.68,26.58-9.37,20.77-2.88,20.92-2.84-4.08.07-20.74,3.69C302.87,83.84,293.06,88.65,293,88.7Z"/><path class="cls-7" d="M269.1,37.49s-2.84-.82-1.2-1.83a60.61,60.61,0,0,0,9.86-7.35c5-4.89,6.84-6.26,6.84-6.26L275.78,37a10.24,10.24,0,0,1,3-1.81,1.92,1.92,0,0,1,1.64.6c.09,0,1.21-2.67,2.33-3.19s1.13,2.68,1.3,2.42,4.84-3.55,5.53-3.11-1.56,2.85-1.47,2.85,6.65-2.51,7.17-1.56-3.72,4.41-3.72,4.41,2.68-.87,2.94,0-2.5,3.19-2.5,3.19,3.11.35,3.37,1.13-.78,1.64-3,2.24-5.18,1.13-5.18,1.3,3.54.6,4.06,1.12-1.47,1.12-3.11,1.73c-3.2,1.12,2.33,2.94,11.49,5.35,1.47.44-3.11,6-3.11,6,.09,1-22.11-8.9-22.37-9.07C262.3,46,269.1,37.49,269.1,37.49Z"/><path class="cls-7" d="M221.36,40.48s-6.33-5.84-7.7-7.38c-.95-1.08-4.74-5.56-4.74-5.56l6.49,12.21A7,7,0,0,0,213,38.38a2,2,0,0,0-1.64.61c-.08,0-1.21-2.68-2.33-3.2s-1.12,2.68-1.3,2.42-4.83-3.54-5.52-3.11S203.71,38,203.62,38s-6.65-2.51-7.17-1.56,3.72,4.41,3.72,4.41-2.68-.86-2.94,0,2.51,3.2,2.51,3.2-3.11.34-3.37,1.12.78,1.64,3,2.24,5.18,1.13,5.18,1.3-3.54.6-4.06,1.12,1.47,1.13,3.11,1.73c3.2,1.12-1.55,2.42-10.79,4.84-5.92,8.4,1.47,4.58,1.47,4.66-.09,1,22.89-7,23.15-7.17C229.54,49.18,221.36,40.48,221.36,40.48Z"/><path class="cls-21" d="M256.66,46.92s.85-9.42,5.73-23.88,6.71-17.27,6.78-17.38S268,9,263.2,23.32A186.86,186.86,0,0,0,256.66,46.92Z"/><path class="cls-21" d="M258.05,45a91,91,0,0,1,5.56-15.89c4.22-9.56,6.48-10.57,6.48-10.57s-1.6,1.65-5.69,10.92S258.05,45,258.05,45Z"/><path class="cls-21" d="M255.2,30c1.7-8.5,2.9-10.13,3-10.29,0,0-.53,2.18-2.18,10.46a64.69,64.69,0,0,0-1.46,14.06S253.48,38.59,255.2,30Z"/><path class="cls-21" d="M231.27,46.23a185.9,185.9,0,0,0-6.55-23.61c-4.81-14.27-6-17.65-6-17.65s1.91,2.89,6.79,17.38S231.27,46.23,231.27,46.23Z"/><path class="cls-21" d="M223.53,28.79c-4.09-9.26-5.63-10.85-5.69-10.92s2.26,1,6.48,10.58a89,89,0,0,1,5.55,15.89S227.69,38.22,223.53,28.79Z"/><path class="cls-21" d="M233.25,43.54a63.91,63.91,0,0,0-1.46-14.06C230.14,21.2,229.61,19,229.61,19c.13.15,1.33,1.79,3,10.29S233.25,43.54,233.25,43.54Z"/><path class="cls-9" d="M200.24,75.09S200,60.67,214.63,60.24s15.28,13.11,15.28,13.11-1.2-6.9-9.39-6.69C210.27,66.93,200.24,75.09,200.24,75.09Z"/><path class="cls-9" d="M200.24,75.09a50.93,50.93,0,0,0,12.28.52c8.37-.46,17.36-1.45,17.36-1.45s2.32,15.34-14.85,16C198.91,90.87,200.24,75.09,200.24,75.09Z"/><path class="cls-9" d="M293.72,73.59s-1-13.53-14.27-13.68c-13.73-.16-15.12,12.92-15.12,12.92a20.84,20.84,0,0,1,17.37-5.41C291.5,68.8,293.72,73.59,293.72,73.59Z"/><path class="cls-9" d="M293.85,73.59s-2.93,1.32-9.84,1.32a116.91,116.91,0,0,1-19.83-2.08S261.73,88.07,276.08,90C295.37,92.63,293.85,73.59,293.85,73.59Z"/><path class="cls-9" d="M340.46,241.75c-6-2.61-23.77-9.61-34.86-14.14-.1,1.48.24,3.34-.65,2.89-1.5-.75-12.5-2.75-14.64-1.24S289,231,283.2,227.75s-8.25-1-7.41,3.5-.09,7-3.84,4.5S265.2,237,268,244s-10.75-4.5-11.5,1.25a33.3,33.3,0,0,1-1.33,5.74c13.95,4.75,39.62,20.78,41.16,25.21,1.67,4.79,9.67,6.22,18.45,4.58s7.89-7.86,7.89-7.86,1,5.16,3.4,6.5,10.93,3.33,14.44-3.22,1.82-9.06,1.82-9.06,12,2.28,12-7.06S348.27,245.13,340.46,241.75Z"/></svg>