<svg id="Слой_1" data-name="Слой 1" xmlns="http://www.w3.org/2000/svg" viewBox="0 0 67.22 80"><defs><style>.cls-1{fill:#70a7ff;}</style></defs><title>hand_clean</title><path class="cls-1" d="M50.92,23.87a5.74,5.74,0,0,0-4.4-6.82,5.07,5.07,0,0,0-.68-.11,6.75,6.75,0,0,0-4.72,1.28l-28,20.55.13-7.23a5.7,5.7,0,0,0-1.75-4.26,6,6,0,0,0-4.6-1.63A6.85,6.85,0,0,0,.51,32.17L0,58.55A20.78,20.78,0,0,0,4,71.4,21.52,21.52,0,0,0,21.54,80a25.07,25.07,0,0,0,14.83-4.93l11.76-8.61c2-1.34,9.58-8.11,14.36-12.61,2.05-1.93,2.55-4.75,1.39-6.4a5.79,5.79,0,0,0-4.07-2.31l.25-.19a6.76,6.76,0,0,0,2.66-4.11,5.82,5.82,0,0,0-1-4.61c-1.18-1.57-3.2-2-5.16-1.93a6.06,6.06,0,0,0-.18-6.66A5,5,0,0,0,50,26.24,12.49,12.49,0,0,0,50.92,23.87Zm-3.7,2.68L25.79,42.25a.88.88,0,0,0-.21,1.23h0a.9.9,0,0,0,1.25.19L48.66,28a5,5,0,0,1,3.47-1A4.06,4.06,0,0,1,55,28.65a4.51,4.51,0,0,1-1.29,6.24L31.88,50.53a.87.87,0,0,0-.26,1.2.81.81,0,0,0,.38.33h.11a.54.54,0,0,0,.25.06h.29a1.08,1.08,0,0,0,.29-.13L53.85,37a4.51,4.51,0,0,1,6.33.65A3.16,3.16,0,0,1,61,40.48a5,5,0,0,1-2,3L38.11,58.76A.89.89,0,0,0,37.94,60a.86.86,0,0,0,.7.35.87.87,0,0,0,.52-.17L42,58.13h0c1-.75,13.82-9.8,14.83-10.53a4,4,0,0,1,5.56.85,3.83,3.83,0,0,1-.93,4.06A183.2,183.2,0,0,1,47.08,65L35.32,73.63C25.45,80.86,12,79.39,5.41,70.35A19,19,0,0,1,1.78,58.58l.5-26.38A5,5,0,0,1,7,27.43a4.23,4.23,0,0,1,3.21,1.13,4,4,0,0,1,1.21,3l-.18,9a.88.88,0,0,0,.87.9.84.84,0,0,0,.55-.17l29.5-21.6a5,5,0,0,1,3.47-1,4,4,0,0,1,3.54,4.83A5,5,0,0,1,47.22,26.55Z"/><path class="cls-1" d="M38.64,21.1A1,1,0,0,0,40,21a1.14,1.14,0,0,0,.43-1.22c-.22-.51-.46-1-.72-1.51l0,0-1.24-2.06,0,0a23.76,23.76,0,0,0-2.1-2.59,1.06,1.06,0,0,0-1.42.16,1,1,0,0,0-.28,1.37h0a22,22,0,0,1,2,2.44l1.22,2c.24.46.46.93.66,1.4A.46.46,0,0,0,38.64,21.1Z"/><path class="cls-1" d="M30.15,10.85c.8.65,1.57,1.33,2.3,2A1.15,1.15,0,1,0,34,11.2h0c-.77-.72-1.58-1.43-2.41-2.12a1.15,1.15,0,0,0-1.46,1.77Z"/><path class="cls-1" d="M27.09,5.73A43.46,43.46,0,0,0,22.48,3,1.15,1.15,0,0,0,21,3.56a1.14,1.14,0,0,0,.54,1.52,40,40,0,0,1,4.33,2.56,1.15,1.15,0,0,0,1.27-1.91Z"/><path class="cls-1" d="M29.72,27c.12.36.64.38,1.16,0s.84-.91.71-1.27v0c-.13-.36-.29-.71-.45-1.06a12.23,12.23,0,0,0-.62-1.12c-.19-.32-.74-.26-1.24.13s-.75.95-.56,1.26A10.9,10.9,0,0,1,29.29,26C29.44,26.31,29.59,26.65,29.72,27Z"/><path class="cls-1" d="M22,17.68l.12.12a46.81,46.81,0,0,1,3.51,3.39,1.14,1.14,0,1,0,1.7-1.53h0l0,0a49.58,49.58,0,0,0-3.69-3.56A1.15,1.15,0,0,0,22,17.68Z"/><path class="cls-1" d="M12.13,10.91a1.13,1.13,0,0,0,.37.28,42.81,42.81,0,0,1,5.57,3.4,1.14,1.14,0,0,0,1.59-.29,1.12,1.12,0,0,0-.27-1.57,44.92,44.92,0,0,0-5.9-3.6A1.15,1.15,0,0,0,12,9.66a1.16,1.16,0,0,0,.17,1.25Z"/><path class="cls-1" d="M17.43,30.06a36.08,36.08,0,0,1,2.41,3.82,1.15,1.15,0,0,0,1.55.45,1.16,1.16,0,0,0,.46-1.54,38.18,38.18,0,0,0-2.57-4.07,1.14,1.14,0,0,0-1.59-.28,1.15,1.15,0,0,0-.28,1.6l0,0Z"/><path class="cls-1" d="M15,23.68c-.9-.92-1.87-1.83-2.88-2.7a1.14,1.14,0,0,0-1.61.11,1.15,1.15,0,0,0,0,1.5.68.68,0,0,0,.12.12c1,.83,1.88,1.69,2.74,2.57a1.14,1.14,0,0,0,1.62,0,1.13,1.13,0,0,0,0-1.61Z"/><path class="cls-1" d="M6,16.41a39.59,39.59,0,0,0-3.95-2.27,1.14,1.14,0,1,0-1,2.06h0a37.8,37.8,0,0,1,3.7,2.14A1.15,1.15,0,1,0,6,16.42Z"/></svg>