<svg id="Слой_1" data-name="Слой 1" xmlns="http://www.w3.org/2000/svg" viewBox="0 0 818.24 852.21"><defs><style>.cls-1{fill:#c2c1d3;}.cls-2{fill:#193541;}.cls-3{fill:#6d839b;}.cls-4{fill:#989ab7;}.cls-5{fill:#103b72;}.cls-6{fill:#5ca595;}.cls-7{fill:#524e64;}.cls-8{fill:#0b6dac;}.cls-9{fill:#f56463;}.cls-10{fill:#ef7f1a;}.cls-11{fill:#d5292a;}.cls-12{fill:#f1bda3;}.cls-13{fill:#f1f6fa;}.cls-14{fill:#151822;}.cls-15{fill:#2b2a29;}.cls-16{fill:#e7d9d7;}.cls-17{stroke:#fff;stroke-miterlimit:10;}.cls-18{fill:#d93a36;}.cls-19{fill:#fff9dc;}.cls-20{fill:#739fba;}.cls-21{fill:#79abc4;}</style></defs><title>pochta</title><g id="_2957094847264" data-name=" 2957094847264"><path class="cls-1" d="M486.81,398.69s79.37,142.45,105.8,140,170.2-113.62,183.4-140-139.8-249.6-139.8-249.6-18,1.2-11.4,18,22.2,42.6,22.2,42.6-27-32.4-36.6-25.8a15.57,15.57,0,0,0-6.76,16.59L620,270.29s-15.6-18.6-23.4-5.4-4.31,83.83-4.31,83.83l-105.49,50Z"/><path class="cls-2" d="M684.83,222.52c-24.48-42-45.84-71.68-49.14-76.52s-26.06-12.82-13.5,18.17c12.33,30.44,17,35.61,17,35.61S618.62,176.07,609,182.67s-6.5,16.25-6.5,16.25l15.38,67.21s-14.19-16-22-2.8c-8.06,13.17-4.45,63.72-3.83,80.23l16.76,40.51s-1.73-76,5.47-99.38,31.2,17.4,31.2,17.4-13.2-46.2-9.44-61,15.44,13.05,17.84,19,3-39,18-40.8c2.52-.3,7.08.94,12.92,3.23Z"/><path class="cls-3" d="M486.81,398.69s79.37,142.45,105.8,140,170.2-113.62,183.4-140c6.37-12.76-26-71.45-61.26-128.71-17.75,1.49-21.24,46.51-21.24,46.51s-13.2-9.6-24-10.2-4.8,50.4-4.8,50.4-16.8-7.8-31.2-5.4-15.24,71.85-15.24,71.85l-92.8-42.76-38.66,18.31Z"/><path class="cls-4" d="M649.82,672.26c23.4-1.8,55.15-28.1,52.2-29.85s30.18-2.33-43.2-55.35-137.4-101.4-137.4-101.4l-157.8,107.4s195,66.6,230.4,73.2S649.82,672.26,649.82,672.26Z"/><path class="cls-1" d="M424.75,420c-16.86,7-25.15,10.27-37,22-5.23,5.18-39.32,33.73-46,40-9,7.13-17.08,13.18-24.22,18.31-34.89,23.67-38.91,24.93-47.72,30.3,3.78,10.49,16.61,17.21,26.86,20.69,91.9,47.06,163.83,56.64,209,65.52C519,614.72,539.6,600,556.5,580c18.64-22.07,33-50.22,33.71-67.21a81.33,81.33,0,0,0,.07-18.45c-3-11.57-5.94-19.45-11.72-27.33-2.45-3.33-6.75-6.25-11.63-8.19-6.62-2.63-11.16-1.69-16.67-3.07-2.82-3-1.42-3.07-5-6.19l-11.49-10.8c-56.16-42.3-102.09-17.06-109-18.71Z"/><path class="cls-5" d="M500.42,621.58c-14.63,10-39.37,17.11-56.11,20.78-.17,0-9.23,3.62-11.62,4.21l-43.08,9c4.1,2.46,25.78,5.07,34.77,6.4-11.92,4-61.85,7.64-77.84,7.41-34.57-.5-62.65-11.12-72.47-9.6l-9.44,56c-1.06,8.69-7.66,37.64-5.41,44.35,1,3.05-1.23,7.6,24.59,11.23,88.69,12.46,215.52,37.69,243.46,39.16,12.18.64,13.93-7.59,15.86-18,3-25.69,11.83-88.09,20.79-132.41-1.7-.51-2.22-8.4-6.37-5.49-20,14-15.69,15.46-31.41,12.49-26.34-19.72,1.45-35-67.56-3.7-4.28-.6-21.2.63-24.59-1.95,40.63-8.1,82.81-32.45,110.41-51.78L524.23,606c-5,2.68-21,13.71-23.81,15.62Z"/><path class="cls-6" d="M447.92,348.51c5.09,2.59,9,6.47,14.09,9.88,33.73,22.67,80.55,28.19,118.76,13.1,9.59-3.79,10.54-8.05,15.43-9.41l-1.08-4.71C589.91,341,582,319,574.84,298c-30.91,7.41-64.77-2.07-81.17-18.87-31.75-32.53-10.67-77-10.76-77.36-9.76,11.7-19.45,52.8-22.29,70.84-3.81,24.12-6.79,52.69-12.7,75.91Z"/><path class="cls-7" d="M424.75,420c6.94,1.65,52.87-23.59,109,18.71l11.49,10.8c3.57,3.12,2.17,3.17,5,6.19,5.51,1.38,10,.44,16.67,3.07,4.88,1.94,9.18,4.86,11.63,8.19,5.78,7.88,8.72,15.76,11.72,27.33l18.81-6.09c5.5-52.87,1.61-78.39-11.38-127.41-4.89,1.36-7.8,5.11-17.39,8.9-38.21,15.09-84.43,9.27-118.16-13.4-5.06-3.41-8.76-6.75-13.85-9.33-6.5,28.39-16.33,50.27-23.56,73Z"/><path class="cls-3" d="M503.56,178.24c-6.73,4.81-18.47,15.38-22.1,26.67.09.37-19.76,42.43,12,75,16.4,16.8,50.56,25.75,81.47,18.34-5-15.71-13.86-30.89,4.1-48.53,7.22-7.1,17.86-11.34,28.23-8.77-3.91-9.65-19.59-14.51-32.31-16.71l5.25-.06c1.6-1,4.11-3.58,3.5-5.84,1-6.62.33-2.25,3.08-6.77,1.7-2.8,1.27-2.2,2.27-5.09,2.13-6.13,1.93-6.05,8.76-7.52-2.94-7.18-8.43-9-11.28-15.14l-54.17-7.33c-9.39-1.79-19.36,2.49-28.78,1.79Z"/><path class="cls-1" d="M25.3,630.26c40,10.58,124.59,14.14,145.79,21.64-2,4.25-9.39,8.81-10,10.22-.18,0,58.22,1,85.57.39,8.8-.2,18.22-1.71,27.23-1.89,9.82-1.53,38.48,9.73,73.05,10.23,16,.23,62.77-6.46,78.82-9.21-9-1.33-27.11-1.93-31.22-4.39,28.07-2.12,79.87-21.21,92.89-31.58-17.52,1.27-59.55-4.41-77.41-7.75-56.08-10.47-129.14-37.19-175-66.23C107.5,609,30.7,623.69,25.3,630.26Z"/><path class="cls-3" d="M126.76,681.36c-2.66.79-45.06,19.09-46,20.11,8.39-1.2-8.11,4.15-5,9.52,8.16,10.39,75-9.39,91.27-14.83,8.54-2.84,19.87-7.9,27.87-9.64-2,4.68-1.64,4.13-5.36,7.56-2.36,2.19-4.47,4.92-6.74,6.88a138.11,138.11,0,0,1-15.57,10.48l-34.69,15c-2.44,1.34-.63,0-2.36,1.66,20.6-1.41,44.29-7.54,64.52-10.14,18.72-2.41,52.05-5.24,70.43-4.74,2.57-18.4-15.44-38-34.91-41.7l-4.15-.62-1.06-.12-19.23-.31C195,678.93,139.06,693.42,126.76,681.36Z"/><path class="cls-5" d="M596.06,362.14c13,49,16,73.64,10.48,126.51-12.49,83.17-64.89,113.44-64.06,114.06,11.43,4.42,22.48,5.85,34.24,6.07,29-21.38,48.36-79.71,50.37-115.19,1.59-28-19-136.22-32-136.22l.94,4.77Z"/><path class="cls-8" d="M524.34,678.23c15.72,3,14-1.17,34-15.19,4.15-2.91,3.92-3.42,5.62-2.91l5.26-30.41c6.46-14.22,8.88-18.7-.61-21.32l-18.32-3.11-4-1.21c-27.6,19.33-76.77,49.3-117.39,57.4,3.39,2.57,23,5.1,27.29,5.7,49.86,7,23.35,2.59,68.16,11.05Z"/><path class="cls-2" d="M80.74,701.47C67.89,705.12,1.35,732.52-.77,743c9.68,3.76,54.86-3.68,67.85-5.43l63.07-9.43c1.73-1.7-.08-.32,2.36-1.66,18.36-8,58.25-17.91,62.36-40-8,1.74-19.33,6.8-27.87,9.64C150.69,701.6,83.89,721.38,75.73,711c-3.1-5.37,13.4-10.72,5-9.52Z"/><path class="cls-9" d="M423.86,809.29c1.34,6.3,6,10.31,5.09,16.71,5.78,3.62,2.91,7.68,9,15.18-1.08,1.41,2.93,1.8-2.14,1,4.2,4.43,13.83,8.78,21.39,9.77l58.7,0c8.68-1.43,2.23-1.31,10.43,0,5.42.89,7.61-.17,10.93-2.89,2-4.73,2.92-6.83,1.29-13.09-10.83-12-7.93,1.85-47.24.93-35.82-.83-41.53-18.7-29.53-17.15-1.81-4.2-7-11-10-16L447.9,798l-3.91-.47c-1.39,3.27-3.9,7.12-7.75,8.46-9.77,3.42-12.49-4.26-12.38,3.28Z"/><path class="cls-5" d="M341.76,482c20.74-15.44,42.25-37.48,63.16-52.43,4.61-12.74,18.16-33.16,30.46-39.76,2.9-5.91,8.59-24.47,10.28-32.11C403,378.82,362.86,446.51,341.76,482Z"/><path class="cls-8" d="M500.79,157.52c25.21-.33,56.32-2.48,78.31-13.82l2.25,2.79-.13-4.49L598,135.18c4.22-3-6.55-23.75-11.85-17.73-11.62,13.36-50.9,23.34-70.43,25.55-8.49,1-24,1.45-30.56,3-.5,4.13-1.58,8.73,2.91,10.57,3.06,1.25,10.1,1.82,12.73,1Z"/><path class="cls-7" d="M162.63,661.37c-3.25,1.72-.37-.18-3.51,2.29-.66.52-4.85,2.91-5.32,3.37,24,1.87,51,4.29,74.74,7.83,15.17,2.84,31.34,24.94,36.09,40.93l10.49-56.08c-9,.19-18.78,1.92-27.58,2.13-27.45.63-64-1.51-85.44-.41l.53-.06Z"/><path class="cls-10" d="M500.6,157.35l3,20.89c9.42.7,16,.62,28.78-1.79,3.14-3.22,7.33-4,11.93-4.92a123.15,123.15,0,0,0,12.78-3.27c7.4-2.22,19.58-5.93,26.51-7l-2.21-14.76-.13-4.49C557.73,151.24,525.81,157,500.6,157.35Z"/><path class="cls-2" d="M532.34,176.45l54.17,7.33c6,.45,10.66-1.13,14-4.24a15.5,15.5,0,0,0,4.3-13.54c-7.06-1.37-14.19-2.75-21.2-4.75-6.48-3.18-21.43,7-39.29,10.28C539.67,172.42,535.48,173.23,532.34,176.45Z"/><path class="cls-2" d="M126.76,681.36c12.3,12.06,68.26-2.43,79-10.85l-48.5-5C154.3,666.41,129.36,679.26,126.76,681.36Z"/><path class="cls-7" d="M583.68,218.3c-6.56,6.79-20.42,5.14-26.68,4.4-6.85,7.75,4.43,8.93,35.16,15.29s35.25,5.55,43.91,3c2.42-7.18-2.06-13.69-6.18-17.14-3.77-3.15-10.87-8.1-15.73-9.39C608.64,226.18,593.81,220.7,583.68,218.3Z"/><path class="cls-11" d="M420.26,829.44c-5.1,4.5-22.17,2.66-29.68,2a9.2,9.2,0,0,1-1.82,2.46c-.71.85-.37-.08-1.8,1.93a20.19,20.19,0,0,0-2,4.44c-.51,11.11,12.05,13.54,22.91,10.27,13-3.92,10.14-6.57,28-8.39,5.07.83,1.06.44,2.14-1-6.08-7.5-3.21-11.56-9-15.18C425.42,829.1,425.64,829.55,420.26,829.44Z"/><path class="cls-7" d="M522.76,606.73l16.82,2.79,2.32-.38c1.28-.66,4-3.32,3.29-5.43,12.68-7.91,38-41.4,41.19-55.57,2.31-9.9,7.56-26.13,3.83-35.4-1.62,37.6-38,74-67.45,94Z"/><path class="cls-12" d="M583.68,218.3c10.13,2.4,25,7.88,30.48-3.79-2.58-9.5-6.48-14-16.37-15.59-6.83,1.47-6.63,1.39-8.76,7.52-1,2.89-.57,2.29-2.27,5.09-2.75,4.52-2,.15-3.08,6.77Z"/><path class="cls-7" d="M531.72,827.42l9.73,3.6c2.6,1.78,6,4.51,6.89,8.39l-9.8-3.49c1.63,6.26.67,8.36-1.29,13.09,15.45-3.11,9.4,2.71,16.64,2.75-.24-5.38-2.75-7.86-4.32-11.42,12.09-2.08,11.39,3.79,18.21,5.39,2.52-9.46-11.49-29.51-36.06-18.31Z"/><path class="cls-11" d="M538.54,835.92l9.8,3.49a14.45,14.45,0,0,0-5.76-8.69l-10.86-3.3c-7.94,6.61-45.44,4.49-56.69,1.89-8.36-2.86-9.32-7.88-13.26-9.61-12-1.55-6.29,16.32,29.53,17.15C530.61,837.77,527.71,823.92,538.54,835.92Z"/><path class="cls-3" d="M590.09,493.57q.33,9.51.12,19.17c3.73,9.27-1.52,25.5-3.83,35.4,8.49-7.47,18.67-42.34,20.2-59.95l-16.49,5.38Z"/><path class="cls-13" d="M538.15,193.09c19.08-2.32,18.29,17.28,8.13,20-6.63,1.77-11.77-1.4-13.47-6-2.59-7,1.94-10.6,5.34-14Zm-.81-4.11c-21.84,9.6-3,39.38,13.81,26.62l5-3.54c2.36-1.87,4.09-.7,5.31-2.33,3.61-3.85-1.8-5.95-3.93-10.18S550.53,183.18,537.34,189Z"/><path class="cls-4" d="M423.79,808.88l.07.41c-.11-7.54,3.21,1.34,13-2.08,3.85-1.34,5.76-6.39,7.15-9.66l3.91.47-36-5.81c1.32,2.27,4.42,8,5.32,9.21C420.14,805.19,421.8,803.24,423.79,808.88Z"/><path class="cls-14" d="M535.41,206.71c-5.46-12.83,11.69-16,14.85-7C553.84,209.93,540.3,215.93,535.41,206.71Zm-3.35.95c1.7,4.61,7.59,7.18,14.22,5.41,18.88-5,8.07-19.77-2.56-21.11-6.23-.79-15.56,5.11-11.66,15.7Z"/><path class="cls-10" d="M535.41,206.71c4.89,9.22,18.43,3.22,14.85-7C547.1,190.75,530,193.88,535.41,206.71Z"/><path class="cls-7" d="M382.43,832.35c-1.55,2.33-2.56,1.9-4.51,4.4-1,1.23-1.7,3.35-2.84,5.3l.15,2.63,2.64.4c2.57-3.4,2.52-3.47,7.06-4.81a20.19,20.19,0,0,1,2-4.44c1.43-2,1.09-1.08,1.8-1.93a9.2,9.2,0,0,0,1.82-2.46l-8.15.91Z"/><path class="cls-9" d="M687.46,662.89c5.25,3.75,11.41,3.54,15,8.89,6.71-1.22,7.34,3.7,16.88,5.14.16,1.76,3.38-.66-.92,2.15,6.09.43,16.13-2.85,22.37-7.23l43.28-39.65c5.44-6.91.77-2.48,7.71-7,4.61-3,5.5-5.27,6.11-9.52-1.74-4.82-2.45-7-7.88-10.53-16.09-1.54-4.6,6.72-34.22,32.58-27,23.57-43.27,14.24-33.36,7.28-4.17-1.88-12.64-3.41-18.21-5l-6.66-1.59-3.2,2.29a15,15,0,0,1-.8,11.52c-5.08,9.06-11.68,5.13-6.13,10.73Z"/><path class="cls-11" d="M698.41,680.19c-.73,6.76-14.57,16.93-20.55,21.51a9.17,9.17,0,0,1,.31,3c.06,1.11-.32.2,0,2.65a20.53,20.53,0,0,0,1.5,4.64c7.13,8.54,18,1.85,23.83-7.89,7-11.68,3-11.69,15-25.07,4.3-2.81,1.08-.39.92-2.15-9.54-1.44-10.17-6.36-16.88-5.14C702,676.45,702.44,676.64,698.41,680.19Z"/><path class="cls-7" d="M779.27,603.46l10.24-4.9a14.48,14.48,0,0,1,10.12,2.52l-9.59,4c5.43,3.52,6.14,5.71,7.88,10.53,9.3-12.72,8.77-4.34,14.14-9.21-3.81-3.8-7.33-3.93-10.89-5.5,7.51-9.7,11-4.9,17.07-8.32-4.52-8.68-28.4-14-39,10.84Z"/><path class="cls-11" d="M790,605.12l9.59-4a14.48,14.48,0,0,0-10.12-2.52l-10.24,4.9c-1.39,10.23-30.5,34-40.54,39.65-8.1,3.54-12.2.49-16.27,1.87-9.91,7,6.37,16.29,33.36-7.28C785.44,611.84,774,603.58,790,605.12Z"/><path class="cls-4" d="M687.13,662.64l.33.25c-5.17-5.49,2-1.66,6.92-10.77,1.93-3.59,1.18-8.12,0-11.48l3.2-2.29-29.82,20c2.51.78,8,3,9.48,3.22,4.7.8,4.6-1.76,9.88,1.06Z"/><path class="cls-7" d="M672.46,707.87c.43,2.77-.6,3.13-.35,6.29.12,1.55,1,3.62,1.47,5.83l1.89,1.84,2.22-1.49c-.4-4.25-.48-4.25,2-8.31a20.53,20.53,0,0,1-1.5-4.64c-.3-2.45.08-1.54,0-2.65a9.17,9.17,0,0,0-.31-3l-5.4,6.17Z"/><circle class="cls-15" cx="542.93" cy="202.42" r="4.66"/><path class="cls-13" d="M539.82,198.89c.9,6.33,5.82,5.17,2.91-.77C541.21,195.58,539.32,196,539.82,198.89Z"/><rect class="cls-4" x="478.18" y="656.86" width="39.37" height="29.4" rx="5.48" ry="5.48" transform="translate(-258.9 1026.78) rotate(-78.59)"/><rect class="cls-16" x="486.86" y="649.65" width="24.91" height="29.4" rx="5.41" ry="5.41" transform="translate(-250.66 1022.42) rotate(-78.59)"/><path class="cls-10" d="M435.42,741.91c-6.1-1-12.14-4.15-15-9.31a35.13,35.13,0,0,1-3.87-9.06q-9.69,13.26-22.46,11.24c-17.35-2.76-21.9-23.4-19.43-38.94,1.75-11,7.15-22.57,16.15-27.87,5.42-.47,8.22-1.81,11.9-2.22,1.7-.19,4.26-.52,6.37.34q9.7,3.07,13.91,14.47l1.4-8.88L425,671l25.71,4.07a.5.5,0,0,1,.47.65L444,715.2q-.37,8.28,5.92,9.28c11.88,1.89,23.7-26.71,8-53.07a43.89,43.89,0,0,0-13.51-13.79c4.8-1.39,9.34-3,13.5-4.42a70.79,70.79,0,0,1,8.62,8.77q16,19.5,11.37,46.09-3,17.55-15.91,26.78t-26.63,7.07ZM372,669.48a54.57,54.57,0,0,0-10.58,25,55.64,55.64,0,0,0,1.2,24.75,43.89,43.89,0,0,0,10.26,18.42,57,57,0,0,0,31.92,17,88.59,88.59,0,0,0,20.7,1,112.34,112.34,0,0,0,13.34-1.58c4.59-1,4.64-.08,2.84,2.44-2.3,3.21-7.35,6.28-11.7,8-7.5,3-18.7,2.92-27.56,1.51q-27.19-4.3-42.82-25.95t-11.41-48.28a66.33,66.33,0,0,1,7-21.11c2-.14,8.74-.62,16.85-1.24Zm29.47,43.42c2.31,7.13,9.84,8.32,14.25,2.26,5.76-7.93,8.33-29.31-2.39-31S398.39,703.58,401.42,712.9Z"/><path class="cls-2" d="M280.86,524c-7.46,4.11-45.09,26.72-67.46,36.16s-22.85,19.56,11.65,13.56,25.8-4.8,25.8-4.8-28.2,21.6-6,19.8a312.46,312.46,0,0,0,38.4-5.4s-15.3,14.7-.6,14.4a203,203,0,0,0,29.1-3s-17.4,18.3,1.2,19.5,44.4-4.8,44.4-4.8-17.4,6,1.8,10.8,46.8.9,46.8.9-3.3,9,3,10.2,45.6-.6,45.6-.6,2,2.71,7.8,3.3,27.45-5.45,49-21.77-13.07-8.36-30.07-5.83-24.3-4.8-21.6-11.7-27.3,5.7-30-3.6-31.5-1.8-36-10.8-32.4-6.6-43.5-12.3-3.3-12.9-3.3-12.9a93.82,93.82,0,0,1-27-2.1c-13.5-3.3-7.5-15.3-7.5-15.3-12.94,5.23-38.35,7.49-31.5-13.72Z"/><path class="cls-7" d="M533,606.24l-6.68-2s-50.5,33-96.49,44.13-48.78,10-48.78,10,17.79,8.31,48.81,2.83,74-26.5,96.24-41.53S555.73,597,559.62,590.3,533,606.24,533,606.24Z"/><path class="cls-2" d="M165.4,580.93S38.79,624.2,28.05,627.9-4.6,633.09,3.5,637.29,74,640.79,74,640.79s-5.11,4.3,9.29,6.1,87.79,5,87.79,5S135.56,656.65,146,661s136.2,3.6,136.2,3.6-19.5,6.9-7.5,10.2,89.8-3.35,112.08-6S435.42,660,435.42,660s-44.61-5.35-63.21-6.85-28.5-12.3-32.4-11.4-37.8,1.2-42.9-2.4-16.8-.6-33.9-1.2-15.3-11.4-15.3-11.4-34.8,6.9-46.2,5.1-6-10.2-6-10.2-32.7,3.3-66.3.6-10.8-16.8,7.8-25.2,28.39-16.16,28.39-16.16Z"/></g><path class="cls-17" d="M445.54,171.78a66.26,66.26,0,0,1-5.24-18.52h1c11.8,0,21.45-12.53,21.45-27.86V32.2c0-15.32-9.65-27.86-21.45-27.86H290c-11.8,0-21.45,12.54-21.45,27.86v93.2c0,15.33,9.65,27.86,21.45,27.86H407.63c8.49,10,19.26,21.48,29.12,28.11,20.39,13.69,27.77,13.23,27.77,13.23S454.33,190.3,445.54,171.78Z"/><path class="cls-18" d="M338,20.82,311.5,76.71s10.4,22.3,10.67,22.9c4.39,9.88,87.73-35.56,87.73-35.56L397.63,37.48Z"/><rect class="cls-19" x="321.07" y="26.97" width="72.65" height="56.11" transform="translate(5.77 139.41) rotate(-22.25)"/><polygon class="cls-20" points="311.5 76.71 340.36 138.66 426.27 99.5 397.63 37.48 366.14 83.27 311.5 76.71"/><path class="cls-21" d="M422.62,97.31S371.48,66.77,368,65.46s-11.65-.16-14.45,5.33c-2.64,5.19-13.16,67.87-13.16,67.87L426.27,99.5Z"/><circle class="cls-18" cx="365.43" cy="80.84" r="4.75"/></svg>