<svg id="Слой_1" data-name="Слой 1" xmlns="http://www.w3.org/2000/svg" xmlns:xlink="http://www.w3.org/1999/xlink" viewBox="0 0 572.97 594.04"><defs><style>.cls-1{fill:url(#Безымянный_градиент_185);}.cls-2{fill:#a27b00;}.cls-3{fill:#ffbeb6;}.cls-4{fill:#f6aba5;}.cls-5{fill:#23286b;}.cls-6{fill:none;stroke:#b98f44;stroke-miterlimit:10;}.cls-7{fill:#ffde2e;}.cls-8{fill:#47704c;}.cls-9{fill:#b98f44;}.cls-10{fill:#f7ada6;}.cls-11{fill:#ffff75;}.cls-12{fill:#6d3e00;}.cls-13{fill:#191e57;}.cls-14{fill:#597d4a;}.cls-15{fill:#8db6f6;}.cls-16{fill:#191e58;}.cls-17{fill:#93baf8;}.cls-18{fill:#a1c3fc;}.cls-19{fill:#734700;}.cls-20{fill:#ffffb5;}.cls-21{fill:#f4b0ea;}</style><linearGradient id="Безымянный_градиент_185" y1="156.62" x2="572.97" y2="156.62" gradientUnits="userSpaceOnUse"><stop offset="0" stop-color="#8fc7ed"/><stop offset="1" stop-color="#e7378c"/></linearGradient></defs><title>present</title><rect class="cls-1" y="2.87" width="572.97" height="307.48"/><path class="cls-2" d="M514.06,113c0,7.11-1.1,12.78-5.58,19-4.65,6.45-10.53,11.75-18.83,11.75-15.42,0-31.42-15.33-31.42-30.75a27.92,27.92,0,1,1,55.83,0Z"/><path class="cls-3" d="M418.54,192.51S405,180.59,402,177.57s-3.18-9.95-4-12.89.88-12.24-.35-12.88-3.7.52-4.42,4.18a53.55,53.55,0,0,0-.73,8.33s-13.09-14-13.53-14.66-3.24-1.36-4.18,8.33,3.15,13.66,7.22,16.78,7.6,4.59,9.75,7.12,8.95,14,9.91,16.48,5.47,10.89,5.63,11.33S418.54,192.51,418.54,192.51Z"/><path class="cls-3" d="M392.69,212s-19-13-23.22-16.28-5.25-11.67-6.67-15.14-.25-14.87-1.92-15.51-4.74,1-5.26,5.51a59.78,59.78,0,0,0,0,10.13S337,165.22,336.39,164.43s-4.36-1.3-4.49,10.5,5.64,16.16,11.28,19.49,10.39,4.75,13.47,7.57,13.21,15.9,14.75,18.85,8.33,12.57,8.59,13.08S392.69,212,392.69,212Z"/><path class="cls-4" d="M167.77,204.54c1-2.5,1.13-.87,7.63-5.62s9.75-10.38,10.37-13.88,1.88-19.62,1.88-19.62L201.23,185s-3.08,3.94-5.21,6.81-8.34,13.94-9.75,18-8.12,11.13-8.37,11.63-10.13-7.5-10.13-7.5Z"/><path class="cls-5" d="M93.65,548.92l-1,9.25A72.26,72.26,0,0,1,90.52,568c-1.62,5.75-1.87,12.63-2.5,17.5a18.22,18.22,0,0,0,.87,8.49h82.38a20.77,20.77,0,0,0-5.37-14.24c-6-6.87-20.25-5.51-28.75-8.32s-21.06-9.55-23.66-14.8S93.65,548.92,93.65,548.92Z"/><path class="cls-6" d="M94.56,99.83s8.92-1.08,14.17,3,1.2,16.92,1.2,16.92Z"/><path class="cls-7" d="M92.65,171l2-1.62s22.76,39.75,27.26,42.75,10.5,2.37,15.37,1.5,34-12.13,34-12.13l5,19.5-19.75,15.75s-30.12.38-33.62,0S110.15,231,108.27,228s-15.62-34.12-15.62-34.12Z"/><path class="cls-8" d="M107.15,394.67l6.25,18.75.09,143.25-20.84,1.5s-11-52.5-11-79.5S107.15,394.67,107.15,394.67Z"/><path class="cls-9" d="M106.65,121.5s4-1.75,3.16-7.5A18.55,18.55,0,0,0,97.48,99.58c-7.17-2.5-19.5-2-26-.33s-14.33,6.58-15.75,12.67-2.5,18-4.83,21.66-10.09,7.25-9.5,14.92.5,12.92-6,17.42-8.5,13.5-6.42,19.41,15.83,13.42,15.83,13.42l48.52-47Z"/><polygon class="cls-10" points="77.96 154.98 76.52 167.6 87.52 172.79 93.71 168.93 94.14 151.6 77.96 154.98"/><path class="cls-3" d="M102.28,107.23a43.6,43.6,0,0,1-5.44,13.87c-4,6.13-7.31,10.32-7.44,11.88s.9,4-.43,11.62c-.88,5-11.07,10.32-11.07,10.32s8.16,2.74,16.19,1.25c2.63-.48,7.31-2.19,12.63-6.38s5.56-14.5,7.37-15.5,5.19-3.25,5-4.19-7.62-8.37-8.5-9.87-.87-3.69-2.75-7.06A20.8,20.8,0,0,0,102.28,107.23Z"/><path class="cls-11" d="M76.06,164.42s-24.5,20.5-32.5,36.66-9.83,28.84-14.41,36.17-12.92,16.5-14.59,26.5,0,21.33,0,21.33,8.71,4.65,29.69,6.49,24.07,2,36.08-1.07,24.57-6.92,24.57-6.92l-10.34-115s-3.2,1.69-8.83,1C77.56,168.58,76.06,164.42,76.06,164.42Z"/><path class="cls-12" d="M107.31,121.75a4.58,4.58,0,0,0,3.42.33,6.7,6.7,0,0,0,3.08-2.66"/><path class="cls-6" d="M73.15,158.25s9.66-2.33,15.16-7.75,3.5-14.75,4.34-18.08,7.83-10.25,9.5-16.5a20.3,20.3,0,0,0-.59-11.75L75.73,124.83Z"/><path class="cls-13" d="M31.15,551.17l-2,3.75a52,52,0,0,0-4.5,12.75C23,575.17,20.9,594.17,21.4,594s78.12,0,78.12,0,5.75-7.25-7.25-14.37-26.18-9.13-31.22-12.25-4.9-12.5-4.9-12.5S48,542.42,48,542,31.15,551.17,31.15,551.17Z"/><path class="cls-14" d="M39.15,290.92s-.5,28,7.25,49.5,16.75,47.5,11.5,61.5-17.52,29-18.76,46.75-10,106.25-10,106.25h27s56-131.25,57.25-141.5-10-129-10-129-11.5,3.25-25.75,6.75S39.15,290.92,39.15,290.92Z"/><path class="cls-5" d="M474.64,547.74l1,9.49a75.51,75.51,0,0,0,2.18,10.13c1.67,5.91,1.93,13,2.57,18a18.6,18.6,0,0,1-.9,8.71H395a21.33,21.33,0,0,1,5.52-14.61c6.16-7,20.78-5.66,29.5-8.53s21.6-9.81,24.26-15.19S474.64,547.74,474.64,547.74Z"/><path class="cls-15" d="M478.4,160.92l-4.7-3.39s-25.4,37.09-30,40.16-10.78,2.44-15.78,1.54-17-19.73-17-19.73l-18.21,18.08L408.16,223s30.91.38,34.5,0,13.08-5.9,15-9,16-35,16-35Z"/><path class="cls-16" d="M460.79,389.49l-6.42,19.23-.1,147,21.39,1.53S487,503.37,487,475.67,460.79,389.49,460.79,389.49Z"/><polygon class="cls-10" points="490.73 143.57 492.21 156.53 480.92 161.85 474.57 157.89 474.12 140.11 490.73 143.57"/><path class="cls-3" d="M465.72,94.65s.27,8.93,5.58,14.23a160,160,0,0,0,12.35,11.31c4.12,3.35,6.43,2.25,8.56-1.57,4.69-8.45,16.94.17,8.69,7.55-16.4,14.65,1.69,12.44,1.69,12.44s-2.59,3.22-11.75,5.88c-4,1.16-8.48,1.9-16.72.37-2.69-.49-7.5-2.25-12.95-6.54s-5.71-14.88-7.57-15.91-5.32-3.33-5.13-4.29,7.83-8.59,8.72-10.13.9-3.79,2.83-7.25A21.45,21.45,0,0,1,465.72,94.65Z"/><path class="cls-17" d="M492.65,152.06s18.87,22.13,27.08,38.71,5.39,22.06,10.09,29.59,8.74,13.53,10.45,23.79-5.75,21-5.75,21,10.73,17.94-10.79,19.83-29.39.7-41.72-2.47-25.2-7.09-25.2-7.09l16.86-119.08s3.29,1.73,9.07,1C491.12,156.34,492.65,152.06,492.65,152.06Z"/><path class="cls-13" d="M538.76,550.05l2,3.85A53.7,53.7,0,0,1,545.43,567c1.67,7.7,3.85,27.19,3.33,27.06s-80.15,0-80.15,0-5.9-7.44,7.44-14.75,26.86-9.36,32-12.56,5-12.83,5-12.83,8.34-12.82,8.34-13.21S538.76,550.05,538.76,550.05Z"/><path class="cls-5" d="M532.6,282.11s.59,28.82-8.55,51-19.76,48.9-13.57,63.31,20.66,29.86,22.13,48.13S544.4,553.9,544.4,553.9H512.54S446.48,418.78,445,408.22s11.8-132.8,11.8-132.8,13.56,3.34,30.37,6.95S532.6,282.11,532.6,282.11Z"/><path class="cls-2" d="M492.15,86.35l3.34.34s-5.47-3.52-29.16-1.34a22.24,22.24,0,0,1-12.81-3.12s4.19,9.87,9.56,13.5,18.19,2.75,18.19,2.75Z"/><path class="cls-12" d="M462.85,107.25a4.58,4.58,0,0,1-3.41.34,6.74,6.74,0,0,1-3.09-2.67"/><path class="cls-18" d="M493.36,167.79c8.38,5.3,12,35,5.13,51.38s-31.12,54.64-40.35,58.57-30.44-.17-35.57-2.73-18.64.85-25.65.34-18.13-5.64-23.26-9.75-9.4-7-9.4-7l25.48-52.15s47.7,9.91,52.32,10.94c3.54.79,21.19-32.79,29.28-48.59C473.82,164,485,162.49,493.36,167.79Z"/><path class="cls-19" d="M106.16,145c-4.15,0-6-4.06-6-4.11-.29-.67.53-1,.9-.4.07.11,1.73,3.8,5.55,3.49s4-2.55,4.05-2.64c.16-.62,1-.57.91.1,0,.16-.29,3.18-4.88,3.54Z"/><rect class="cls-2" x="161.38" y="25.73" width="142.79" height="168" transform="translate(-20.82 153.47) rotate(-35.03)"/><rect class="cls-18" x="165.49" y="30.56" width="134.57" height="158.33" transform="matrix(0.82, -0.57, 0.57, 0.82, -20.82, 153.47)"/><path class="cls-3" d="M173.52,221.67S192,209,196.15,205.79s5.12-11.37,6.5-14.75.25-14.5,1.87-15.12,4.63,1,5.13,5.37a58,58,0,0,1,0,9.88s18.12-15.09,18.75-15.86,4.25-1.27,4.37,10.23-5.5,15.75-11,19-10.12,4.63-13.12,7.38-12.88,15.5-14.38,18.37-8.12,12.25-8.37,12.75S173.52,221.67,173.52,221.67Z"/><path class="cls-20" d="M75.4,178.58c-8.17,5.17-11.67,34.16-5,50.08s30.33,53.26,39.33,57.09,29.67-.17,34.67-2.67,18.16.84,25,.34,17.66-5.5,22.66-9.5,9.17-6.84,9.17-6.84L176.4,216.25s-46.5,9.67-51,10.67c-3.45.76-20.66-32-28.55-47.36C94.44,174.84,83.56,173.42,75.4,178.58Z"/><path class="cls-19" d="M461.27,132.33c4.15,0,6-4.07,6-4.11.29-.68-.53-1-.9-.41-.08.11-1.73,3.8-5.55,3.5s-4-2.56-4.05-2.65c-.16-.61-1-.56-.91.1,0,.17.29,3.18,4.88,3.55Z"/><circle class="cls-21" cx="241.56" cy="51.58" r="20"/><polygon class="cls-20" points="230.84 41.88 250.33 81.37 293.92 87.7 262.38 118.44 269.82 161.85 230.84 141.36 191.86 161.85 199.31 118.44 167.77 87.7 211.35 81.37 230.84 41.88"/><circle class="cls-21" cx="239.06" cy="157.75" r="19.5"/></svg>