<svg id="Слой_1" data-name="Слой 1" xmlns="http://www.w3.org/2000/svg" viewBox="0 0 535.02 594.04"><defs><style>.cls-1{fill:#a27b00;}.cls-2{fill:#ffbeb6;}.cls-3{fill:#f6aba5;}.cls-4{fill:#23286b;}.cls-5{fill:none;stroke:#b98f44;stroke-miterlimit:10;}.cls-6{fill:#ffde2e;}.cls-7{fill:#47704c;}.cls-8{fill:#b98f44;}.cls-9{fill:#f7ada6;}.cls-10{fill:#ffff75;}.cls-11{fill:#6d3e00;}.cls-12{fill:#191e57;}.cls-13{fill:#597d4a;}.cls-14{fill:#8db6f6;}.cls-15{fill:#191e58;}.cls-16{fill:#93baf8;}.cls-17{fill:#a1c3fc;}.cls-18{fill:#734700;}.cls-19{fill:#ffffb5;}.cls-20{fill:#f4b0ea;}</style></defs><title>present 2</title><path class="cls-1" d="M500.24,113c0,7.11-1.1,12.78-5.58,19-4.65,6.45-10.53,11.75-18.84,11.75-15.41,0-31.41-15.33-31.41-30.75a27.92,27.92,0,1,1,55.83,0Z"/><path class="cls-2" d="M404.72,192.51s-13.58-11.92-16.57-14.94-3.18-9.95-4-12.89.88-12.24-.35-12.88-3.7.52-4.42,4.18a53.55,53.55,0,0,0-.73,8.33s-13.09-14-13.53-14.66-3.24-1.36-4.18,8.33,3.15,13.66,7.22,16.78,7.6,4.59,9.75,7.12,9,14,9.91,16.48,5.47,10.89,5.63,11.33S404.72,192.51,404.72,192.51Z"/><path class="cls-2" d="M378.87,212s-19-13-23.22-16.28S350.39,184,349,180.57s-.25-14.87-1.92-15.51-4.75,1-5.26,5.51a59.78,59.78,0,0,0,0,10.13s-18.59-15.48-19.24-16.27-4.36-1.3-4.48,10.5,5.64,16.16,11.28,19.49,10.39,4.75,13.47,7.57,13.21,15.9,14.75,18.85,8.33,12.57,8.59,13.08S378.87,212,378.87,212Z"/><path class="cls-3" d="M154,204.54c1-2.5,1.12-.87,7.62-5.62S171.32,188.54,172,185s1.87-19.62,1.87-19.62L187.41,185s-3.09,3.94-5.21,6.81-8.34,13.94-9.75,18-8.13,11.13-8.38,11.63-10.12-7.5-10.12-7.5Z"/><path class="cls-4" d="M79.82,548.92l-1,9.25A73,73,0,0,1,76.7,568c-1.63,5.75-1.88,12.63-2.5,17.5a18.07,18.07,0,0,0,.87,8.49h82.38a20.81,20.81,0,0,0-5.38-14.24c-6-6.87-20.25-5.51-28.75-8.32s-21-9.55-23.65-14.8S79.82,548.92,79.82,548.92Z"/><path class="cls-5" d="M80.74,99.83s8.92-1.08,14.17,3,1.19,16.92,1.19,16.92Z"/><path class="cls-6" d="M78.82,171l2-1.62s22.75,39.75,27.25,42.75,10.5,2.37,15.38,1.5,34-12.13,34-12.13l5,19.5L142.7,236.79s-30.13.38-33.63,0S96.32,231,94.45,228s-15.63-34.12-15.63-34.12Z"/><path class="cls-7" d="M93.32,394.67l6.25,18.75.1,143.25-20.85,1.5s-11-52.5-11-79.5S93.32,394.67,93.32,394.67Z"/><path class="cls-8" d="M92.82,121.5s4-1.75,3.17-7.5A18.57,18.57,0,0,0,83.66,99.58c-7.17-2.5-19.5-2-26-.33s-14.34,6.58-15.75,12.67-2.5,18-4.84,21.66S27,140.83,27.57,148.5s.5,12.92-6,17.42-8.5,13.5-6.41,19.41S31,198.75,31,198.75l48.52-47Z"/><polygon class="cls-9" points="64.14 154.98 62.7 167.6 73.7 172.79 79.89 168.93 80.32 151.6 64.14 154.98"/><path class="cls-2" d="M88.46,107.23A43.6,43.6,0,0,1,83,121.1c-4,6.13-7.31,10.32-7.44,11.88s.9,4-.44,11.62c-.87,5-11.06,10.32-11.06,10.32s8.16,2.74,16.19,1.25c2.62-.48,7.31-2.19,12.62-6.38s5.57-14.5,7.38-15.5,5.19-3.25,5-4.19-7.63-8.37-8.5-9.87-.88-3.69-2.75-7.06A21,21,0,0,0,88.46,107.23Z"/><path class="cls-10" d="M62.24,164.42s-24.5,20.5-32.5,36.66-9.83,28.84-14.42,36.17S2.41,253.75.74,263.75s0,21.33,0,21.33,8.71,4.65,29.69,6.49,24.06,2,36.08-1.07,24.56-6.92,24.56-6.92l-10.33-115s-3.2,1.69-8.83,1C63.74,168.58,62.24,164.42,62.24,164.42Z"/><path class="cls-11" d="M93.49,121.75a4.57,4.57,0,0,0,3.42.33,6.7,6.7,0,0,0,3.08-2.66"/><path class="cls-5" d="M59.32,158.25s9.67-2.33,15.17-7.75,3.5-14.75,4.33-18.08,7.84-10.25,9.5-16.5a20.25,20.25,0,0,0-.58-11.75L61.91,124.83Z"/><path class="cls-12" d="M17.32,551.17l-2,3.75a52.46,52.46,0,0,0-4.5,12.75c-1.62,7.5-3.75,26.5-3.25,26.37s78.13,0,78.13,0,5.75-7.25-7.25-14.37-26.18-9.13-31.22-12.25-4.91-12.5-4.91-12.5S34.2,542.42,34.2,542,17.32,551.17,17.32,551.17Z"/><path class="cls-13" d="M25.32,290.92s-.5,28,7.25,49.5,16.75,47.5,11.5,61.5-17.51,29-18.75,46.75-10,106.25-10,106.25h27s56-131.25,57.25-141.5-10-129-10-129-11.5,3.25-25.75,6.75S25.32,290.92,25.32,290.92Z"/><path class="cls-4" d="M460.81,547.74l1,9.49A73.62,73.62,0,0,0,464,567.36c1.67,5.91,1.92,13,2.57,18a18.6,18.6,0,0,1-.9,8.71H381.17a21.33,21.33,0,0,1,5.52-14.61c6.15-7,20.77-5.66,29.5-8.53s21.6-9.81,24.26-15.19S460.81,547.74,460.81,547.74Z"/><path class="cls-14" d="M464.57,160.92l-4.7-3.39s-25.39,37.09-30,40.16-10.77,2.44-15.77,1.54-17-19.73-17-19.73l-18.2,18.08L394.34,223s30.91.38,34.5,0,13.08-5.9,15-9,16-35,16-35Z"/><path class="cls-15" d="M447,389.49l-6.41,19.23-.1,147,21.39,1.53s11.29-53.86,11.29-81.56S447,389.49,447,389.49Z"/><polygon class="cls-9" points="476.91 143.57 478.38 156.53 467.1 161.85 460.75 157.89 460.3 140.11 476.91 143.57"/><path class="cls-2" d="M451.9,94.65s.27,8.93,5.58,14.23a162.2,162.2,0,0,0,12.34,11.31c4.13,3.35,6.44,2.25,8.56-1.57,4.69-8.45,16.94.17,8.69,7.55-16.39,14.65,1.7,12.44,1.7,12.44s-2.59,3.22-11.76,5.88c-4,1.16-8.47,1.9-16.71.37-2.69-.49-7.5-2.25-12.95-6.54s-5.71-14.88-7.57-15.91-5.32-3.33-5.13-4.29,7.83-8.59,8.72-10.13.9-3.79,2.82-7.25A21.57,21.57,0,0,1,451.9,94.65Z"/><path class="cls-16" d="M478.83,152.06s18.87,22.13,27.08,38.71,5.39,22.06,10.09,29.59,8.74,13.53,10.45,23.79-5.75,21-5.75,21,10.73,17.94-10.79,19.83-29.39.7-41.72-2.47S443,275.42,443,275.42l16.87-119.08s3.29,1.73,9.07,1C477.29,156.34,478.83,152.06,478.83,152.06Z"/><path class="cls-12" d="M524.94,550.05l2,3.85A53.7,53.7,0,0,1,531.61,567c1.66,7.7,3.84,27.19,3.33,27.06s-80.15,0-80.15,0-5.9-7.44,7.44-14.75,26.86-9.36,32-12.56,5-12.83,5-12.83,8.34-12.82,8.34-13.21S524.94,550.05,524.94,550.05Z"/><path class="cls-4" d="M518.78,282.11s.59,28.82-8.55,51-19.76,48.9-13.57,63.31,20.66,29.86,22.13,48.13S530.57,553.9,530.57,553.9H498.72s-66.06-135.12-67.53-145.68S443,275.42,443,275.42s13.57,3.34,30.38,6.95S518.78,282.11,518.78,282.11Z"/><path class="cls-1" d="M478.32,86.35l3.35.34s-5.47-3.52-29.16-1.34a22.24,22.24,0,0,1-12.81-3.12s4.19,9.87,9.56,13.5,18.19,2.75,18.19,2.75Z"/><path class="cls-11" d="M449,107.25a4.58,4.58,0,0,1-3.41.34,6.74,6.74,0,0,1-3.09-2.67"/><path class="cls-17" d="M479.54,167.79c8.38,5.3,12,35,5.13,51.38s-31.12,54.64-40.36,58.57-30.43-.17-35.56-2.73-18.64.85-25.65.34-18.13-5.64-23.26-9.75-9.4-7-9.4-7l25.48-52.15s47.7,9.91,52.32,10.94c3.53.79,21.19-32.79,29.28-48.59C460,164,471.16,162.49,479.54,167.79Z"/><path class="cls-18" d="M92.34,145c-4.15,0-6-4.06-6-4.11-.28-.67.54-1,.91-.4.07.11,1.73,3.8,5.55,3.49s4-2.55,4-2.64c.16-.62,1-.57.91.1,0,.16-.29,3.18-4.88,3.54Z"/><rect class="cls-1" x="147.56" y="25.73" width="142.79" height="168" transform="translate(-23.32 145.54) rotate(-35.03)"/><rect class="cls-17" x="151.67" y="30.56" width="134.57" height="158.33" transform="matrix(0.82, -0.57, 0.57, 0.82, -23.32, 145.54)"/><path class="cls-2" d="M159.7,221.67s18.5-12.63,22.62-15.88,5.13-11.37,6.5-14.75.25-14.5,1.88-15.12,4.62,1,5.12,5.37a58,58,0,0,1,0,9.88s18.13-15.09,18.75-15.86,4.25-1.27,4.38,10.23-5.5,15.75-11,19-10.13,4.63-13.13,7.38-12.87,15.5-14.37,18.37-8.13,12.25-8.38,12.75S159.7,221.67,159.7,221.67Z"/><path class="cls-19" d="M61.57,178.58c-8.16,5.17-11.66,34.16-5,50.08s30.34,53.26,39.34,57.09,29.66-.17,34.66-2.67,18.17.84,25,.34,17.67-5.5,22.67-9.5,9.17-6.84,9.17-6.84l-24.84-50.83s-46.5,9.67-51,10.67c-3.44.76-20.65-32-28.54-47.36C80.62,174.84,69.74,173.42,61.57,178.58Z"/><path class="cls-18" d="M447.45,132.33c4.15,0,6-4.07,6-4.11.29-.68-.53-1-.9-.41-.08.11-1.73,3.8-5.55,3.5s-4-2.56-4.05-2.65c-.16-.61-1-.56-.92.1,0,.17.3,3.18,4.89,3.55Z"/><circle class="cls-20" cx="227.74" cy="51.58" r="20"/><polygon class="cls-19" points="217.02 41.88 236.51 81.37 280.1 87.7 248.56 118.44 256 161.85 217.02 141.36 178.04 161.85 185.49 118.44 153.95 87.7 197.53 81.37 217.02 41.88"/><circle class="cls-20" cx="225.24" cy="157.75" r="19.5"/></svg>