<svg id="Слой_1" data-name="Слой 1" xmlns="http://www.w3.org/2000/svg" xmlns:xlink="http://www.w3.org/1999/xlink" viewBox="0 0 348.17 280.91"><defs><style>.cls-1{fill:#ebcbce;}.cls-2{fill:#e29664;}.cls-3{fill:url(#Безымянный_градиент_11);}.cls-4{fill:url(#Безымянный_градиент_11-2);}.cls-17,.cls-5{fill:#fdd5dd;}.cls-5{opacity:0.61;}.cls-5,.cls-6{isolation:isolate;}.cls-7{fill:url(#Безымянный_градиент_39);}.cls-8{fill:#322012;}.cls-9{fill:#fff;}.cls-10,.cls-16{fill:#a24400;}.cls-10{opacity:0.72;}.cls-11{fill:#003045;}.cls-12{fill:#4d4d4d;}.cls-13{fill:#1e1e1e;}.cls-14{fill:#999;}.cls-15{fill:#f6f6f6;}.cls-18{fill:url(#Безымянный_градиент_46);}.cls-19{fill:url(#Безымянный_градиент_47);}.cls-20{fill:url(#Безымянный_градиент_48);}.cls-21{fill:url(#Безымянный_градиент_49);}.cls-22{fill:url(#Безымянный_градиент_50);}.cls-23{fill:url(#Безымянный_градиент_51);}.cls-24{fill:url(#Безымянный_градиент_52);}.cls-25{fill:url(#Безымянный_градиент_53);}.cls-26{fill:url(#Безымянный_градиент_54);}.cls-27{fill:url(#Безымянный_градиент_55);}</style><linearGradient id="Безымянный_градиент_11" x1="100.17" y1="11.18" x2="101.01" y2="61.25" gradientUnits="userSpaceOnUse"><stop offset="0" stop-color="#ff94a0"/><stop offset="0.13" stop-color="#f78896"/><stop offset="0.37" stop-color="#e06a7a"/><stop offset="0.69" stop-color="#bd384f"/><stop offset="1" stop-color="#94001d"/></linearGradient><linearGradient id="Безымянный_градиент_11-2" x1="201.02" y1="8.01" x2="201.87" y2="58.77" gradientTransform="translate(5.63 -24.25) rotate(7.07)" xlink:href="#Безымянный_градиент_11"/><linearGradient id="Безымянный_градиент_39" x1="149.26" y1="11.54" x2="149.26" y2="18.88" gradientTransform="matrix(1, 0, 0, -1, 0, 103.9)" xlink:href="#Безымянный_градиент_11"/><linearGradient id="Безымянный_градиент_46" x1="31.51" y1="-113.61" x2="45.54" y2="-113.61" gradientTransform="matrix(1, 0, 0, -1, 0, 103.9)" xlink:href="#Безымянный_градиент_11"/><linearGradient id="Безымянный_градиент_47" x1="40.07" y1="-101.79" x2="44.88" y2="-101.79" gradientTransform="matrix(1, 0, 0, -1, 0, 103.9)" xlink:href="#Безымянный_градиент_11"/><linearGradient id="Безымянный_градиент_48" x1="32.75" y1="-101.74" x2="37.76" y2="-101.74" gradientTransform="matrix(1, 0, 0, -1, 0, 103.9)" xlink:href="#Безымянный_градиент_11"/><linearGradient id="Безымянный_градиент_49" x1="27.55" y1="-104.89" x2="33.19" y2="-104.89" gradientTransform="matrix(1, 0, 0, -1, 0, 103.9)" xlink:href="#Безымянный_градиент_11"/><linearGradient id="Безымянный_градиент_50" x1="25.31" y1="-110.69" x2="30.93" y2="-110.69" gradientTransform="matrix(1, 0, 0, -1, 0, 103.9)" xlink:href="#Безымянный_градиент_11"/><linearGradient id="Безымянный_градиент_51" x1="1368.74" y1="-189.14" x2="1382.77" y2="-189.14" gradientTransform="matrix(0.4, 0.92, 0.92, -0.4, -98.54, -1112.32)" xlink:href="#Безымянный_градиент_11"/><linearGradient id="Безымянный_градиент_52" x1="1377.31" y1="-177.25" x2="1382.12" y2="-177.25" gradientTransform="matrix(0.4, 0.92, 0.92, -0.4, -98.54, -1112.32)" xlink:href="#Безымянный_градиент_11"/><linearGradient id="Безымянный_градиент_53" x1="1369.99" y1="-177.23" x2="1375" y2="-177.23" gradientTransform="matrix(0.4, 0.92, 0.92, -0.4, -98.54, -1112.32)" xlink:href="#Безымянный_градиент_11"/><linearGradient id="Безымянный_градиент_54" x1="1364.79" y1="-180.37" x2="1370.43" y2="-180.37" gradientTransform="matrix(0.4, 0.92, 0.92, -0.4, -98.54, -1112.32)" xlink:href="#Безымянный_градиент_11"/><linearGradient id="Безымянный_градиент_55" x1="1362.55" y1="-186.11" x2="1368.17" y2="-186.11" gradientTransform="matrix(0.4, 0.92, 0.92, -0.4, -98.54, -1112.32)" xlink:href="#Безымянный_градиент_11"/></defs><title>red_cat</title><path class="cls-1" d="M340.78,115.09a77.58,77.58,0,0,0-7.18,3.72c-6.83,4.1-18.5,8.81-18.5,8.81l-6.5,5-1.7,12.76a15,15,0,0,1,1.2,3.58c0,1,1,20,13,26.12s15.62,2.75,19.46.68,8.21-13.13,7.54-30.46C347.52,130.13,345.15,122.37,340.78,115.09Z"/><path class="cls-2" d="M164.91,37.32s-13.8-2-22-1.1-12,3.1-12,3.1-19.4-23.1-23.8-26.9-9.1-7.8-15-6.6-8.6,8.1-11.4,20.6-5.1,31.3-4.8,38.3.6,19.4.6,19.4-5.4,3.8-4.8,4.1,3,.6,2.8,1.5-4.6,8.8-4.6,9.9.5,1.9-1.5,4.5-3.8,3.9-3.3,4,3.9-.6,3.6,0-2.5,1.8-.8,1.6,1.9-1.1,1.8-.1-9,13-8.3,13,2.9-1.4,2.3,0-1.8,2.5-.6,2.3,2.4-1.1,2.3-.5S63.08,131,63.08,131,59.53,142,59.33,148.73s4.38,16.39,1.18,22.29-10.4,11.6-12.3,16.6a23.56,23.56,0,0,0-1.3,10s-2.43-3-5.81-1.92-3.34,5.13-3.34,5.13c-2.22-4.31-11.84-4.83-11.16,3.82.17,2.1-3.18-1.38-4.29,3.37-3.3,11.3,8.6,28.6,12,36.1s13.8,21.1,22,24.8,11.9,3.1,15.3,1,10-6.9,10-6.9,6.44,3.42,17.76,5.42c13.84,2.44,54.82-4,60-4.17,5-.16,31.36,3.5,37.86,4s25.78-1.15,26.48-1.65,12.7,8.8,17.6,9.1c6.61,2.93,19.69-7.27,26.19-14.57s23.26-30.59,25.67-36.93a32.4,32.4,0,0,0,2-6.75c1.19-5.55-4.06-4-4.09-4.8-.39-8.79-6.62-3.17-6.64-3.9-.22-6.12-7.77-1.15-7.77-1.15s-1.3-18.5-4.3-26.7,2.1-26.48-4.87-37.81c-9.62-15.63-9.91-19.81-11.61-22.91s-.8-3.8-.8-3.8l5.7,2.3s-2.3-1.8-3.2-2.7,1.3-.4.1-1.5-3.8-.6-1.6-1.6a33.85,33.85,0,0,0,3.3-1.6c.3-.2-4.84-2-6.76-3.13-3.47-2.22-10.7-10-13-13.19-3.34-4.6-9.56-17.06-10.66-19.36s3-2.6,2.6-2.8-3.6-.8-3.8-1.8-1.8-26.3-1.3-32-2.7-28-5.3-32.9-7.8-4.3-13.3-1.9-18.5,14.3-24.9,18-13.4,11.3-14.8,13.3-1.8,2.5-1.8,2.5Z"/><path class="cls-3" d="M118.33,42.53c-.5-1.6-13-25.1-17.2-28.5-4.3-3.6-9.7-4.8-12.7,3.4s-6,38.6-4.9,42.5,18.6-.6,21.3-2.6-4.4-2.1-4-3.4,8.7-1.1,3.3-2.3-10.4-3-5.2-3.6,5.8.4,4-1.6-3-3.8-.1-3.3,3.1,0,2.6-1.6-1.7-4.6.8-2.3,3.2-1.4,4.2-.8,1.4,1.8,2,2.6,2-1.4,3.6.1,1.6.9,1.6.9Z"/><path class="cls-4" d="M207.22,12.14c-6.37,4.25-26.09,27.6-25.17,28.32s15-6.8,13.81-4.94-6.06,4.19-1.76,3.61,6.1-1.26,4.48.46-2.38,2.12.69,1.7,6.58-1.81,7.09-.24-7.16,4.06-7.6,5.21,5.2,2,3.31,2.53-3.64,1-4.37,2,2.75,3,2.7,3.36-2,.86,5.93,4.26,8.51,2.87,10.5-5,4.42-20.21,2.82-30.89c-.89-5.86-1.87-10.91-4.29-12.52C213.29,8.66,210.08,10.18,207.22,12.14Z"/><path class="cls-5" d="M117.07,85.31c-3.1.1-18.81,5.9-15.2,6.9s4.4,3.5,2.1,7-.8,4.8-1,8.3,2.6,3,4.3,6.2,7.1.9,8.5,5.2,7.2,6.8,10.9,10.3,2.4,1.9,16.8,6.5,20.8-2.2,24.1-5,16.6-9.4,21.8-13.2,2.5-8.4,3.5-10.4-5.8-6.8-.8-11.7-.3-6.7.9-9.6-1.4-4.1,7.4-10.6,7-9.6-1.1-9.2-25.2,1.9-24-1.1-7.5,1-7.7-2.6-3.8-2.3-6.9-3.2-10,3.6-11.9-1.3-7.4-6.9-8.7-3.2-1.5,11-5.1,9.5-8.4-2.5-9.4-1.6-9.6,2.1-14.8,1.1-23,2-17.5,4.1,5.9,4,7.8,6.2-.6,5.2,3.2,8.2S117.07,85.31,117.07,85.31Z"/><image class="cls-6" width="87" height="81" transform="translate(106.25 49.27) scale(0.99)" xlink:href="../../../Dropbox/ВЕКТОР/D0782AEB.png"/><path class="cls-7" d="M155.26,87.41a8.83,8.83,0,0,0-6.4-2.3c-3.1,0-6.5,2.3-5.8,3.8s1.5.2,3,.5,1.7,3.3,3.6,3.1,1-3.4,2.3-3.5,2.6,1.1,3.2.3A1.48,1.48,0,0,0,155.26,87.41Z"/><path class="cls-2" d="M128.49,38.52s-18-20.7-19.7-21.5-3.3,2.4-3.3,2.4L118,41.82s-2.3-1.9-3.5-2.1a2.24,2.24,0,0,0-1.9.7c-.1,0-1.4-3.1-2.7-3.7s-1.3,3.1-1.5,2.8-5.6-4.1-6.4-3.6,1.8,3.3,1.7,3.3-7.7-2.9-8.3-1.8,4.3,5.1,4.3,5.1-3.1-1-3.4,0,2.9,3.7,2.9,3.7-3.6.4-3.9,1.3.9,1.9,3.5,2.6,6,1.3,6,1.5-4.1.7-4.7,1.3,1.7,1.3,3.6,2c3.7,1.3-1.58,4-12.27,6.77-1.7.5.8,2.61.8,2.71-.1,1.1,27.17-6.58,27.47-6.78C133.59,52.22,128.49,38.52,128.49,38.52Z"/><path class="cls-2" d="M172.67,36S191.34,16.89,193,16.19a2,2,0,0,1,2.63.72l-12.5,22.4s2.3-1.9,3.5-2.1a2.25,2.25,0,0,1,1.9.7c.1,0,1.4-3.1,2.69-3.7s1.31,3.1,1.5,2.8,5.6-4.1,6.41-3.6-1.81,3.3-1.7,3.3,7.7-2.9,8.3-1.8-4.3,5.1-4.3,5.1,3.1-1,3.4,0-2.9,3.7-2.9,3.7,3.6.4,3.9,1.3-.9,1.9-3.5,2.6-6,1.3-6,1.5,4.1.7,4.7,1.3-1.7,1.3-3.6,2c-3.7,1.3.09,5.16,10.7,8,1.69.5-1,5.14-1,5.24.1,1.1-25.6-10.3-25.9-10.5C167.57,49.71,172.67,36,172.67,36Z"/><path d="M132.07,74.91c-.1-.4-3.4-2.4-7.7-3.5s-13.4-.1-17.3-.5-4.81-.6-4.81-.6a46.13,46.13,0,0,0,7.1,2.3c3.6.8,10.9,1.4,14.9,1.8s7.7,3.3,8.2,2.5S132.07,74.91,132.07,74.91Z"/><path class="cls-8" d="M148.76,95.61a7.74,7.74,0,0,1-4.8,6.5c-4.7,2.1-8.4,5.7-15.6,2.2-9-4.3-14.3,8.7,3.31,15.1,6.3,2.3,9.69,1.8,17.19,1.3s8.81,1.3,12.81.2,13.9-4.6,14.4-9.6-2.9-9-9.31-7-11.4,1-13.8-1.4-1.5-6.1-2.3-7.3S148.76,95.61,148.76,95.61Z"/><path class="cls-9" d="M135.57,106.71s1.3,8.8,2.1,10.2,1.9,2.6,1.9.8.1-10.2,0-10.9-1.31-.8-2.31-.6A3.12,3.12,0,0,0,135.57,106.71Z"/><path class="cls-9" d="M159.36,106.51a6.13,6.13,0,0,1,2.4-.5,1.9,1.9,0,0,1,1.31.5,40.26,40.26,0,0,1,0,6.3c-.31,2.5-1,4.8-1.31,4.3a47.05,47.05,0,0,1-1-6.6A24.73,24.73,0,0,0,159.36,106.51Z"/><path class="cls-9" d="M143.26,104.11s-.19,1.3.5,1.5,1.41-1.1,2-.4a1.41,1.41,0,0,0,1.91.1c.4-.3,1.3.3,2.09.4s1.1-.7,1.41-.6.9,1,1.3.9.2-2.2-.2-2.6-1.4.1-1.4.1-.8-.8-1-.8-1.4,1.3-1.4,1.3a11.91,11.91,0,0,0-.9-1.5,2.6,2.6,0,0,0-1.6,1c-.2.6-.8-.1-1.2-.4S143.26,104.11,143.26,104.11Z"/><path class="cls-9" d="M140.86,106.51s-.6,11.5.31,12.2a2.54,2.54,0,0,0,3.09-.2c.81-.7.91-.2,2.1,0s1.7-.7,2.31-.2a3.34,3.34,0,0,0,2.19.1c.4-.1,1.6.7,2,.8s2-1.3,2.5-.7,1.4,1.2,1.9.2.7-10.7.41-11.7-2,3.6-2.5,5.6-.91,3.9-.91,3.8-1.69-1.8-2.19-1.1-1.2,1.3-1.7.5-1-1.9-1.9-.9-1.3,1.9-1.6,1.3-1-2-1.5-1.5-1.5,1.9-1.7,1.3-.9-6.3-1.3-8.2-.7-2.5-1.1-2.2A5.26,5.26,0,0,0,140.86,106.51Z"/><path class="cls-10" d="M241.08,131.73s-.83-1.17-3.75-.75-7.16,3.17-8.33,3.17,3.25.41,3,.58-3.66,2.06-3.79,2.53,2.1.89,2.1.89-9.81,8.5-8.73,8.41,3.67-1.33,2.67,0-6.5,12.7-6.5,12.7l4.25-.61Z"/><path class="cls-11" d="M97.76,220.91c-.69,1.1-12.9,1.4-13.59,1.2-1-.2-2.81-1.3-2-2.6s12.9-1.4,13.59-1.2c1.21.2,2.81,1.4,2,2.6Zm138.5-87h0a3,3,0,0,0-2,1.16,23,23,0,0,0-1.24,2c-2.2,4.1-5.11,9.2-5.41,9.9-1.9,3.3-3.7,6.5-5.6,9.8-1.5,2.7-10.8,18.4-11,19.8-1.1-.4-4-3.9-4.8-4.8l-4.4-4.9c-4.9-6-11.3-10.6-19.7-11l-94-4.4c-7.8-.4-15.6-.6-23.4-1.1-3.6-.2-8.4-.6-11.9,0-3.1.5-6.7,2.3-7.1,5-.6.4-.4.3-.7,1.1a6.11,6.11,0,0,0-.3,1.3,15.3,15.3,0,0,1-.6,2.5v3a4.13,4.13,0,0,1,.7,1.5l4,11c1.6,4.2,3,8.4,4.6,12.7,3,8.4,6.1,16.9,9.1,25.2,1.6,4.2,3,8.4,4.5,12.5,3.6,9.6,4.4,17.4,12.1,22.4,7,4.6,10.1,3.7,12.6,4.7h4.8c1-.4,8.1-.9,9.8-1.1l30.7-3c13.6-1.1,27.1-2.8,40.6-4s27.2-2.6,40.6-4c10.3-1.1,20.6-1.9,30.7-3,5.3-.6,3.8-1.9,5.5-5.6v-5h-.2c-.6-4.3-6.4-9-9.5-12.9a8,8,0,0,0-1.3-1.3l-4.6-5.2a28.48,28.48,0,0,1-2.3-2.6l-7-7.9a15.93,15.93,0,0,0-1.3-1.3,12.67,12.67,0,0,0-1.1-1.3,14.2,14.2,0,0,1-1.2-1.3c-1.5-1.8-7.4-8-8.2-9.2a14.8,14.8,0,0,1,2.1-3l5.4-9.7c1.9-3.4,3.7-6.5,5.6-9.8.7-1.1,10-17.89,11.21-20.1.39-.81.74-1.42,1.16-2.36-2.18-1.24.23-3.14.13-4.64-.1-2.1-.8-2.3-1.8-3.3h-2a17.23,17.23,0,0,0-3.2,2.2ZM198,207.21l1.1.8a4.69,4.69,0,0,0,1.69.1l-1.19.2c-.4,2.4-1.6,2.1-2.5,2.1-.5-2,.4-1.4.9-3.2ZM74.17,187c3.19-.9,7.19.7,8.9,2.2,2.69,2.4,2.4,5.5-1.6,6.3-7.21,1.5-15.9-6.1-7.3-8.5Zm6.09,28.9c.41,2.5,6,1.6,7.81,1.5,3-.2,8,.2,7.9-1.7-.2-2.6-5.6-1.9-8-1.7-2,.2-8.11-.3-7.71,1.9ZM78.67,212c-1-2.6,5.5-2,7.3-2.1,2.3-.2,7.4-.8,8.1,1.3s-3.9,1.7-7.2,2c-1.3.1-5.7.4-6.9-.1a7.12,7.12,0,0,1-1.3-1.1Zm13.5-3.9c-1.41.9-11.91,1.1-13.1.9-.9-.2-2.6-1-2-2.3.5-1.1,2.69-.8,4.1-.9,4.09,0,11.8-1.4,11,2.3Zm-19.91-24.9c6.31-1,13,2.1,16.1,5.1,5.31,5.2,1.7,10.5-5,11.3-10.9,1.4-21.9-6.9-18.3-12.8,1.51-2.2,3.91-3.1,7.2-3.6Zm-7.19-7.8c.69-.3,4.9-.1,6-.1,2.4,0,7.5-.6,7.6,1.9-1.1,1-3.6.6-5.5.6s-4.1.1-6.1,0-3.81-1.7-2-2.4Zm-1.9-2.8c.4-1,6.4-.6,7.9-.5,2.3,0,6.19-.5,6,2.1-1.4.9-5.9.4-7.81.4-1.69-.1-6.9.1-6.09-2Zm7.19-3.8c2.2,0,5.2-.3,5.31,2a2.64,2.64,0,0,1-2,.5c-2.6,0-5.2-.1-7.7-.1-4.8,0-4.7-2.1-3.2-2.4,1-.3,6.09,0,7.59,0Zm2-2.9c.7.1,2.2.8,1.81,1.7s-6.1.4-7.5.4c-2.2,0-6.2.5-6-2.1C61.57,165.31,71.07,165.61,72.36,165.91Z"/><path class="cls-12" d="M97.76,220.91c-.69,1.1-12.9,1.4-13.59,1.2-1-.2-2.81-1.3-2-2.6s12.9-1.4,13.59-1.2c1.21.2,2.81,1.4,2,2.6Zm-17.5-5c.41,2.5,6,1.6,7.81,1.5,3-.2,8,.2,7.9-1.7-.2-2.6-5.6-1.9-8-1.7-2,.2-8.11-.3-7.71,1.9ZM78.67,212c-1-2.6,5.5-2,7.3-2.1,2.3-.2,7.4-.8,8.1,1.3s-3.9,1.7-7.2,2c-1.3.1-5.7.4-6.9-.1a7.12,7.12,0,0,1-1.3-1.1Zm13.5-3.9c.8-3.7-6.91-2.3-11.1-2.2-1.4,0-3.6-.3-4.1.9s1.2,2.1,2,2.3c1.29.2,11.79-.1,13.2-1Zm-19.91-24.9c6.31-1,13,2.1,16.1,5.1,5.31,5.2,1.7,10.5-5,11.3-10.9,1.4-21.9-6.9-18.3-12.8,1.51-2.2,3.91-3.1,7.2-3.6Zm-7.19-7.8c.69-.3,4.9-.1,6-.1,2.4,0,7.5-.6,7.6,1.9-1.1,1-3.6.6-5.5.6s-4.1.1-6.1,0-3.81-1.7-2-2.4Zm-1.9-2.8c-.81,2.2,4.3,1.9,6,1.9,2,0,6.4.6,7.8-.4.2-2.5-3.7-2-6-2.1-1.4,0-7.4-.4-7.8.6Zm7.19-3.8c2.2,0,5.2-.3,5.31,2a2.64,2.64,0,0,1-2,.5c-2.6,0-5.2-.1-7.7-.1-4.8,0-4.7-2.1-3.2-2.4,1-.3,6.09,0,7.59,0Zm2-2.9c-1.3-.3-10.8-.6-11.8.1-.2,2.6,3.8,2,6,2.1,1.4,0,7,.6,7.5-.4s-1.09-1.7-1.7-1.8Zm127.11,30.5,1.3-2c3-4.1,5.1-8.5,7.5-12.9-.7-1.1-3.3-3.9-4.5-5.3l-11.3-12.8c-2.3-2.4-1.7-3-4.1-3.1-11.5-.5-22.9-.8-34.4-1.4-12.4-.7-24.9-.7-37.2-1.4-6-.4-12.4-.5-18.4-.7s-12.6-.8-18.5-.7a46.28,46.28,0,0,0,2.4,5.1l26.8,54.8c2.5,5.1,7.8,15.6,9.6,20.1l128.1-10.6L215.07,189c-.6.4-.7.8-1.1,1.5l-5.7,11.3c0-.9,0-.6-.8-1.1l-8-4.3Zm-153.8-41.2c-.2,2.9,3.59,11.9,4.8,15.1,1.7,4.9,3.6,9.8,5.3,14.8l16,44.3c2.4,6.5,3.1,9,7.5,12.6a27.18,27.18,0,0,0,14.4,5.6c5.1.4,13.3-.9,18.7-1.4,24.4-2.4,48.8-4.7,73.2-7.2l36.69-3.6,18.41-1.8c8.3-.8,14.19.1,13.59-6.5-.59-4.3-6.4-9-9.5-12.9a8,8,0,0,0-1.3-1.3l-4.6-5.2a28.48,28.48,0,0,1-2.3-2.6l-7-7.9a15.93,15.93,0,0,0-1.3-1.3,12.67,12.67,0,0,0-1.1-1.3,14.2,14.2,0,0,1-1.2-1.3c-1.5-1.8-7.4-8-8.2-9.2a15.21,15.21,0,0,1,2.1-3,53.87,53.87,0,0,1-8.9-4.9c-1.1-.4-4-3.9-4.8-4.8l-4.4-4.9c-4.9-6-11.3-10.6-19.7-11l-94-4.4c-7.8-.4-15.6-.6-23.4-1.1-3.6-.2-8.4-.6-11.9,0C49.67,150.81,46.07,152.61,45.67,155.21Z"/><path class="cls-13" d="M208.17,201.91a10.41,10.41,0,0,0-1.41,1.9,9.72,9.72,0,0,1-1.69,1.8c-1,1-2.5,2.4-4.4,2.5h-1.11c-1.24,1.86-1.78,2.78-2.37,2.51s-.1-1,.78-3.42c-1.8-4.2-.2-7.4,1.4-10.9l1.3-2c3-4.1,5.1-8.5,7.5-12.9-.7-1.1-3.3-3.9-4.5-5.3l-11.3-12.8c-2.3-2.4-1.7-3-4.1-3.1-11.5-.5-22.9-.8-34.4-1.4-12.4-.7-24.9-.7-37.2-1.4-6-.4-12.4-.5-18.4-.7s-12.6-.8-18.5-.7a46.28,46.28,0,0,0,2.4,5.1l26.8,54.8c2.5,5.1,7.8,15.6,9.6,20.1l128.1-10.6L215,188.91c-.6.4-.7.8-1.1,1.5Z"/><path class="cls-14" d="M44.17,160.11v3a4,4,0,0,1,.69,1.5l4,11c1.6,4.2,3,8.4,4.6,12.7,3,8.4,6.1,16.9,9.1,25.2,1.6,4.2,3,8.4,4.5,12.5,3.6,9.6,4.4,17.4,12.1,22.4,7,4.6,10.1,3.7,12.6,4.7h4.8c1-.4,8.1-.9,9.8-1.1l30.7-3c13.6-1.1,27.1-2.8,40.6-4s27.2-2.6,40.6-4c10.3-1.1,20.6-1.9,30.7-3,5.3-.6,3.8-1.9,5.5-5.6v-5h-.2c.6,6.6-5.3,5.6-13.6,6.5l-18.4,1.8-36.7,3.6-73.2,7.2c-5.3.5-13.5,1.8-18.69,1.4a27.74,27.74,0,0,1-14.41-5.6c-4.4-3.6-5.09-6.2-7.5-12.6l-16-44.3c-1.8-4.9-3.59-9.9-5.3-14.8-1.1-3.2-5-12.2-4.8-15.1-.6.4-.4.3-.7,1.1a6.11,6.11,0,0,0-.3,1.3C44.47,158.41,44.47,159.41,44.17,160.11Z"/><path class="cls-13" d="M211,176.51c.5.7,7.8,4.7,8.9,4.9l5.4-9.7c1.9-3.4,3.7-6.5,5.6-9.8.9-1.5,10.26-18.43,11.1-19.9a73.52,73.52,0,0,1-9-4.9l-5.4,9.8c-1.9,3.3-3.7,6.5-5.6,9.8C220.47,159.41,211.17,175.21,211,176.51Z"/><path class="cls-14" d="M74.17,187c3.19-.9,7.19.7,8.9,2.2,2.69,2.4,2.4,5.5-1.6,6.3-7.21,1.5-15.9-6.1-7.3-8.5Zm-1.91-3.8c-3.3.5-5.69,1.4-7.09,3.7-3.6,5.9,7.3,14.2,18.3,12.8,6.7-.8,10.3-6.1,5-11.3C85.26,185.31,78.57,182.21,72.26,183.21Z"/><path class="cls-13" d="M74.17,187c-8.6,2.5.09,10.1,7.3,8.6,4-.8,4.3-4,1.6-6.3C81.26,187.71,77.26,186.11,74.17,187Z"/><path class="cls-15" d="M197.78,207a2.83,2.83,0,0,0,3,1.16c2.44-.18,5.29-2.47,7.6-6.6l-9-5.17C197.75,199.84,196,202.75,197.78,207Z"/><path class="cls-14" d="M97.76,220.91c.7-1.2-.9-2.3-1.9-2.6-.69-.2-12.9,0-13.6,1.2-.8,1.4,1,2.4,2,2.6C84.86,222.21,97.17,221.91,97.76,220.91Z"/><path class="cls-14" d="M80.26,215.91c.41,2.5,6,1.6,7.81,1.5,3-.2,8,.2,7.9-1.7-.2-2.6-5.6-1.9-8-1.7C86,214.21,79.86,213.71,80.26,215.91Z"/><path class="cls-14" d="M78.67,212a7.12,7.12,0,0,0,1.3,1.1c1.2.5,5.5.2,6.9.1,3.3-.3,8,.2,7.2-2s-5.81-1.5-8.1-1.3C84.17,210,77.57,209.31,78.67,212Z"/><path class="cls-14" d="M92.17,208.11c.8-3.7-6.91-2.3-11.1-2.2-1.4,0-3.6-.3-4.1.9s1.2,2.1,2,2.3C80.26,209.31,90.76,209,92.17,208.11Z"/><path class="cls-14" d="M242,131.29c-2.58-1.26-6.84,1.53-7.64,3.63a25,25,0,0,0,3.68,2.4,46.58,46.58,0,0,0,5.12,2.33C244.31,137.55,244.48,132.52,242,131.29Z"/><path class="cls-14" d="M78.57,177.31c0-2.5-5.1-1.9-7.6-1.9-1.1,0-5.2-.2-6,.1-1.8.7.2,2.3,2,2.4,2,.1,4.1,0,6.1,0S77.57,178.21,78.57,177.31Z"/><path class="cls-14" d="M77,174.11c.2-2.5-3.7-2-6-2.1-1.4,0-7.5-.5-7.9.5-.81,2.2,4.3,1.9,6,1.9C71.17,174.51,75.57,175.11,77,174.11Z"/><path class="cls-14" d="M73.57,171.31a2.64,2.64,0,0,0,2-.5c-.1-2.3-3.1-2-5.31-2-1.5,0-6.59-.3-7.69,0-1.4.3-1.6,2.4,3.19,2.4C68.47,171.21,71.07,171.31,73.57,171.31Z"/><path class="cls-14" d="M60.57,166c-.2,2.6,3.8,2,6,2.1,1.4,0,7,.6,7.5-.4s-1.1-1.6-1.81-1.7C71.07,165.61,61.57,165.31,60.57,166Z"/><path class="cls-2" d="M243.45,151.25s-6.6,5.6-22.6,7.8-22.5,19.8-20.8,24,10,3,10,3-3.3,1.8,3,6,9.8,1.8,12,0,.1,2.1,7.7,4.4,5.9,6.6,15.6-.2,8.2-16.6,8.2-16.6"/><path class="cls-16" d="M240.81,200.28a6.88,6.88,0,0,1-3.55-1.31,19.22,19.22,0,0,0-4.74-2.18c-4.56-1.39-5.78-3.34-6.44-4.39a2.16,2.16,0,0,0-.32-.46s-.12.06-.48.35c-1.84,1.51-5.67,4.65-12.59,0-2.78-1.85-4.15-3.54-4.09-5a2.42,2.42,0,0,1,.18-.77c-2.46.16-7.78.07-9.27-3.43-.94-2.3.3-7.26,2.93-11.8,2.43-4.21,8.05-11.48,18.26-12.89,15.67-2.15,21.2-6.95,22.34-7.68a22,22,0,0,1-4.12,4c-1.91,1.22-2.13,2.5-18.09,4.69-9.79,1.35-15.18,8.35-17.53,12.4-2.69,4.64-3.57,9.2-2.87,10.92,1.62,3.79,9.38,2.71,9.46,2.69l2.77-.4-2.46,1.34a1.27,1.27,0,0,0-.6,1c0,.62.42,2,3.64,4.13,6.31,4.21,9.63,1.49,11.41,0A1.68,1.68,0,0,1,226,191c.46.07.7.46,1,.91.59.94,1.68,2.69,5.88,4a20.72,20.72,0,0,1,5,2.28c2.66,1.59,3.65,2.18,10.21-2.41a20.43,20.43,0,0,0,9-16.27c0,.1,1.43,10.19-8.41,17.09C244.63,199.26,242.51,200.28,240.81,200.28Z"/><path class="cls-2" d="M101.17,119s4.19,4.7,10.59,11.7,19.81,2.2,26.2,13.6,7.7,24,3.6,29.7-14.3,8.9-14.4,5.4-2.4,3-6.4,0,1.2-12.6-3.9-9.3-8.9,2.9-9-1.6-2.6-4.8-10-9.8-17.4-4.7-21.1-6.7a27.56,27.56,0,0,1-5.3-3.5"/><path class="cls-16" d="M129.39,181.37a4.51,4.51,0,0,1-1.28-.17,1.84,1.84,0,0,1-1.44-1.78,2.74,2.74,0,0,0,0-.47l-.44.34c-1.1.86-3.15,2.45-5.74.52-2.14-1.61-1.91-4.84-1.75-7.19.07-1,.18-2.5-.13-2.68,0,0-.3-.16-1.44.59-3.29,2.12-6.08,2.77-7.87,1.83-.84-.45-1.85-1.48-1.91-3.84-.07-3.23-1.44-4.09-5.53-6.66-1.21-.76-2.59-1.62-4.25-2.74C93.05,156.06,87.5,155,83,154.18a25.27,25.27,0,0,1-6.51-1.73,27.5,27.5,0,0,1-5.41-3.58s4.27,2.4,6.64,3.34c1.39.55,2.83.5,5.46,1,4.55.85,10.22,1.91,14.92,5.09,1.64,1.11,3,2,4.22,2.73,4.19,2.62,5.92,3.71,6,7.48,0,1.51.5,2.51,1.38,3,1.43.76,3.93.11,6.85-1.78.79-.51,1.78-1,2.5-.61s.74,1.8.62,3.61c-.16,2.24-.36,5,1.35,6.32,2,1.48,3.45.33,4.53-.51.59-.46,1-.83,1.54-.59s.54.76.54,1.5c0,.28.09.64.73.83,2.49.76,9.59-2.11,12.76-6.52,4.13-5.75,2.57-18.29-3.63-29.16-3.55-6.32-9.31-7.51-14.88-8.66-4.32-.89-8.4-1.73-11.25-4.86-6.33-6.92-7.58-9.36-7.63-9.41l-2.23-3s4.27,4.78,10.59,11.7c2.64,2.88,6.57,3.69,10.73,4.55,5.52,1.14,11.77,2.43,15.54,9.14,6.38,11.2,7.92,24.2,3.57,30.24C139,178.37,132.93,181.37,129.39,181.37Z"/><path d="M164.86,74.91c.1-.4,3.4-2.4,7.7-3.5s13.4-.1,17.3-.5,4.81-.6,4.81-.6a46.13,46.13,0,0,1-7.1,2.3c-3.6.8-10.9,1.4-14.9,1.8s-7.7,3.3-8.2,2.5S164.86,74.91,164.86,74.91Z"/><path class="cls-17" d="M127.25,139.92c-5-1-25.5,0-20.1,2.3s8.8,2.3,8.9,7.2,3.5,2,6.2,6.6,7.4-3.7,9.8,2.6-.8,17.1,2.8,10,.2,4.7,2,4,5.9-4.6,5.7-11.6-4.3-16.6-8.6-19.4S127.25,139.92,127.25,139.92Z"/><path class="cls-17" d="M230.86,161.91a21.84,21.84,0,0,0-14.4,2.1c-7.4,3.9-13.6,6.2-11.4,11.9s10.1,1.7,10.7,2.8-5,5.4.8,6,5.6-3.1,8-.4,5.1,0,6.4,3.1.11,3.59,1.62,5.86c.59.88,3.09,3.14,9,.74s7.4-.9,10-7.5,3.9-16.6,2-16.9-3.31,3.6-4.6-1.1-4.4-5.1-5.4-5.1C242.36,163.51,230.86,161.91,230.86,161.91Z"/><path class="cls-17" d="M243.93,271.17c8.8-.7,36.87-35.34,41.87-43.45,2.5-8.66-6.62-15.63-13.57-10.75C262.29,224,226.93,269.06,243.93,271.17Z"/><path class="cls-17" d="M48.74,212.17c2.9,3.52,28.1,46.4,19.2,49.1s-32.4-25.56-34.7-30c-2.7-5.21-7.35-14.24-3.25-22.14S45.72,208.51,48.74,212.17Z"/><path class="cls-18" d="M35.69,212.09s-2.6-.1-3.4,3.6-1.6,6,.8,7.3a3.53,3.53,0,0,0,5.1-1.6c.8-1.6.9-2.1,2.8-2.1s3.9-.1,4.4-2.9-.1-4.1-3.6-4.7A12.57,12.57,0,0,0,35.69,212.09Z"/><ellipse class="cls-19" cx="42.49" cy="205.69" rx="2.4" ry="2.9"/><path class="cls-20" d="M37.49,204.79c.6,1.7.2,3.4-1.1,3.9s-2.7-.5-3.4-2.2-.2-3.4,1.1-3.9S36.79,203.09,37.49,204.79Z"/><path class="cls-21" d="M32.09,207.19c1.2,1.3,1.4,3.1.4,4s-2.7.5-4-.8-1.4-3.1-.4-4S30.89,205.89,32.09,207.19Z"/><path class="cls-22" d="M29,212.39a2.68,2.68,0,0,1,1.8,3.3,2.71,2.71,0,0,1-3.6,1.1,2.68,2.68,0,0,1-1.8-3.3A2.78,2.78,0,0,1,29,212.39Z"/><path class="cls-23" d="M278.51,220.67s-.9-2.4-4.6-1.7-6.2.9-6.4,3.7a3.45,3.45,0,0,0,3.4,4c1.7.1,2.3,0,3,1.7s1.6,3.6,4.4,2.9,3.7-1.7,2.8-5.2A11.21,11.21,0,0,0,278.51,220.67Z"/><path class="cls-24" d="M288,226.47c-1.5.6-3.1.2-3.6-1.1a2.76,2.76,0,0,1,1.7-3.4c1.5-.6,3.1-.2,3.6,1.1A2.6,2.6,0,0,1,288,226.47Z"/><path class="cls-25" d="M285.91,219.37c-1.3,1.3-3.1,1.5-4,.6s-.6-2.7.7-4,3.1-1.5,4-.6S287.21,218.17,285.91,219.37Z"/><path class="cls-26" d="M281.61,215.47c-.7,1.7-2.3,2.5-3.5,2s-1.6-2.3-.8-4,2.3-2.5,3.5-2S282.31,213.77,281.61,215.47Z"/><path class="cls-27" d="M275.61,214.57c0,1.6-1,2.9-2.3,2.9a2.61,2.61,0,0,1-2.4-2.8c0-1.6,1-2.9,2.3-2.9A2.67,2.67,0,0,1,275.61,214.57Z"/><path class="cls-10" d="M243.46,212.91,225.1,192.35l.66-.41a9,9,0,0,0,5.36,4.06c4.9,1.3,7.31,4.17,9.62,3.92s8.33-3.65,10.1-5.66a28.53,28.53,0,0,0,4.76-7,20.86,20.86,0,0,0,1.14-3.73,11.71,11.71,0,0,1-.26,3.76c-.49,2-4.56,10.07-5.9,13.57s-3.08,2.57-3.91,6.5A9.48,9.48,0,0,1,243.46,212.91Z"/><path class="cls-10" d="M96.56,253.11s60.11.62,70.94,2.12,19.83,5.33,20.33,4.17-4.83-3.58-1.66-3,7.66,2.54,7.5,1.87-3.33-1.91,0-1.87,2,.63,8.16,0,11.67-3.31,12.5-3.05-1-1.58,6.5-2.75,9.84-1.59,11.67-2.88,8.27-2.12,9.47-3,7.11-4,8.2-5a14.13,14.13,0,0,0,2.25-2.62c-.8.62-3.25,1.33-18.13,2.49-2.8.22-20.24,2.07-41.77,4.17C151.89,247.79,96.56,253.11,96.56,253.11Z"/><path class="cls-10" d="M47,197.73l.06.07a44,44,0,0,1,3.58,4.28c1.82,2.48,8.6,17.07,9.91,20.75l1.31,3.69s-3.15-11.62-4.19-15.15a14.33,14.33,0,0,1-.81-5.19s1.6,3.15,1.63,2.15a19.54,19.54,0,0,1,0-2.78c.12.35.69,1.1.72.85s-4.7-14.73-4.7-14.73L52,184.78s-.66.21-1.13,2.87a33.31,33.31,0,0,0-.34,4.47c-.09-.16-.53-1.2-.84-.68a34.93,34.93,0,0,0-1.13,4.08c-.06.22-.28-1.9-.78-1A13.61,13.61,0,0,0,47,197.73Z"/><path class="cls-10" d="M140.28,147.72s6-1.2,10.51-1.7,7.53-3,7-2.25-4-1-3.64-1,13-3.22,12.62-3.67-.48-1.85,0-1.84,13.12-5,13.12-5l-5.88-.56s9.88.06,15.63-3.44a95.83,95.83,0,0,0,10.75-7.75s-.63,3.13,0,3.13,8.75-7.44,8.75-6.47-8.43,10.72-6.41,10.72,17.41-7.38,17.41-7.38S203.39,135.65,205,135.9s11.82-1,11.45-.59-10.75,8.59-10.75,8.59,6.37,0,6.12.62S203,149.86,201,151.25s3.65,2.52,3.58,3.15-5.71,9-5.71,9-6.94-5.24-9.53-6.28c-2.95-1.19-9.06-1.76-18.09-2.09-13.61-.5-29.06-1.38-29.06-1.38Z"/><path class="cls-10" d="M139.23,124.27a27.71,27.71,0,0,0-3.31,1.13c.25.06,3.31,0,3.31,0s-1.69,1.5-.38,1.37a6.16,6.16,0,0,1,1.82,0s-1.64,2.12-.39,1.8,2.91-1.43,3-.87,0,2,.36,2.25,2.25-2.05,2.63-.65a4.45,4.45,0,0,0,1.5,2.4c.37.31,2.32-1.56,2.25-1s1.81,1.62,2,1.62.75-2.18,1.31-1.87,1.46,1.25,2.26.81.87-2,.87-2h2.94c.06,0-.38-1.35.49-1.41a13.16,13.16,0,0,0,2.63-.77l-.5-1.55s2.06-1.31,1.75-1.31-4.6.31-4.37.81-.26,1.5-.69,1.5,1-.12-.86.5-.33-.43-3,.19-3,.31-3.75.13-.74-.88-1.81-.38-1.19-.19-1.56-.25-.94.06-1.25-.12.5-1.88-1.13-1.32-1.57.75-2.07.32.92-1.19-.66-1.13-1.45-1.19-1.89-1.06A7.88,7.88,0,0,0,139.23,124.27Z"/><path class="cls-10" d="M114.85,41.62c-1.5.15.69,2.84-1.06,2.52s-4.31-6.56-4.56-4.87-2.38,1.5-2.38,1.5-.8,1.12-.59,1.62-6.34-2.93-6.84-2.93,6.68,4.31,6.25,4.87-4.44-.31-3,.63,2.26,1.37,1.56,2.18,1.31,1.59,2.31,2.45-1.8,1.24-.28,2,5.34,1.32,4.09,1.94-4.87.69-3.5,1.25,8.57-.12,8.44,0a2.71,2.71,0,0,0,2.75-.94c.81-1.25.46-1.81,2.33-2.06S116.35,41.48,114.85,41.62Z"/><path class="cls-10" d="M186.62,39.9c1.5.15-.68,2.83,1.07,2.52s4.31-6.56,4.56-4.87,2.37,1.5,2.37,1.5.8,1.12.59,1.62,6.35-2.94,6.85-2.94-6.69,4.32-6.25,4.88,4.44-.31,3,.62-2.26,1.38-1.57,2.19-1.3,1.58-2.3,2.45,1.8,1.24.27,2.05-5.34,1.31-4.09,1.94,4.88.69,3.5,1.25-8.56-.13-8.43,0a2.73,2.73,0,0,1-2.75-.94c-.82-1.25-.47-1.81-2.33-2.06S185.12,39.76,186.62,39.9Z"/><path class="cls-10" d="M254.46,228.52c.09-.12,9-11.21,12.25-14.62s10-6.28,10-6.28-.53-6.19-.87-8.93-1.92.37-1.92.37-1.3,6.67-1.17,6.21a8.39,8.39,0,0,0-.54-3c-.13.21-1.75,5.21-1.75,5s-.13-2.16-.38-1.7-1.62.7-2.41,1.91-1.8,2.84-2,3.09.29-2.5,0-2.34a27.4,27.4,0,0,0-3.21,5.46c-.67,1.75-.54.61-1,.74s-1,1.14-1.42,1.84-.58.13-1.33.84-5.13,7.81-5.13,7.81a12.76,12.76,0,0,1,.5,1.29C254.2,226.75,254.46,228.52,254.46,228.52Z"/><path class="cls-2" d="M299.89,155.44c.3-6.06,7.7-12.94,7.7-12.94a36.81,36.81,0,0,1,1.56,4c1.28-3.64,2.73-7.58,2.73-7.26,0,.58,1.83,9.08,1.83,9.08s4-9.34,4.17-8.17,2.33,6.35,2.67,4.84,1-5.77,1-5.77,1.66-4.39,1.33-4.9h0l3.83,5.83s1.84-3,2.84-4.91,2.83-6.75,2.83-6.75,3.33,2,3.67,4.33,1.83,1.29,1.83-1.19-1.17-7.81,0-6.14,2.67,8.16,3.67,5.41.83-5.08,1.5-4.58,4.89,3.6,4.92,3.62a46.41,46.41,0,0,0-8-19.79c-5.67-8.33-17.67-13.33-32.34-6-11.24,5.65-13.47,11.07-13.9,13.29a11.27,11.27,0,0,0-.1-3c-.33-1.34,0,0-2.66,4s-9.06,13.09-9.06,13.09v-3.82s-1.94,3.68-6.18,12.34-12.46,47.74-12.46,47.74L278,209.61s15.89-30.11,17.89-33,8.33-9.77,8.33-9.77l-4.37,1.31,5.73-8.93S299.59,161.5,299.89,155.44Z"/><path class="cls-10" d="M270.94,152.24s1.53,0,3.32,2.75,2.29,2.91,1.79,2.7-1.13.38-1.13.38l1.5,3.17s-.75-.59-.66,0,1.21,3.83,1.21,3.83,2,10.87,1.95,10.54-1.83,2.21-1.58,4.17a14.51,14.51,0,0,1,0,4.29c-.16.87.64,12.47.25,15.37-.92,6.92-3,4.18-3,4.18l-.14,5a43.39,43.39,0,0,1-2.38-9.81c-.29-4.21.88-23.79.63-27.17s.54-1.29.54-1.48-.67-3-.67-3,.54.38.54.09a10.81,10.81,0,0,0-.79-1.79s-.5-9.15-1-10.9A4.82,4.82,0,0,1,270.94,152.24Z"/><path class="cls-1" d="M98.26,103.27c-.2,0-20.87-5-55.72-8.09S0,92.29,0,92.29c.3-.05,7.66-1.18,42.63,1.89S98.26,103.27,98.26,103.27Z"/><path class="cls-1" d="M92.48,106.37c-.15,0-14.54-3.08-38.19-2.89-23.38.1-28.8,1-28.8,1,.2-.08,5.07-1.94,28.79-2S92.48,106.37,92.48,106.37Z"/><path class="cls-1" d="M94.56,96.53c-.11-.06-11.48-5.63-31-9.86s-24-4.28-24-4.28c.17,0,4.53-1,24.22,3.3S94.56,96.53,94.56,96.53Z"/><path class="cls-1" d="M201.7,103.57s20.7-6,55.64-9.09,42.33-1.94,42.62-1.89c0,0-7.82-.16-42.53,2.89S201.91,103.52,201.7,103.57Z"/><path class="cls-1" d="M207.39,106.67s14.4-4.08,38.2-3.89,28.58,2,28.78,2c0,0-5.42-.94-28.79-1C221.88,103.58,207.53,106.64,207.39,106.67Z"/><path class="cls-1" d="M205.3,96.93s11.14-6.57,30.78-10.84,24-3.34,24.22-3.3c0,0-4.73.09-24,4.28C216.77,91.31,205.42,96.87,205.3,96.93Z"/><path class="cls-1" d="M163.27,48.57s1-10.91,6.64-27.65S177.68.93,177.77.8s-1.34,3.91-6.91,20.44A216.92,216.92,0,0,0,163.27,48.57Z"/><path class="cls-1" d="M164.89,46.38A104.73,104.73,0,0,1,171.32,28c4.89-11.07,7.51-12.24,7.51-12.24s-1.86,1.92-6.59,12.64C167.42,39.3,164.89,46.38,164.89,46.38Z"/><path class="cls-1" d="M161.59,29c2-9.84,3.35-11.73,3.51-11.92,0,0-.61,2.53-2.53,12.12a75.45,75.45,0,0,0-1.69,16.28S159.6,38.93,161.59,29Z"/><path class="cls-1" d="M133.89,47.77a217.71,217.71,0,0,0-7.58-27.33C120.73,3.91,119.4,0,119.4,0s2.2,3.35,7.86,20.12S133.89,47.77,133.89,47.77Z"/><path class="cls-1" d="M124.92,27.58c-4.73-10.72-6.51-12.57-6.59-12.64s2.62,1.17,7.51,12.24a103.7,103.7,0,0,1,6.43,18.4S129.74,38.5,124.92,27.58Z"/><path class="cls-1" d="M136.18,44.66a74.66,74.66,0,0,0-1.69-16.28C132.57,18.79,132,16.26,132,16.26c.15.19,1.53,2.08,3.5,11.92S136.18,44.66,136.18,44.66Z"/></svg>