<svg id="OBJECTS" xmlns="http://www.w3.org/2000/svg" viewBox="0 0 61.88 63.24"><defs><style>.cls-1{fill:#40bced;}</style></defs><title>tam</title><path class="cls-1" d="M42.93,61.88H19A19,19,0,0,1,0,42.93V19A19,19,0,0,1,19,0h24a19,19,0,0,1,19,19v24A19,19,0,0,1,42.93,61.88ZM19,2.3A16.67,16.67,0,0,0,2.3,19v24A16.67,16.67,0,0,0,19,59.59h24A16.67,16.67,0,0,0,59.59,42.93V19A16.67,16.67,0,0,0,42.93,2.3Z"/><path class="cls-1" d="M33.11,22.67V16.61H28.27s.54,5.95-5.44,6.6v5.73h4v9.52a6.83,6.83,0,0,0,6.82,6.82h5.41V39H34.51a1.66,1.66,0,0,1-1.66-1.66V28.87h6.21v-6.2Z"/></svg>