<svg id="OBJECTS" xmlns="http://www.w3.org/2000/svg" viewBox="0 0 62.46 62.42"><defs><style>.cls-1{fill:#40bced;}</style></defs><title>Монтажная область 2</title><path class="cls-1" d="M43.15,62.2h-24A19,19,0,0,1,.2,43.2v-24a19,19,0,0,1,19-19h24a19,19,0,0,1,19,19v24A19,19,0,0,1,43.15,62.2Zm-24-59.58A16.67,16.67,0,0,0,2.52,19.27v24A16.68,16.68,0,0,0,19.17,59.93h24A16.69,16.69,0,0,0,59.83,43.27v-24A16.67,16.67,0,0,0,43.17,2.62Z"/><path class="cls-1" d="M16,25.65a16.07,16.07,0,0,1-1-1.56.87.87,0,0,1,.06-.77,30.72,30.72,0,0,1,7.22-7.17,8.74,8.74,0,0,1,1.49-.77c1.8-.72,3.24-.32,3.93,1.48a43.4,43.4,0,0,1,1.65,6.19c.72,3.3,1.32,6.61,2,9.91a8.92,8.92,0,0,0,.79,2c.28.6.82.77,1.27.24,2.33-2.8,4.34-5.82,4.64-9.55.19-2.45-1.6-3.49-3.8-2.44l-.71.35A16.67,16.67,0,0,1,34,21.75c1.21-3.44,3.42-5.88,7-6.78s6.42,1.24,6.42,4.88a21.57,21.57,0,0,1-.87,6.24C44,34.42,39,41.07,32.43,46.64c-1.64,1.4-3.41,1.25-5-.18a8.74,8.74,0,0,1-2.6-4.37q-2-7.22-4-14.44c-.23-.83-.49-1.65-.79-2.45-.38-1.05-.89-1.28-1.92-.79C17.4,24.74,16.75,25.2,16,25.65Z"/></svg>