<svg id="Слой_1" data-name="Слой 1" xmlns="http://www.w3.org/2000/svg" viewBox="0 0 90.68 103.44"><defs><style>.cls-1{fill:#70a7ff;}</style></defs><title>Монтажная область 1</title><path class="cls-1" d="M87.11,32.7A12.64,12.64,0,0,0,77,28.94V24.08h0c0-1.15-.78-2.36-9.86-3.36a208,208,0,0,0-21.76-1,208,208,0,0,0-21.76,1c-9.08,1-9.85,2.2-9.86,3.36h0v4.86A12.72,12.72,0,0,0,3.55,32.7,13.13,13.13,0,0,0,.12,43.47c.88,5.74,4,9.85,9,11.9A15.06,15.06,0,0,0,15,56.66h.76C19,65.22,26,71.05,36.59,73.94c2,.54,3.25,1.93,3.27,3.54v.94c.09,4.28.22,10.13-4.17,12.94A31.52,31.52,0,0,1,32.53,93c-1.36.63-2.77,1.28-3.77,1.88a2.71,2.71,0,0,0-1.35,2.38,3.55,3.55,0,0,0,1.79,3c2.76,1.61,9.55,3.27,16.14,3.27s13.38-1.66,16.14-3.27a3.55,3.55,0,0,0,1.79-3,2.69,2.69,0,0,0-1.35-2.38c-1-.6-2.4-1.25-3.77-1.88A33.58,33.58,0,0,1,55,91.36c-4.39-2.8-4.26-8.66-4.17-12.94v-.94c0-1.61,1.31-3,3.27-3.54,10.63-2.89,17.62-8.72,20.8-17.32h.76a14.74,14.74,0,0,0,5.92-1.3c5-2,8.11-6.15,9-11.9A13.07,13.07,0,0,0,87.11,32.7ZM76.94,37.6a4.81,4.81,0,0,1,3.6,1.24,4.6,4.6,0,0,1,1.08,3.89c-.36,2.69-3.11,4-4.8,4.47.08-1.14.13-2.32.13-3.57v-6ZM45.33,21.72c15,0,25.21,1.13,28.59,2.17a.2.2,0,0,1,.14.23v0a.21.21,0,0,1-.13.13c-3.38,1-13.55,2.17-28.59,2.17S20.11,25.3,16.74,24.27a.21.21,0,0,1-.13-.26.2.2,0,0,1,.13-.12C20.11,22.85,30.28,21.72,45.33,21.72ZM13.84,47.2c-1.69-.45-4.44-1.77-4.8-4.47a4.58,4.58,0,0,1,1.08-3.88,4.81,4.81,0,0,1,3.6-1.24v6C13.7,44.88,13.76,46.07,13.84,47.2Zm-4,6.31c-4.32-1.76-7-5.34-7.76-10.34A11.21,11.21,0,0,1,5,34.08,10.9,10.9,0,0,1,13.72,31v4.6A6.2,6.2,0,0,0,7,41.21,6,6,0,0,0,7.06,43c.54,4,4.6,5.9,7,6.3a34.76,34.76,0,0,0,1.09,5.35,12.87,12.87,0,0,1-5.29-1.14ZM53.56,72a6,6,0,0,0-4.75,5.44v.92c-.1,4.49-.25,11.26,5.09,14.67a34.16,34.16,0,0,0,3.42,1.72c1.32.61,2.68,1.24,3.59,1.79a.7.7,0,0,1,.37.65,1.51,1.51,0,0,1-.79,1.24c-2.08,1.21-8.32,3-15.14,3s-13.06-1.79-15.13-3a1.51,1.51,0,0,1-.79-1.24.68.68,0,0,1,.37-.65c.91-.55,2.27-1.18,3.58-1.79A31.17,31.17,0,0,0,36.78,93c5.34-3.41,5.19-10.18,5.09-14.67v-.92c0-2.48-1.94-4.67-4.74-5.44-10.39-2.82-16.83-8.3-19.7-16.75a31.07,31.07,0,0,1-1.48-7,42.09,42.09,0,0,1-.22-4.63v-7h0V26a37.52,37.52,0,0,0,7.86,1.44,213.57,213.57,0,0,0,21.76,1,213.57,213.57,0,0,0,21.76-1A37.8,37.8,0,0,0,75,26V36.59h0v7a40.1,40.1,0,0,1-.21,4.65,31.64,31.64,0,0,1-1.49,7C70.39,63.71,63.94,69.19,53.56,72Zm35-28.84c-.76,5-3.44,8.58-7.76,10.34a12.78,12.78,0,0,1-5.27,1.14,33.61,33.61,0,0,0,1.09-5.35c2.38-.41,6.44-2.31,7-6.3a6.19,6.19,0,0,0-4.85-7.3,5.81,5.81,0,0,0-1.81-.1V31a10.88,10.88,0,0,1,8.71,3.12,11.16,11.16,0,0,1,2.9,9.09Z"/><path class="cls-1" d="M52.4,43.18,50,42.83l-1.06-2.16a4,4,0,0,0-7.13,0l-1.08,2.18-2.38.33A4,4,0,0,0,35,47.72,3.92,3.92,0,0,0,36.14,50l1.74,1.7L37.46,54a4,4,0,0,0,5.78,4.2l2.14-1.13,2.13,1.13A4,4,0,0,0,53.29,54l-.41-2.39L54.61,50a4,4,0,0,0,.07-5.63A4,4,0,0,0,52.4,43.18Zm.81,5.36-1.74,1.69A2,2,0,0,0,50.9,52l.42,2.4a2,2,0,0,1-2.88,2.08l-2.15-1.13a2,2,0,0,0-1.84,0L42.3,56.46a2,2,0,0,1-.92.23,2,2,0,0,1-2-2v-.32l.41-2.4a2,2,0,0,0-.57-1.75l-1.74-1.69a2,2,0,0,1,1.13-3.38l2.4-.34a2,2,0,0,0,1.49-1.09l1.08-2.17a2,2,0,0,1,2.65-.9,2,2,0,0,1,.9.9l1.07,2.17a2,2,0,0,0,1.49,1.09l2.4.34a2,2,0,0,1,1.68,2.24,1.9,1.9,0,0,1-.58,1.14Z"/><path class="cls-1" d="M14.8,12.22l-1.15-.63L13,10.44a2.31,2.31,0,0,0-3.13-.92,2.26,2.26,0,0,0-.92.92l-.63,1.15-1.15.63a2.32,2.32,0,0,0-.84,3.16,2.26,2.26,0,0,0,.84.84l1.15.63L9,18.05a2.32,2.32,0,0,0,3.16.84,2.26,2.26,0,0,0,.84-.84l.63-1.15,1.15-.63a2.31,2.31,0,0,0,.92-3.13,2.26,2.26,0,0,0-.92-.92Zm-1,2.29-1.59.87a.34.34,0,0,0-.12.12l-.87,1.59a.3.3,0,0,1-.41.12h0a.37.37,0,0,1-.13-.12L9.86,15.5a.37.37,0,0,0-.13-.12l-1.59-.87A.31.31,0,0,1,8,14.09.34.34,0,0,1,8.14,14l1.59-.86A.35.35,0,0,0,9.86,13l.86-1.58a.32.32,0,0,1,.42-.13.25.25,0,0,1,.12.13L12.13,13a.34.34,0,0,0,.12.12l1.59.87a.31.31,0,0,1,.12.42.29.29,0,0,1-.12.1Z"/><path class="cls-1" d="M30.84,4.68l-1.92-1-1.05-2a2.44,2.44,0,0,0-3.3-1,2.47,2.47,0,0,0-1,1L22.51,3.63l-1.92,1a2.45,2.45,0,0,0-1,3.31V8a2.3,2.3,0,0,0,1,1l1.92,1,1.06,2a2.45,2.45,0,0,0,3.32,1h0a2.53,2.53,0,0,0,1-1l1-2,1.92-1a2.44,2.44,0,0,0,1-3.3v0A2.53,2.53,0,0,0,30.84,4.68Zm-1,2.55L27.56,8.5a.39.39,0,0,0-.18.18L26.11,11a.47.47,0,0,1-.61.18.52.52,0,0,1-.18-.18L24.05,8.68a.52.52,0,0,0-.18-.18L21.55,7.23a.45.45,0,0,1-.18-.61.52.52,0,0,1,.18-.18l2.32-1.27A.42.42,0,0,0,24.05,5l1.27-2.32a.45.45,0,0,1,.61-.18.39.39,0,0,1,.18.18L27.38,5a.39.39,0,0,0,.18.18l2.32,1.27a.45.45,0,0,1,0,.79Z"/></svg>