<svg id="Слой_1" data-name="Слой 1" xmlns="http://www.w3.org/2000/svg" viewBox="0 0 215 210"><defs><style>.cls-1{fill:#79a0d4;}</style></defs><title>Ae</title><path class="cls-1" d="M8.76,9V201.23h198V9Zm188.5,182.75H18.51v-173H197.26Z"/><path class="cls-1" d="M176,115.4c0-11.27-5.34-28.87-25.42-28.87-17.92,0-28.85,14.56-28.85,33.05s11.31,30.9,30.25,30.9c9.79,0,16.52-2,20.46-3.8l-1.9-8c-4.2,1.78-9,3.17-17,3.17-11.19,0-20.85-6.21-21.1-21.28h43.21A41.32,41.32,0,0,0,176,115.4Zm-10.8-2.79H132.57c.89-7.72,5.84-18.11,17.15-18.11C162.31,94.5,165.36,105.52,165.23,112.61Z"/><path class="cls-1" d="M73.87,59.72,39.48,149.39H51.17l8.95-25.13h38l9.5,25.13h11.63L84.75,59.72ZM63.62,114.81l13.94-38.2a33.88,33.88,0,0,0,1.44-6h.25a36.37,36.37,0,0,0,1.38,6l14.07,38.2Z"/></svg>