<svg id="Слой_1" data-name="Слой 1" xmlns="http://www.w3.org/2000/svg" viewBox="0 0 51.01 49.53"><defs><style>.cls-1{fill:#70a7ff;}</style></defs><title>ae</title><path class="cls-1" d="M0,0V49.53H51V0ZM48.56,47.08H2.51V2.51H48.56Z"/><path class="cls-1" d="M43.09,27.42c0-2.91-1.37-7.44-6.55-7.44-4.61,0-7.43,3.75-7.43,8.51s2.92,8,7.79,8a12.79,12.79,0,0,0,5.27-1l-.49-2a10.38,10.38,0,0,1-4.38.81c-2.88,0-5.37-1.59-5.44-5.48H43A9.38,9.38,0,0,0,43.09,27.42Zm-2.78-.72H31.89c.23-2,1.51-4.67,4.42-4.67C39.56,22,40.34,24.87,40.31,26.7Z"/><path class="cls-1" d="M16.77,13.07,7.92,36.17h3l2.3-6.47H23l2.45,6.47h3l-8.89-23.1ZM14.13,27.26l3.6-9.84a9.71,9.71,0,0,0,.37-1.54h.06a10.83,10.83,0,0,0,.35,1.54l3.63,9.84Z"/></svg>