<svg id="Слой_1" data-name="Слой 1" xmlns="http://www.w3.org/2000/svg" viewBox="0 0 51.1 49.53"><defs><style>.cls-1{fill:#70a7ff;}</style></defs><title>ai</title><path class="cls-1" d="M.1,0V49.53h51V0ZM48.66,47.08h-46V2.51H48.66Z"/><path class="cls-1" d="M32.81,36.82h-3l-2.45-6.48H17.57l-2.3,6.48h-3l8.86-23.1h2.81Zm-6.33-8.91-3.63-9.84a10.71,10.71,0,0,1-.35-1.55h-.07a8,8,0,0,1-.37,1.55l-3.59,9.84Z"/><path class="cls-1" d="M37.21,16.14a1.69,1.69,0,0,1-1.71-1.71A1.66,1.66,0,0,1,36,13.2a1.64,1.64,0,0,1,1.21-.49,1.7,1.7,0,0,1,1.23.49A1.63,1.63,0,0,1,39,14.43a1.65,1.65,0,0,1-.51,1.21A1.71,1.71,0,0,1,37.21,16.14ZM38.5,36.82H35.85V20.32H38.5Z"/></svg>