<svg id="Слой_1" data-name="Слой 1" xmlns="http://www.w3.org/2000/svg" viewBox="0 0 215 210"><defs><style>.cls-1{fill:#79a0d4;}</style></defs><title>Ai</title><path class="cls-1" d="M8.47,8.82V201.07h198V8.82ZM197,191.57H18.22v-173H197Z"/><path class="cls-1" d="M135.45,151.75H123.82l-9.5-25.14h-38l-8.94,25.14H55.66l34.4-89.67h10.88Zm-24.57-34.58L96.81,79a36.45,36.45,0,0,1-1.38-6h-.25a32.27,32.27,0,0,1-1.44,6L79.8,117.17Z"/><path class="cls-1" d="M152.52,71.46a6.52,6.52,0,0,1-4.69-1.88,6.32,6.32,0,0,1-1.93-4.75,6.56,6.56,0,0,1,6.62-6.69,6.65,6.65,0,0,1,4.79,1.91,6.68,6.68,0,0,1,0,9.47A6.6,6.6,0,0,1,152.52,71.46Zm5,80.29H147.27v-64h10.26Z"/></svg>