<svg id="Слой_1" data-name="Слой 1" xmlns="http://www.w3.org/2000/svg" viewBox="0 0 215 210"><defs><style>.cls-1{fill:none;}.cls-2{fill:#79a0d4;}</style></defs><title>corel</title><path class="cls-1" d="M180.81,78.56s6.94-8.43,13-15.69l-.91-1.79a86.5,86.5,0,0,1-16.21,17.48,56.07,56.07,0,0,1,3.55-4.83c2.1-2.7,6.24-10.38,9.72-17.87a95.18,95.18,0,0,0-6.14-9A306.26,306.26,0,0,1,175,79.32h-4s-5.8-19.66-8.38-29.65a110,110,0,0,1-3.19-25.15A96.66,96.66,0,0,0,147.48,18a63.81,63.81,0,0,0,2.07,19.5c4.29,16.65,19.23,41,19.23,41s-2.37-1.72-11.5-12.13S142.67,42.26,140.52,35c-1.5-5.1-2.84-13-1.68-20.35-1.41-.48-2.84-.93-4.28-1.35-2.73,9.06.44,18.92,5.1,30,5.27,12.46,24.93,34.38,24.93,34.38s-2.69-2.37-9.13-9.13S139.66,48.7,136,41.29s-7.41-17.08-4.83-28c.07-.29.15-.57.23-.86A96.34,96.34,0,0,0,57.67,23.48l85.65,86.45,11.6,59.73-60.48-12L15.75,77.52A96.12,96.12,0,1,0,194.57,64.36C188.34,71.19,180.81,78.56,180.81,78.56Zm-2,18.69h-12.9l-2.57-12h18.37Z"/><path class="cls-1" d="M118.66,121.24V108.86L43.9,33.69A96.72,96.72,0,0,0,32.08,46.23l75,75Z"/><path class="cls-2" d="M154.92,169.66l-11.6-59.73L57.67,23.48A95.12,95.12,0,0,0,43.9,33.69l74.76,75.17v12.38H107l-75-75A95.93,95.93,0,0,0,15.75,77.52l78.69,80.1Z"/><path class="cls-2" d="M171,79.32h4a306.26,306.26,0,0,0,8.84-32.42,96.7,96.7,0,0,0-24.44-22.38,110,110,0,0,0,3.19,25.15C165.18,59.66,171,79.32,171,79.32Z"/><path class="cls-2" d="M140.52,35c2.15,7.31,7.63,21.06,16.76,31.48s11.5,12.13,11.5,12.13-14.94-24.38-19.23-41A63.81,63.81,0,0,1,147.48,18q-4.22-1.91-8.64-3.43C137.68,21.92,139,29.85,140.52,35Z"/><path class="cls-2" d="M136,41.29c3.65,7.41,13,20.41,19.45,27.18s9.13,9.13,9.13,9.13-19.66-21.92-24.93-34.38c-4.66-11-7.83-20.91-5.1-30-1-.3-2.09-.59-3.15-.86-.08.29-.16.57-.23.86C128.6,24.21,132.36,33.88,136,41.29Z"/><path class="cls-2" d="M176.72,78.56a86.5,86.5,0,0,0,16.21-17.48C192,59.31,191,57.56,190,55.86c-3.48,7.49-7.62,15.17-9.72,17.87A56.07,56.07,0,0,0,176.72,78.56Z"/><path class="cls-2" d="M194.57,64.36c-.24-.5-.48-1-.73-1.49-6.09,7.26-13,15.69-13,15.69S188.34,71.19,194.57,64.36Z"/><polygon class="cls-2" points="165.88 97.25 178.76 97.25 181.66 85.26 163.3 85.26 165.88 97.25"/><path class="cls-2" d="M107.71,9.44a96.12,96.12,0,1,0,96.12,96.12A96.12,96.12,0,0,0,107.71,9.44Zm0,184.87a88.75,88.75,0,1,1,88.74-88.75A88.75,88.75,0,0,1,107.71,194.31Z"/></svg>