<svg id="Слой_1" data-name="Слой 1" xmlns="http://www.w3.org/2000/svg" viewBox="0 0 215 210"><defs><style>.cls-1{fill:#79a0d4;}</style></defs><title>figma</title><path class="cls-1" d="M137.49,19.8H78.77A29.82,29.82,0,0,0,49,49.53v2.6A29.82,29.82,0,0,0,78.77,81.86h58.72a29.81,29.81,0,0,0,29.72-29.73v-2.6A29.81,29.81,0,0,0,137.49,19.8ZM162,52.13c-1.28,18.47-13.38,23.78-29.73,23.78H84.72c-16.35,0-29.24-8.42-29.73-23.78h0c0-17.34,13.38-25.27,29.73-25.27h47.56c16.35,0,29.73,8.92,29.73,25.27Z"/><path class="cls-1" d="M136.87,79.77a28.86,28.86,0,1,0,28.86,28.86A28.86,28.86,0,0,0,136.87,79.77Zm0,52.23a23.37,23.37,0,1,1,23.37-23.37A23.37,23.37,0,0,1,136.87,132Z"/><path class="cls-1" d="M108,132.15H85.09c-16.35,0-29.23-8.42-29.73-23.78h0C55.36,91,68.74,83.1,85.09,83.1H108V76H79.14a29.8,29.8,0,0,0-29.72,29.72v2.61a29.8,29.8,0,0,0,29.72,29.72H108Z"/><rect class="cls-1" x="105.16" y="19.8" width="5.85" height="146.48"/><path class="cls-1" d="M108.6,149.51c.16,7.67.27,15,.27,15l-3.32-.77a24.28,24.28,0,1,1-24.22-26l.41,0L81.33,132a30,30,0,1,0,27.27,17.51Z"/><polygon class="cls-1" points="108.5 78.76 108.87 100.56 130.3 79.77 108.5 78.76"/></svg>