<svg id="Слой_1" data-name="Слой 1" xmlns="http://www.w3.org/2000/svg" viewBox="0 0 30.38 45.76"><defs><style>.cls-1{fill:#70a7ff;}</style></defs><title>figma</title><path class="cls-1" d="M22.69,1.41H7.56A7.69,7.69,0,0,0-.1,9.07v.67A7.69,7.69,0,0,0,7.56,17.4H22.69a7.69,7.69,0,0,0,7.66-7.66V9.07A7.69,7.69,0,0,0,22.69,1.41ZM29,9.74c-.33,4.76-3.45,6.12-7.66,6.12H9.09c-4.21,0-7.53-2.16-7.65-6.12h0c0-4.47,3.44-6.51,7.65-6.51H21.35c4.21,0,7.66,2.3,7.66,6.51Z"/><path class="cls-1" d="M22.53,16.86A7.44,7.44,0,1,0,30,24.29,7.43,7.43,0,0,0,22.53,16.86Zm0,13.45a6,6,0,1,1,6-6A6,6,0,0,1,22.53,30.31Z"/><path class="cls-1" d="M15.1,30.35H9.19c-4.21,0-7.53-2.17-7.66-6.12h0c0-4.47,3.45-6.51,7.66-6.51H15.1V15.9H7.66A7.68,7.68,0,0,0,0,23.56v.67a7.68,7.68,0,0,0,7.66,7.65H15.1Z"/><rect class="cls-1" x="14.36" y="1.41" width="1.51" height="37.74"/><path class="cls-1" d="M15.25,34.83c0,2,.07,3.85.07,3.85l-.86-.2a6.25,6.25,0,1,1-6.24-6.7h.11l-.11-1.48a7.74,7.74,0,1,0,7,4.52Z"/><polygon class="cls-1" points="15.22 16.6 15.32 22.21 20.84 16.86 15.22 16.6"/></svg>