<svg id="Слой_1" data-name="Слой 1" xmlns="http://www.w3.org/2000/svg" viewBox="0 0 51.1 49.53"><defs><style>.cls-1{fill:#70a7ff;}</style></defs><title>id</title><path class="cls-1" d="M0,0V49.53H51V0ZM48.56,47.08H2.51V2.51H48.56Z"/><path class="cls-1" d="M17.33,37.1H14.84V12h2.49Z"/><path class="cls-1" d="M36.16,37.1H33.52V34.29h-.06a6.1,6.1,0,0,1-5.67,3.19,6.14,6.14,0,0,1-5-2.21,9.1,9.1,0,0,1-1.86-6A9.86,9.86,0,0,1,23,22.68a6.79,6.79,0,0,1,5.49-2.46,5.29,5.29,0,0,1,4.95,2.67h.06V12.68h2.64Zm-2.64-7.46V27.21a4.75,4.75,0,0,0-1.32-3.39,4.44,4.44,0,0,0-3.35-1.38,4.56,4.56,0,0,0-3.8,1.77,7.72,7.72,0,0,0-1.39,4.9A7,7,0,0,0,25,33.61a4.36,4.36,0,0,0,3.57,1.65,4.5,4.5,0,0,0,3.58-1.59A6,6,0,0,0,33.52,29.64Z"/></svg>