<svg id="Слой_1" data-name="Слой 1" xmlns="http://www.w3.org/2000/svg" viewBox="0 0 51.01 49.53"><defs><style>.cls-1{fill:#70a7ff;}</style></defs><title>ps</title><path class="cls-1" d="M0,0V49.53H51V0ZM48.56,47.08H2.51V2.51H48.56Z"/><path class="cls-1" d="M14.18,27.39v8.73H11.47V13h6.35a8.38,8.38,0,0,1,5.74,1.8,6.45,6.45,0,0,1,2,5.09,7,7,0,0,1-2.26,5.38,8.65,8.65,0,0,1-6.12,2.1Zm0-11.92v9.47H17a6.36,6.36,0,0,0,4.28-1.28A4.54,4.54,0,0,0,22.76,20q0-4.58-5.41-4.57Z"/><path class="cls-1" d="M28.6,35.52V32.69a7.83,7.83,0,0,0,4.75,1.59c2.32,0,3.48-.77,3.48-2.32a2,2,0,0,0-.3-1.12,3.12,3.12,0,0,0-.81-.81,5.77,5.77,0,0,0-1.19-.64l-1.47-.58c-.73-.29-1.37-.59-1.93-.88a6,6,0,0,1-1.38-1,3.71,3.71,0,0,1-.84-1.27A4.39,4.39,0,0,1,28.63,24,4,4,0,0,1,29.16,22a4.83,4.83,0,0,1,1.42-1.5,6.77,6.77,0,0,1,2-.91,9.16,9.16,0,0,1,2.34-.3,9.4,9.4,0,0,1,3.84.74v2.67a7.53,7.53,0,0,0-4.19-1.19,5,5,0,0,0-1.34.17,3.2,3.2,0,0,0-1,.47,2.11,2.11,0,0,0-.66.74,1.88,1.88,0,0,0-.24.94,2.21,2.21,0,0,0,.24,1.08,2.24,2.24,0,0,0,.68.77,5,5,0,0,0,1.1.61c.43.19.92.39,1.46.6.73.28,1.39.57,2,.86a7,7,0,0,1,1.48,1A3.89,3.89,0,0,1,39.2,30a4.17,4.17,0,0,1,.33,1.73A4.05,4.05,0,0,1,39,33.83a4.68,4.68,0,0,1-1.44,1.5,6.64,6.64,0,0,1-2.08.89,10.36,10.36,0,0,1-2.46.29A9.26,9.26,0,0,1,28.6,35.52Z"/></svg>