<svg id="Слой_1" data-name="Слой 1" xmlns="http://www.w3.org/2000/svg" viewBox="0 0 215 210"><defs><style>.cls-1{fill:#79a0d4;}</style></defs><title>Ps</title><path class="cls-1" d="M10.09,10.11V202.36h198V10.11Zm188.5,182.75H19.84v-173H198.59Z"/><path class="cls-1" d="M65.13,116.43v33.89H54.63V60.65H79.27q14.37,0,22.29,7t7.91,19.76q0,12.77-8.79,20.89T77,116.43Zm0-46.28v36.77h11q10.88,0,16.6-5t5.72-14q0-17.76-21-17.76Z"/><path class="cls-1" d="M121.1,148V137a30.33,30.33,0,0,0,18.45,6.19q13.5,0,13.5-9a7.84,7.84,0,0,0-1.15-4.35,11.59,11.59,0,0,0-3.13-3.16,24.48,24.48,0,0,0-4.63-2.47q-2.65-1.09-5.72-2.28a74.6,74.6,0,0,1-7.47-3.41,22.35,22.35,0,0,1-5.38-3.88,14.33,14.33,0,0,1-3.25-4.9,17.37,17.37,0,0,1-1.09-6.44,15.28,15.28,0,0,1,2.06-8,18.24,18.24,0,0,1,5.5-5.81A25.67,25.67,0,0,1,136.64,86a34.89,34.89,0,0,1,9.1-1.18,36.88,36.88,0,0,1,14.88,2.87V98a29,29,0,0,0-16.26-4.62,18.9,18.9,0,0,0-5.19.65,12.78,12.78,0,0,0-4,1.85,8.52,8.52,0,0,0-2.56,2.84,7.47,7.47,0,0,0-.91,3.66,8.72,8.72,0,0,0,.91,4.19,9.23,9.23,0,0,0,2.65,3,20.25,20.25,0,0,0,4.26,2.38q2.49,1.07,5.69,2.31a80.23,80.23,0,0,1,7.63,3.35,26,26,0,0,1,5.75,3.87,15.37,15.37,0,0,1,3.66,5,16.13,16.13,0,0,1,1.28,6.69,15.75,15.75,0,0,1-2.1,8.26,17.92,17.92,0,0,1-5.59,5.81,25.56,25.56,0,0,1-8.07,3.44,39.82,39.82,0,0,1-9.57,1.13A36.38,36.38,0,0,1,121.1,148Z"/></svg>