<svg id="Слой_1" data-name="Слой 1" xmlns="http://www.w3.org/2000/svg" viewBox="0 0 215 210"><defs><style>.cls-1{fill:none;}.cls-2{fill:#79a0d4;}</style></defs><title>Sai</title><path class="cls-1" d="M51.81,63.61a75.6,75.6,0,0,0-.1,54l1.77,4.26a73.68,73.68,0,0,0,116.44,24.78,48.82,48.82,0,0,0,.79-6.62c0-.88,0-1.8,0-2.75a68,68,0,0,1-22,16L125.23,95.22l41.86,18c-.56-2.09-1.2-4.18-1.89-6.25L127,90.66l23.25-9.87q-1.87-2-3.84-3.75L125.55,86l7.87-19c-1.4-.91-2.79-1.78-4.15-2.6l-8.39,20.09-12.2-30.1q-2.85-1.06-6.05-2.16L116.25,86l-57-24.4A68.84,68.84,0,0,1,70.89,44.19c-2.12-.32-4.19-.57-6.17-.73l-1.15-.09A75.27,75.27,0,0,0,53.41,59.78Zm92.31,91.62A67.57,67.57,0,0,1,96.9,155l23.91-57.63Zm-27.7-60.06L92.26,153a68.55,68.55,0,0,1-33.19-33.53Zm-1.82-4.53-57.35,24.5A69.45,69.45,0,0,1,57.39,66Z"/><path class="cls-1" d="M189.93,64l-2-4.66A74,74,0,0,0,120.81,16a73.07,73.07,0,0,0-25.32,4.5c3.8.81,7.81,1.79,12,3A67.27,67.27,0,0,1,145,26.64l-4,9.62c1.42.7,2.83,1.42,4.25,2.17l4.13-9.94a68.62,68.62,0,0,1,33,33.19l-5.77,2.47q1.6,2,3.11,4.14l4.61-2a69,69,0,0,1,4,16.36,118.77,118.77,0,0,1,6.21,15.13c.22-2.32.33-4.68.33-7.06A75.1,75.1,0,0,0,189.93,64Z"/><path class="cls-2" d="M116.25,86,102.63,52.23a193.36,193.36,0,0,0-31.74-8A68.84,68.84,0,0,0,59.24,61.64Z"/><path class="cls-2" d="M149.4,28.49l-4.13,9.94c1,.54,2,1.08,3,1.64a94.08,94.08,0,0,1,28.31,24.08l5.77-2.47A68.62,68.62,0,0,0,149.4,28.49Z"/><path class="cls-2" d="M146.45,77a103.76,103.76,0,0,0-13-10l-7.87,19Z"/><path class="cls-2" d="M165.2,107c-2.95-8.81-7-17.17-12.08-23.1-.91-1.07-1.86-2.1-2.83-3.1L127,90.66Z"/><path class="cls-2" d="M179.73,68.29a106.45,106.45,0,0,1,8.57,14.4,69,69,0,0,0-4-16.36Z"/><path class="cls-2" d="M120.81,22.14a67.24,67.24,0,0,0-13.32,1.34A190.23,190.23,0,0,1,141,36.26l4-9.62A67.07,67.07,0,0,0,120.81,22.14Z"/><path class="cls-2" d="M129.27,64.4c-3.68-2.22-7.19-4.09-10.28-5.64-2.51-1.26-6.08-2.78-10.31-4.37l12.2,30.1Z"/><path class="cls-2" d="M148.78,153.31a68,68,0,0,0,22-16,99.84,99.84,0,0,0-3.66-24.06l-41.86-18Z"/><path class="cls-2" d="M201.12,90.76c0-44.78-36-81.07-80.31-81.07a79.34,79.34,0,0,0-31.9,6.65C70.27,13.8,50.76,14.21,51,16c.33,2.13,2.95,2,14.75,2.29s31.92.82,53.58,10.33,39,20,53.75,38.4,18,33.24,21,50.12,2.54,29.55.41,42.26c-1.14,6.78-6.64,30.46-26.44,10.91-5.18-5.13,2.42-19.08,3.57-31.7s-4.26-32.28-10-43.42-12.45-21.35-29.82-31-41.61-17.52-60-20.8S38.58,39.58,36,40.07a2.67,2.67,0,0,0-2.16,3.3c.45,1.7,4,1.62,4,1.62,6-.11,37.57,1.17,71,14.12s41.73,26,49.43,40.81,10.49,31.14,7,46.87c-2.42,10.94-6.58,19.14-4,25s6.21,10.44,18.94,9c11.17-1.25,16.72-13.77,19.5-33.77,2.06-14.78,1.5-26.34-.91-36.86A81.67,81.67,0,0,0,201.12,90.76Zm-34-37c-17.62-16.34-44.85-30.29-65.66-35.19A73.09,73.09,0,0,1,120.81,16,74,74,0,0,1,188,59.3l2,4.66a75.1,75.1,0,0,1,4.91,26.8c0,2-.08,4-.24,6C189.9,83.8,184,69.43,167.13,53.8Z"/><path class="cls-2" d="M122.57,185.51l3,2.58,7.21,3.19a12.73,12.73,0,0,0,3.56-4.91,21,21,0,0,0,1.27-5.45l-.2-1.07-.74-.94-2.44-1.46-1.08-.59-1.22.58s3.83,2.2,4.1,2.54a2.25,2.25,0,0,1,.63,2.07,17.35,17.35,0,0,1-1.73,5.14,12.37,12.37,0,0,1-2.42,3l-8.5-4Z"/><path class="cls-2" d="M164,194.89c-1.35-.45-5.82-2.46-7.66-4.1s-6.84-7.91-9.38-9.42-9.8-.58-9.8-.58-.55,6-2.15,7.54a36.18,36.18,0,0,0-2.59,2.78s5.36,5.54,11.5,7.3,13.24.41,16-.28a23,23,0,0,0,5.86-2.79A7.15,7.15,0,0,1,164,194.89Zm-7.82,2.49c-2.29.37-8.17,1-13-.91a24.37,24.37,0,0,1-8.38-5.8,16.55,16.55,0,0,0,2.9-3.44,13.67,13.67,0,0,0,1.2-5.13s6-.73,8,.69,5.59,6.89,7,8.35A24.87,24.87,0,0,0,159.7,195a5.86,5.86,0,0,0,1.4.5A18.85,18.85,0,0,1,156.13,197.38Z"/><path class="cls-2" d="M124.08,183c.22-2.84,9.56-5.84,9.56-5.84L24.22,122.8a7.25,7.25,0,0,0-5.47,3.37c-2.22,3.28-1.85,5.7-1.85,5.7l108.66,56.22A8.47,8.47,0,0,1,124.08,183Z"/><path class="cls-2" d="M127.72,157.41l.21,2.31,28.34,14a20.06,20.06,0,0,1,2.95-6.88,42.58,42.58,0,0,1,3.33-4.43l-24.91-14.5-2.95.24,25.86,14.75a13.52,13.52,0,0,0-2.64,3.44,26.85,26.85,0,0,0-2.35,5.3Z"/><path class="cls-2" d="M178.4,171.83c-2.49-2.7-5.74-7.67-8.36-8.6s-8-.74-8-.74-2.81,3.85-4.17,5.24S156,173.2,156,173.2s4.18,4.8,6.58,6.22,8.33,2.33,13.31,1.56,10.49-3.88,10.49-3.88S180.88,174.54,178.4,171.83Z"/><path class="cls-2" d="M17.74,94c-2.5-1.09-4.9,3.5-3.07,4.46,2.77,1.45,113.26,61.31,113.26,61.31s1.19-6.19,3.4-8.57,6.31-3.27,6.31-3.27Zm111.64,56.83a26.15,26.15,0,0,0-2.62,6.23L15.31,97.43a2.71,2.71,0,0,1,.36-1.75A2.56,2.56,0,0,1,17,94.61l116.49,53.27A8.46,8.46,0,0,0,129.38,150.78Z"/><path class="cls-2" d="M137.85,163.5a73.81,73.81,0,0,1-84.37-41.61L51.84,118l-8.13-4.44c9.75,33.69,40.57,58.31,77.1,58.31a79.37,79.37,0,0,0,25.53-4.2Z"/><path class="cls-2" d="M159.78,161.66a80.17,80.17,0,0,0,7.6-4.85,102.75,102.75,0,0,0,2.54-10.14,74.46,74.46,0,0,1-16.58,11.23Z"/><path class="cls-2" d="M48.92,108.67a75.66,75.66,0,0,1,2.89-45.06l1.6-3.83A75.27,75.27,0,0,1,63.57,43.37c-2.77-.2-5.33-.31-7.67-.36a81.8,81.8,0,0,0-14.1,62.37Z"/><polygon class="cls-2" points="142.92 152.24 120.81 97.38 105.53 134.22 142.92 152.24"/><path class="cls-2" d="M101.36,144.26,96.9,155a67.32,67.32,0,0,0,32.37,3.83Z"/><polygon class="cls-2" points="116.42 95.17 66.36 116.42 100.89 132.35 116.42 95.17"/><path class="cls-2" d="M60.6,122.61A68.48,68.48,0,0,0,92.26,153l4.59-11Z"/><path class="cls-2" d="M60.35,113.81,114.6,90.64,57.39,66a69.36,69.36,0,0,0-1.28,45.81Z"/></svg>