<svg id="Слой_1" data-name="Слой 1" xmlns="http://www.w3.org/2000/svg" viewBox="0 0 48.2 48.99"><defs><style>.cls-1{fill:none;}.cls-2{fill:#70a7ff;}</style></defs><title>sai</title><path class="cls-1" d="M9.73,14A19.56,19.56,0,0,0,9.71,28l.45,1.09a19,19,0,0,0,30,6.39,12.27,12.27,0,0,0,.2-1.71c0-.22,0-.46,0-.71a17.66,17.66,0,0,1-5.65,4.13l-6.07-15,10.78,4.65c-.14-.54-.31-1.08-.49-1.62L29.11,21l6-2.55q-.48-.5-1-1l-5.38,2.3,2-4.89-1.07-.67-2.16,5.18-3.15-7.75c-.48-.19-1-.37-1.55-.56l3.5,8.71L11.65,13.53a17.54,17.54,0,0,1,3-4.49c-.55-.08-1.08-.15-1.59-.19l-.3,0a19.44,19.44,0,0,0-2.61,4.22Zm23.78,23.6a17.36,17.36,0,0,1-12.16-.06l6.16-14.84ZM26.38,22.17,20.15,37.08a17.67,17.67,0,0,1-8.54-8.64ZM25.91,21,11.14,27.31a17.9,17.9,0,0,1,0-12.65Z"/><path class="cls-1" d="M45.32,14.13l-.51-1.2A19.07,19.07,0,0,0,27.51,1.78,18.79,18.79,0,0,0,21,2.94c1,.21,2,.46,3.09.76a17.49,17.49,0,0,1,9.67.81L32.72,7l1.09.56L34.87,5a17.62,17.62,0,0,1,8.5,8.55l-1.48.64c.27.35.54.71.8,1.07l1.19-.51a18,18,0,0,1,1,4.21,31.48,31.48,0,0,1,1.61,3.9c0-.6.08-1.2.08-1.82A19.47,19.47,0,0,0,45.32,14.13Z"/><path class="cls-2" d="M26.33,19.82l-3.5-8.71A49.74,49.74,0,0,0,14.65,9a17.54,17.54,0,0,0-3,4.49Z"/><path class="cls-2" d="M34.87,5,33.81,7.55l.78.43a24.24,24.24,0,0,1,7.3,6.2l1.48-.64A17.62,17.62,0,0,0,34.87,5Z"/><path class="cls-2" d="M34.11,17.5a26.2,26.2,0,0,0-3.35-2.59l-2,4.89Z"/><path class="cls-2" d="M38.94,25.21a18.22,18.22,0,0,0-3.11-5.95c-.23-.27-.48-.54-.73-.8l-6,2.55Z"/><path class="cls-2" d="M42.69,15.25a26.5,26.5,0,0,1,2.2,3.7,18,18,0,0,0-1-4.21Z"/><path class="cls-2" d="M27.51,3.36a17.58,17.58,0,0,0-3.43.34A50.45,50.45,0,0,1,32.72,7l1-2.48A17.46,17.46,0,0,0,27.51,3.36Z"/><path class="cls-2" d="M29.69,14.24c-1-.57-1.85-1.05-2.65-1.45a28.27,28.27,0,0,0-2.66-1.12l3.15,7.75Z"/><path class="cls-2" d="M34.72,37.15A17.66,17.66,0,0,0,40.37,33a25.33,25.33,0,0,0-.94-6.19L28.65,22.18Z"/><path class="cls-2" d="M48.2,21A20.79,20.79,0,0,0,27.51.15a20.5,20.5,0,0,0-8.22,1.71c-4.8-.65-9.83-.55-9.76-.09s.76.51,3.8.59A35.3,35.3,0,0,1,27.13,5C32.71,7.47,37.18,10.19,41,14.91s4.65,8.57,5.41,12.92a30.43,30.43,0,0,1,.1,10.88c-.29,1.75-1.71,7.85-6.81,2.81-1.33-1.32.63-4.91.92-8.16S39.5,25,38,22.17a17.12,17.12,0,0,0-7.69-8A54.88,54.88,0,0,0,14.9,8.82,42.78,42.78,0,0,0,5.65,8a.69.69,0,0,0-.56.85c.12.43,1,.41,1,.41a55.32,55.32,0,0,1,18.3,3.64C33,16.22,35.16,19.57,37.14,23.39a17.78,17.78,0,0,1,1.8,12.08c-.62,2.82-1.69,4.93-1,6.45s1.59,2.69,4.87,2.32c2.88-.32,4.31-3.54,5-8.69a25.61,25.61,0,0,0-.24-9.5A20.79,20.79,0,0,0,48.2,21Zm-8.76-9.52A41.6,41.6,0,0,0,22.53,2.45a18.59,18.59,0,0,1,5-.67,19.07,19.07,0,0,1,17.3,11.15l.51,1.2A19.47,19.47,0,0,1,46.58,21c0,.52,0,1-.06,1.54A25.46,25.46,0,0,0,39.44,11.51Z"/><path class="cls-2" d="M28,45.44l.77.67,1.86.82a3.39,3.39,0,0,0,.92-1.27,5.82,5.82,0,0,0,.33-1.4L31.78,44l-.19-.24L31,43.37l-.27-.16-.32.15s1,.57,1.06.66a.58.58,0,0,1,.16.53,4.21,4.21,0,0,1-.45,1.32,3.08,3.08,0,0,1-.62.78l-2.19-1Z"/><path class="cls-2" d="M38.62,47.86a7.7,7.7,0,0,1-2-1.06,26.31,26.31,0,0,0-2.42-2.42,5.73,5.73,0,0,0-2.52-.15s-.14,1.54-.56,1.94a9,9,0,0,0-.66.71,8,8,0,0,0,3,1.89,8.67,8.67,0,0,0,4.12-.08A6.07,6.07,0,0,0,39.08,48,1.94,1.94,0,0,1,38.62,47.86Zm-2,.64a7,7,0,0,1-3.36-.23,6.34,6.34,0,0,1-2.16-1.5,4.35,4.35,0,0,0,.75-.89,3.52,3.52,0,0,0,.3-1.32,4.43,4.43,0,0,1,2.06.18A22.64,22.64,0,0,1,36,46.89a6.5,6.5,0,0,0,1.54,1,1.13,1.13,0,0,0,.36.12A4.94,4.94,0,0,1,36.61,48.5Z"/><path class="cls-2" d="M28.35,44.78c.06-.73,2.47-1.5,2.47-1.5l-28.19-14a1.86,1.86,0,0,0-1.41.87,2.26,2.26,0,0,0-.48,1.46l28,14.49A2.24,2.24,0,0,1,28.35,44.78Z"/><path class="cls-2" d="M29.29,38.2l.05.6,7.3,3.6a5.19,5.19,0,0,1,.76-1.78c.6-.85.86-1.14.86-1.14l-6.41-3.73-.76.06,6.66,3.8a3.44,3.44,0,0,0-.68.89,6.67,6.67,0,0,0-.61,1.36Z"/><path class="cls-2" d="M42.34,41.92c-.64-.7-1.47-2-2.15-2.22a7.57,7.57,0,0,0-2.06-.19s-.73,1-1.08,1.35a3.3,3.3,0,0,0-.48,1.41,10.43,10.43,0,0,0,1.69,1.6,6.29,6.29,0,0,0,3.43.41,9.64,9.64,0,0,0,2.7-1A8.15,8.15,0,0,1,42.34,41.92Z"/><path class="cls-2" d="M1,21.86c-.65-.28-1.27.9-.79,1.14L29.34,38.8a5.9,5.9,0,0,1,.88-2.21,3.64,3.64,0,0,1,1.63-.84ZM29.72,36.5A6.74,6.74,0,0,0,29,38.1L.33,22.75a.74.74,0,0,1,.09-.45A.62.62,0,0,1,.76,22l30,13.72A2.18,2.18,0,0,0,29.72,36.5Z"/><path class="cls-2" d="M31.9,39.77a18.71,18.71,0,0,1-4.39.52A19.09,19.09,0,0,1,10.16,29.05l-.42-1L7.65,26.9a20.72,20.72,0,0,0,19.86,15,20.49,20.49,0,0,0,6.58-1.08Z"/><path class="cls-2" d="M37.55,39.3a21,21,0,0,0,2-1.25,26.18,26.18,0,0,0,.65-2.61,19.44,19.44,0,0,1-4.27,2.89Z"/><path class="cls-2" d="M9,25.65A19.62,19.62,0,0,1,9.73,14l.42-1a19.44,19.44,0,0,1,2.61-4.22c-.71-.06-1.37-.08-2-.1a20.88,20.88,0,0,0-4,12.3,20.34,20.34,0,0,0,.34,3.77Z"/><polygon class="cls-2" points="33.2 36.87 27.51 22.74 23.57 32.23 33.2 36.87"/><path class="cls-2" d="M22.5,34.82l-1.15,2.76a17.27,17.27,0,0,0,6.16,1.13,17.48,17.48,0,0,0,2.18-.14Z"/><polygon class="cls-2" points="26.38 22.17 13.48 27.64 22.38 31.75 26.38 22.17"/><path class="cls-2" d="M12,29.24a17.68,17.68,0,0,0,8.15,7.84l1.19-2.84Z"/><path class="cls-2" d="M11.93,27l14-6L11.17,14.66A17.74,17.74,0,0,0,10,21a18,18,0,0,0,.84,5.43Z"/></svg>