<svg id="Слой_1" data-name="Слой 1" xmlns="http://www.w3.org/2000/svg" viewBox="0 0 51.01 49.49"><defs><style>.cls-1{fill:#70a7ff;}</style></defs><title>xd</title><path class="cls-1" d="M0,0V49.53H51V0ZM48.56,47.08H2.51V2.51H48.56Z"/><path class="cls-1" d="M26.16,36.78h-3.3l-5.31-8.84A7.5,7.5,0,0,1,17,26.79H17c-.11.25-.29.63-.55,1.15l-5.48,8.84H7.61l7.73-11.61L8.22,13.68h3.32l4.72,8.12a17.45,17.45,0,0,1,.82,1.61h.06q.52-1.07.9-1.68l4.92-8h3.11L18.8,25.13Z"/><path class="cls-1" d="M43.4,36.78H40.76V34h-.07A6.1,6.1,0,0,1,35,37.17a6.16,6.16,0,0,1-5-2.22,9.1,9.1,0,0,1-1.86-6,9.88,9.88,0,0,1,2.07-6.56,6.79,6.79,0,0,1,5.49-2.46,5.29,5.29,0,0,1,4.94,2.67h.07V12.36H43.4Zm-2.64-7.46V26.89a4.71,4.71,0,0,0-1.32-3.38,4.41,4.41,0,0,0-3.35-1.39,4.59,4.59,0,0,0-3.81,1.77,7.8,7.8,0,0,0-1.38,4.9,7,7,0,0,0,1.33,4.5,4.33,4.33,0,0,0,3.57,1.65,4.51,4.51,0,0,0,3.58-1.59A5.94,5.94,0,0,0,40.76,29.32Z"/></svg>