<svg id="Слой_1" data-name="Слой 1" xmlns="http://www.w3.org/2000/svg" viewBox="0 0 215 210"><defs><style>.cls-1{fill:#79a0d4;}</style></defs><title>Xd</title><path class="cls-1" d="M9.13,8.94V201.19h198V8.94Zm188.5,182.75H18.88v-173H197.63Z"/><path class="cls-1" d="M110.69,151.72H97.87L77.24,117.39A31,31,0,0,1,75.17,113h-.25q-.61,1.44-2.12,4.44L51.54,151.72H38.66l30-45.09L41,62.05H53.91L72.24,93.56a63.59,63.59,0,0,1,3.18,6.26h.26a69.45,69.45,0,0,1,3.5-6.51L98.25,62.05h12.07l-28.2,44.46Z"/><path class="cls-1" d="M177.6,151.72H167.35V140.84h-.25q-7.14,12.38-22,12.38-12.06,0-19.29-8.6t-7.22-23.42q0-15.89,8-25.45t21.33-9.57q13.18,0,19.2,10.39h.25V56.92H177.6Zm-10.25-28.95v-9.45a18.32,18.32,0,0,0-5.13-13.13,17.23,17.23,0,0,0-13-5.38q-9.37,0-14.76,6.88t-5.37,19q0,11.07,5.16,17.48a16.85,16.85,0,0,0,13.85,6.41A17.49,17.49,0,0,0,162,138.4Q167.34,132.21,167.35,122.77Z"/></svg>