<svg id="Слой_1" data-name="Слой 1" xmlns="http://www.w3.org/2000/svg" viewBox="0 0 512 383.55"><defs><style>.cls-1{fill:#fff;}</style></defs><title>arrow</title><path class="cls-1" d="M27.4,53.41H484.6a25.4,25.4,0,0,0,0-50.8H27.4a25.4,25.4,0,0,0,0,50.8Z"/><path class="cls-1" d="M484.6,104.21H27.4a25.4,25.4,0,0,0,0,50.8H484.6a25.4,25.4,0,0,0,0-50.8Z"/><path class="cls-1" d="M484.6,205.81H27.4a25.4,25.4,0,0,0,0,50.8H484.6a25.4,25.4,0,0,0,0-50.8Z"/><path class="cls-1" d="M322,307.41H190a10.12,10.12,0,0,0-7.2,17.3l66,55.9a10.14,10.14,0,0,0,14.4,0l66-55.9A10.12,10.12,0,0,0,322,307.41Z"/></svg>