<svg id="Слой_1" data-name="Слой 1" xmlns="http://www.w3.org/2000/svg" xmlns:xlink="http://www.w3.org/1999/xlink" viewBox="0 0 751.63 548.81"><defs><style>.cls-1{fill:#b1816b;}.cls-2,.cls-7{fill:#f0d7ca;}.cls-3{fill:#e2d5c6;}.cls-4{fill:#362515;}.cls-5{fill:#e3d5c9;}.cls-6{fill:#905755;}.cls-7{opacity:0.56;}.cls-10,.cls-8{fill:#45301e;}.cls-9{fill:#f8f9e1;}.cls-10{opacity:0.57;}.cls-11{fill:#f8ff9f;}.cls-12{fill:#191411;}.cls-13{fill:url(#Безымянный_градиент_74);}.cls-14{fill:url(#Безымянный_градиент_74-2);}</style><linearGradient id="Безымянный_градиент_74" x1="555.76" y1="294.41" x2="593.68" y2="294.41" gradientUnits="userSpaceOnUse"><stop offset="0" stop-color="#f8ff9f"/><stop offset="1" stop-color="#944e00"/></linearGradient><linearGradient id="Безымянный_градиент_74-2" x1="576.39" y1="246.53" x2="648.89" y2="246.53" xlink:href="#Безымянный_градиент_74"/></defs><title>cat</title><path class="cls-1" d="M497,35.24s-18.5-2-30-10.5-16.75-14-22.25-12.25-7.5,8.25-5.25,20S448,59.74,451.72,62a27.06,27.06,0,0,0,5.5,2.75S452,82,446.22,94s-5,33.5-3,39.25a34.61,34.61,0,0,0,4.5,9s-12.5,42.25-19,55-26,83-30.25,102.5-6.25,40-7.5,56.25-10,84.75,0,129.75-140,27-193,27S8,506.85,3,516.3s-6,12.44,16,15.44,103,9,151,9,197,11,235,2,49-.92,70,3.54,139,3.46,152-6.54,11-24,23-19,10,20,33,13,47-88,58-103,6-21,0-33-29-9-48,19-28,64-44,62-22-29-29-61-20-34-20-34l1-38.57s.33-82.76-9.34-114.76-22-53.67-20.33-59,28.67-17.67,33.33-41-2.33-53.67-9.66-63-7.67-19.67-5.34-24,4-31,2.67-37.67-3.67-7.33-9.33-3-17.34,18-27.38,27.62c-2.92,2.8-16.44,2.17-29,2.71C511.38,33.74,497,35.24,497,35.24Z"/><path class="cls-2" d="M475.47,44.24s1-4.25-3.88-6.75-21-19-24.62-18.37,1,20.87,5.37,29,6.88,12.37,10.75,9.25S475.47,44.24,475.47,44.24Z"/><path class="cls-2" d="M586.22,8.24c-.38,0-16.5,23.63-18.38,24.88s2.75,4.5,6.88,7.25,9,5.62,10.25,0,2.75-19.38,3.37-25.5S586.22,8.24,586.22,8.24Z"/><path class="cls-3" d="M529.84,71.62c-.37-.25-10.62.12-16-2.25s-6.62-3.75-8-1-3.87-.75-7.62-.75-7.75-1-13.75,2.37-5.5,7.5,0,7.5,12.87,3,21,4.38,13.25,2.37,17.75.37,6.62-3.75,8.25-6.25S529.84,71.62,529.84,71.62Z"/><path class="cls-4" d="M521.77,78.74c-.8,0-11.43-1.25-17-3.25s-14.38-3.25-18-2.37a18.31,18.31,0,0,0-4.63,1.5,31.54,31.54,0,0,1,14.63.37c7.87,2.13,11.5,4.25,15.12,5.13S521.77,78.74,521.77,78.74Z"/><path class="cls-3" d="M585.34,64.24c-.75.13-9.6,1.66-17.93-.87C560,61.12,553.84,69,553.34,70.49s-1,6.25,4.85,10.47c.73.53,3.53-.59,10.59-1.34S577,77.24,581.72,74s6.87-3.25,6-6.37S585.34,64.24,585.34,64.24Z"/><path class="cls-4" d="M580.09,67.62S571.34,70.8,566,72.83a27.09,27.09,0,0,0-8.5,5s5.89-1.75,9.94-2.88,7.93-2.62,9.68-4.37Z"/><path class="cls-4" d="M548.15,92.29s-8.9-1.41-8.68.95,7.14,12.18,6.1,13.27-8.29,5.36-13.35,6.11-7.32,3.12-10.94,1.87-6.31-3.69-8.69-4.37-10.31,7.43-6.62,12.06,8.18,5.37,10.37,4.94,7-1.44,7.63-.75,11.37,5.93,15.12,4.81,5.19-3.69,9.31-2.31,3.82,2.93,7.75,1.75S567,125.18,571,123.8s6.44-2.5,6.44-5.25-.5-6.3-3.13-7.25-3.92-.54-3.92-.54-5.39,1.43-8.2,1.17-8.08-3.74-9.32-5.4,4.19-14.66,2-16C554.19,90.07,548.15,92.29,548.15,92.29Z"/><path class="cls-5" d="M536.72,93.24s7.12.75,7.87,6.25,3.75,6.25-2.62,9.75-11.88,2.88-18,4.38-.88-2.25-7.13-3.63-1.25-7.5,0-9.5,2.25-3.12,6-5.25S536.72,93.24,536.72,93.24Z"/><path class="cls-5" d="M562.34,90.87c-.62.12-6.41-.75-9.08,3.75s-2.67,10.62,1.08,13.37,6.38,4.75,12.38,3.63,10.75-3.13,13.37-6.75,1.88-8.38,0-9.38-1-1.62-4.5-3-4.12-.87-6.12-1.62S562.34,90.87,562.34,90.87Z"/><path class="cls-4" d="M543,78.57s-3.17.25-3.75,2.75-2.67,1.34-3.25,4.84.25,5.75,1.41,6.08,3.17-1.17,2.84-2.67-1.09-3.75.66-5.83,2.84-1.69,4-3.76S543,78.57,543,78.57Z"/><path class="cls-4" d="M556.3,82.57c.25.09,2.83,3.75,2.33,5.75s-2.16,4.25-2.33,2.21-.58-5.87-1.58-7.16S556.3,82.57,556.3,82.57Z"/><path class="cls-6" d="M550,90.53s-4.67.71-6.42,0a2.4,2.4,0,0,0-3.42,1.76c-.08,1.28.67.7,2.75.95S545.27,95.82,546,97s2.18,2.42,3.35.75,1.15-4.42,2.08-5.08,2.38-.56,3.11-1.32.73-1.35-1.23-1.43A6.88,6.88,0,0,0,550,90.53Z"/><path class="cls-7" d="M551.72,183.49s7.58-3.83,10.41-3.33-.16,2.33,1.75,2.91,2,1.48,1.92,2.57,2.08,0,1.25,2.18-1.5,2.92-1.42,4.17,1.8.84,1.17,3.83-2.5,4.92-.67,9.34S568.88,209,568,212s-1.92.58-1.17,3.83.83,3.34.67,4.5,5.91,11.92,6.91,13.17a4.36,4.36,0,0,1,1,4.67c-.72,2.25,1.38,4.21,1,6.14s-1.5,3.77-1.67,5.61,19.58,82.67,20.58,86.66-.75,4.46-1,7.73,0,4.27-.66,6.61.29,2.83-2,5.66-5-.66-3.33,4.5,2.67,3.34,1.5,6.17-2,2.17-1.5,4.67a14.82,14.82,0,0,1,.33,4.81,3.07,3.07,0,0,1-1.5,2.35s-10-3.86-17.81-2.35-26.51,8.71-26.51,8.71-14,3.91-13.84,2.44,1-1.92-1.5-2.44,3.83-5.19,3.83-5.19.33-2.62-2.67-4.81,1.17-3.36-3.66-5.69a53.41,53.41,0,0,0-8.66-3.33s9.17-3,0-1.84-13.34,2.17-12.51,0,5-7.33,4.33-11.33-21.25-81.67-22.25-83.51-7.16-17.82-8.79-21.82,0,1,0-5.34-1.37-7.66,0-9.33.71-1.61-.79-6.14-.33-5.19-.33-8-.5,0,0-6.34-.79-8.3-.79-8.3-3.42-16.51-3.32-18.94,7.06-.43,7.66-.59,1.49-4.11,1.58-4.8,3.93-4.38,6.72-2.71,3.69-1.41,7.48-1.66,7,2.5,9.17,3.67,2.73-.17,5.7.33,5.11,2.17,8.54,2.83,5.09-.66,7.51-.16.91.5,4.58,1.66,7.83.5,9.33.5a7.64,7.64,0,0,1,2.65.17c1.85.33,7-.33,7-.33Z"/><path class="cls-8" d="M539.72,210.74s-7.13,2.5-7.88,2.13-2.12,1.62-2.62,1.87,1.75-3.75-1.38-2a23.2,23.2,0,0,1-4.25,2c-.5.24,1.5-2.13-3.5-.88s-5,2.39-7.12.88.37-2.5-4.75-2-4.63,1.25-8,0-3.75-.76-7.38-2-2.62-2.5-5.37-4a25,25,0,0,1-5-3.75s1.37-1.75-1-4.12-2.63-3.25-3.88-5.75-.12-1.88-2.75-4.25-1.87-2.75-4.5-4.63a27.75,27.75,0,0,1-4.12-3.25c-2.25-2-9.13-11.62-10.25-12.5s-1.13-1.75-2.63-3.37-1.87-3.5-3.5-5.75-1.75,4.75-1,6.12,1.63,0,3.75,5.88,2,6,5.13,11.62,2.91,5.25,6.83,9.13,4.17,4.12,5.54,6.5,2.38,1.75,4.63,5.12,3,5,4.37,5.5,3.25-1,5.88,1.75,4,3.59,4.75,4.48a11.06,11.06,0,0,0,3.25,2.4c.87.37,3.83,2,3.83,2s15.54,2.62,15.79,2,1-2.63,4.5-2,4.38,2.12,7.5,1,3.38-1,5.13-1.63,3.12-.5,4.75-1.5a12.52,12.52,0,0,0,3-2.12c1.87-1.63,3.5-2.5,4.37-3.38s2.5-3.12,1.88-3.5S539.72,210.74,539.72,210.74Z"/><path class="cls-4" d="M481.47,219.62c-.88-.13-5.25-1.13-10.5-5.13s-6.25-5-7.88-7.62-1.62-.75-3.62-4.5-.75-6-2.5-8.5-3-2.63-3.88-5.13,0-2.25-2-4.12-2.69-2.5-2.69-2.5,1.32.12-.81-1.88-2-1.62-3-3.12-.75-2.88-1.87-2.75-3.63.75-1.5,5.12a71.62,71.62,0,0,0,4.5,8.75c2.75,4.63,2.5,3.88,3.62,7.25s1.63,1.5,2.63,4a18.17,18.17,0,0,1,1.12,4.63c.38,1.62.88,1.5,1.88,3.12a36.48,36.48,0,0,1,2.25,4.5c1.5,3.13,2.75,3.63,5.12,5s.13,1.38,4.88,2.88,5.25.69,8.5,2.34,5.12,2.66,5.75,2.66.25,0,2-.63l1.75-.62s1.5-1.75,0-2.63A11.4,11.4,0,0,0,481.47,219.62Z"/><path class="cls-4" d="M460.59,223.12c-.25-.75-3.75-8.13-6.37-9s-3.26,0-5.82-2.5-1.43-2-5.06-3.63-2-.5-6.5-3-4.25-4.75-5.62-3.5-4.38,3-1.5,4.75-.88-2.37,7.25,3.25,8.12,5.63,10,7,2.62,1,3.87,2.88,1,2.62,3,3.5,2.38.75,3.75,1.75,2.38,1.62,3,1.62S460.59,223.12,460.59,223.12Z"/><path class="cls-8" d="M504.47,267.24a11.78,11.78,0,0,0-3.75-4.12c-2.5-1.63-3.5-3-5.13-4.13s-2.25-1.12-3.12-2.62,0-1.88-2.5-2.75a26.86,26.86,0,0,1-4.75-1.88c-2.25-1.12-4.38-2.5-4.38-2.5s.5-.5-1.62-1.5-1.5-1.12-3.25-1.87-1.75-1.25-3.75-1-3.88-2.38-3.38,1,.13,4.5,3,5,3.63-.63,7.63,1.12,3.5.5,5,2.63.12,1.37,3,3.75.62,1.25,4.75,3.62-2-1.37,5,3.25S504.47,267.24,504.47,267.24Z"/><path class="cls-8" d="M532.34,253.87a3.06,3.06,0,0,0-2.62,2.18c-.88,2.19.75,3.32-2,3.94s-3.63,1.13-5.13.13-2.12-1.75-3.5-2.63-1.75-.75-3.37-1.75-2.38,0-4.25-1.87-1.13-2.25-3.75-3.63-3.13-1.25-5-2.5-.88-1.12-3.75-1.62-2-1.86-5.63-2-7.5-1.49-4.37,0,7.25,2.86,9,3.61,5.75,2.75,5.75,2.75,3,2.94,4,3.72,2.25-.34,3.5,1.84.12,2.58,2.87,4.63,2.25,2.81,5.63,2.94,4.5.37,5.87.12.63.25,2.25-.5,2.63-.75,2.88-1.87.25-1.5.5-2.88-.5-1.37.62-2.75S532.34,253.87,532.34,253.87Z"/><path class="cls-4" d="M580,210.74a38.41,38.41,0,0,0-3.38,6.25c-1.25,3.13-.37,6.13-2,7.63a30,30,0,0,1-4.12,3s-.88-.38-2,1.62-1.25,2.25-2.13,2.25-1-2.12-2.25-.12a29.48,29.48,0,0,0-2,4c-.75,1.5-2.75-1.5-2.25,3.62s2.5,4.44,2.5,4.44,3.63-1.56,4.25-2.81-2.12-1.75,1-4,2.5-1.38,4-2.75,2.25-1.5,3.63-3.13,2-1.53,3-3.64a24.58,24.58,0,0,0,1.75-3.73c.75-2.13,1.5-1.5,1.37-3.63s-.62-2.5-.62-3.87.25-1,.25-2.18.77-1.07.39-1.82A2.93,2.93,0,0,0,580,210.74Z"/><path class="cls-4" d="M570.61,191.74s-4.64,7.13-5.14,8.38-1,1.37-2.5,3.12-2.66,2.5-3.21,3.75a3.36,3.36,0,0,1-2.67,2.38c-1.75.5-1.25.87-3.37.62s-2.88-1.5-3.88-.12-2.25,2.25-1.87,2.62a14.14,14.14,0,0,0,5.5,1.2c1.75-.07,3.75.32,4.75,0s1.12.68,3.12-.57,3-1.13,4.13-3.63.37-1.62,1.87-4.87,1.67.12,3.27-5.63,1.86-6.12,1.86-6.62.12.62,0-.5-.13-1.48-.63-1.43S570.61,191.74,570.61,191.74Z"/><path class="cls-8" d="M571.22,164.62a6.29,6.29,0,0,1-4.64,2.37c-3.36.38-10-2.37-10-2.37a25.37,25.37,0,0,0-7.37-2.13c-3.75-.37-4.63-.75-7.13-.25s-3.26,1-6.31,1.5-1.69,1.29-4.94.77-2.12-.23-5.25,0a18.74,18.74,0,0,0-8.37,3.23c-1.75,1.25-12.5,1.63-2.88,2s13.25.13,13.25.13l9.13-2.13s2.49-1.05,3.74-.71a12.62,12.62,0,0,1,4,1.34c1.37.87.62,1.25,4.5,1.25h3.87s2.09,1,.42,2.25-1.29,1-1.67,1.25-2.63.35-3.69,1.24a10.46,10.46,0,0,1-1.95,1.38c-1.36.88-3.36,1.38-1.36,1.88a20.56,20.56,0,0,0,7.88.12,63.05,63.05,0,0,1,6.23-1c2.52-.25,2.27.25,4.39-.75s4-1.25,4.75-2.25.13-1.75.75-2.75,1.36-.87,2-1.87.49.12,1.93-2.25,2.9-2.75,2.61-3.38-.16-2.73-1.54-1.49A19.2,19.2,0,0,0,571.22,164.62Z"/><path class="cls-4" d="M505,174.36a58.13,58.13,0,0,1-6.66-4.52c-1.75-1.47-6.5-1.72-6.5-1.72a14,14,0,0,1-4.87-.88,17.78,17.78,0,0,0-4.88-1.5c-2.75-.62-5-1.62-6-3.37s-.62-2.75-2.87-4-1.25-1.13-4.75-3.13-5-2-6.13-3.5-.25-3-2.12-3.5-2-1.37-3.38-1.5-4.5,0-3,3.25a24.14,24.14,0,0,0,4.25,6,12.92,12.92,0,0,1,2.25,4.13c.5,2,5,3.87,5,3.87a5.31,5.31,0,0,1,4.42,2.63c1.75,2.75,2.37,2,3.87,5.62s6.63,6,8.5,8-3.62.38,5.88,3.5,9.54,1.88,8.83,0-7.46-5.36-8.08-5.68a9,9,0,0,1-2.84-2.94,13.27,13.27,0,0,0-1.16-1.88s-3.13-1.37-.25-1.5,3.62-.25,6.37.5,2.57-1,5.29.63,3,2.62,3,2.62a3.19,3.19,0,0,0,2.84,1.13c1.79-.25,1.86-.75,3.07-.38a10.82,10.82,0,0,0,2.59.63c1.13.12,1.63-1.63.63-1.75S505,174.36,505,174.36Z"/><path class="cls-4" d="M500.63,152.74c-1,.5-10.16,1.75-12.16,1.13a48.61,48.61,0,0,0-6.38-1.13s-2.75-1.5-1.94,0,.65,2.63,5.73,3.25,3.59,1.75,8.09,1.25a41,41,0,0,0,5.25-.75,23.51,23.51,0,0,0,3.37-1.25c1.63-.62,3.39-1.62,3.45-2s.82-1,0-1.17a17.78,17.78,0,0,0-3.32,0Z"/><path class="cls-4" d="M487.47,140.37a12.13,12.13,0,0,1-5.38-1.75c-2.25-1.38-2.45-2.25-6.54-2s-4.46.87-6.83-.5a48.19,48.19,0,0,1-5.13-3,12.66,12.66,0,0,1-3-2.75c-1.77-1.88-5.27-3.13-3.52-3.63a22,22,0,0,0,5.13-2.12c1.12-.75.79-.88,2.33-2.38s1.42-2.12,3.67-2.87-1.5-1.75,3.25-1.25,5.12.5,6.37,1.25,2.31,1.25,2.31,1.25a31.29,31.29,0,0,0,4.44-.25,3.38,3.38,0,0,0,1.5-.75,8.87,8.87,0,0,0,1.38-1.64s.75-.11-2,.51-.25-1-3.38-1.5-3.12-.5-4.5-1.12-2.2-1.31-2-1.91-1.16-1,0-2,2.42-3.52,3-3.81,6.2-4.71,8.07-5.54a31.35,31.35,0,0,1,4.13-1.35c2.45-.82,2.75-.13,4.37,0s2.25,1.31,3.38,1.35,1.62,1.38,3,1,2.37.74,3,0,2.2-1,.53-1.61-4.91-1.25-5.66-2.62.13-1.75-1.62-2.25-1.52-1.13-4.51-.88-3.24-.12-5.87.63-2.87,1.12-5.25,2.5-4.25,2.5-4.25,2.5a21.59,21.59,0,0,0-4.87,3.37c-2.25,2.13-1.25,2-3.75,3.88s-1,2.37-4.67,3.5a42.86,42.86,0,0,0-5.58,1.87c-2.88,1.13-2,1.25-4.25,1.5s-4.25,1.6-4.13-.64,1.71-3.48,2.85-5.48-2.35-2,2.9-4.63,8.42-3.58,8.21-4.54-5.54.27,0-2.91,5.17-2.43,6-4.55a8.9,8.9,0,0,1,3-4c1.13-.88.42-.92,2-2.34s1.29-1.29,3.79-3.54,3.88-2.6,3.5-3.05-2.5-.35-4-.34-2.87,0-4.37,2.5-.25,2.1-2.88,4.43-3.33,3.11-6.29,4.28-3.06,1.46-6.08,3.8a30.08,30.08,0,0,1-4.64,3.22c-1.07.6-.86,1.64-1.74.34s-2.5-1.34-1-4.33,3.25-6.64,3.25-7.31,2.25-2,0-1.53A5.77,5.77,0,0,0,452,86.91s0-4.6-2.25,4.43-1.33,9.31-1.73,10.73a17.8,17.8,0,0,1-.65,2.3c-.5,1.37-2,2.5-2.5,4.12a6.45,6.45,0,0,0-.12,3.44c.12,1.44-.75,3.56-.63,5.44a3.8,3.8,0,0,0,2.13,3.25c1,.62,1.25-1.5,1,.62s-1,2.5-.75,3,.5.25.12,1.88,1.88,1.62,2.38,1.75,2.75-.63,1.37,1.12-3.5-.68-3.37,2.35,7.2,3.15,6.47,4.53-1.1-.13-1.85,1.62,5.38,5.25,7.25,5.38-.75-5.13,5.13.12,7.75,5.25,7.75,5.25,2.62.07,1.62-1.53-4.37-2.34-3.62-4.09,1.5-.25,3.25-.38,2.25-1,3.62-1.25,1.25-.87,1.88.38,1.64,2.37,2.63,2.12-3.76-1.62,1.62-.5,6,.75,6.37.75.13,0,1.13-.87,2.75-.75,1.37-1.75S487.47,140.37,487.47,140.37Z"/><path class="cls-8" d="M557.47,59.57c0-.5,4.16-7.16,2.66-9s-2.08-3.33-3.54-5.16-.58-3.17-2.1-4.17-1-2.33-3.11-3.33-3.61-4.17-5.43-4-4-1.17-4.71.5.73,2.16,2.73,3.5,3.86,1.66,1.18,2.16-3.35.84-6.52-.16a36,36,0,0,1-4.83-1.84s-2.72-1.66-3.94,0,6.39,4.54,5.92,5.52-1.4,2.65-3.86,1.32S521.63,40.57,520,39.74s-3.5-2.67-4.67-1.67-3.17-.48-4.83.68-.34,2.32-3.67,1.32-4.87-1.32-4.87-1.32,2.2,3.2,8.54,4.84,12.5,3,12.5,3,2.33,2.5,2.5,3.5.66,1.17,1,3,.83,3.17-.5,4.17-1.57,2.33-4.2.17-4-3.5-6.14-5a22.57,22.57,0,0,0-3.83-2.34c-3-1.66,2-.84-4.67-3.5s-6.83-2.83-7.66-3.83.5-2.17-2.67-1.83a41,41,0,0,0-5.17.83,26.53,26.53,0,0,1-5.16,1.85c-3.17.82-4.09.48-4.38,2.32s-1.25,2.66-1.94,3.66-3.31,2.17,0,2.84,5.82-.17,6.48-1.34,1-4,2.84-4.5,1.33.82,4,0,4.16-2.66,4.5-1-.84,1.5,1,3,5.57.34,6,1.67-2.37,3.17-.87,4.67,5.67-.67,5.67-.67,3.5-1.33,2.67,1.83-3.67,5.34-1.67,8.17,5.17,1.33,4.67.17-1.84-6.5-1-6.84-.34-2.35,2.66.82,3.27,3,4.64,3.52,5.2.33,5.2.33,1-4,1.66-1S532.8,65,533,65.86s-.34,1,.66,1.76-.33-6.38-.66-7.05-2.76-.16-1.05-3.5,0-3.66,0-5.66.88-6.5,2.05-3.17.11,4.5,1.81,4.5,2.85-2.12,2.85-2.12,0-3.21,1.83-1.71,3.34-.17,3.17-1-3.83-2.34-.16-2.5,3.79-1.34,4.06,1.16-2.93,5.09,0,4,2.59-4.38,3.85-3.88,4.42,1.25,4.25,3.88-.12,3-1.14,5-1.93,2.84-1.23,3.84,3.33.33,3.33.33Z"/><path class="cls-4" d="M523.34,152c.38-.49,9.88-3.86,10.25-3.74s1.12,2.75,2.19,2.63a30.82,30.82,0,0,0,4.35-1.5l.33.74s2.41.62,3.4,0-.42-2.24,2.09-1.37,4,.88,4.52.63.19-1.38.91-1.13-1.91,1.13,1,1.25,4-.75,4.25-.62a6.2,6.2,0,0,1,2.11,1.22c.52.65,1.64-.52,2.77,0a6.31,6.31,0,0,0,3.75,0c1-.22,2.12-1.35,3.25-.72s1.87.37,3,1.25,1.62.75,2.12,2,2.21.49,1.54,2-1.55,2.7-2.61,1.32-3.68-3-4.68-2.75a7,7,0,0,0-2.37.88c-1.5.75-.88,1-2.88.55s-1.66-1-3.89-.68-1.86.87-3.11.68-.37-.8-3-.68a15.27,15.27,0,0,0-4.69.68c-1.43.45.69,1.07-1.43.45s-.35-.51-2.61-.45a19,19,0,0,1-4.64,0c-2.25-.3-2.26-1.18-3.44-1.55s-1.31-.63-2.69,0,.63.25-1.37.62,1.62-.63-2.88.93-3.37,3.18-5.5,1.94a5.75,5.75,0,0,1-2.62-3.24s1.75.12-1.25,0S523.34,152,523.34,152Z"/><path class="cls-4" d="M601.65,107.37s-2.43.27-2.25,1.54,1.13,2-.5,2.64-1.87.26-2.25,1.07.13,1-1.75,1.34-2.06-.28-3.12.53-2,.63-2.38,1.5.82.88-.37,1.75-1.29-.12-1.9,1.31-2.1,1.5-1.1,2.63,2.44,1.69,3.25,1a21.21,21.21,0,0,0,1.87-1.94s.32-2.19,2.13-2.25,1.51.63,2.41-.44,0-1.56,1.84-1.81a12.87,12.87,0,0,0,2.84-.75c.07,0,.1.42.53-.32s.57-.48.75-1.21-.31-.53.44-1.47,1.19-.81.88-1.81,2.12-3.13,1.18-3.81S601.65,107.37,601.65,107.37Z"/><path class="cls-4" d="M543.86,228.49s-6.77,3-8.14,3.88-1.13,1.25-5.75,1.37-3.25-.87-6.38.5-11-3.12-11-.25,6.38,4.88,6.38,4.88.62.62-2.38,0-3.35-1.13-6.42-1.88-5.08,0-7.2-1.12-2.25-.13-4.75-2.19-1.38-3.06-4.38-2.69-3.12-.37-5,.63-6.83-.38-2.23,2.06,9.11,1.81,11.23,3.06.13-.37,2.75,2.13,3,3,7.25,3.12,3.5-.87,7.38.5,4.87,2.76,8.5.94,3.64-4.06,4.5-4.56.59-.25,4.29-1.38,2.58-1.37,6.46-2.75,5-.62,7-2.75,1.74-2.25,1.93-3.5S543.86,228.49,543.86,228.49Z"/><path class="cls-8" d="M444.13,329.24c-1.16-.33-6.33-.83-12.83-2.67s-8.67-3-9.83-5,1.16-2.83-.84-6.5-2.5-1.66-4.16-6.5,2.5-5.83-2.34-6.83-7.66-.33-8.5,3.33-.33,4.67.34,8-4.5,2.17.16,6,7.17,4,8.67,5.84-1,2,3,4.33,3.5.83,11.33,2.33,4.5,2.67,12.67,3,9-.5,9.17-2,1.33-3.5-.67-3.33S444.13,329.24,444.13,329.24Z"/><path class="cls-8" d="M452.91,346.41s-5.78-2.67-9.61-1-1.83,3.66-7.5,3.83-5.68.83-9.5-1.17-2.33-4.67-7-6.17-1.33.34-8.5-3.49-9.5-5.84-8.17-1.34a39.92,39.92,0,0,0,4.67,9.34,18.89,18.89,0,0,1,3.17,3.83c1,1.83,1.66,2.17,6.66,3.67s12.17.33,14.84,3.83,1.33,6,6.16,3.33,7.5-4.83,10-6.16.06-2.5,4.78-1.34,7.39,3.17,8.39,0,3.17-4.83,0-6S452.91,346.41,452.91,346.41Z"/><path class="cls-8" d="M490.3,370.74s-10-.33-15,0,1.59,2.33-6.54,1.67-6.79-1.63-8.46-1.82,1.3-.91-4.68,2-4.65,2.87-8.32,3.2-1.33.67-5.33,0-4-2-6.34-2.68,1-.39-3-2.69-3-2.3-6.32-3-1.67,1-6,0a57.35,57.35,0,0,0-6.67-1.34c-2.33-.33,0,.53-3.33-1.66s-4.28-2.2-6.14-2.2.43-.8-1.88,2.2-2,3.66-2.31,7-1.67.77-1,4.72,5,6.61,7,7.61,9.33,1,9.33,1,1.33-5,6.33-2.67,5.34,2,8.67,5,8.67,5,11.67,4,2-3.66,8-3,10.31,1.34,13,2.34,7.67-1.67,10.67-3.34,1.79-3,5.89-3-5.51,0,8.3-2,16-1.66,17.92.34,7.57.66,10.57-.67,5.92-1.67,5.46-4,2.2-4-3.47-5a68.47,68.47,0,0,0-16.33-.33c-1.67.33-5.67-2.67-7.34-2.67A16.39,16.39,0,0,0,490.3,370.74Z"/><path class="cls-8" d="M508.63,397.74s-6.33-1.33-13.66,3-7.58,6.33-14.29,7.67-6.13.66-11.92.66-13.14-.33-13.14-.33.23-7.33-2.71-6.33-4.61,1.33-5.61,2.66.67,2.34-3,1.34-.67-2.36-6.33-3-2.67,0-7.67-1.32,5.67-2.33-7.33-2.33-14.67-1.39-15.67-2.19-.28-1.14-3.14-1.81-3.89-2-5.38-2-3.15-4-3.81,0,1,2.67,0,5.67-3.34,1.66-2.34,5.33,3.35,5.67,2.17,9.33-5-2.33-2.41,6,.24,10.67,1.24,14,1.67,2.67,2.34,9.34,3.63,9,2.81,11.33-1.18,2.67,0,7.33-2.85,3,0,8.67,4.91,8.67,5.38,12.33-2.57,4.67-1.88,6.67,1.69,4,3.69,4.33,6-3,11-2.33,15,2.33,15.65,3.67-.65,1.33,7,3,8-4,11.83,3-.83,9.33,5.84,8,8.92-1.67,11.46-2.34,1.54-2,5.87-2.33a54,54,0,0,1,12,.67c1,.33,4.36,2.66,6.69,2.66a60.92,60.92,0,0,0,6.67-.66s3-2.67,3-3.67,4-5.67-4.34-7-12.57-1.33-17.95-2a57.11,57.11,0,0,1-11.92-3.33s.19-3-5.8-4.67-8-1-11.5-2.67,1.84,0-5.16-3.66-7.33-2.67-8.33-5.34,0-3-2.67-5.33-11.7-4-2.68-5.33,20.19,3,27.77,3.33,6.58,1,12.91,1.33-4.85-1.33,11.41.34,18.59,1.33,19.76,2a9.59,9.59,0,0,0,5.7.66c2.46-.33-4.54,5,4.8-1.33s11.4-6.67,11.4-6.67,6.26,1.67,9.26,1,6.73-1.33,9-3,5.31-6.66,5.31-8.33,1.33-2,.66-4.67-4.33-5.66-4.33-5.66-9.33,1.33-15.33,4-14.66,3.45-14.66,3.45l-11.84-1.79a55,55,0,0,0-13.84-.66c-7,.66-3,5-13,.66s-6.35-7.33-14.67-7.66-7.33-1-13.33.33-4,3.67-9-.67-8-7-8-7,2.35-5,7.68-5.66,7.3-2.67,15.32-2.34,7.93.34,13.14.67-.31-6,15.95-4.67,21-1.33,21-1.33,6.3-4,4.43-5.33-1.54-3.67,3.46-6.34,8-4.33,10.34-6.66,3.66-2,4.66-4,4-7.23-1-6.45S508.63,397.74,508.63,397.74Z"/><path class="cls-8" d="M598,407.41s3,2.66,0,8-2.34,5.66-7.34,8.66-5.66,2-6.33,5,4.67,7.34,0,11.34-8.67,4.33-10.33,7-2.34,4-2,8,4.66,7,2,9.33-3.67,2.67-8.67,7-6.33,5-8.67,7.67-4.29,5.66-5.81,7.33,11.48,1.67,11.48,1.67,1-5.34,5.68-7.67a83,83,0,0,0,11-7.33s6.33-5,8-3.34,1.66-.33,4-1,1.33,8.34-1.34,12-4.33,4-4.33,7.34-6.67,5,1,8.33,13,0,13,0l5.67-4.33a6.75,6.75,0,0,1,6-4c4.66-.34,10-.34,8,3.33s-2.67,4.33-2.34,6.67,2.34,3,4,3,5.67-2.34,7.67-4,3.67-7.67,5-3.34,1.67,7,2.33,7.34,6-1.34,7-3-3.33-7,2.67-5,8.33,2.66,8.33,2.66l6.67-4.66s-1-1.34,2-1.34,11.33-2.33,9.33-5.33-6.72-3.33.31-5.33,13.69-6.34,13.69-10-1.33-5.67,1.67-6.34.33-.62,3.67-8.64,4.66-7,5.66-9.69a61,61,0,0,1,4.67-9.33c1.33-2,3.33-4.34,1.67-5.67s-4.34-1.33-1.34-4.33,2.94-6,2-7.67,3.15-3.67.59-3.67-13.56.34-15.22,12.67-8.34,22-12.67,27.69-5,7.64-8.67,13a63.27,63.27,0,0,1-10.33,12.33c-4.33,4-4,6-13,5.67s-17.67-14.67-20-20-1.67-20.67-5-27a98.45,98.45,0,0,1-7.67-18c-2.33-7.34,1.67-8-4-11.34s-11.66-10.33-14-8S598,407.41,598,407.41Z"/><path class="cls-4" d="M384.63,512.74l1.67,6.33a29.16,29.16,0,0,0-1.67,9.34c0,5,3,6.66,0,8.66s-5.33,5-5.66,1.67,1.66-7.67,0-10.33-3.67-5.67-3.67-5.67a6.84,6.84,0,0,1-1.56-3c-.11-1.33,1.56-4,1.56-4Z"/><path class="cls-4" d="M362,515.49l-4.5,2.75a29.66,29.66,0,0,0-1.5,4.63,30.75,30.75,0,0,0-1.13,7.37c0,2.5-.87,4,0,5.63s3.38,2.25,3.88,3.25.75,2.12,1.75,1.87,3.25-.87,2.87-3.5-1.12-3-2.12-5.5-1.38-2.63-1-5.5.75-5.25,1.75-6.87.7-2,1.41-2.63S362,515.49,362,515.49Z"/><path class="cls-4" d="M344,515.49a17.42,17.42,0,0,0-3.63,4c-1.25,2.13-2,2.25-2.37,5.13a61.64,61.64,0,0,0-.75,6.87c-.13,2.88-1.5,3.75,0,5.63s2,3.94,3.12,3.91a8.36,8.36,0,0,0,3.63-.79c1.12-.62,1.75-.5,1.75-4.37a37.43,37.43,0,0,1,.87-8.88c.5-1.87,1.63-2.75,1.38-4.87a7.87,7.87,0,0,1,.62-4.38c.38-.75,1.38-.75,0-1.12s-1-.88-1.75-1.13A10.61,10.61,0,0,0,344,515.49Z"/><path class="cls-4" d="M324.19,516.62a17.24,17.24,0,0,0-3.62,4c-1.25,2.12-2,2.25-2.38,5.12a67,67,0,0,0-.75,6.88c-.12,2.87-1.5,3.75,0,5.62s2,4,3.13,3.91a8,8,0,0,0,3.62-.79c1.13-.62,1.75-.49,1.75-4.37a37.23,37.23,0,0,1,.88-8.87c.5-1.88,1.62-2.75,1.37-4.88a7.73,7.73,0,0,1,.63-4.37c.37-.75,1.37-.75,0-1.13s-1-.87-1.75-1.12A10.69,10.69,0,0,0,324.19,516.62Z"/><path class="cls-4" d="M302.4,516.62a17.18,17.18,0,0,0-3.63,4c-1.25,2.12-2,2.25-2.37,5.12a61.82,61.82,0,0,0-.75,6.88c-.13,2.87-1.5,3.75,0,5.62s2,4,3.12,3.91a8.08,8.08,0,0,0,3.63-.79c1.12-.62,1.75-.49,1.75-4.37a37.33,37.33,0,0,1,.87-8.87c.5-1.88,1.63-2.75,1.38-4.88a7.84,7.84,0,0,1,.62-4.37c.38-.75,1.38-.75,0-1.13s-1-.87-1.75-1.12A10.61,10.61,0,0,0,302.4,516.62Z"/><path class="cls-8" d="M283.05,516.62a17.24,17.24,0,0,0-3.62,4c-1.25,2.12-2,2.25-2.38,5.12a67,67,0,0,0-.75,6.88c-.12,2.87-1.5,3.75,0,5.62s2,4,3.13,3.91a8,8,0,0,0,3.62-.79c1.13-.62,1.75-.49,1.75-4.37a37.23,37.23,0,0,1,.88-8.87c.5-1.88,1.62-2.75,1.37-4.88a7.73,7.73,0,0,1,.63-4.37c.37-.75,1.37-.75,0-1.13s-1-.87-1.75-1.12A10.69,10.69,0,0,0,283.05,516.62Z"/><path class="cls-8" d="M260.06,515.49a17.49,17.49,0,0,0-3.62,4c-1.25,2.13-2,2.25-2.38,5.13a66.77,66.77,0,0,0-.75,6.87c-.12,2.88-1.5,3.75,0,5.63s2,3.94,3.13,3.91a8.32,8.32,0,0,0,3.62-.79c1.13-.62,1.75-.5,1.75-4.37a37.32,37.32,0,0,1,.88-8.88c.5-1.87,1.62-2.75,1.37-4.87a7.76,7.76,0,0,1,.63-4.38c.37-.75,1.37-.75,0-1.12s-1-.88-1.75-1.13A10.69,10.69,0,0,0,260.06,515.49Z"/><path class="cls-8" d="M236.66,513.78a17.18,17.18,0,0,0-3.63,4c-1.25,2.12-2,2.25-2.37,5.12a61.82,61.82,0,0,0-.75,6.88c-.13,2.87-1.5,3.75,0,5.62s2,4,3.12,3.91a8.08,8.08,0,0,0,3.63-.79c1.12-.62,1.75-.49,1.75-4.37a37.33,37.33,0,0,1,.87-8.87c.5-1.88,1.63-2.75,1.38-4.88a7.84,7.84,0,0,1,.62-4.37c.38-.75,1.38-.75,0-1.13s-1-.87-1.75-1.12A10.61,10.61,0,0,0,236.66,513.78Z"/><path class="cls-4" d="M214.78,512.85a17.42,17.42,0,0,0-3.63,4c-1.25,2.13-2,2.25-2.37,5.13a61.64,61.64,0,0,0-.75,6.87c-.13,2.88-1.5,3.75,0,5.63s2,3.94,3.12,3.91a8.22,8.22,0,0,0,3.63-.79c1.12-.62,1.75-.5,1.75-4.37a37.43,37.43,0,0,1,.87-8.88c.5-1.87,1.63-2.75,1.38-4.87a7.87,7.87,0,0,1,.62-4.38c.38-.75,1.38-.75,0-1.12s-1-.88-1.75-1.13A10.61,10.61,0,0,0,214.78,512.85Z"/><path class="cls-7" d="M201.47,536.38s-19.13-.72-22.71-1.93,1.85-4.88-5.46-3.21-7.5,2.5-12.33,1-7-2.54-13.5-2.52-7.84.48-14.34,0-7.11-3-15.47-3.23-9.23-1.27-16.38-.93-4.68-.63-13.44-1-10.12-2.65-20.41-1.23-14.81,1.29-19,0-2.67-2.66-9-2.46-9.5,1.63-12.17,0,0-3-5-3.63-9-.12-9.65.5-1.5.25-2.87.19-.44.5-2.31.62-1.38-.56-2.63-.12-2.36,1.22-3.06,1.44S.33,522,.21,522.47s-.93,2.89.83,4.19,4.43,4,19.36,5.27,31.73,3.38,34.37,3.28c1.61-.06,32.5,2.37,61.7,4,18.5,1,36.5,1.4,45.37,1.51,23.06.29,29.26.46,29.58.48l19.41.71,8.26.33c.5,0,3.69-.84-.19-2.09s-10.18-1.5-12.56-2.25S201.47,536.38,201.47,536.38Z"/><path class="cls-4" d="M194.22,512.85a17.42,17.42,0,0,0-3.63,4c-1.25,2.13-2,2.25-2.37,5.13a61.64,61.64,0,0,0-.75,6.87c-.13,2.88-1.5,3.75,0,5.63s2,3.94,3.12,3.91a8.22,8.22,0,0,0,3.63-.79c1.12-.62,1.75-.5,1.75-4.37a37.43,37.43,0,0,1,.87-8.88c.5-1.87,1.63-2.75,1.38-4.87a7.87,7.87,0,0,1,.62-4.38c.38-.75,1.38-.75,0-1.12s-1-.88-1.75-1.13A10.61,10.61,0,0,0,194.22,512.85Z"/><path class="cls-4" d="M152.64,512.85a17.49,17.49,0,0,0-3.62,4c-1.25,2.13-2,2.25-2.38,5.13a66.77,66.77,0,0,0-.75,6.87c-.12,2.88-1.5,3.75,0,5.63s2,3.94,3.13,3.91a8.18,8.18,0,0,0,3.62-.79c1.13-.62,1.75-.5,1.75-4.37a37.32,37.32,0,0,1,.88-8.88c.5-1.87,1.62-2.75,1.37-4.87a7.76,7.76,0,0,1,.63-4.38c.37-.75,1.37-.75,0-1.12s-1-.88-1.75-1.13A10.69,10.69,0,0,0,152.64,512.85Z"/><path class="cls-4" d="M173.43,512.85a17.42,17.42,0,0,0-3.63,4c-1.25,2.13-2,2.25-2.37,5.13a61.64,61.64,0,0,0-.75,6.87c-.13,2.88-1.5,3.75,0,5.63s2,3.94,3.12,3.91a8.22,8.22,0,0,0,3.63-.79c1.12-.62,1.75-.5,1.75-4.37a37.43,37.43,0,0,1,.87-8.88c.5-1.87,1.63-2.75,1.38-4.87a7.87,7.87,0,0,1,.62-4.38c.38-.75,1.38-.75,0-1.12s-1-.88-1.75-1.13A10.61,10.61,0,0,0,173.43,512.85Z"/><path class="cls-4" d="M135.78,511.85a17.42,17.42,0,0,0-3.63,4c-1.25,2.13-2,2.25-2.37,5.13a61.64,61.64,0,0,0-.75,6.87c-.13,2.88-1.5,3.75,0,5.63s2,3.94,3.12,3.91a8.22,8.22,0,0,0,3.63-.79c1.12-.62,1.75-.5,1.75-4.37a37.43,37.43,0,0,1,.87-8.88c.5-1.87,1.63-2.75,1.38-4.87a7.87,7.87,0,0,1,.62-4.38c.38-.75,1.38-.75,0-1.12s-1-.88-1.75-1.13A10.61,10.61,0,0,0,135.78,511.85Z"/><path class="cls-4" d="M118.72,511.85a17.42,17.42,0,0,0-3.63,4c-1.25,2.13-2,2.25-2.37,5.13a61.64,61.64,0,0,0-.75,6.87c-.13,2.88-1.5,3.75,0,5.63s2,3.94,3.12,3.91a8.22,8.22,0,0,0,3.63-.79c1.12-.62,1.75-.5,1.75-4.37a37.43,37.43,0,0,1,.87-8.88c.5-1.87,1.63-2.75,1.38-4.87a7.87,7.87,0,0,1,.62-4.38c.38-.75,1.38-.75,0-1.12s-1-.88-1.75-1.13A10.61,10.61,0,0,0,118.72,511.85Z"/><path class="cls-4" d="M102.34,512.31a16.13,16.13,0,0,0-3.62,3.46c-1.25,1.85-2,2-2.38,4.45a50.56,50.56,0,0,0-.75,6c-.12,2.49-1.5,3.25,0,4.87s2,3.43,3.13,3.4a9.31,9.31,0,0,0,3.62-.69c1.13-.54,1.75-.43,1.75-3.79a28.13,28.13,0,0,1,.88-7.69c.5-1.63,1.62-2.39,1.37-4.23a5.93,5.93,0,0,1,.63-3.79c.37-.65,1.37-.65,0-1s-1-.76-1.75-1A12.13,12.13,0,0,0,102.34,512.31Z"/><path class="cls-8" d="M85.59,511.63A17.1,17.1,0,0,0,82,515.51c-1.25,2.06-2,2.18-2.38,5a63,63,0,0,0-.75,6.67c-.12,2.78-1.5,3.63,0,5.45s2,3.82,3.13,3.79a8.43,8.43,0,0,0,3.62-.77c1.13-.6,1.75-.48,1.75-4.23a35,35,0,0,1,.88-8.6c.5-1.82,1.62-2.67,1.37-4.73a7.31,7.31,0,0,1,.63-4.24c.37-.73,1.37-.73,0-1.09s-1-.85-1.75-1.09A11.13,11.13,0,0,0,85.59,511.63Z"/><path class="cls-4" d="M68.49,510.59a15.81,15.81,0,0,0-3.63,3.24c-1.25,1.72-2,1.82-2.37,4.14a41,41,0,0,0-.75,5.56c-.13,2.32-1.5,3,0,4.55s2,3.19,3.12,3.16a9.87,9.87,0,0,0,3.63-.64c1.12-.5,1.75-.4,1.75-3.53a24.71,24.71,0,0,1,.87-7.18c.5-1.51,1.63-2.22,1.38-3.94a5.3,5.3,0,0,1,.62-3.54c.38-.6,1.38-.6,0-.91s-1-.7-1.75-.91A13.24,13.24,0,0,0,68.49,510.59Z"/><path class="cls-4" d="M51,512.1a15.24,15.24,0,0,0-3.63,2.76c-1.25,1.47-2,1.55-2.37,3.54a29.94,29.94,0,0,0-.75,4.74c-.13,2-1.5,2.59,0,3.88s2,2.73,3.12,2.7a11.42,11.42,0,0,0,3.63-.54c1.12-.43,1.75-.35,1.75-3a18.16,18.16,0,0,1,.87-6.12c.5-1.3,1.63-1.9,1.38-3.37a4,4,0,0,1,.62-3c.38-.52,1.38-.52,0-.77s-1-.61-1.75-.78A15.56,15.56,0,0,0,51,512.1Z"/><path class="cls-4" d="M32.52,512.1a15.24,15.24,0,0,0-3.63,2.76c-1.25,1.47-2,1.55-2.37,3.54a29.94,29.94,0,0,0-.75,4.74c-.13,2-1.5,2.59,0,3.88s2,2.73,3.12,2.7a11.42,11.42,0,0,0,3.63-.54c1.12-.43,1.75-.35,1.75-3a18.16,18.16,0,0,1,.87-6.12c.5-1.3,1.63-1.9,1.38-3.37a4,4,0,0,1,.62-3c.38-.52,1.38-.52,0-.77s-1-.61-1.75-.78A15.56,15.56,0,0,0,32.52,512.1Z"/><path class="cls-4" d="M471.17,531.49c-3.45-.25-40.45-7.5-42.7-13.75s-2-8.45-5-8-5.25-3.77-10.75-4.27-5.5-2.25-8-3,.5-4.08-4.25-1-7.16,4-9,5.54,7.21,6.28,9.46,8.39-1,1.86,1,6.36-.75,3.42,3,7.59,4,5.41,5.75,3.41-1-8.25,3-9,5.25.5,6.5,2.75-2,6.75,6.25,5,10-6,11.75-3.23-2.25,3.6,5.5,5.41,10.75-.68,12.5,2.07,15.5,3,19.25,3,9.25.25,10-.25,9-6,0-7S471.17,531.49,471.17,531.49Z"/><path class="cls-9" d="M538.22,112.83s-2.1-.12-2.82.44-.18,11.56,1,11.85,1.53-9.29,1.78-10.32A4.44,4.44,0,0,0,538.22,112.83Z"/><path class="cls-9" d="M558.31,113.49a6,6,0,0,1,1.84-.34,1.71,1.71,0,0,1,1.57.68,85,85,0,0,1-.38,9c-.31,2.34-1.5,2.06-1.9.93a73.19,73.19,0,0,1-1.13-8.62C558.28,114.3,558.31,113.49,558.31,113.49Z"/><path class="cls-9" d="M556.09,113.4a18,18,0,0,1,1.16,4.75c.09,2.09.4,6.12.06,7.18s-2.44.88-3.25.79-1.16-.16-1.16-.16a7.63,7.63,0,0,1-1.68.66,2.87,2.87,0,0,1-1.44-.35s-1.69.28-2.38.36a3.7,3.7,0,0,1-1.71-.51,4.26,4.26,0,0,1-2.07.78c-1.31.15-1.75-.47-1.75-.47s-.15.64-1.62.49a1.41,1.41,0,0,1-1.41-1.43s.22-5.56.5-7.91.88-3.28,1.22-3.21.41.65.68,3,.57,5.68.57,5.68.94-1.46,1.59-1.4,1.85,1.87,1.85,1.87,1.75-2.28,3.09-1.75a2.74,2.74,0,0,1,1.66,1.63s.78-1.53,1.65-1.53,1.82,1.09,1.82,1.09.62-4.44.75-6.34.5-3.71,1-3.83S556.09,113.4,556.09,113.4Z"/><path class="cls-9" d="M542.12,112.65s-.34-1.88.6-2.32,1.34.47,1.43.38.82-1.13,1.54-.91a2.52,2.52,0,0,1,1.18,1s.85-1.31,1.94-1.31,1.69,1.34,1.69,1.34.34-1.31,1.15-1.34,1.32.47,1.63,1.44a5,5,0,0,1-.34,2.84c-.13.13-1.56-1.09-1.56-1.09s-1.1,1.4-1.44,1.5-1.41-1.34-1.41-1.34-1,1.56-1.56,1.52-1.63-1.18-1.63-1.18-.81,1.4-1.44,1.65S542.12,112.65,542.12,112.65Z"/><path class="cls-10" d="M441.22,302H429.47s5.87,7.25,11.75,13.63,1.75,6.25,5.37,8.37,4.51,1.25,6.32,3.88,5.43,4.25,6.43,5.75.13,1.62,2,4.75,1.75,3,5,6.62,4.63,3.5,6.88,6.75,1.62,4.11,7,7,6.5,1,10.37,3.46,10,1.68,13.88,1.05,8.87-2.75,12.25-3.87,15.25-3.63,18-6.75,1.62-6.75,7.62-8.38,14.63-6,16.63-8,18.5-12.37,18.5-12.37-.92,7.56.91,10.78,4.46,7.3,7.84,7.82,7.62,2.15,10.5,2,4.12-.12,3.12-5.87-19.25-20-19.5-20.64-53.28,16.14-65.52,16.51-42.52-13.75-46.06-17.62-27-15.55-27-15.55Z"/><path class="cls-11" d="M570.61,248.41s-.53,19,1.91,35.66,7.28,44.84,11,48.5,6,7.83,21,9.33,31.33.35,36.66-7.41,13.75-56.5,14-82.83c.11-13-26.8-16.67-42.27-16.67C573.47,235,570.61,248.41,570.61,248.41Z"/><path class="cls-4" d="M468.53,73.41c.35-1.27,6.46-8.34,8.67-8.73a32.21,32.21,0,0,0,6.2-2.35s3.66.3,1.55-1.16-3.05-3-7.73-.79-4.57-.12-7.69,3.21A28.61,28.61,0,0,0,466,67.7a20.5,20.5,0,0,0-1.49,3.64c-.7,1.78-1.15,4.13-.83,4.65s.27,1.74,1.12,1.52a10.64,10.64,0,0,0,2.67-2Z"/><path class="cls-4" d="M589.65,124.37s-2.43.27-2.25,1.54,1.13,2-.5,2.64-1.87.26-2.25,1.07.13,1-1.75,1.34-2.06-.28-3.12.53-2,.63-2.38,1.5.82.88-.37,1.75-1.29-.12-1.9,1.31-2.1,1.5-1.1,2.63,2.44,1.69,3.25,1a21.21,21.21,0,0,0,1.87-1.94s.32-2.19,2.13-2.25,1.51.63,2.41-.44,0-1.56,1.84-1.81a12.87,12.87,0,0,0,2.84-.75c.07,0,.1.42.53-.32s.57-.48.75-1.21-.31-.53.44-1.47,1.19-.81.88-1.81,2.12-3.13,1.18-3.81S589.65,124.37,589.65,124.37Z"/><path class="cls-4" d="M596.9,130s-2.43.27-2.25,1.54,1.13,2-.5,2.65-1.87.25-2.25,1.06.13,1-1.75,1.35-2.06-.29-3.12.53-2,.62-2.38,1.5.82.87-.37,1.75-1.29-.13-1.9,1.31-2.1,1.5-1.1,2.62,2.44,1.69,3.25,1a20.29,20.29,0,0,0,1.87-1.93s.32-2.19,2.13-2.25,1.51.62,2.41-.44,0-1.56,1.84-1.81a12.66,12.66,0,0,0,2.83-.75c.08,0,.11.42.54-.32s.57-.49.75-1.21-.31-.54.44-1.47,1.19-.82.88-1.82,2.12-3.12,1.18-3.81S596.9,130,596.9,130Z"/><path class="cls-4" d="M588.67,60.09s-1.28-2.09-2.35-1.38-1.3,1.85-2.61.68-1-1.59-1.92-1.59-.86.55-2-1-.62-2-1.8-2.6-1.42-1.54-2.37-1.51-.45,1.11-1.75.41-.43-1.22-2-1.16-2.25-1.26-2.85.12-.48,2.93.48,3.37a21.33,21.33,0,0,0,2.56.87s2.11-.65,2.94,1,.08,1.64,1.42,2,1.4-.7,2.42.89a12.08,12.08,0,0,0,1.89,2.24c0,.09-.34.28.52.36s.68.3,1.41.16.35-.51,1.52-.23,1.24.73,2,0,3.73.59,4-.55S588.67,60.09,588.67,60.09Z"/><path class="cls-12" d="M429.68,113.56c.22-.16,22.34-15.81,32.94-19.8s38-1.92,38-1.92c-.27,0-27.18-1.08-37.63,2.85S429.68,113.56,429.68,113.56Z"/><path class="cls-12" d="M431.87,148c.46-.78,11.33-19,21.14-25.83S497,99,497,99c-.34.17-33.75,17.26-43.44,24S431.87,148,431.87,148Z"/><path class="cls-12" d="M570.32,93.8c.14-.09,14.15-8.73,28.28-9.72s22.09,1.79,22.09,1.79-8.11-1.78-22-.8S570.32,93.8,570.32,93.8Z"/><path class="cls-12" d="M630.66,104.08c-.12,0-11.75-3.37-20.95-5s-34.61-1-34.61-1c1-.07,25.5-1.68,34.79,0S630.66,104.08,630.66,104.08Z"/><path class="cls-12" d="M614.33,123.79c-4.41-3.28-27-15.33-27-15.33.94.45,23.1,11.2,27.58,14.53s10.42,18,10.67,18.56C625.6,141.55,618.67,127,614.33,123.79Z"/><path class="cls-12" d="M458.52,158.7c.05-.1,5.29-10.8,9.73-22.76,4.51-12.16,31.46-26,31.46-26-.26.15-26.14,14.59-30.52,26.4A154.17,154.17,0,0,1,458.52,158.7Z"/><circle class="cls-4" cx="512.3" cy="95.06" r="0.83"/><circle class="cls-4" cx="517.42" cy="97.18" r="1.29"/><circle class="cls-4" cx="524.17" cy="99.5" r="1.71"/><circle class="cls-4" cx="532.17" cy="103" r="1.79"/><circle class="cls-4" cx="514.24" cy="101.18" r="0.48"/><circle class="cls-4" cx="519.3" cy="103.91" r="1.33"/><circle class="cls-4" cx="525.72" cy="106.99" r="0.83"/><circle class="cls-4" cx="529.51" cy="109.28" r="0.87"/><circle class="cls-4" cx="562.84" cy="99.42" r="1.62"/><circle class="cls-4" cx="567.01" cy="97.12" r="0.87"/><circle class="cls-4" cx="569.97" cy="94.64" r="0.42"/><circle class="cls-4" cx="565.59" cy="104.87" r="0.54"/><circle class="cls-4" cx="568.97" cy="105.38" r="0.58"/><circle class="cls-4" cx="573.51" cy="104.62" r="0.71"/><circle class="cls-4" cx="572.28" cy="101.14" r="1.23"/><path class="cls-10" d="M477.09,253.64s17.13,32.6,20.88,36.23,4.31,3.39,15,2.63,62.7-14.2,62.34-14.13-18-.88-20.62-.75-3,4-6.82,3.5-7.43-1.5-7.81-.5-5.25,2-5.25,2-3.75-1.13-6.37-.25a18.24,18.24,0,0,1-8.63,0c-1.62-.5-2.62,2-5.12,3.4s-7.21-1.37-8.48-1.12-3.27-.88-4-1.5-4.3-8.2-4.92-8.75-3.46-5.3-5-6.42a8.36,8.36,0,0,1-3.5-4.29c-.87-2.32-2.75-2.7-3.62-4.07s-2-3.13-3-3.57a18.43,18.43,0,0,1-3.13-2.41C478.59,253.24,477.09,253.64,477.09,253.64Z"/><path class="cls-1" d="M478.63,255.74s15.67,32.33,22.67,36,26-2.33,40-5.33,39.67-10.67,47.33-9.34,7.67,5,7.67,5,14-2.66,18.67-.33,4,6,4,6,4.33,2.67,3.33,6.67l-1,4s.67,5-3,7.33l-3.67,2.33s4.34,4.34-2,8.34-11,1.66-22,1.66-49,18-70.33,30.34-21.67,12.66-32.33,6-15.34-19-27.34-28S431,302.07,430.3,300.07"/><path class="cls-4" d="M482,277.62c-1.13.12-1.75.75-5.63,1.75s-2.16-.5-7.58.5-6.54.75-8.67,3-6.87,4-3,3.62,10.59-2.62,11.67-2.37,2,1.12,4.46,1.25,5.5-2.13,7.37-2,3.38.12,3.5.75-1.12,2.87-3.62,4.37-3.38,1.13-5.75,3-2.38,2.63-4,5.5-2.25,1.63-4,5.5-3.75,4.37-1,4.75,5.5-.5,9.75-2.12,4.75,1.12,7.5-3,2.54-5.88,3.64-6.38,2.23-2.75,3.36-1.12,3,2.5,2.25,4.87a24.13,24.13,0,0,1-3.25,5.63s-4.71,1.37-2.36,5,4.48,1.25,4.23,4.12-1.75-1.25-1.12,5.75.12,7.88,1.5,7.88,5.37-2.63,5.87-7.25-.87-5.75,1.25-10.88,2.13-5.5,4-7a35.05,35.05,0,0,0,3.38-2.75c.25-.37-1.5-3-3.88-3.87s-2.25-.13-5.75-2.63-3.75-1.75-4.87-4.75-.63-2.37-1.63-3.62-.25-.38-1.12-2.75-.59-1.75-1.86-3.13S482,277.62,482,277.62Z"/><path class="cls-4" d="M534.72,306.62s3.62,7.25-4.13,11.12-8.37,7.88-8.37,10.13.5,4.75.12,7.5-1.65,2.87-.57,4.87,2.51,2.13,4.6.75a51.43,51.43,0,0,1,6.14-3.5,22.41,22.41,0,0,0,3.58-1.5c1.5-.87,2.75-3.37,4.63-4.25s3.62-1.25,4.37-1.87-2.25-4.63,1.88-3.63a13.91,13.91,0,0,0,7.62-.37s2.5-3,4-3.13a14,14,0,0,1,2.88-.25c1,.13-1,1.75,1,.13s1.62-1.63,3.25-2.38,2.37-.37,2.25-1.87-.25-1.38-1.25-2.63-1-1.37-2-3.87-1.5-3.51-3.25-4.63S560,302,559.09,306s-.62,4.63.25,6.13,3.25.87,1.63,2.37a6.76,6.76,0,0,1-3,1.75,16.09,16.09,0,0,0-2.13-2.75c-.87-.75-2-1.62-1.62,1.38s.12,3.87-.5,4.12-1.25-.37-1.75-.75a1.2,1.2,0,0,0-1.75,0c-.88.63-3.25-2.5-3.63-3.25s1.75-2.37,1-4.87-2.23-5-2.93-4-.82,4.62-1.94,7.25-.75,4.25-2.25,6.5-2.25.82-3.75,3.22-3.53,4.4-4.21,3,3.21-5,4.21-7,1.75-3.25,2.5-5,1.37-2.25.12-4-.12-.76-1.37-2.88-1.25-2.37-2-3.62S534.72,306.62,534.72,306.62Z"/><path class="cls-13" d="M586.63,269.91s2.17,2.25,0,4-9-.42-10.58-1.17-5.92-2.5-8.5,4.67-4.25,15.58,4.08,24a257.69,257.69,0,0,0,19.42,17.16c2.5,2.17,4,4.92.83,6.42s-17.33-9.75-22.41-14.67-16.84-21.5-12.92-31.91,10.08-13.87,14.42-14.56,10.08,1.06,12.08,2.47A18.17,18.17,0,0,1,586.63,269.91Z"/><path class="cls-14" d="M595.47,253.64l-17.09-.82a4.63,4.63,0,0,1-2-2.89c-.37-1.94,5.69-7.31,16.63-9.31s28.81-2.19,40.87.56,13.75,4.44,14.69,6.69-.57,5.09-1.39,5.77S595.47,253.64,595.47,253.64Z"/><ellipse class="cls-4" cx="612.97" cy="252.82" rx="34.58" ry="5.83"/><path class="cls-4" d="M595.78,281.93s.56.81-1.5,1.75-8.38,3.06-8.5,3.81,1.56,1.06,2.44,0,5.57-3.12,7.63-3.87,3.89-2,3.06-1.69a8.14,8.14,0,0,1-2.61.14l-.11-.57Z"/><path class="cls-4" d="M618.94,286.55a4.56,4.56,0,0,1-2.16,2.94,42.32,42.32,0,0,1-8.75,4c-2.19.56-4.31-.35-4.88.92s.94,2,1.88,1.52,4.35-2.57,6-3a37,37,0,0,0,6.85-3.28,16.05,16.05,0,0,0,1.94-1.34l-.57-.51Z"/><path class="cls-4" d="M621.55,297.42a4.71,4.71,0,0,1-1.33,1.4,29.06,29.06,0,0,1-5.09,2.5c-1.25.34-3.62.09-4.25.67a1,1,0,0,0,1.13,1.46,43.59,43.59,0,0,0,4.08-1.88c1.08-.58,5.25-2.67,5.25-2.67l0-.49Z"/><path class="cls-4" d="M615.23,307.7s-2.14.58-2.85.67-3.16-.63-3.5,0,.59.83,1.29.45,2.63,0,2.92-.08,2.24.27,2.24.27l-.5-1Z"/><path class="cls-4" d="M456.29,241.06c-.25-.75-3.75-8.13-6.38-9s-3.26,0-5.81-2.5-1.44-2-5.06-3.63-2-.5-6.5-3-4.25-4.75-5.63-3.5-4.37,3-1.5,4.75-.87-2.37,7.25,3.25,8.13,5.63,10,7,2.63,1,3.88,2.88,1,2.62,3,3.5,2.37.75,3.75,1.75,2.37,1.62,3,1.62S456.29,241.06,456.29,241.06Z"/><path class="cls-4" d="M420.65,241.34c.42.66,5.64,6.94,8.4,7.13s3.16-.8,6.26,1,1.88,1.59,5.8,2.26,2.06,0,7,1.3,5.29,3.55,6.31,2,3.5-4,.28-5,1.44,2.08-7.83-1.35-9.26-3.44-11.42-4.3-2.79-.32-4.47-1.83-1.62-2.29-3.77-2.65-2.49-.13-4.07-.76-2.7-1-3.31-.83S420.65,241.34,420.65,241.34Z"/><path class="cls-4" d="M473.47,262.37c-1.13-.25-1.67-1.38-4.71.62s1.14,2.75-7.89,3.13-7.65-.75-13,.87-6,3.36-9.75,1-3.25-2.24-5.25-3.36-2.78-3-4.33-2.25-3.67,1.12-.79,4-.25,3.12,6,4.75,7.37,1.5,8.5,1.62.62.5,4-.5,6.87-3.37,11-2.25,5,2.38,9.5,1.25,6.12-2.37,7.37-2.62.63,1.87,2.88-.13,3.37-2.25,1.87-2.87A53.26,53.26,0,0,1,473.47,262.37Z"/><path class="cls-4" d="M452.39,274c-1.15-.11-1.82-1.16-4.59,1.21s1.47,2.58-7.44,4.08-7.69.21-12.82,2.5S422,285.84,418,284s-3.5-1.82-5.63-2.69-3.13-2.63-4.57-1.69-3.51,1.57-.3,4.07.15,3.13,6.55,4,7.5.57,8.64.55.68.42,3.9-1,6.4-4.21,10.64-3.61,5.25,1.74,9.58.06,5.78-3.12,7-3.53.85,1.79,2.84-.48,3.06-2.65,1.5-3.09A51.86,51.86,0,0,1,452.39,274Z"/><path class="cls-4" d="M569,491.15s-6.16,4.11-7.36,5.21-.9,1.42-5.43,2.33-3.35-.3-6.2,1.59-11.37-1.2-10.88,1.63,7.12,3.71,7.12,3.71.72.51-2.34.41-3.49-.54-6.65-.75-5,.87-7.29.12-2.24.26-5.05-1.34-1.88-2.78-4.77-1.9-3.15.16-4.82,1.47-6.8.8-1.85,2.41,9.28.23,11.59,1.1.06-.39,3.07,1.62,3.47,2.45,7.68,1.84,3.3-1.46,7.35-.76,5.28,1.88,8.54-.53,2.89-4.63,3.66-5.27.53-.35,4-2.09,2.3-1.79,5.89-3.81,4.82-1.47,6.42-3.91,1.33-2.51,1.31-3.77S569,491.15,569,491.15Z"/><path class="cls-4" d="M599.78,510.2s-6.15,4.11-7.35,5.21-.9,1.42-5.43,2.34-3.36-.31-6.2,1.58-11.37-1.2-10.88,1.63,7.11,3.72,7.11,3.72.73.51-2.34.4-3.49-.53-6.65-.75-5,.87-7.28.13-2.24.26-5.06-1.35-1.88-2.78-4.77-1.9-3.14.17-4.82,1.47-6.79.8-1.84,2.42,9.28.23,11.59,1.09.06-.39,3.07,1.63,3.47,2.44,7.68,1.84,3.3-1.46,7.35-.77,5.27,1.89,8.53-.52,2.89-4.63,3.66-5.27.54-.35,4-2.09,2.3-1.8,5.88-3.82,4.82-1.47,6.43-3.9,1.33-2.52,1.31-3.78S599.78,510.2,599.78,510.2Z"/><path class="cls-4" d="M595.42,393.67s-7.14-1.55-8.63-2.11-1.3-.93-5.88-.25-3.07,1.34-6.36.63-10.35,4.7-10.8,2.11,5.52-5.49,5.52-5.49.52-.67-2.34.41-3.12,1.59-6,2.79-5,.87-6.92,2.24-2.19.5-4.33,2.79-.88,3-3.89,3.17-3,.87-5,.29-6.67,1.51-2.52-1.48,8.69-3.19,10.59-4.68.18.32,2.38-2.39,2.48-3.22,6.65-4.05,3.58.19,7.19-1.72,4.37-3.32,8.22-2.3,4.23,3.05,5.16,3.35.62.13,4.44.51,2.76.8,6.79,1.38,5-.3,7.33,1.28,2.06,1.73,2.45,2.83S595.42,393.67,595.42,393.67Z"/><path class="cls-4" d="M580,396.94a37.91,37.91,0,0,0-3.38,6.25c-1.25,3.12-.37,6.12-2,7.62a30,30,0,0,1-4.12,3s-.88-.37-2,1.63-1.25,2.25-2.13,2.25-1-2.13-2.25-.13a29.48,29.48,0,0,0-2,4c-.75,1.5-2.75-1.5-2.25,3.63s2.5,4.44,2.5,4.44,3.63-1.57,4.25-2.82-2.12-1.75,1-4,2.5-1.37,4-2.75,2.25-1.5,3.63-3.12,2-1.53,3-3.64a24.23,24.23,0,0,0,1.75-3.74c.75-2.12,1.5-1.5,1.37-3.62s-.62-2.5-.62-3.88.25-1,.25-2.17.77-1.08.39-1.83A2.88,2.88,0,0,0,580,396.94Z"/><path class="cls-8" d="M526,522.63s-5.77-2.67-9.61-1-1.83,3.66-7.5,3.83-5.67.83-9.5-1.17-2.33-4.67-7-6.17-1.33.34-8.5-3.49-9.5-5.84-8.16-1.34a39.65,39.65,0,0,0,4.66,9.34,18.89,18.89,0,0,1,3.17,3.83c1,1.83,1.67,2.17,6.67,3.67s12.16.33,14.83,3.83,1.33,6,6.17,3.33,7.5-4.83,10-6.16,0-2.5,4.77-1.34,7.39,3.17,8.39,0,3.17-4.83,0-6S526,522.63,526,522.63Z"/><path class="cls-8" d="M731.48,391.25s-1.26.57-4.1,1.91a33.85,33.85,0,0,0-8.33,6.25c-1.5,1.66-3.75,1.66-4.42,3.33s.67,2.17,1.67.83a18.68,18.68,0,0,1,3.1-3c1.13-1,9.69-6.87,11.32-7.81a7.84,7.84,0,0,1,3.9-.75l-1.65-.51Z"/><path class="cls-8" d="M741.25,398.31a10.5,10.5,0,0,1-.78,1.85c-.42.66-3.79,2.19-5.85,4.18a57.05,57.05,0,0,0-4.15,4.9c-1,1.08-2.17.58-3.09,1.67s.09,2.66,1.67,1.41a32.28,32.28,0,0,0,3.75-3.66c.83-.92,4.33-4.42,5.33-5.25a26,26,0,0,1,2.52-2.17,9.1,9.1,0,0,1,1.78-.63Z"/><path class="cls-8" d="M746.23,408.71a3.56,3.56,0,0,0-1.58,1,11.75,11.75,0,0,1-2.75,3.1c-1.75,1.34-6.62,5.59-6.81,7s.69,2.07,1.44,1.13.81-2,1.5-2.69,4.06-4.37,4.94-4.87,2.37-2.69,2.62-2.82a4.46,4.46,0,0,1,1.21-.06Z"/><path class="cls-1" d="M667.05,264.85a6.41,6.41,0,0,0-3.79-4.66c-3.4-1.53-8.39.13-11.27,1.7s-7.77,6.78-5.47,9.5a7.87,7.87,0,0,0,5.81,2.6,10.74,10.74,0,0,0-4.27,3.62c-1.71,2.54-2.29,6.95.22,8.54s6.47.49,6.47.49-3,1.77-3.14,4.53c-.05,1.21.84,4.32,5.83,2.92s7.41-2,11.15-10.09S667.05,264.85,667.05,264.85Z"/><path class="cls-4" d="M651.87,274s1-.18,1.37-.2a30.08,30.08,0,0,0,4.79-1.66,26.86,26.86,0,0,0,3.56-1.9,5.58,5.58,0,0,0,1.14-1.59c.66-.74,1.18.24.68.73-.19.2-.59.46-.88.73a11.23,11.23,0,0,1-1.79,1.28c-.67.35-4,1.87-4.52,2s-3.73.81-4,.89l-1,.3,1-.52Z"/><path class="cls-4" d="M653.47,286.89a15.41,15.41,0,0,0,2-.79,21.31,21.31,0,0,0,3.78-2.23,5.89,5.89,0,0,1,1.19-1.29c.4-.21,1.46.22.68.75s-1.37.9-2.18,1.41-3.75,2.38-4.29,2.63-1.89,1-1.89,1a6,6,0,0,1,.79-.88l.94-.77Z"/><path class="cls-10" d="M597,383.29a176.51,176.51,0,0,1-21.25-2.55c-11.75-2.12-35,6.88-35.88,7.13s7.25-6.25,17-9.75,16.63-2.88,20.25-2,13.92,2.37,16.59,3.37,5.41,3.1,5.16,3.8S597,383.29,597,383.29Z"/><path class="cls-4" d="M500,50.32c-.08-.11-7.8-11.45-11.4-16.06s-16.41-15.44-16.41-15.44c.55.42,13.54,10.15,17.19,14.83S500,50.32,500,50.32Z"/><path class="cls-4" d="M503.65,47.52c-.06-.13-5.51-12.72-8.18-17.92s-13.21-18.25-13.21-18.25c.47.51,11.39,12.52,14.1,17.79S503.65,47.52,503.65,47.52Z"/><path class="cls-4" d="M507.78,50.22c0-.14-.26-13.86-.75-19.69s-5.29-21.9-5.29-21.9c.24.65,5.78,15.91,6.28,21.82S507.78,50.22,507.78,50.22Z"/><path class="cls-4" d="M553.68,47.6c.06-.13,6.08-12.49,9-17.6s15.6-16.43,15.6-16.43S566.43,25.46,563.55,30.5,553.68,47.6,553.68,47.6Z"/><path class="cls-4" d="M550.76,45c0-.14,2.1-13.74,3.37-19.48s10-20.33,10-20.33c-.07.15-7.77,14.89-9,20.55S550.76,45,550.76,45Z"/><path class="cls-4" d="M547,49c0-.14-2.21-13.72-2.77-19.57S547.55,7,547.55,7c0,.16-2.83,16.55-2.28,22.32S547,49,547,49Z"/><path class="cls-7" d="M546.3,130.16c-.25-.09-1.38.23-3.52,1.65s-2.31,2.26-5.23,1.6-2.67-1.09-5.38.08-3.87,3.83-3.54,3.58,2-1,1.75,0,2,.32,1.79,1.48-3.2,2.5-.62,2.59,3.06-.87,3.53.39,2.78.61,3.25,1.52,0,2.9,1.39,2.53a24.75,24.75,0,0,1,3.06-.53s3.36-.83,4.94-.41.5,0,4.33.94,4.67-.44,4.92-.44,2,.44,2,.44,2.16-1.28,2.25-1.44a13.31,13.31,0,0,1,1.08-1.92c.67-1,1.67-1.19,1.25-2.26s-1.17-1.5-.71-2.54,1.71-1.62,1.13-2.78,1.58-1.69,1.08-2.85-4-.26-5,0-2.89,1.18-4.39.85-2.59.14-4.25-.85-1.5-1.34-2.5-1.67A6.27,6.27,0,0,0,546.3,130.16Z"/><path class="cls-4" d="M707.93,425.6s-2.6,3.82-.55,5.11,4.19.78,3.18,4-1.93,3-1.23,4.53,1.6,1.05-.21,4.15-2.94,2.61-3.07,5.13-1.56,3.63-.76,5.24,2.24-.1,2,2.68-1.76,1.69-.44,4.32-.43,4.85,2.41,4.8,5.4-1.43,5.41-3.44a39.38,39.38,0,0,0-.48-5.05s-2.75-3.13-.62-5.8,2.75-1.41,2.33-4-2.28-1.86-.35-4.85a23.33,23.33,0,0,0,2.4-5c.16-.06.74.38.21-1.16s0-1.4-.82-2.55-1.15-.21-1.57-2.44.29-2.69-1.53-3.47-1.87-6.87-4-6.37S707.93,425.6,707.93,425.6Z"/><path class="cls-4" d="M701.88,471.28s-4,6.22-4.68,7.7-.25,1.66-4.05,4.31-3.2,1-5.06,3.91-10.91,3.43-9.33,5.83,8,.58,8,.58.87.18-2,1.3-3.42.9-6.4,2-4.24,2.78-6.64,3-2,1.13-5.17.78-2.83-1.81-5.13.15-2.82,1.4-3.84,3.27-5.92,3.43-.73,2.94,8.61-3.48,11.07-3.6-.1-.38,3.46.27,4.16.86,7.78-1.37,2.44-2.65,6.44-3.62,5.59-.37,7.62-3.88.81-5.4,1.26-6.29.36-.53,2.84-3.51,1.4-2.56,3.88-5.84,3.84-3.26,4.35-6.14.21-2.83-.31-4S701.88,471.28,701.88,471.28Z"/></svg>