<svg xmlns="http://www.w3.org/2000/svg" xmlns:xlink="http://www.w3.org/1999/xlink" viewBox="0 0 185.47 132.92"><defs><style>.cls-1{isolation:isolate;}.cls-2{fill:url(#Безымянный_градиент_11);}.cls-3{fill:#1e1e1e;}.cls-4{fill:#484848;}.cls-5{fill:url(#Безымянный_градиент_11-2);}.cls-6{fill:#424242;}.cls-7{fill:#a9a9a9;}.cls-8{fill:#f9ffd4;}.cls-9{fill:url(#Безымянный_градиент_11-3);}.cls-10{fill:url(#Безымянный_градиент_11-4);}.cls-11{fill:url(#Безымянный_градиент_11-5);}.cls-12{fill:url(#Безымянный_градиент_11-6);}.cls-13{fill:url(#Безымянный_градиент_11-7);}.cls-14{fill:url(#Безымянный_градиент_11-8);}.cls-15{fill:url(#Безымянный_градиент_11-9);}.cls-16{fill:url(#Безымянный_градиент_11-10);}.cls-17{fill:url(#Безымянный_градиент_11-11);}.cls-18{fill:url(#Безымянный_градиент_11-12);}.cls-19{fill:url(#Безымянный_градиент_11-13);}.cls-20{fill:url(#Безымянный_градиент_11-14);}.cls-21{fill:url(#Безымянный_градиент_11-15);}.cls-22{fill:url(#Безымянный_градиент_11-16);}.cls-23{fill:url(#Безымянный_градиент_11-17);}.cls-24{fill:url(#Безымянный_градиент_11-18);}.cls-25{fill:url(#Безымянный_градиент_11-19);}.cls-26{fill:url(#Безымянный_градиент_11-20);}.cls-27{fill:url(#Безымянный_градиент_11-21);}.cls-28{fill:url(#Безымянный_градиент_11-22);}.cls-29{fill:url(#Безымянный_градиент_11-23);}.cls-30{fill:url(#Безымянный_градиент_11-24);}.cls-31{fill:url(#Безымянный_градиент_11-25);}.cls-32{fill:url(#Безымянный_градиент_11-26);}.cls-33{fill:#3f5666;}.cls-34,.cls-41{fill:#fff;}.cls-34,.cls-50{opacity:0.1;}.cls-34{mix-blend-mode:screen;}.cls-35{fill:#ea6045;}.cls-36{fill:#d7c394;}.cls-37{fill:#f5e5c0;}.cls-38{fill:#f8ff9f;}.cls-39{fill:#e0e0e0;}.cls-40{fill:#263238;}.cls-42{fill:#37474f;}.cls-43{fill:#27debf;}.cls-44{fill:#723027;}.cls-45{fill:#ebebeb;}.cls-46{fill:#e6e6e6;}.cls-47{fill:#f5f5f5;}.cls-48{fill:#fafafa;}.cls-49{fill:#f0f0f0;}.cls-51{fill:#455a64;}</style><linearGradient id="Безымянный_градиент_11" x1="69.78" y1="46.01" x2="184.51" y2="46.01" gradientUnits="userSpaceOnUse"><stop offset="0" stop-color="#ff94a0"/><stop offset="0.13" stop-color="#f78896"/><stop offset="0.37" stop-color="#e06a7a"/><stop offset="0.69" stop-color="#bd384f"/><stop offset="1" stop-color="#94001d"/></linearGradient><linearGradient id="Безымянный_градиент_11-2" x1="0.93" y1="99.75" x2="168.95" y2="99.75" xlink:href="#Безымянный_градиент_11"/><linearGradient id="Безымянный_градиент_11-3" x1="58.94" y1="76.56" x2="70.97" y2="76.56" xlink:href="#Безымянный_градиент_11"/><linearGradient id="Безымянный_градиент_11-4" x1="70.09" y1="79.11" x2="83.41" y2="79.11" xlink:href="#Безымянный_градиент_11"/><linearGradient id="Безымянный_градиент_11-5" x1="82.62" y1="81.99" x2="97.48" y2="81.99" xlink:href="#Безымянный_градиент_11"/><linearGradient id="Безымянный_градиент_11-6" x1="96.99" y1="85.31" x2="113.75" y2="85.31" xlink:href="#Безымянный_градиент_11"/><linearGradient id="Безымянный_градиент_11-7" x1="114.41" y1="89.35" x2="133.68" y2="89.35" xlink:href="#Безымянный_градиент_11"/><linearGradient id="Безымянный_градиент_11-8" x1="135.29" y1="94.23" x2="157.85" y2="94.23" xlink:href="#Безымянный_градиент_11"/><linearGradient id="Безымянный_градиент_11-9" x1="51.51" y1="78.66" x2="63.57" y2="78.66" xlink:href="#Безымянный_градиент_11"/><linearGradient id="Безымянный_градиент_11-10" x1="62.44" y1="81.43" x2="75.81" y2="81.43" xlink:href="#Безымянный_градиент_11"/><linearGradient id="Безымянный_градиент_11-11" x1="74.77" y1="84.57" x2="89.71" y2="84.57" xlink:href="#Безымянный_градиент_11"/><linearGradient id="Безымянный_градиент_11-12" x1="88.97" y1="88.2" x2="105.85" y2="88.2" xlink:href="#Безымянный_градиент_11"/><linearGradient id="Безымянный_градиент_11-13" x1="106.27" y1="92.65" x2="125.73" y2="92.65" xlink:href="#Безымянный_градиент_11"/><linearGradient id="Безымянный_градиент_11-14" x1="127.12" y1="98.04" x2="150" y2="98.04" xlink:href="#Безымянный_градиент_11"/><linearGradient id="Безымянный_градиент_11-15" x1="43.8" y1="80.9" x2="55.9" y2="80.9" xlink:href="#Безымянный_градиент_11"/><linearGradient id="Безымянный_градиент_11-16" x1="54.49" y1="83.91" x2="67.92" y2="83.91" xlink:href="#Безымянный_градиент_11"/><linearGradient id="Безымянный_градиент_11-17" x1="66.59" y1="87.34" x2="81.62" y2="87.34" xlink:href="#Безымянный_градиент_11"/><linearGradient id="Безымянный_градиент_11-18" x1="80.6" y1="91.32" x2="97.62" y2="91.32" xlink:href="#Безымянный_градиент_11"/><linearGradient id="Безымянный_градиент_11-19" x1="97.76" y1="96.23" x2="117.43" y2="96.23" xlink:href="#Безымянный_градиент_11"/><linearGradient id="Безымянный_градиент_11-20" x1="118.56" y1="102.22" x2="141.79" y2="102.22" xlink:href="#Безымянный_градиент_11"/><linearGradient id="Безымянный_градиент_11-21" x1="35.73" y1="83.28" x2="47.87" y2="83.28" xlink:href="#Безымянный_градиент_11"/><linearGradient id="Безымянный_градиент_11-22" x1="46.15" y1="86.56" x2="59.64" y2="86.56" xlink:href="#Безымянный_градиент_11"/><linearGradient id="Безымянный_градиент_11-23" x1="57.99" y1="90.31" x2="73.11" y2="90.31" xlink:href="#Безымянный_градиент_11"/><linearGradient id="Безымянный_градиент_11-24" x1="71.76" y1="94.69" x2="88.92" y2="94.69" xlink:href="#Безымянный_градиент_11"/><linearGradient id="Безымянный_градиент_11-25" x1="88.72" y1="100.11" x2="108.62" y2="100.11" xlink:href="#Безымянный_градиент_11"/><linearGradient id="Безымянный_градиент_11-26" x1="109.44" y1="106.79" x2="133.03" y2="106.79" xlink:href="#Безымянный_градиент_11"/></defs><title>notebook</title><g class="cls-1"><g id="Слой_1" data-name="Слой 1"><path class="cls-2" d="M180.1.67,78.27.9A2.77,2.77,0,0,0,76,2.61c-.63,1.6-6.22,66.12-6.22,66.12a2.37,2.37,0,0,0,.69,1.65c.69.57,96.86,20.71,96.86,20.71a2.93,2.93,0,0,0,2.33,0c1.07-.57,1.64-1.65,2.08-3.48S184.63,5.12,184.51,4a3.67,3.67,0,0,0-1.83-2.74A16.68,16.68,0,0,0,180.1.67Z"/><path class="cls-3" d="M180.2,3.84S79.57,3.11,78.63,3.15,77.54,4,77.4,4.82s-5.94,63.54-5.94,63.67-.14.89.94,1.19,94.31,19.94,94.45,19.94,1.08.26,1.65-1.24S181.09,5.29,181.09,5C181.09,3.85,180.2,3.84,180.2,3.84Z"/><path class="cls-4" d="M9.3,89.58l-6.45-.43L.71,90.21l.22,2.85s106.33,39.05,106.43,39.05a9.68,9.68,0,0,0,3.77.34,7.55,7.55,0,0,0,4.5-1.45c1.1-.75,53.5-35.66,53.5-35.66V92.06s0-.42-.73-.72a29.69,29.69,0,0,0-4.62-.45Z"/><path class="cls-5" d="M1.73,91.55l104.72,36.91s3.77,2.39,9.87-1.43,52.15-33.43,52.46-34,.49-1.53-2.38-2.14S70.47,70.38,70.47,70.38s-.88-.4-4,.52S4.67,88.47,2.85,89.15,1,90.17.94,90.49C.8,91.16,1.73,91.55,1.73,91.55Z"/><path class="cls-6" d="M64.43,72.71,27.81,83.22s-.43.25,0,.38c8.45,2.63,99.5,31,100,31s2.93.43,4.25-.51,29.44-18.06,29.72-18.49-.43-.85-1.7-1.11S66.15,72.75,65.58,72.71A9.56,9.56,0,0,0,64.43,72.71Z"/><path class="cls-7" d="M53.58,94.94,41.1,99.71s-.71.51,0,.92S62,107.88,62,107.88a7.07,7.07,0,0,0,4.22-.47c1.79-1,11.87-5.2,12-5.28s.64-.73-.82-1.22-20.12-6.36-20.64-6.42a4.17,4.17,0,0,0-1.93.11A6.27,6.27,0,0,0,53.58,94.94Z"/><path class="cls-8" d="M131.39,49.4V49s0,0,0-.09,0,0,0-.08-.05,0-.05-.09,0,0-.05,0L121.21,34h0s0,0,0-.08l0,0-.09-.08,0,0s0,0-.09,0l0,0h0c-.05,0-.05,0-.09,0h-.37s-.09,0-.1,0h0s0,0-.06,0a.19.19,0,0,0-.09,0l-.05,0-.1.07h0s0,0-.06.07l0,0h0l-11.74,12a0,0,0,0,1-.05,0s0,0,0,.07,0,0,0,.06,0,0,0,.07v.35s0,0,0,.07,0,.05,0,.08a0,0,0,0,0,0,0l3,5.56-.15,1.32a1.48,1.48,0,0,0-1.76,1.17l-.24,2a1.73,1.73,0,0,0,1.51,1.74l15.1,2.89a1.71,1.71,0,0,0,2.19-1.19l.26-2.24A2,2,0,0,0,126.16,56l.16-1.44,5.05-5a0,0,0,0,1,.06,0s.06,0,.06-.08S131.39,49.44,131.39,49.4Zm-18.9,4.35.09-.8,11.61,1.84-.1.85Zm12.27-.44-12.4-1.87-2.73-5,9.62-9.71L118.64,42a3.1,3.1,0,0,0-2.89,2.47c-.18,1.54,1.23,3,3.15,3.26s3.76-.88,3.95-2.48a3,3,0,0,0-2.37-3.07l.62-5.26,8.09,12Zm-5.37-9.86a1.42,1.42,0,1,1-1.85,1.2A1.63,1.63,0,0,1,119.39,43.45Zm6.13,16.27L110.41,57l.24-2,.81.13h0l13.43,2.3h0l.84.14-.26,2.22Zm-.09.78.09-.78h0Z"/><path class="cls-8" d="M146.31,25.26l-4,0c-.63,0-1.19.37-1.24.82l-.07.62-16.51-.2.11-.95c.05-.41-.34-.76-.87-.76h-4.2a1,1,0,0,0-1,.73l-.11.92-13.26-.16.06-.51a.66.66,0,0,0-.7-.69h-2.62a.82.82,0,0,0-.83.66L100.78,28a.64.64,0,0,0,.67.68l2.62.07a.81.81,0,0,0,.85-.66l.06-.51,7.73.15a21.3,21.3,0,0,0-7.19,4,2.66,2.66,0,0,0-1.72-.69A2.69,2.69,0,0,0,101,33.25a2.32,2.32,0,0,0,2.31,2.46,2.66,2.66,0,0,0,2.92-2.18,1.13,1.13,0,0,0,0-.41A21,21,0,0,1,118.26,28l-.09.74c0,.4.32.74.82.76l4.19.12a1,1,0,0,0,1-.73l.09-.76a22.27,22.27,0,0,1,13.19,6.55,1.73,1.73,0,0,0-.11.49c-.17,1.51,1.34,2.88,3.49,3s4.09-1,4.28-2.61-1.43-2.94-3.63-3a4.89,4.89,0,0,0-2.68.64,23.3,23.3,0,0,0-8.21-5.13l10.25.2-.07.62c0,.45.42.84,1,.85l4,.11a1.2,1.2,0,0,0,1.3-.82l.34-2.93A1.15,1.15,0,0,0,146.31,25.26Zm-42.85,2.13-1.1,0,.11-1,1.1,0Zm0,6.92a1,1,0,0,1-1-1,1.09,1.09,0,0,1,1.18-.9.94.94,0,0,1,1,1A1.12,1.12,0,0,1,103.42,34.31Zm37.81-.07c.86,0,1.55.57,1.47,1.24s-.83,1.13-1.74,1.08-1.53-.59-1.45-1.25S140.37,34.19,141.23,34.24Zm-18.87-6.12L120,28.07l.11-.93h0l.11-.93,2.33,0-.22,1.88Zm22.43,0-1.69,0,.14-1.21,1.69,0Z"/><path class="cls-9" d="M65.93,77.89l-6.58-1.46c-.78-.18-.41-.59.82-.93h0a9.62,9.62,0,0,1,3.65-.29l6.65,1.39c.87.18.57.63-.67,1h0A9.71,9.71,0,0,1,65.93,77.89Z"/><path class="cls-10" d="M78.12,80.61,70.6,78.93c-.89-.2-.58-.66.69-1h0a9.72,9.72,0,0,1,3.91-.32l7.59,1.6c1,.2.77.7-.51,1.09h0A9.84,9.84,0,0,1,78.12,80.61Z"/><path class="cls-11" d="M91.92,83.69l-8.66-1.93c-1-.23-.79-.75.5-1.16h0A10.18,10.18,0,0,1,88,80.27l8.72,1.83c1.15.24,1,.8-.28,1.24h0A10.14,10.14,0,0,1,91.92,83.69Z"/><path class="cls-12" d="M107.88,87.24,97.81,85c-1.19-.27-1.07-.85.26-1.3h0a10,10,0,0,1,4.55-.35l10.11,2.12c1.34.28,1.37.91,0,1.4h0A10.22,10.22,0,0,1,107.88,87.24Z"/><path class="cls-13" d="M127.44,91.6l-12-2.66c-1.41-.32-1.43-1-.09-1.5h0a10.41,10.41,0,0,1,5-.37l12,2.51c1.59.33,1.82,1.06.48,1.63h0A10.47,10.47,0,0,1,127.44,91.6Z"/><path class="cls-14" d="M151.17,96.89l-14.42-3.22c-1.69-.37-1.94-1.16-.59-1.74h0a10.75,10.75,0,0,1,5.46-.4l14.38,3c1.92.4,2.44,1.26,1.12,1.91h0A10.58,10.58,0,0,1,151.17,96.89Z"/><path class="cls-15" d="M58.33,80.09,51.89,78.5c-.77-.19-.33-.63,1-1h0a9.59,9.59,0,0,1,3.74-.3l6.53,1.51c.85.2.49.67-.83,1h0A9.71,9.71,0,0,1,58.33,80.09Z"/><path class="cls-16" d="M70.31,83l-7.39-1.82c-.88-.22-.5-.71.83-1.1h0a9.89,9.89,0,0,1,4-.32l7.48,1.74c1,.22.69.75-.66,1.17h0A9.75,9.75,0,0,1,70.31,83Z"/><path class="cls-17" d="M83.91,86.39l-8.54-2.1c-1-.25-.71-.81.66-1.24h0a9.93,9.93,0,0,1,4.31-.33l8.63,2c1.13.26,1,.85-.44,1.32h0A10,10,0,0,1,83.91,86.39Z"/><path class="cls-18" d="M99.73,90.29l-10-2.46c-1.18-.29-1-.92.43-1.4h0a10.24,10.24,0,0,1,4.67-.36l10,2.33c1.33.31,1.28,1-.13,1.51h0A10,10,0,0,1,99.73,90.29Z"/><path class="cls-19" d="M119.21,95.09l-11.92-2.94c-1.4-.34-1.34-1.07.09-1.61h0a10.37,10.37,0,0,1,5.11-.38l12,2.77c1.58.36,1.74,1.16.31,1.76h0A10.4,10.4,0,0,1,119.21,95.09Z"/><path class="cls-20" d="M143,101l-14.47-3.57c-1.7-.41-1.86-1.27-.42-1.89h0a10.61,10.61,0,0,1,5.65-.41l14.46,3.35c1.93.45,2.38,1.39,1,2.09h0A10.67,10.67,0,0,1,143,101Z"/><path class="cls-21" d="M50.44,82.43l-6.3-1.73c-.75-.2-.24-.67,1.11-1h0a9.51,9.51,0,0,1,3.82-.3L55.47,81c.84.21.4.71-1,1.11h0A9.59,9.59,0,0,1,50.44,82.43Z"/><path class="cls-22" d="M62.18,85.64l-7.25-2c-.86-.24-.41-.77,1-1.17h0a9.62,9.62,0,0,1,4.1-.33l7.35,1.89c1,.25.6.81-.83,1.25h0A9.61,9.61,0,0,1,62.18,85.64Z"/><path class="cls-23" d="M75.57,89.31,67.15,87c-1-.27-.61-.87.84-1.32h0a10,10,0,0,1,4.43-.34l8.51,2.18c1.12.29.86.93-.62,1.43h0A9.89,9.89,0,0,1,75.57,89.31Z"/><path class="cls-24" d="M91.21,93.59l-9.89-2.71c-1.17-.32-.88-1,.62-1.5h0a10.08,10.08,0,0,1,4.8-.37l10,2.56c1.32.34,1.19,1.08-.32,1.64h0A10,10,0,0,1,91.21,93.59Z"/><path class="cls-25" d="M110.58,98.89,98.72,95.65c-1.39-.39-1.25-1.17.28-1.75h0a10.18,10.18,0,0,1,5.27-.39l11.92,3.06c1.59.4,1.66,1.27.13,1.91h0A10.25,10.25,0,0,1,110.58,98.89Z"/><path class="cls-26" d="M134.42,105.42l-14.53-4c-1.69-.46-1.77-1.39-.21-2.07h0a10.51,10.51,0,0,1,5.84-.41l14.53,3.73c1.95.49,2.32,1.53.79,2.29h0A10.66,10.66,0,0,1,134.42,105.42Z"/><path class="cls-27" d="M42.17,84.92,36,83c-.73-.22-.14-.72,1.28-1.11h0a9.52,9.52,0,0,1,3.91-.31l6.25,1.79c.81.23.3.76-1.16,1.18h0A9.36,9.36,0,0,1,42.17,84.92Z"/><path class="cls-28" d="M53.63,88.42l-7.08-2.16c-.84-.26-.3-.82,1.18-1.25h0a9.42,9.42,0,0,1,4.21-.33l7.2,2.06c1,.27.5.87-1,1.34h0A9.55,9.55,0,0,1,53.63,88.42Z"/><path class="cls-29" d="M66.76,92.44,58.5,89.91c-1-.3-.5-.94,1-1.42h0a9.7,9.7,0,0,1,4.55-.34l8.38,2.39c1.11.32.75,1-.82,1.53h0A9.73,9.73,0,0,1,66.76,92.44Z"/><path class="cls-30" d="M82.19,97.16l-9.76-3c-1.15-.35-.77-1.08.82-1.62h0a9.81,9.81,0,0,1,5-.37L88.07,95c1.31.38,1.09,1.17-.53,1.78h0A10,10,0,0,1,82.19,97.16Z"/><path class="cls-31" d="M101.41,103,89.62,99.43c-1.38-.42-1.14-1.28.5-1.9h0a10.26,10.26,0,0,1,5.46-.4l11.87,3.39c1.58.46,1.56,1.4-.09,2.1h0A10.27,10.27,0,0,1,101.41,103Z"/><path class="cls-32" d="M125.26,110.33l-14.56-4.46c-1.69-.51-1.67-1.53,0-2.26h0a10.43,10.43,0,0,1,6.07-.42l14.58,4.16c2,.56,2.24,1.7.57,2.53h0A10.58,10.58,0,0,1,125.26,110.33Z"/><path class="cls-33" d="M153.83,70.34h-41.6l7.43,60.56s2.54,1.75,13.37,2c9.73.23,13.37-2,13.37-2Z"/><polygon class="cls-34" points="114.51 73.79 121.29 129.05 123.3 129.05 123.3 73.79 114.51 73.79"/><polygon class="cls-35" points="152.82 87.08 113.24 87.08 116.7 114.16 149.49 114.16 152.82 87.08"/><polygon class="cls-36" points="155.46 71.44 110.6 71.44 112.13 66.5 153.93 66.5 155.46 71.44"/><polygon class="cls-37" points="150.14 66.5 115.92 66.5 117.08 61.55 148.97 61.55 150.14 66.5"/><path class="cls-38" d="M138.56,103.7a.08.08,0,0,0,0,0s0,0,0,0v0a.06.06,0,0,0,0,0v0s0,0,0,0l0,0s0,0,0,0v0L133.65,96h0l0,0,0,0,0,0,0,0,0,0,0,0h-.34l0,0h0L133,96h0l0,0,0,0h0l-4.86,7.32s0,0,0,0,0,0,0,0a.08.08,0,0,0,0,0s0,0,0,0v.16s0,0,0,0a0,0,0,0,1,0,0s0,0,0,0l0,0,1.78,2.92v.75a.83.83,0,0,0-.8.82v1.18a.83.83,0,0,0,.83.82h6.8a.82.82,0,0,0,.82-.82v-1.18a.82.82,0,0,0-.79-.82v-.75l1.78-2.92v0s0,0,0,0A0,0,0,0,0,138.56,103.7Zm-7.86,3.77V107h5.21v.45Zm5.39-1.28h-5.57l-1.58-2.59,3.95-6v2.88a1.6,1.6,0,1,0,.83,0V97.64l4,6Zm-2.78-4.9a.76.76,0,0,1,.76.76.77.77,0,0,1-.76.77.78.78,0,0,1-.77-.77A.77.77,0,0,1,133.31,101.29Zm3.4,8.18h-6.8V108.3h6.81v1.18Zm0,.41v-.41h0Z"/><path class="cls-38" d="M143,91.16h-1.43a.41.41,0,0,0-.41.42v.3h-6.52v-.52a.41.41,0,0,0-.41-.42h-1.87a.42.42,0,0,0-.41.42v.52h-6.52v-.3a.41.41,0,0,0-.41-.42h-1.42a.41.41,0,0,0-.41.42V93a.41.41,0,0,0,.41.41H125a.41.41,0,0,0,.41-.41v-.3h3.93A9.75,9.75,0,0,0,126,95.19a1.39,1.39,0,1,0,.44,1,1,1,0,0,0,0-.24A8.85,8.85,0,0,1,132,92.8v.42a.41.41,0,0,0,.41.41h1.87a.41.41,0,0,0,.41-.41V92.8A8.82,8.82,0,0,1,140.21,96a1.94,1.94,0,0,0,0,.24,1.39,1.39,0,1,0,1.39-1.39,1.37,1.37,0,0,0-.94.37,9.78,9.78,0,0,0-3.4-2.49h3.93V93a.41.41,0,0,0,.41.41H143a.41.41,0,0,0,.41-.41V91.58A.42.42,0,0,0,143,91.16Zm-18.39,1.43H124V92h.6Zm.41,4.19a.57.57,0,1,1,.57-.57A.57.57,0,0,1,125,96.78Zm16.55-1.14a.57.57,0,1,1-.57.57A.58.58,0,0,1,141.58,95.64Zm-7.75-2.83h-1v-.52h0v-.51h1v1Zm8.76-.22H142V92h.6Z"/><g id="Cabinet"><g id="_Группа_" data-name="&lt;Группа&gt;"><g id="_Группа_2" data-name="&lt;Группа&gt;"><line id="_Контур_" data-name="&lt;Контур&gt;" class="cls-39" x1="98.31" y1="61.26" x2="98.31" y2="43.6"/></g></g></g><g id="Folder"><g id="_Группа_3" data-name="&lt;Группа&gt;"><polygon id="_Контур_2" data-name="&lt;Контур&gt;" class="cls-40" points="29.12 51.47 29.12 92.2 70.81 68.13 70.81 31.1 39.81 49 38.74 45.91 29.12 51.47"/></g><g id="_Группа_4" data-name="&lt;Группа&gt;"><polygon id="_Контур_3" data-name="&lt;Контур&gt;" class="cls-41" points="29.12 92.2 31.26 55.17 72.95 31.1 70.81 68.13 29.12 92.2"/></g><g id="_Группа_5" data-name="&lt;Группа&gt;"><polygon id="_Контур_4" data-name="&lt;Контур&gt;" class="cls-42" points="29.12 92.2 32.33 55.78 74.02 31.71 70.81 68.13 29.12 92.2"/></g></g><g id="Folder-2" data-name="Folder"><g id="_Группа_6" data-name="&lt;Группа&gt;"><g id="_Группа_7" data-name="&lt;Группа&gt;"><polygon id="_Контур_5" data-name="&lt;Контур&gt;" class="cls-43" points="40.26 59.38 40.26 100.11 81.95 76.04 81.95 39.01 50.95 56.91 49.88 53.82 40.26 59.38"/></g><g id="_Группа_8" data-name="&lt;Группа&gt;"><polygon id="_Контур_6" data-name="&lt;Контур&gt;" class="cls-44" points="40.26 59.38 40.26 100.11 81.95 76.04 81.95 39.01 50.95 56.91 49.88 53.82 40.26 59.38"/></g></g><g id="Document"><g id="_Группа_9" data-name="&lt;Группа&gt;"><path id="_Контур_7" data-name="&lt;Контур&gt;" class="cls-45" d="M55.4,85.88A1,1,0,0,1,55,85.1V34.29a1,1,0,0,1,.46-.8L87.34,15.07a1,1,0,0,1,.89,0,1,1,0,0,1,.43.78V66.65a1,1,0,0,1-.46.79L56.29,85.87A1,1,0,0,1,55.4,85.88Z"/></g><g id="_Группа_10" data-name="&lt;Группа&gt;"><path id="_Контур_8" data-name="&lt;Контур&gt;" class="cls-45" d="M55.83,35.25l13-8.48-.86-.5-12.5,7.22a1,1,0,0,0-.46.8v.46Z"/></g><g id="_Группа_11" data-name="&lt;Группа&gt;"><path id="_Контур_9" data-name="&lt;Контур&gt;" class="cls-39" d="M60.15,36.75l-5-2.92a1,1,0,0,0-.13.46V85.1a1,1,0,0,0,.43.78,1,1,0,0,0,.89,0l3.86-2.23Z"/></g><g id="_Группа_12" data-name="&lt;Группа&gt;"><path id="_Контур_10" data-name="&lt;Контур&gt;" class="cls-46" d="M56.29,85.87,88.2,67.44a1,1,0,0,0,.46-.79V15.83c0-.29-.2-.41-.46-.27L56.29,34a1,1,0,0,0-.46.8V85.6C55.83,85.9,56,86,56.29,85.87Z"/></g><g id="_Группа_13" data-name="&lt;Группа&gt;"><path id="_Контур_11" data-name="&lt;Контур&gt;" class="cls-47" d="M58.48,46.52l7.66-4.42c.51-.29.92-.09.92.47a2,2,0,0,1-.92,1.53l-7.66,4.42c-.51.29-.92.08-.92-.47A2,2,0,0,1,58.48,46.52Z"/></g><g id="_Группа_14" data-name="&lt;Группа&gt;"><g id="_Группа_15" data-name="&lt;Группа&gt;"><path id="_Контур_12" data-name="&lt;Контур&gt;" class="cls-48" d="M57.93,54.61l1-.57a.23.23,0,0,1,.37.21V55.4a.81.81,0,0,1-.37.63l-1,.58c-.2.11-.37,0-.37-.22V55.25A.82.82,0,0,1,57.93,54.61Z"/></g><g id="_Группа_16" data-name="&lt;Группа&gt;"><path id="_Контур_13" data-name="&lt;Контур&gt;" class="cls-47" d="M60.61,53.56l6-3.46c.26-.15.46,0,.46.23a1,1,0,0,1-.46.77l-6,3.46c-.25.14-.46,0-.46-.24A1,1,0,0,1,60.61,53.56Z"/></g></g><g id="_Группа_17" data-name="&lt;Группа&gt;"><g id="_Группа_18" data-name="&lt;Группа&gt;"><path id="_Контур_14" data-name="&lt;Контур&gt;" class="cls-48" d="M57.93,58.6l1-.57a.23.23,0,0,1,.37.21v1.15a.84.84,0,0,1-.37.64l-1,.57c-.2.11-.37,0-.37-.22V59.24A.84.84,0,0,1,57.93,58.6Z"/></g><g id="_Группа_19" data-name="&lt;Группа&gt;"><path id="_Контур_15" data-name="&lt;Контур&gt;" class="cls-47" d="M60.61,57.55l6-3.46c.26-.14.46,0,.46.24a1,1,0,0,1-.46.76l-6,3.46c-.25.15-.46,0-.46-.23A1,1,0,0,1,60.61,57.55Z"/></g></g><g id="_Группа_20" data-name="&lt;Группа&gt;"><g id="_Группа_21" data-name="&lt;Группа&gt;"><path id="_Контур_16" data-name="&lt;Контур&gt;" class="cls-48" d="M57.93,62.59l1-.57a.23.23,0,0,1,.37.21v1.15a.84.84,0,0,1-.37.64l-1,.57a.23.23,0,0,1-.37-.21V63.23A.84.84,0,0,1,57.93,62.59Z"/></g><g id="_Группа_22" data-name="&lt;Группа&gt;"><path id="_Контур_17" data-name="&lt;Контур&gt;" class="cls-47" d="M60.61,61.54l6-3.46c.26-.14.46,0,.46.24a1,1,0,0,1-.46.76l-6,3.46c-.25.15-.46,0-.46-.23A1,1,0,0,1,60.61,61.54Z"/></g></g><g id="_Группа_23" data-name="&lt;Группа&gt;"><g id="_Группа_24" data-name="&lt;Группа&gt;"><path id="_Контур_18" data-name="&lt;Контур&gt;" class="cls-48" d="M57.93,66.59l1-.57a.23.23,0,0,1,.37.21v1.15a.84.84,0,0,1-.37.64l-1,.57a.23.23,0,0,1-.37-.21V67.23A.84.84,0,0,1,57.93,66.59Z"/></g><g id="_Группа_25" data-name="&lt;Группа&gt;"><path id="_Контур_19" data-name="&lt;Контур&gt;" class="cls-47" d="M60.61,65.54l6-3.46c.26-.14.46,0,.46.24a1,1,0,0,1-.46.76l-6,3.46c-.25.15-.46,0-.46-.23A1,1,0,0,1,60.61,65.54Z"/></g></g><g id="_Группа_26" data-name="&lt;Группа&gt;"><path id="_Контур_20" data-name="&lt;Контур&gt;" class="cls-47" d="M58,74.94l4.26-2.46c.26-.15.46,0,.46.23a1,1,0,0,1-.46.76L58,75.93c-.25.15-.46,0-.46-.23A1,1,0,0,1,58,74.94Z"/></g><g id="_Группа_27" data-name="&lt;Группа&gt;"><path id="_Контур_21" data-name="&lt;Контур&gt;" class="cls-49" d="M58,76.93l8.58-5c.26-.15.46,0,.46.23a1,1,0,0,1-.46.76l-8.58,5c-.25.15-.46,0-.46-.23A1,1,0,0,1,58,76.93Z"/></g><g id="_Группа_28" data-name="&lt;Группа&gt;"><path id="_Контур_22" data-name="&lt;Контур&gt;" class="cls-48" d="M58,76.93l6-3.46c.26-.14.46,0,.46.24a1,1,0,0,1-.46.76l-6,3.46c-.25.15-.46,0-.46-.23A1,1,0,0,1,58,76.93Z"/></g><g id="_Группа_29" data-name="&lt;Группа&gt;"><path id="_Контур_23" data-name="&lt;Контур&gt;" class="cls-47" d="M58,78.93l4.26-2.47c.26-.14.46,0,.46.24a1,1,0,0,1-.46.76L58,79.92c-.25.15-.46,0-.46-.23A1,1,0,0,1,58,78.93Z"/></g><g id="_Группа_30" data-name="&lt;Группа&gt;"><path id="_Контур_24" data-name="&lt;Контур&gt;" class="cls-47" d="M58,71l4.26-2.46c.26-.15.46,0,.46.23a1,1,0,0,1-.46.77L58,72c-.25.14-.46,0-.46-.24A1,1,0,0,1,58,71Z"/></g><g id="_Группа_31" data-name="&lt;Группа&gt;"><path id="_Контур_25" data-name="&lt;Контур&gt;" class="cls-49" d="M58,72.94l8.58-5c.26-.15.46,0,.46.23a1,1,0,0,1-.46.77l-8.58,5c-.25.15-.46,0-.46-.23A1,1,0,0,1,58,72.94Z"/></g><g id="_Группа_32" data-name="&lt;Группа&gt;"><path id="_Контур_26" data-name="&lt;Контур&gt;" class="cls-48" d="M58,72.94l3-1.75c.26-.15.46,0,.46.23a1,1,0,0,1-.46.76l-3,1.76c-.25.15-.46,0-.46-.23A1,1,0,0,1,58,72.94Z"/></g><g id="_Группа_33" data-name="&lt;Группа&gt;"><path id="_Контур_27" data-name="&lt;Контур&gt;" class="cls-49" d="M58,80.92l8.58-5c.26-.15.46,0,.46.23a1,1,0,0,1-.46.76l-8.58,5c-.25.15-.46,0-.46-.23A1,1,0,0,1,58,80.92Z"/></g><g id="_Группа_34" data-name="&lt;Группа&gt;"><path id="_Контур_28" data-name="&lt;Контур&gt;" class="cls-48" d="M58,80.92l7.72-4.46c.25-.14.46,0,.46.24a1,1,0,0,1-.46.76L58,81.92c-.25.15-.46,0-.46-.23A1,1,0,0,1,58,80.92Z"/></g><g id="_Группа_35" data-name="&lt;Группа&gt;"><path id="_Контур_29" data-name="&lt;Контур&gt;" class="cls-47" d="M88.2,15.56,68.79,26.77V78.65L88.2,67.44a1,1,0,0,0,.46-.79V15.83C88.66,15.54,88.46,15.42,88.2,15.56Z"/></g><g id="_Группа_36" data-name="&lt;Группа&gt;"><polygon id="_Контур_30" data-name="&lt;Контур&gt;" class="cls-45" points="68.79 28.77 68.79 32.76 67.06 34.75 68.79 34.75 68.79 38.74 86.94 28.27 86.94 18.29 68.79 28.77"/></g><g id="_Группа_37" data-name="&lt;Группа&gt;"><path id="_Контур_31" data-name="&lt;Контур&gt;" class="cls-48" d="M71.17,28.91l7.35-4.25c.35-.2.64,0,.64.37h0a1.45,1.45,0,0,1-.64,1.12L71.17,30.4c-.36.21-.65,0-.65-.37h0A1.4,1.4,0,0,1,71.17,28.91Z"/></g><g id="_Группа_38" data-name="&lt;Группа&gt;"><path id="_Контур_32" data-name="&lt;Контур&gt;" class="cls-48" d="M70.75,32.13,85,23.91c.13-.07.23,0,.23.12a.47.47,0,0,1-.23.38L70.75,32.63c-.13.07-.23,0-.23-.12A.47.47,0,0,1,70.75,32.13Z"/></g><g id="_Группа_39" data-name="&lt;Группа&gt;"><path id="_Контур_33" data-name="&lt;Контур&gt;" class="cls-48" d="M70.75,33.62,85,25.41c.13-.07.23,0,.23.11a.51.51,0,0,1-.23.39L70.75,34.12c-.13.08-.23,0-.23-.11A.51.51,0,0,1,70.75,33.62Z"/></g><g id="_Группа_40" data-name="&lt;Группа&gt;"><path id="_Контур_34" data-name="&lt;Контур&gt;" class="cls-48" d="M70.75,35.12,85,26.9c.13-.07.23,0,.23.12a.47.47,0,0,1-.23.38L70.75,35.62c-.13.07-.23,0-.23-.12A.47.47,0,0,1,70.75,35.12Z"/></g><g id="_Группа_41" data-name="&lt;Группа&gt;"><g id="_Группа_42" data-name="&lt;Группа&gt;"><g id="_Группа_43" data-name="&lt;Группа&gt;"><path id="_Контур_35" data-name="&lt;Контур&gt;" class="cls-41" d="M71.29,39.3l1-.57a.23.23,0,0,1,.37.21v1.15a.84.84,0,0,1-.37.64l-1,.57c-.21.12-.37,0-.37-.21V39.94A.81.81,0,0,1,71.29,39.3Z"/></g><g id="_Группа_44" data-name="&lt;Группа&gt;"><path id="_Контур_36" data-name="&lt;Контур&gt;" class="cls-39" d="M74,38.25l6-3.46c.26-.14.46,0,.46.24a1,1,0,0,1-.46.76l-6,3.46c-.25.15-.46,0-.46-.23A1,1,0,0,1,74,38.25Z"/></g></g><g id="_Группа_45" data-name="&lt;Группа&gt;"><path id="_Контур_37" data-name="&lt;Контур&gt;" class="cls-39" d="M71.15,42.88l15.09-8.72c.13-.07.23,0,.23.12a.47.47,0,0,1-.23.38L71.15,43.38c-.13.07-.23,0-.23-.12A.47.47,0,0,1,71.15,42.88Z"/></g><g id="_Группа_46" data-name="&lt;Группа&gt;"><path id="_Контур_38" data-name="&lt;Контур&gt;" class="cls-39" d="M71.15,44.37l15.09-8.71c.13-.07.23,0,.23.12a.5.5,0,0,1-.23.38L71.15,44.87c-.13.08-.23,0-.23-.11A.51.51,0,0,1,71.15,44.37Z"/></g><g id="_Группа_47" data-name="&lt;Группа&gt;"><path id="_Контур_39" data-name="&lt;Контур&gt;" class="cls-39" d="M71.15,45.87l15.09-8.71c.13-.08.23,0,.23.11a.47.47,0,0,1-.23.38L71.15,46.37c-.13.07-.23,0-.23-.12A.47.47,0,0,1,71.15,45.87Z"/></g><g id="_Группа_48" data-name="&lt;Группа&gt;"><path id="_Контур_40" data-name="&lt;Контур&gt;" class="cls-39" d="M71.15,47.37l15.09-8.71c.13-.08.23,0,.23.11a.51.51,0,0,1-.23.39L71.15,47.87c-.13.07-.23,0-.23-.12A.49.49,0,0,1,71.15,47.37Z"/></g></g><g id="_Группа_49" data-name="&lt;Группа&gt;"><g id="_Группа_50" data-name="&lt;Группа&gt;"><g id="_Группа_51" data-name="&lt;Группа&gt;"><path id="_Контур_41" data-name="&lt;Контур&gt;" class="cls-41" d="M71.29,50.28l1-.57c.2-.12.37,0,.37.21v1.14a.82.82,0,0,1-.37.64l-1,.57c-.21.12-.37,0-.37-.21V50.92A.8.8,0,0,1,71.29,50.28Z"/></g><g id="_Группа_52" data-name="&lt;Группа&gt;"><path id="_Контур_42" data-name="&lt;Контур&gt;" class="cls-39" d="M74,49.23l6-3.46c.26-.15.46,0,.46.23a1,1,0,0,1-.46.77l-6,3.46c-.25.14-.46,0-.46-.24A1,1,0,0,1,74,49.23Z"/></g></g><g id="_Группа_53" data-name="&lt;Группа&gt;"><path id="_Контур_43" data-name="&lt;Контур&gt;" class="cls-39" d="M71.15,53.85l15.09-8.71c.13-.08.23,0,.23.11a.51.51,0,0,1-.23.39L71.15,54.35c-.13.07-.23,0-.23-.12A.5.5,0,0,1,71.15,53.85Z"/></g><g id="_Группа_54" data-name="&lt;Группа&gt;"><path id="_Контур_44" data-name="&lt;Контур&gt;" class="cls-39" d="M71.15,55.35l15.09-8.72c.13-.07.23,0,.23.12a.47.47,0,0,1-.23.38L71.15,55.85c-.13.07-.23,0-.23-.12A.47.47,0,0,1,71.15,55.35Z"/></g><g id="_Группа_55" data-name="&lt;Группа&gt;"><path id="_Контур_45" data-name="&lt;Контур&gt;" class="cls-39" d="M71.15,56.84l15.09-8.71c.13-.07.23,0,.23.12a.49.49,0,0,1-.23.38L71.15,57.34c-.13.08-.23,0-.23-.11A.51.51,0,0,1,71.15,56.84Z"/></g><g id="_Группа_56" data-name="&lt;Группа&gt;"><path id="_Контур_46" data-name="&lt;Контур&gt;" class="cls-39" d="M71.15,58.35l15.09-8.72c.13-.07.23,0,.23.12a.49.49,0,0,1-.23.38L71.15,58.84c-.13.08-.23,0-.23-.11A.47.47,0,0,1,71.15,58.35Z"/></g></g><g id="_Группа_57" data-name="&lt;Группа&gt;"><g id="_Группа_58" data-name="&lt;Группа&gt;"><g id="_Группа_59" data-name="&lt;Группа&gt;"><path id="_Контур_47" data-name="&lt;Контур&gt;" class="cls-41" d="M72.7,60.53l1-.57a.23.23,0,0,1,.37.21v1.15a.84.84,0,0,1-.37.64l-1,.57c-.21.12-.37,0-.37-.21V61.17A.81.81,0,0,1,72.7,60.53Z"/></g><g id="_Группа_60" data-name="&lt;Группа&gt;"><path id="_Контур_48" data-name="&lt;Контур&gt;" class="cls-39" d="M71.15,64.42l4.09-2.36c.13-.07.23,0,.23.12a.49.49,0,0,1-.23.38l-4.09,2.36c-.13.07-.23,0-.23-.12A.49.49,0,0,1,71.15,64.42Z"/></g></g><g id="_Группа_61" data-name="&lt;Группа&gt;"><g id="_Группа_62" data-name="&lt;Группа&gt;"><path id="_Контур_49" data-name="&lt;Контур&gt;" class="cls-41" d="M78.2,57.36l1-.58c.2-.11.37,0,.37.22v1.14a.82.82,0,0,1-.37.64l-1,.57a.23.23,0,0,1-.37-.21V58A.81.81,0,0,1,78.2,57.36Z"/></g><g id="_Группа_63" data-name="&lt;Группа&gt;"><path id="_Контур_50" data-name="&lt;Контур&gt;" class="cls-39" d="M76.65,61.24l4.09-2.36c.13-.07.23,0,.23.12a.47.47,0,0,1-.23.38l-4.09,2.36c-.13.08-.23,0-.23-.11A.51.51,0,0,1,76.65,61.24Z"/></g></g><g id="_Группа_64" data-name="&lt;Группа&gt;"><g id="_Группа_65" data-name="&lt;Группа&gt;"><path id="_Контур_51" data-name="&lt;Контур&gt;" class="cls-41" d="M83.7,54.18l1-.58c.2-.11.37,0,.37.22V55a.82.82,0,0,1-.37.64l-1,.57a.23.23,0,0,1-.37-.21V54.81A.81.81,0,0,1,83.7,54.18Z"/></g><g id="_Группа_66" data-name="&lt;Группа&gt;"><path id="_Контур_52" data-name="&lt;Контур&gt;" class="cls-39" d="M82.15,58.06l4.09-2.36c.13-.07.23,0,.23.12a.47.47,0,0,1-.23.38l-4.09,2.36c-.13.08-.23,0-.23-.11A.51.51,0,0,1,82.15,58.06Z"/></g><g id="_Группа_67" data-name="&lt;Группа&gt;"><path id="_Контур_53" data-name="&lt;Контур&gt;" class="cls-39" d="M71.15,65.4,75.24,63c.13-.07.23,0,.23.12a.47.47,0,0,1-.23.38l-4.09,2.36c-.13.08-.23,0-.23-.11A.47.47,0,0,1,71.15,65.4Z"/></g><g id="_Группа_68" data-name="&lt;Группа&gt;"><path id="_Контур_54" data-name="&lt;Контур&gt;" class="cls-39" d="M76.65,62.22l4.09-2.36c.13-.08.23,0,.23.11a.51.51,0,0,1-.23.39l-4.09,2.36c-.13.07-.23,0-.23-.12A.47.47,0,0,1,76.65,62.22Z"/></g><g id="_Группа_69" data-name="&lt;Группа&gt;"><path id="_Контур_55" data-name="&lt;Контур&gt;" class="cls-39" d="M82.15,59l4.09-2.36c.13-.08.23,0,.23.11a.51.51,0,0,1-.23.39l-4.09,2.36c-.13.07-.23,0-.23-.12A.47.47,0,0,1,82.15,59Z"/></g><g id="_Группа_70" data-name="&lt;Группа&gt;"><path id="_Контур_56" data-name="&lt;Контур&gt;" class="cls-39" d="M71.15,66.37,75.24,64c.13-.07.23,0,.23.12a.5.5,0,0,1-.23.38l-4.09,2.36c-.13.07-.23,0-.23-.12A.47.47,0,0,1,71.15,66.37Z"/></g><g id="_Группа_71" data-name="&lt;Группа&gt;"><path id="_Контур_57" data-name="&lt;Контур&gt;" class="cls-39" d="M76.65,63.19l4.09-2.36c.13-.07.23,0,.23.12a.49.49,0,0,1-.23.38l-4.09,2.36c-.13.07-.23,0-.23-.12A.49.49,0,0,1,76.65,63.19Z"/></g><g id="_Группа_72" data-name="&lt;Группа&gt;"><path id="_Контур_58" data-name="&lt;Контур&gt;" class="cls-39" d="M82.15,60l4.09-2.36c.13-.07.23,0,.23.12a.47.47,0,0,1-.23.38l-4.09,2.36c-.13.08-.23,0-.23-.11A.51.51,0,0,1,82.15,60Z"/></g></g></g><g id="_Группа_73" data-name="&lt;Группа&gt;"><g id="_Группа_74" data-name="&lt;Группа&gt;"><g id="_Группа_75" data-name="&lt;Группа&gt;"><path id="_Контур_59" data-name="&lt;Контур&gt;" class="cls-41" d="M72.7,68.73l1-.58c.2-.11.37,0,.37.22v1.14a.82.82,0,0,1-.37.64l-1,.57c-.21.12-.37,0-.37-.21V69.36A.78.78,0,0,1,72.7,68.73Z"/></g><g id="_Группа_76" data-name="&lt;Группа&gt;"><path id="_Контур_60" data-name="&lt;Контур&gt;" class="cls-39" d="M71.15,72.61l4.09-2.36c.13-.07.23,0,.23.12a.47.47,0,0,1-.23.38l-4.09,2.36c-.13.08-.23,0-.23-.11A.51.51,0,0,1,71.15,72.61Z"/></g></g><g id="_Группа_77" data-name="&lt;Группа&gt;"><g id="_Группа_78" data-name="&lt;Группа&gt;"><path id="_Контур_61" data-name="&lt;Контур&gt;" class="cls-41" d="M78.2,65.55l1-.57c.2-.12.37,0,.37.21v1.14a.82.82,0,0,1-.37.64l-1,.57c-.2.12-.37,0-.37-.21V66.19A.82.82,0,0,1,78.2,65.55Z"/></g><g id="_Группа_79" data-name="&lt;Группа&gt;"><path id="_Контур_62" data-name="&lt;Контур&gt;" class="cls-39" d="M76.65,69.44l4.09-2.37c.13-.07.23,0,.23.12a.47.47,0,0,1-.23.38l-4.09,2.36c-.13.08-.23,0-.23-.11A.47.47,0,0,1,76.65,69.44Z"/></g></g><g id="_Группа_80" data-name="&lt;Группа&gt;"><g id="_Группа_81" data-name="&lt;Группа&gt;"><path id="_Контур_63" data-name="&lt;Контур&gt;" class="cls-41" d="M83.7,62.37l1-.57c.2-.12.37,0,.37.21v1.14a.81.81,0,0,1-.37.64l-1,.57c-.2.12-.37,0-.37-.21V63A.82.82,0,0,1,83.7,62.37Z"/></g><g id="_Группа_82" data-name="&lt;Группа&gt;"><path id="_Контур_64" data-name="&lt;Контур&gt;" class="cls-39" d="M82.15,66.26l4.09-2.36c.13-.08.23,0,.23.11a.51.51,0,0,1-.23.39l-4.09,2.36c-.13.07-.23,0-.23-.12A.47.47,0,0,1,82.15,66.26Z"/></g><g id="_Группа_83" data-name="&lt;Группа&gt;"><path id="_Контур_65" data-name="&lt;Контур&gt;" class="cls-39" d="M71.15,73.59l4.09-2.36c.13-.08.23,0,.23.11a.51.51,0,0,1-.23.39l-4.09,2.36c-.13.07-.23,0-.23-.12A.47.47,0,0,1,71.15,73.59Z"/></g><g id="_Группа_84" data-name="&lt;Группа&gt;"><path id="_Контур_66" data-name="&lt;Контур&gt;" class="cls-39" d="M76.65,70.41l4.09-2.36c.13-.07.23,0,.23.12a.5.5,0,0,1-.23.38l-4.09,2.36c-.13.07-.23,0-.23-.12A.47.47,0,0,1,76.65,70.41Z"/></g><g id="_Группа_85" data-name="&lt;Группа&gt;"><path id="_Контур_67" data-name="&lt;Контур&gt;" class="cls-39" d="M82.15,67.23l4.09-2.36c.13-.07.23,0,.23.12a.49.49,0,0,1-.23.38l-4.09,2.36c-.13.07-.23,0-.23-.12A.5.5,0,0,1,82.15,67.23Z"/></g><g id="_Группа_86" data-name="&lt;Группа&gt;"><path id="_Контур_68" data-name="&lt;Контур&gt;" class="cls-39" d="M71.15,74.56l4.09-2.36c.13-.07.23,0,.23.12a.47.47,0,0,1-.23.38l-4.09,2.36c-.13.07-.23,0-.23-.11A.51.51,0,0,1,71.15,74.56Z"/></g><g id="_Группа_87" data-name="&lt;Группа&gt;"><path id="_Контур_69" data-name="&lt;Контур&gt;" class="cls-39" d="M76.65,71.38,80.74,69c.13-.07.23,0,.23.12a.47.47,0,0,1-.23.38l-4.09,2.36c-.13.08-.23,0-.23-.11A.51.51,0,0,1,76.65,71.38Z"/></g><g id="_Группа_88" data-name="&lt;Группа&gt;"><path id="_Контур_70" data-name="&lt;Контур&gt;" class="cls-39" d="M82.15,68.21l4.09-2.37c.13-.07.23,0,.23.12a.47.47,0,0,1-.23.38L82.15,68.7c-.13.08-.23,0-.23-.11A.47.47,0,0,1,82.15,68.21Z"/></g></g></g><g id="_Группа_89" data-name="&lt;Группа&gt;"><path id="_Контур_71" data-name="&lt;Контур&gt;" class="cls-48" d="M61.88,32.77c2.39-1.38,4.33-.26,4.33,2.5a9.58,9.58,0,0,1-4.33,7.5c-2.39,1.38-4.33.26-4.33-2.5A9.58,9.58,0,0,1,61.88,32.77Z"/><path id="_Контур_72" data-name="&lt;Контур&gt;" class="cls-39" d="M61.88,34.94c.78-.44,1.41-.08,1.41.82a3.11,3.11,0,0,1-1.41,2.43c-.78.45-1.4.08-1.4-.81A3.1,3.1,0,0,1,61.88,34.94Z"/><path id="_Контур_73" data-name="&lt;Контур&gt;" class="cls-39" d="M64.62,39.72c0-1.47-1-2.07-2.31-1.33l-.8.46a5.09,5.09,0,0,0-2.3,4v.39a3.29,3.29,0,0,0,2.67-.47,8.52,8.52,0,0,0,2.74-2.71Z"/></g><g id="_Группа_90" data-name="&lt;Группа&gt;"><path id="_Контур_74" data-name="&lt;Контур&gt;" class="cls-47" d="M59.32,49.88l6-3.46c.25-.14.46,0,.46.24a1,1,0,0,1-.46.76l-6,3.46c-.26.15-.46,0-.46-.23A1,1,0,0,1,59.32,49.88Z"/></g></g><g id="_Группа_91" data-name="&lt;Группа&gt;"><g id="_Группа_92" data-name="&lt;Группа&gt;"><g id="_Группа_93" data-name="&lt;Группа&gt;"><polygon id="_Контур_75" data-name="&lt;Контур&gt;" class="cls-35" points="40.26 100.11 47.88 67.13 89.57 43.06 81.95 76.04 40.26 100.11"/></g></g><polygon id="_Контур_76" data-name="&lt;Контур&gt;" class="cls-50" points="61.21 88.02 61.21 59.44 89.46 43.2 81.95 76.04 61.21 88.02"/></g></g><polygon id="Shadow" class="cls-39" points="68.39 92.17 61.21 88.02 74.59 80.35 68.39 92.17"/><g id="Document-2" data-name="Document"><g id="_Группа_94" data-name="&lt;Группа&gt;"><path id="_Контур_77" data-name="&lt;Контур&gt;" class="cls-45" d="M68.39,92.17a1,1,0,0,1-.43-.78V40.57a1,1,0,0,1,.46-.8l31.91-18.42a.86.86,0,0,1,1.32.77V72.93a1,1,0,0,1-.47.8L69.28,92.15A1,1,0,0,1,68.39,92.17Z"/></g><g id="_Группа_95" data-name="&lt;Группа&gt;"><path id="_Контур_78" data-name="&lt;Контур&gt;" class="cls-51" d="M68.82,41.54l13-8.48-.86-.5-12.5,7.21a1,1,0,0,0-.46.8V41Z"/></g><g id="_Группа_96" data-name="&lt;Группа&gt;"><path id="_Контур_79" data-name="&lt;Контур&gt;" class="cls-40" d="M73.14,43l-5-2.91a1,1,0,0,0-.13.45V91.39a1,1,0,0,0,.43.78,1,1,0,0,0,.89,0l3.86-2.23Z"/></g><g id="_Группа_97" data-name="&lt;Группа&gt;"><path id="_Контур_80" data-name="&lt;Контур&gt;" class="cls-42" d="M69.28,92.15l31.91-18.42a1,1,0,0,0,.47-.8V22.12c0-.3-.2-.42-.46-.27L69.28,40.27a1,1,0,0,0-.46.8V91.89C68.82,92.18,69,92.3,69.28,92.15Z"/></g><g id="_Группа_98" data-name="&lt;Группа&gt;"><path id="_Контур_81" data-name="&lt;Контур&gt;" class="cls-39" d="M71.47,52.81l7.66-4.43c.51-.29.92-.08.92.47a2,2,0,0,1-.92,1.53L71.47,54.8c-.51.3-.92.09-.92-.46A2,2,0,0,1,71.47,52.81Z"/></g><g id="_Группа_99" data-name="&lt;Группа&gt;"><g id="_Группа_100" data-name="&lt;Группа&gt;"><path id="_Контур_82" data-name="&lt;Контур&gt;" class="cls-35" d="M70.92,60.9l1-.58c.2-.11.37,0,.37.22v1.14a.82.82,0,0,1-.37.64l-1,.57a.23.23,0,0,1-.37-.21V61.53A.81.81,0,0,1,70.92,60.9Z"/></g><g id="_Группа_101" data-name="&lt;Группа&gt;"><path id="_Контур_83" data-name="&lt;Контур&gt;" class="cls-39" d="M73.6,59.85l6-3.46c.26-.15.46,0,.46.23a1,1,0,0,1-.46.76l-6,3.46c-.25.15-.46,0-.46-.23A1,1,0,0,1,73.6,59.85Z"/></g></g><g id="_Группа_102" data-name="&lt;Группа&gt;"><g id="_Группа_103" data-name="&lt;Группа&gt;"><path id="_Контур_84" data-name="&lt;Контур&gt;" class="cls-35" d="M70.92,64.89l1-.58c.2-.11.37,0,.37.22v1.14a.82.82,0,0,1-.37.64l-1,.57a.23.23,0,0,1-.37-.21V65.53A.81.81,0,0,1,70.92,64.89Z"/></g><g id="_Группа_104" data-name="&lt;Группа&gt;"><path id="_Контур_85" data-name="&lt;Контур&gt;" class="cls-39" d="M73.6,63.84l6-3.46c.26-.15.46-.05.46.23a1,1,0,0,1-.46.76l-6,3.46c-.25.15-.46,0-.46-.23A1,1,0,0,1,73.6,63.84Z"/></g></g><g id="_Группа_105" data-name="&lt;Группа&gt;"><g id="_Группа_106" data-name="&lt;Группа&gt;"><path id="_Контур_86" data-name="&lt;Контур&gt;" class="cls-35" d="M70.92,68.88l1-.57c.2-.12.37,0,.37.21v1.14a.82.82,0,0,1-.37.64l-1,.57a.23.23,0,0,1-.37-.21V69.52A.81.81,0,0,1,70.92,68.88Z"/></g><g id="_Группа_107" data-name="&lt;Группа&gt;"><path id="_Контур_87" data-name="&lt;Контур&gt;" class="cls-39" d="M73.6,67.83l6-3.46c.26-.15.46,0,.46.23a1,1,0,0,1-.46.77l-6,3.45c-.25.15-.46.05-.46-.23A1,1,0,0,1,73.6,67.83Z"/></g></g><g id="_Группа_108" data-name="&lt;Группа&gt;"><g id="_Группа_109" data-name="&lt;Группа&gt;"><path id="_Контур_88" data-name="&lt;Контур&gt;" class="cls-35" d="M70.92,72.88l1-.57c.2-.12.37,0,.37.21v1.14a.82.82,0,0,1-.37.64l-1,.57c-.2.12-.37,0-.37-.21V73.52A.82.82,0,0,1,70.92,72.88Z"/></g><g id="_Группа_110" data-name="&lt;Группа&gt;"><path id="_Контур_89" data-name="&lt;Контур&gt;" class="cls-39" d="M73.6,71.83l6-3.46c.26-.15.46,0,.46.23a1,1,0,0,1-.46.77l-6,3.46c-.25.14-.46,0-.46-.24A1,1,0,0,1,73.6,71.83Z"/></g></g><g id="_Группа_111" data-name="&lt;Группа&gt;"><path id="_Контур_90" data-name="&lt;Контур&gt;" class="cls-39" d="M71,81.22l4.26-2.46c.26-.15.46,0,.46.23a1,1,0,0,1-.46.77L71,82.22c-.25.15-.46,0-.46-.23A1,1,0,0,1,71,81.22Z"/></g><g id="_Группа_112" data-name="&lt;Группа&gt;"><path id="_Контур_91" data-name="&lt;Контур&gt;" class="cls-48" d="M71,83.22l8.58-5c.26-.14.46,0,.46.23a1,1,0,0,1-.46.77l-8.58,5c-.25.14-.46,0-.46-.24A1,1,0,0,1,71,83.22Z"/></g><g id="_Группа_113" data-name="&lt;Группа&gt;"><path id="_Контур_92" data-name="&lt;Контур&gt;" class="cls-38" d="M71,83.22l6-3.46c.26-.15.46,0,.46.23a1,1,0,0,1-.46.77l-6,3.46c-.25.14-.46,0-.46-.24A1,1,0,0,1,71,83.22Z"/></g><g id="_Группа_114" data-name="&lt;Группа&gt;"><path id="_Контур_93" data-name="&lt;Контур&gt;" class="cls-39" d="M71,85.21l4.26-2.46c.26-.15.46,0,.46.23a1,1,0,0,1-.46.77L71,86.21c-.25.14-.46,0-.46-.23A1,1,0,0,1,71,85.21Z"/></g><g id="_Группа_115" data-name="&lt;Группа&gt;"><path id="_Контур_94" data-name="&lt;Контур&gt;" class="cls-39" d="M71,77.23l4.26-2.46c.26-.14.46,0,.46.24a1,1,0,0,1-.46.76L71,78.23c-.25.15-.46,0-.46-.23A1,1,0,0,1,71,77.23Z"/></g><g id="_Группа_116" data-name="&lt;Группа&gt;"><path id="_Контур_95" data-name="&lt;Контур&gt;" class="cls-48" d="M71,79.23l8.58-5c.26-.14.46,0,.46.24a1,1,0,0,1-.46.76l-8.58,5c-.25.14-.46,0-.46-.24A1,1,0,0,1,71,79.23Z"/></g><g id="_Группа_117" data-name="&lt;Группа&gt;"><path id="_Контур_96" data-name="&lt;Контур&gt;" class="cls-38" d="M71,79.23l3-1.76c.26-.15.46,0,.46.23a1,1,0,0,1-.46.77l-3,1.76c-.25.14-.46,0-.46-.24A1,1,0,0,1,71,79.23Z"/></g><g id="_Группа_118" data-name="&lt;Группа&gt;"><path id="_Контур_97" data-name="&lt;Контур&gt;" class="cls-48" d="M71,87.21l8.58-5c.26-.15.46,0,.46.23a1,1,0,0,1-.46.77L71,88.2c-.25.15-.46,0-.46-.23A1,1,0,0,1,71,87.21Z"/></g><g id="_Группа_119" data-name="&lt;Группа&gt;"><path id="_Контур_98" data-name="&lt;Контур&gt;" class="cls-38" d="M71,87.21l7.72-4.46c.25-.15.46,0,.46.23a1,1,0,0,1-.46.77L71,88.2c-.25.15-.46,0-.46-.23A1,1,0,0,1,71,87.21Z"/></g><g id="_Группа_120" data-name="&lt;Группа&gt;"><path id="_Контур_99" data-name="&lt;Контур&gt;" class="cls-48" d="M101.19,21.85,81.78,33.06V84.94l19.41-11.21a1,1,0,0,0,.46-.8V22.12C101.65,21.82,101.45,21.7,101.19,21.85Z"/></g><g id="_Группа_121" data-name="&lt;Группа&gt;"><polygon id="_Контур_100" data-name="&lt;Контур&gt;" class="cls-35" points="81.78 35.05 81.78 39.04 80.06 41.04 81.78 41.04 81.78 45.03 99.93 34.55 99.93 24.58 81.78 35.05"/></g><g id="_Группа_122" data-name="&lt;Группа&gt;"><path id="_Контур_101" data-name="&lt;Контур&gt;" class="cls-48" d="M84.16,35.19,91.51,31c.35-.21.64,0,.64.37h0a1.42,1.42,0,0,1-.64,1.11l-7.35,4.25c-.36.2-.65,0-.65-.37h0A1.43,1.43,0,0,1,84.16,35.19Z"/></g><g id="_Группа_123" data-name="&lt;Группа&gt;"><path id="_Контур_102" data-name="&lt;Контур&gt;" class="cls-48" d="M83.74,38.41,98,30.2c.13-.08.23,0,.23.11a.51.51,0,0,1-.23.39L83.74,38.91c-.13.07-.23,0-.23-.12A.49.49,0,0,1,83.74,38.41Z"/></g><g id="_Группа_124" data-name="&lt;Группа&gt;"><path id="_Контур_103" data-name="&lt;Контур&gt;" class="cls-48" d="M83.74,39.91,98,31.69c.13-.07.23,0,.23.12a.47.47,0,0,1-.23.38L83.74,40.41c-.13.07-.23,0-.23-.12A.47.47,0,0,1,83.74,39.91Z"/></g><g id="_Группа_125" data-name="&lt;Группа&gt;"><path id="_Контур_104" data-name="&lt;Контур&gt;" class="cls-48" d="M83.74,41.4,98,33.19c.13-.07.23,0,.23.12a.49.49,0,0,1-.23.38L83.74,41.9c-.13.08-.23,0-.23-.11A.51.51,0,0,1,83.74,41.4Z"/></g><g id="_Группа_126" data-name="&lt;Группа&gt;"><g id="_Группа_127" data-name="&lt;Группа&gt;"><g id="_Группа_128" data-name="&lt;Группа&gt;"><path id="_Контур_105" data-name="&lt;Контур&gt;" class="cls-35" d="M84.28,45.59l1-.57c.2-.12.37,0,.37.21v1.14a.82.82,0,0,1-.37.64l-1,.57c-.21.12-.37,0-.37-.21V46.23A.8.8,0,0,1,84.28,45.59Z"/></g><g id="_Группа_129" data-name="&lt;Группа&gt;"><path id="_Контур_106" data-name="&lt;Контур&gt;" class="cls-51" d="M87,44.54l6-3.46c.26-.15.46,0,.46.23a1,1,0,0,1-.46.77l-6,3.46c-.25.14-.46,0-.46-.24A1,1,0,0,1,87,44.54Z"/></g></g><g id="_Группа_130" data-name="&lt;Группа&gt;"><path id="_Контур_107" data-name="&lt;Контур&gt;" class="cls-51" d="M84.14,49.16l15.09-8.71c.13-.08.23,0,.23.11a.51.51,0,0,1-.23.39L84.14,49.66c-.13.07-.23,0-.23-.12A.5.5,0,0,1,84.14,49.16Z"/></g><g id="_Группа_131" data-name="&lt;Группа&gt;"><path id="_Контур_108" data-name="&lt;Контур&gt;" class="cls-51" d="M84.14,50.66l15.09-8.72c.13-.07.23,0,.23.12a.47.47,0,0,1-.23.38L84.14,51.16c-.13.07-.23,0-.23-.12A.47.47,0,0,1,84.14,50.66Z"/></g><g id="_Группа_132" data-name="&lt;Группа&gt;"><path id="_Контур_109" data-name="&lt;Контур&gt;" class="cls-51" d="M84.14,52.16l15.09-8.72c.13-.07.23,0,.23.12a.49.49,0,0,1-.23.38L84.14,52.65c-.13.08-.23,0-.23-.11A.47.47,0,0,1,84.14,52.16Z"/></g><g id="_Группа_133" data-name="&lt;Группа&gt;"><path id="_Контур_110" data-name="&lt;Контур&gt;" class="cls-51" d="M84.14,53.66l15.09-8.72c.13-.07.23,0,.23.12a.47.47,0,0,1-.23.38L84.14,54.15c-.13.08-.23,0-.23-.11A.47.47,0,0,1,84.14,53.66Z"/></g></g><g id="_Группа_134" data-name="&lt;Группа&gt;"><g id="_Группа_135" data-name="&lt;Группа&gt;"><g id="_Группа_136" data-name="&lt;Группа&gt;"><path id="_Контур_111" data-name="&lt;Контур&gt;" class="cls-35" d="M84.28,56.56l1-.57a.23.23,0,0,1,.37.21v1.15a.84.84,0,0,1-.37.64l-1,.57c-.21.12-.37,0-.37-.21V57.2A.81.81,0,0,1,84.28,56.56Z"/></g><g id="_Группа_137" data-name="&lt;Группа&gt;"><path id="_Контур_112" data-name="&lt;Контур&gt;" class="cls-51" d="M87,55.51l6-3.46c.26-.14.46,0,.46.24a1,1,0,0,1-.46.76l-6,3.46c-.25.15-.46,0-.46-.23A1,1,0,0,1,87,55.51Z"/></g></g><g id="_Группа_138" data-name="&lt;Группа&gt;"><path id="_Контур_113" data-name="&lt;Контур&gt;" class="cls-51" d="M84.14,60.14l15.09-8.72c.13-.07.23,0,.23.12a.47.47,0,0,1-.23.38L84.14,60.64c-.13.07-.23,0-.23-.12A.47.47,0,0,1,84.14,60.14Z"/></g><g id="_Группа_139" data-name="&lt;Группа&gt;"><path id="_Контур_114" data-name="&lt;Контур&gt;" class="cls-51" d="M84.14,61.63l15.09-8.71c.13-.07.23,0,.23.12a.5.5,0,0,1-.23.38L84.14,62.13c-.13.08-.23,0-.23-.11A.51.51,0,0,1,84.14,61.63Z"/></g><g id="_Группа_140" data-name="&lt;Группа&gt;"><path id="_Контур_115" data-name="&lt;Контур&gt;" class="cls-51" d="M84.14,63.13l15.09-8.71c.13-.08.23,0,.23.11a.47.47,0,0,1-.23.38L84.14,63.63c-.13.07-.23,0-.23-.12A.47.47,0,0,1,84.14,63.13Z"/></g><g id="_Группа_141" data-name="&lt;Группа&gt;"><path id="_Контур_116" data-name="&lt;Контур&gt;" class="cls-51" d="M84.14,64.63l15.09-8.71c.13-.08.23,0,.23.11a.47.47,0,0,1-.23.38L84.14,65.13c-.13.07-.23,0-.23-.12A.49.49,0,0,1,84.14,64.63Z"/></g></g><g id="_Группа_142" data-name="&lt;Группа&gt;"><g id="_Группа_143" data-name="&lt;Группа&gt;"><g id="_Группа_144" data-name="&lt;Группа&gt;"><path id="_Контур_117" data-name="&lt;Контур&gt;" class="cls-35" d="M85.69,66.82l1-.57c.2-.12.37,0,.37.21V67.6a.82.82,0,0,1-.37.64l-1,.57c-.21.12-.37,0-.37-.21V67.46A.8.8,0,0,1,85.69,66.82Z"/></g><g id="_Группа_145" data-name="&lt;Группа&gt;"><path id="_Контур_118" data-name="&lt;Контур&gt;" class="cls-51" d="M84.14,70.71l4.09-2.36c.13-.08.23,0,.23.11a.47.47,0,0,1-.23.38l-4.09,2.37c-.13.07-.23,0-.23-.12A.47.47,0,0,1,84.14,70.71Z"/></g></g><g id="_Группа_146" data-name="&lt;Группа&gt;"><g id="_Группа_147" data-name="&lt;Группа&gt;"><path id="_Контур_119" data-name="&lt;Контур&gt;" class="cls-35" d="M91.19,63.64l1-.57a.23.23,0,0,1,.37.21v1.15a.81.81,0,0,1-.37.63l-1,.58c-.2.11-.37,0-.37-.22V64.28A.82.82,0,0,1,91.19,63.64Z"/></g><g id="_Группа_148" data-name="&lt;Группа&gt;"><path id="_Контур_120" data-name="&lt;Контур&gt;" class="cls-51" d="M89.64,67.53l4.09-2.36c.13-.08.23,0,.23.11a.51.51,0,0,1-.23.39L89.64,68c-.13.07-.23,0-.23-.12A.47.47,0,0,1,89.64,67.53Z"/></g></g><g id="_Группа_149" data-name="&lt;Группа&gt;"><g id="_Группа_150" data-name="&lt;Группа&gt;"><path id="_Контур_121" data-name="&lt;Контур&gt;" class="cls-35" d="M96.69,60.46l1-.57a.23.23,0,0,1,.37.21v1.15a.81.81,0,0,1-.37.63l-1,.58c-.2.11-.37,0-.37-.22V61.1A.82.82,0,0,1,96.69,60.46Z"/></g><g id="_Группа_151" data-name="&lt;Группа&gt;"><path id="_Контур_122" data-name="&lt;Контур&gt;" class="cls-51" d="M95.14,64.35,99.23,62c.13-.07.23,0,.23.12a.5.5,0,0,1-.23.38l-4.09,2.36c-.13.07-.23,0-.23-.12A.47.47,0,0,1,95.14,64.35Z"/></g><g id="_Группа_152" data-name="&lt;Группа&gt;"><path id="_Контур_123" data-name="&lt;Контур&gt;" class="cls-51" d="M84.14,71.68l4.09-2.36c.13-.07.23,0,.23.12a.49.49,0,0,1-.23.38l-4.09,2.36c-.13.07-.23,0-.23-.12A.49.49,0,0,1,84.14,71.68Z"/></g><g id="_Группа_153" data-name="&lt;Группа&gt;"><path id="_Контур_124" data-name="&lt;Контур&gt;" class="cls-51" d="M89.64,68.5l4.09-2.36c.13-.07.23,0,.23.12a.47.47,0,0,1-.23.38L89.64,69c-.13.07-.23,0-.23-.12A.5.5,0,0,1,89.64,68.5Z"/></g><g id="_Группа_154" data-name="&lt;Группа&gt;"><path id="_Контур_125" data-name="&lt;Контур&gt;" class="cls-51" d="M95.14,65.32,99.23,63c.13-.07.23,0,.23.12a.47.47,0,0,1-.23.38l-4.09,2.36c-.13.08-.23,0-.23-.11A.51.51,0,0,1,95.14,65.32Z"/></g><g id="_Группа_155" data-name="&lt;Группа&gt;"><path id="_Контур_126" data-name="&lt;Контур&gt;" class="cls-51" d="M84.14,72.65l4.09-2.36c.13-.07.23,0,.23.12a.47.47,0,0,1-.23.38l-4.09,2.36c-.13.08-.23,0-.23-.11A.51.51,0,0,1,84.14,72.65Z"/></g><g id="_Группа_156" data-name="&lt;Группа&gt;"><path id="_Контур_127" data-name="&lt;Контур&gt;" class="cls-51" d="M89.64,69.48l4.09-2.36c.13-.08.23,0,.23.11a.47.47,0,0,1-.23.38L89.64,70c-.13.07-.23,0-.23-.12A.47.47,0,0,1,89.64,69.48Z"/></g><g id="_Группа_157" data-name="&lt;Группа&gt;"><path id="_Контур_128" data-name="&lt;Контур&gt;" class="cls-51" d="M95.14,66.3l4.09-2.36c.13-.08.23,0,.23.11a.51.51,0,0,1-.23.39L95.14,66.8c-.13.07-.23,0-.23-.12A.47.47,0,0,1,95.14,66.3Z"/></g></g></g><g id="_Группа_158" data-name="&lt;Группа&gt;"><g id="_Группа_159" data-name="&lt;Группа&gt;"><g id="_Группа_160" data-name="&lt;Группа&gt;"><path id="_Контур_129" data-name="&lt;Контур&gt;" class="cls-35" d="M85.69,75l1-.57a.23.23,0,0,1,.37.21V75.8a.81.81,0,0,1-.37.63l-1,.58c-.21.11-.37,0-.37-.22V75.65A.8.8,0,0,1,85.69,75Z"/></g><g id="_Группа_161" data-name="&lt;Группа&gt;"><path id="_Контур_130" data-name="&lt;Контур&gt;" class="cls-51" d="M84.14,78.9l4.09-2.36c.13-.08.23,0,.23.11a.51.51,0,0,1-.23.39L84.14,79.4c-.13.07-.23,0-.23-.12A.47.47,0,0,1,84.14,78.9Z"/></g></g><g id="_Группа_162" data-name="&lt;Группа&gt;"><g id="_Группа_163" data-name="&lt;Группа&gt;"><path id="_Контур_131" data-name="&lt;Контур&gt;" class="cls-35" d="M91.19,71.83l1-.57a.23.23,0,0,1,.37.21v1.15a.84.84,0,0,1-.37.64l-1,.57a.23.23,0,0,1-.37-.21V72.47A.84.84,0,0,1,91.19,71.83Z"/></g><g id="_Группа_164" data-name="&lt;Группа&gt;"><path id="_Контур_132" data-name="&lt;Контур&gt;" class="cls-51" d="M89.64,75.72l4.09-2.36c.13-.07.23,0,.23.12a.49.49,0,0,1-.23.38l-4.09,2.36c-.13.07-.23,0-.23-.12A.49.49,0,0,1,89.64,75.72Z"/></g></g><g id="_Группа_165" data-name="&lt;Группа&gt;"><g id="_Группа_166" data-name="&lt;Группа&gt;"><path id="_Контур_133" data-name="&lt;Контур&gt;" class="cls-35" d="M96.69,68.65l1-.57a.23.23,0,0,1,.37.21v1.15a.84.84,0,0,1-.37.64l-1,.57a.23.23,0,0,1-.37-.21V69.29A.84.84,0,0,1,96.69,68.65Z"/></g><g id="_Группа_167" data-name="&lt;Группа&gt;"><path id="_Контур_134" data-name="&lt;Контур&gt;" class="cls-51" d="M95.14,72.54l4.09-2.36c.13-.07.23,0,.23.12a.47.47,0,0,1-.23.38L95.14,73c-.13.07-.23,0-.23-.12A.5.5,0,0,1,95.14,72.54Z"/></g><g id="_Группа_168" data-name="&lt;Группа&gt;"><path id="_Контур_135" data-name="&lt;Контур&gt;" class="cls-51" d="M84.14,79.87l4.09-2.36c.13-.07.23,0,.23.12a.47.47,0,0,1-.23.38l-4.09,2.36c-.13.08-.23,0-.23-.11A.51.51,0,0,1,84.14,79.87Z"/></g><g id="_Группа_169" data-name="&lt;Группа&gt;"><path id="_Контур_136" data-name="&lt;Контур&gt;" class="cls-51" d="M89.64,76.7l4.09-2.37c.13-.07.23,0,.23.12a.47.47,0,0,1-.23.38l-4.09,2.36c-.13.08-.23,0-.23-.11A.47.47,0,0,1,89.64,76.7Z"/></g><g id="_Группа_170" data-name="&lt;Группа&gt;"><path id="_Контур_137" data-name="&lt;Контур&gt;" class="cls-51" d="M95.14,73.52l4.09-2.36c.13-.08.23,0,.23.11a.47.47,0,0,1-.23.38L95.14,74c-.13.07-.23,0-.23-.12A.47.47,0,0,1,95.14,73.52Z"/></g><g id="_Группа_171" data-name="&lt;Группа&gt;"><path id="_Контур_138" data-name="&lt;Контур&gt;" class="cls-51" d="M84.14,80.85l4.09-2.36c.13-.08.23,0,.23.11a.51.51,0,0,1-.23.39l-4.09,2.36c-.13.07-.23,0-.23-.12A.47.47,0,0,1,84.14,80.85Z"/></g><g id="_Группа_172" data-name="&lt;Группа&gt;"><path id="_Контур_139" data-name="&lt;Контур&gt;" class="cls-51" d="M89.64,77.67l4.09-2.36c.13-.08.23,0,.23.11a.51.51,0,0,1-.23.39l-4.09,2.36c-.13.07-.23,0-.23-.12A.47.47,0,0,1,89.64,77.67Z"/></g><g id="_Группа_173" data-name="&lt;Группа&gt;"><path id="_Контур_140" data-name="&lt;Контур&gt;" class="cls-51" d="M95.14,74.49l4.09-2.36c.13-.07.23,0,.23.12a.49.49,0,0,1-.23.38L95.14,75c-.13.07-.23,0-.23-.12A.49.49,0,0,1,95.14,74.49Z"/></g></g></g><g id="_Группа_174" data-name="&lt;Группа&gt;"><path id="_Контур_141" data-name="&lt;Контур&gt;" class="cls-39" d="M74.87,39.06c2.39-1.38,4.33-.27,4.33,2.5a9.58,9.58,0,0,1-4.33,7.5c-2.39,1.38-4.33.26-4.33-2.5A9.56,9.56,0,0,1,74.87,39.06Z"/><path id="_Контур_142" data-name="&lt;Контур&gt;" class="cls-48" d="M74.87,41.23c.78-.45,1.41-.09,1.41.81a3.08,3.08,0,0,1-1.41,2.43c-.78.45-1.4.09-1.4-.81A3.1,3.1,0,0,1,74.87,41.23Z"/><path id="_Контур_143" data-name="&lt;Контур&gt;" class="cls-48" d="M77.61,46c0-1.48-1-2.07-2.31-1.34l-.8.46a5.12,5.12,0,0,0-2.3,4v.4a3.33,3.33,0,0,0,2.67-.47,8.62,8.62,0,0,0,2.74-2.71Z"/></g><g id="_Группа_175" data-name="&lt;Группа&gt;"><path id="_Контур_144" data-name="&lt;Контур&gt;" class="cls-39" d="M72.31,56.17l6-3.46c.25-.15.46,0,.46.23a1,1,0,0,1-.46.77l-6,3.46c-.26.14-.46,0-.46-.24A1,1,0,0,1,72.31,56.17Z"/></g></g><path class="cls-38" d="M55.88,70.59v-.12h0v0h0L55,67.27h0a0,0,0,0,0,0,0h-.1l0,0h0l0,0h0l0,0h0l0,0h0l0,0v0h0L51.08,73v0l0,0v.16a0,0,0,0,0,0,0h0l.28,1.29-.15.45a1.43,1.43,0,0,0-.52.69l-.22.69c-.08.27,0,.4.23.29L53.78,75a1.36,1.36,0,0,0,.53-.7l.23-.7c.08-.26,0-.39-.22-.29l.14-.44,1.38-2.18v0l0,0ZM51.52,74.8l.08-.27L54,73.23l-.08.27Zm2.74-2.11-2.59,1.4-.24-1.15,3-4.53-.54,1.71A2.77,2.77,0,0,0,53,71.33c-.17.52,0,.76.44.54a2.58,2.58,0,0,0,1-1.34c.14-.43,0-.67-.25-.61l.54-1.72.72,2.55Zm-.37-2.21c.19-.11.29,0,.21.26a1.21,1.21,0,0,1-.5.64c-.19.11-.29,0-.21-.26A1.21,1.21,0,0,1,53.89,70.48Zm0,4-3.16,1.7.22-.7.18-.09h0L54,73.89h0l.16-.09-.22.7Zm-.07.24.07-.24h0Z"/><path class="cls-38" d="M60.29,62l-.66.36a.75.75,0,0,0-.27.35l0,.18-3,1.63.1-.31c0-.14,0-.2-.12-.14l-.86.46a.68.68,0,0,0-.27.35l-.1.31-3,1.63.05-.18c0-.13,0-.2-.11-.14l-.66.36a.62.62,0,0,0-.27.34l-.27.85c0,.14,0,.2.11.14l.67-.35a.72.72,0,0,0,.26-.35l.06-.18,1.82-1a17.53,17.53,0,0,0-2,2.33c-.07-.08-.2-.08-.37,0a2.35,2.35,0,0,0-.91,1.18c-.14.45,0,.67.39.48a2.33,2.33,0,0,0,.91-1.18l0-.14a13.43,13.43,0,0,1,3.18-3.27l-.08.25c0,.13,0,.2.11.14l.87-.47a.62.62,0,0,0,.27-.34l.08-.25c1-.36,1.65-.18,2,.49a.88.88,0,0,0-.05.15c-.15.45,0,.67.38.48A2.28,2.28,0,0,0,59.33,65c.15-.45,0-.67-.38-.48a1.79,1.79,0,0,0-.51.46,1.24,1.24,0,0,0-1.11-.63l1.82-1,0,.17c-.05.14,0,.2.11.15l.66-.36a.64.64,0,0,0,.27-.35l.27-.84C60.45,62,60.4,62,60.29,62Zm-8.8,5.45-.28.15.11-.36.28-.15Zm-.6,2.39c-.14.07-.21,0-.15-.2a1,1,0,0,1,.37-.48c.14-.08.21,0,.15.2A1,1,0,0,1,50.89,69.87Zm7.9-4.82c.15-.08.22,0,.16.2a1,1,0,0,1-.37.48c-.15.07-.22,0-.16-.2A1,1,0,0,1,58.79,65.05Zm-3.07.26-.48.26.1-.31h0l.1-.3.48-.26-.2.62ZM59.84,63l-.28.15.11-.35.28-.15Z"/></g></g></svg>