<svg id="Слой_1" data-name="Слой 1" xmlns="http://www.w3.org/2000/svg" xmlns:xlink="http://www.w3.org/1999/xlink" viewBox="0 0 135.04 208.8"><defs><style>.cls-1{fill:url(#Безымянный_градиент_11);}.cls-2{fill:#aa8551;}.cls-10,.cls-3{opacity:0.46;}.cls-10,.cls-4{fill:#a25600;}.cls-5{fill:url(#Безымянный_градиент_23);}.cls-6{fill:url(#Безымянный_градиент_24);}.cls-7{fill:url(#Безымянный_градиент_25);}.cls-8{fill:url(#Безымянный_градиент_26);}.cls-9{fill:url(#Безымянный_градиент_27);}.cls-10{isolation:isolate;}.cls-11{fill:url(#Безымянный_градиент_28);}.cls-12{fill:url(#Безымянный_градиент_11-2);}.cls-13{fill:#a9a9a9;}.cls-14{fill:#1e1e1e;}</style><linearGradient id="Безымянный_градиент_11" x1="94.73" y1="148.02" x2="133.11" y2="148.02" gradientTransform="translate(-7.75 17.06) rotate(-2.85)" gradientUnits="userSpaceOnUse"><stop offset="0" stop-color="#ff94a0"/><stop offset="0.13" stop-color="#f78896"/><stop offset="0.37" stop-color="#e06a7a"/><stop offset="0.69" stop-color="#bd384f"/><stop offset="1" stop-color="#94001d"/></linearGradient><linearGradient id="Безымянный_градиент_23" x1="32.08" y1="-1221.74" x2="57.6" y2="-1221.74" gradientTransform="matrix(1, 0, 0, -1, 0, -1098.1)" gradientUnits="userSpaceOnUse"><stop offset="0" stop-color="#ffa06a"/><stop offset="1" stop-color="#155fff"/></linearGradient><linearGradient id="Безымянный_градиент_24" x1="31.1" y1="-1251.94" x2="56.62" y2="-1251.94" gradientTransform="matrix(1, 0, 0, -1, 0, -1098.1)" gradientUnits="userSpaceOnUse"><stop offset="0" stop-color="#ff2a9b"/><stop offset="1" stop-color="#155fff"/></linearGradient><linearGradient id="Безымянный_градиент_25" x1="54.84" y1="-1228.66" x2="80.87" y2="-1228.66" gradientTransform="matrix(1, 0, 0, -1, 0, -1098.1)" gradientUnits="userSpaceOnUse"><stop offset="0" stop-color="#ff2a9b"/><stop offset="1" stop-color="#ffab15"/></linearGradient><linearGradient id="Безымянный_градиент_26" x1="52.21" y1="-1258.49" x2="90.57" y2="-1258.49" gradientTransform="matrix(1, 0, 0, -1, 0, -1098.1)" gradientUnits="userSpaceOnUse"><stop offset="0" stop-color="#ff2a9b"/><stop offset="1" stop-color="#94000c"/></linearGradient><linearGradient id="Безымянный_градиент_27" x1="87.52" y1="-1244.46" x2="113.55" y2="-1244.46" gradientTransform="matrix(1, 0, 0, -1, 0, -1098.1)" gradientUnits="userSpaceOnUse"><stop offset="0" stop-color="#40ff15"/><stop offset="1" stop-color="#155fff"/></linearGradient><linearGradient id="Безымянный_градиент_28" x1="15.87" y1="-1186.4" x2="44.35" y2="-1186.4" xlink:href="#Безымянный_градиент_27"/><linearGradient id="Безымянный_градиент_11-2" x1="70.88" y1="82.58" x2="98.03" y2="82.58" gradientTransform="matrix(1, 0, 0, 1, 0, 0)" xlink:href="#Безымянный_градиент_11"/></defs><title>palette</title><path class="cls-1" d="M126.74,194.22,92,114.37l9.62-5.18s31.05,89.67,32.86,95.93-.9,3.13-2.1.85S126.74,194.22,126.74,194.22Z"/><path class="cls-2" d="M131.25,127.09c-1.5-11.4-5.6-33.9-27-44.7-8.5-4.3-12.5-12.7-6.4-19.2,3.4-3.6,4.9-2,10.8-2.3s11.3-2.5,13.4-8.6,3.6-11.8-3.5-19.9-16.1-14.6-34.1-17.6-37.8,4.9-49,12-26.4,28.8-31.1,45.8c-5.4,19.3-5.5,40.2-1.8,60s9.6,37.5,25.8,50.3,33.3,17.4,52.4,11.3,34.8-20.5,41.8-31.4S132.75,138.49,131.25,127.09Zm-37.9-16.9c-3.5.8-7.2-2.4-8.4-7.2s.8-9.4,4.3-10.2,7.2,2.4,8.4,7.2S96.85,109.39,93.35,110.19Z"/><g class="cls-3"><path class="cls-4" d="M52.55,110.89s-5.3-1.3-7.1,2.7-2.2,4.2-5.2,4.9-4.8,1.5-5.2,3.7,2.7,2.5,2.4,4.9-8.3,3.7-2.3,5.4,9.4-2.8,10.1-.6-4.9,5.6,0,4.5,2.3-8.3,6.2-10,4.5-2.4,4.1-4.5.1-2.4,1.3-3.9.3-3.1.6-4.2,2.7-2.5-.8-2.5S52.55,110.89,52.55,110.89Z"/><path class="cls-4" d="M51.65,141.09s-5.3-1.3-7.1,2.7-2.2,4.2-5.2,4.9-4.8,1.5-5.2,3.7,2.7,2.5,2.4,4.9-8.3,3.7-2.3,5.4,9.4-2.8,10.1-.6-4.9,5.6,0,4.5,2.3-8.3,6.2-10,4.5-2.4,4.1-4.5.1-2.4,1.3-3.9.3-3.1.6-4.2,2.7-2.5-.8-2.5S51.65,141.09,51.65,141.09Z"/><path class="cls-4" d="M81.65,137.09s1.1-5.3-2.8-7-4.2-2.1-5-5.1-1.6-4.7-3.8-5.1-2.4,2.7-4.9,2.5-3.8-8.3-5.5-2.2,3,9.4.8,10.1-5.7-4.8-4.5.1,8.4,2.1,10.1,6,2.5,4.5,4.6,4,2.4,0,3.9,1.3,3.1.3,4.2.5,2.6,2.6,2.5-.8S81.65,137.09,81.65,137.09Z"/><path class="cls-4" d="M91.35,170.19s1.7-7.8-4.1-10.4-6.2-3.1-7.4-7.5-2.3-7-5.6-7.5-3.6,4-7.2,3.7-5.6-12.2-8-3.3,4.4,13.8,1.2,14.8-8.4-7.1-6.6.1,12.3,3.1,14.9,8.8,3.7,6.6,6.7,5.9,3.6.1,5.8,1.9,4.6.4,6.2.7,3.8,3.9,3.7-1.2S91.35,170.19,91.35,170.19Z"/><path class="cls-4" d="M114.35,152.89s1.1-5.3-2.8-7-4.2-2.1-5-5.1-1.6-4.7-3.8-5.1-2.4,2.7-4.9,2.5-3.8-8.3-5.5-2.2,3,9.4.8,10.1-5.7-4.8-4.5.1,8.4,2.1,10.1,6,2.5,4.5,4.6,4,2.4,0,3.9,1.3,3.1.3,4.2.5,2.6,2.6,2.5-.8S114.35,152.89,114.35,152.89Z"/></g><path class="cls-5" d="M51.65,110.89s-5.3-1.3-7.1,2.7-2.2,4.2-5.2,4.9-4.8,1.5-5.2,3.7,2.7,2.5,2.4,4.9-8.3,3.7-2.3,5.4,9.4-2.8,10.1-.6-4.9,5.6,0,4.5,2.3-8.3,6.2-10,4.5-2.4,4.1-4.5.1-2.4,1.3-3.9.3-3.1.6-4.2,2.7-2.5-.8-2.5S51.65,110.89,51.65,110.89Z"/><path class="cls-6" d="M50.65,141.09s-5.3-1.3-7.1,2.7-2.2,4.2-5.2,4.9-4.8,1.5-5.2,3.7,2.7,2.5,2.4,4.9-8.3,3.7-2.3,5.4,9.4-2.8,10.1-.6-4.9,5.6,0,4.5,2.3-8.3,6.2-10,4.5-2.4,4.1-4.5.1-2.4,1.3-3.9.3-3.1.6-4.2,2.7-2.5-.8-2.5S50.65,141.09,50.65,141.09Z"/><path class="cls-7" d="M80.75,137.09s1.1-5.3-2.8-7-4.2-2.1-5-5.1-1.6-4.7-3.8-5.1-2.4,2.7-4.9,2.5-3.8-8.3-5.5-2.2,3,9.4.8,10.1-5.7-4.8-4.5.1,8.4,2.1,10.1,6,2.5,4.5,4.6,4,2.4,0,3.9,1.3,3.1.3,4.2.5,2.6,2.6,2.5-.8S80.75,137.09,80.75,137.09Z"/><path class="cls-8" d="M90.35,170.19s1.7-7.8-4.1-10.4-6.2-3.1-7.4-7.5-2.3-7-5.6-7.5-3.6,4-7.2,3.7-5.6-12.2-8-3.3,4.4,13.8,1.2,14.8-8.4-7.1-6.6.1,12.3,3.1,14.9,8.8,3.7,6.6,6.7,5.9,3.6.1,5.8,1.9,4.6.4,6.2.7,3.8,3.9,3.7-1.2S90.35,170.19,90.35,170.19Z"/><path class="cls-9" d="M113.35,152.89s1.1-5.3-2.8-7-4.2-2.1-5-5.1-1.6-4.7-3.8-5.1-2.4,2.7-4.9,2.5-3.8-8.3-5.5-2.2,3,9.4.8,10.1-5.7-4.8-4.5.1,8.4,2.1,10.1,6,2.5,4.5,4.6,4,2.4,0,3.9,1.3,3.1.3,4.2.5,2.6,2.6,2.5-.8S113.35,152.89,113.35,152.89Z"/><path class="cls-10" d="M28.55,86s-9.3-.8-7,3.8,3.5,5,.3,8.5-3.5,5.2-3.3,8.2-1.3,2.7-.5,7.2-.8,5.2,2.5,5.7,4.2-1.2,6.7-4.8,1.3-5,5-7.7,4.3-2.3,6-7,1.3-5.8,3.3-7.1,2.3-2.7,3.2-5.2,2.3-4.5,1.1-6.5-2.1-3-2.2-5.8-4.2-3.2-3.7-7.3,4-4.3.2-6-4.9-2.7-7-3.3-3.1-2.8-5-.5-2.2,2.2-3.2,5.2-2.5,1-3.2,4.7,2.8,2.5,2.8,5-1.8,2.3,0,3.8a6.52,6.52,0,0,1,2.7,5A10.44,10.44,0,0,0,28.55,86Z"/><path class="cls-11" d="M26.65,86s-9.3-.8-7,3.8,3.5,5,.3,8.5-3.5,5.2-3.3,8.2-1.3,2.7-.5,7.2-.8,5.2,2.5,5.7,4.2-1.2,6.7-4.8,1.3-5,5-7.7,4.3-2.3,6-7,1.3-5.8,3.3-7.1,2.3-2.7,3.2-5.2,2.3-4.5,1.1-6.5-2.1-3-2.2-5.8-4.2-3.2-3.7-7.3,4-4.3.2-6-4.9-2.7-7-3.3-3.1-2.8-5-.5-2.2,2.2-3.2,5.2-2.5,1-3.2,4.7,2.8,2.5,2.8,5-1.8,2.3,0,3.8a6.52,6.52,0,0,1,2.7,5A10.44,10.44,0,0,0,26.65,86Z"/><path class="cls-4" d="M109.85,85.79s-4.1-2.6-4.5-2.8c-3.6-1.7-7-3.6-9.9-9.1-3.7-7.1,2.2-12.2,5.2-13.2,3.8-1.3,8.8.9,14.5-1.5s7.6-8.2,8.2-11.9a18,18,0,0,0,.4-3.8,26.48,26.48,0,0,1,0,7.2c-.6,2.8-1.7,6.7-4.8,9.1-2.2,1.7-6.4,2.5-10.3,2.2s-6.2.1-8.9,1.6-5.1,4.6-4.1,8.2,4.6,7.8,6.7,8.8A40.64,40.64,0,0,1,109.85,85.79Z"/><path class="cls-12" d="M89.21,109.36C88.7,107.46,71.92,63.9,71,59.53c-1-4.56,7.87-6.4,9.42-3.14,1.46,3.07,17.31,43.43,17.31,43.43a15.23,15.23,0,0,1,.3,4.09,8.23,8.23,0,0,1-1.84,4.72,4.88,4.88,0,0,1-4.32,1.79A7.59,7.59,0,0,1,89.21,109.36Z"/><path class="cls-13" d="M63.2,24.38a3.67,3.67,0,0,0-1.59,4.13c.83,2.67,10.15,33.65,10.15,33.65s1.85.53,5.35-.78,4.33-2.51,4.33-2.51S68.15,27.21,67,25.4,63.2,24.38,63.2,24.38Z"/><path class="cls-14" d="M44.4,0S55,4.25,60.24,9.13s6.62,11.5,6.37,14.25.51,3.11-2.25,4.12-2.62,1.38-5.12-2.25-6-7.5-8.38-13.12A101.14,101.14,0,0,0,44.4,0Z"/></svg>