<svg id="Слой_1" data-name="Слой 1" xmlns="http://www.w3.org/2000/svg" xmlns:xlink="http://www.w3.org/1999/xlink" viewBox="0 0 210.1 122.33"><defs><style>.cls-1{fill:url(#Безымянный_градиент_11);}.cls-2{fill:#1e1e1e;}.cls-3{fill:#999;}.cls-4{fill:#f6f6f6;}.cls-5{fill:#4d4d4d;}</style><linearGradient id="Безымянный_градиент_11" x1="0.1" y1="61.53" x2="210.1" y2="61.53" gradientUnits="userSpaceOnUse"><stop offset="0" stop-color="#ff94a0"/><stop offset="0.13" stop-color="#f78896"/><stop offset="0.37" stop-color="#e06a7a"/><stop offset="0.69" stop-color="#bd384f"/><stop offset="1" stop-color="#94001d"/></linearGradient></defs><title>planshet</title><path class="cls-1" d="M192.2,2.93h0a3,3,0,0,0-2,1.16c-.46.68-.82,1.26-1.25,2-2.2,4.1-5.1,9.2-5.4,9.9-1.9,3.3-3.7,6.5-5.6,9.8-1.5,2.7-10.8,18.79-11,20.19-1.15-1.23-9.2-10.09-9.2-10.09-4.9-6-11.3-10.6-19.7-11l-94-4.4c-7.8-.4-15.6-.6-23.4-1.1-3.6-.2-8.4-.6-11.9,0-3.1.5-6.7,2.3-7.1,5-.6.4-1.5,7.7-1.5,7.7A5.72,5.72,0,0,1,.92,33.9L4.7,44.83c1.6,4.2,3,8.4,4.6,12.7,3,8.4,6.1,16.9,9.1,25.2,1.6,4.2,3,8.4,4.5,12.5,3.6,9.6,4.4,17.4,12.1,22.4,7,4.6,10.1,3.7,12.6,4.7h4.8c1-.4,8.1-.9,9.8-1.1l30.7-3c13.6-1.1,27.1-2.8,40.6-4s27.2-2.6,40.6-4c10.3-1.1,20.6-1.9,30.7-3,5.3-.6,5.3-10.6,5.3-10.6-1.24-2.35-35.7-41.8-36.5-43a14.8,14.8,0,0,1,2.1-3l5.4-9.7c1.9-3.4,3.7-6.5,5.6-9.8.7-1.1,10-17.89,11.2-20.1.39-.8.74-1.42,1.16-2.36-2.17-1.23.24-3.14.14-4.64-.1-2.1-.8-2.3-1.8-3.3h-2a16.59,16.59,0,0,0-3.2,2.2ZM153.83,76.06l1.19.82a4.56,4.56,0,0,0,1.68.25l-1.2.2c-.4,2.4-1.75,2.5-2.65,2.5-.5-2,.41-1.73.91-3.53ZM30.1,56c3.2-.9,7.2.7,8.9,2.2,2.7,2.4,2.4,5.5-1.6,6.3-7.2,1.5-15.9-6.1-7.3-8.5Zm-1.9-3.8c6.3-1,13,2.1,16.1,5.1,5.3,5.2,1.7,10.5-5,11.3C28.4,70,17.4,61.73,21,55.83c1.5-2.2,3.9-3.1,7.2-3.6Z"/><path class="cls-2" d="M164.1,70.93a10.41,10.41,0,0,0-1.4,1.9,9.76,9.76,0,0,1-1.7,1.8c-1,1-2.5,2.4-4.4,2.5h-1.1c-1.25,1.86-1.78,2.79-2.37,2.51s-.11-1,.77-3.42c-1.8-4.2-.2-7.4,1.4-10.9l1.3-2c3-4.1,5.1-8.5,7.5-12.9-.7-1.1-3.3-3.9-4.5-5.3l-11.3-12.8c-2.3-2.4-1.7-3-4.1-3.1-11.5-.5-22.9-.8-34.4-1.4-12.4-.7-24.9-.7-37.2-1.4-6-.4-12.4-.5-18.4-.7s-12.6-.8-18.5-.7a46.28,46.28,0,0,0,2.4,5.1l26.8,54.8c2.5,5.1,7.8,15.6,9.6,20.1l128.1-10.6-31.7-36.5c-.6.4-.7.8-1.1,1.5Z"/><path class="cls-3" d="M0,32.33c0,.13.36.82.66,1.62l4,10.88c1.6,4.2,3,8.4,4.6,12.7,3,8.4,6.1,16.9,9.1,25.2,1.6,4.2,3,8.4,4.5,12.5,3.6,9.6,4.4,17.4,12.1,22.4,7,4.6,10.1,3.7,12.6,4.7h4.8c1-.4,8.1-.9,9.8-1.1l30.7-3c13.6-1.1,27.1-2.8,40.6-4s27.2-2.6,40.6-4c10.3-1.1,20.6-1.9,30.7-3,5.3-.6,5.3-10.6,5.3-10.6-.55,6.93-5.3,5.6-13.6,6.5l-18.4,1.8-36.7,3.6-73.2,7.2c-5.3.5-13.5,1.8-18.7,1.4a27.67,27.67,0,0,1-14.4-5.6c-4.4-3.6-5.1-6.2-7.5-12.6l-16-44.3c-1.8-4.9-3.6-9.9-5.3-14.8-1.1-3.2-5-12.2-4.8-15.1C.9,25.13,0,32.33,0,32.33Z"/><path class="cls-2" d="M166.9,45.53c.5.7,7.8,4.7,8.9,4.9l5.4-9.7c1.9-3.4,3.7-6.5,5.6-9.8.9-1.5,10.27-18.43,11.1-19.9a72.91,72.91,0,0,1-9-4.9l-5.4,9.8c-1.9,3.3-3.7,6.5-5.6,9.8C176.4,28.43,167.1,44.23,166.9,45.53Z"/><path class="cls-3" d="M30.1,56c3.2-.9,7.2.7,8.9,2.2,2.7,2.4,2.4,5.5-1.6,6.3-7.2,1.5-15.9-6.1-7.3-8.5Zm-1.9-3.8c-3.3.5-5.7,1.4-7.1,3.7-3.6,5.9,7.3,14.2,18.3,12.8,6.7-.8,10.3-6.1,5-11.3C41.2,54.33,34.5,51.23,28.2,52.23Z"/><path class="cls-2" d="M30.1,56c-8.6,2.5.1,10.1,7.3,8.6,4-.8,4.3-4,1.6-6.3C37.2,56.73,33.2,55.13,30.1,56Z"/><path class="cls-4" d="M153.72,76a2.83,2.83,0,0,0,3,1.16c2.44-.18,5.28-2.47,7.6-6.6l-9-5.17C153.69,68.86,151.92,71.77,153.72,76Z"/><path class="cls-3" d="M197.9.32c-2.58-1.27-6.84,1.52-7.64,3.62a24.16,24.16,0,0,0,3.68,2.4,43.78,43.78,0,0,0,5.12,2.33C200.25,6.57,200.41,1.54,197.9.32Z"/><path class="cls-3" d="M167.42,45l-.23-.21s-6.77,12.88-8,14.58-3.93,6-3.93,6l9,5.17S173.94,53.19,175,51.7A7.7,7.7,0,0,0,176,50Z"/><path class="cls-5" d="M27.91,38H17.75a2.49,2.49,0,0,1-2-1.25h0c-.35-.69,0-1.25.74-1.25H26.64a2.49,2.49,0,0,1,2,1.25h0A.79.79,0,0,1,27.91,38Z"/><path class="cls-5" d="M29.58,41.3H19.42a2.48,2.48,0,0,1-2-1.25h0a.78.78,0,0,1,.74-1.24H28.31a2.51,2.51,0,0,1,2,1.24h0C30.67,40.74,30.34,41.3,29.58,41.3Z"/><path class="cls-5" d="M31.25,44.58H21.09a2.48,2.48,0,0,1-2-1.25h0c-.35-.69,0-1.25.74-1.25H30a2.48,2.48,0,0,1,2,1.25h0C32.34,44,32,44.58,31.25,44.58Z"/><path class="cls-5" d="M33,48H22.86a2.51,2.51,0,0,1-2-1.24h0a.79.79,0,0,1,.75-1.25H31.75a2.49,2.49,0,0,1,2,1.25h0A.78.78,0,0,1,33,48Z"/><path class="cls-5" d="M46.21,80.33H36.05a2.48,2.48,0,0,1-2-1.25h0a.78.78,0,0,1,.74-1.24H44.94a2.49,2.49,0,0,1,2,1.24h0C47.3,79.77,47,80.33,46.21,80.33Z"/><path class="cls-5" d="M47.88,83.61H37.72a2.5,2.5,0,0,1-2-1.25h0c-.35-.69,0-1.25.74-1.25H46.61a2.48,2.48,0,0,1,2,1.25h0A.78.78,0,0,1,47.88,83.61Z"/><path class="cls-5" d="M49.55,86.88H39.39a2.46,2.46,0,0,1-2-1.25h0a.78.78,0,0,1,.74-1.24H48.28a2.49,2.49,0,0,1,2,1.24h0C50.64,86.32,50.31,86.88,49.55,86.88Z"/><path class="cls-5" d="M51.31,90.35H41.16a2.49,2.49,0,0,1-2-1.25h0a.79.79,0,0,1,.75-1.25H50a2.52,2.52,0,0,1,2,1.25h0A.79.79,0,0,1,51.31,90.35Z"/></svg>