<svg id="Слой_1" data-name="Слой 1" xmlns="http://www.w3.org/2000/svg" viewBox="0 0 82.25 71"><defs><style>.cls-1{fill:#70a7ff;}</style></defs><title>cod</title><path class="cls-1" d="M54.31,1.1a2,2,0,0,0-1.68,1.16l-30,64A2,2,0,1,0,26.24,68h0l30-64a2,2,0,0,0-.92-2.68,2.1,2.1,0,0,0-1-.2Zm-31.4.69a2,2,0,0,0-1.35.66l-20,22a2,2,0,0,0,0,2.68l20,22a2,2,0,0,0,3-2.68L5.75,25.79,24.53,5.13a2,2,0,0,0-1.62-3.34ZM58.63,18a2,2,0,0,0-1.16,3.34L76.25,42,57.47,62.6a2,2,0,1,0,3,2.69h0l20-22a2,2,0,0,0,0-2.69l-20-22A2,2,0,0,0,58.63,18Z"/></svg>