<svg id="Слой_1" data-name="Слой 1" xmlns="http://www.w3.org/2000/svg" viewBox="0 0 103.63 97.83"><defs><style>.cls-1{fill:#70a7ff;}</style></defs><title>4</title><path class="cls-1" d="M31.06,83.75a21.93,21.93,0,0,1-6.78-1,34.64,34.64,0,0,1-20-17.46C-2,52.15-1.1,35.39,6.49,22.55,14.83,8.44,27.09,1.51,45.05.74h0C51.48.46,67.52,2.89,76,12.19c4.58,5,6.4,11.28,5.42,18.62A17.41,17.41,0,0,1,67.58,46.06c-11.39,2.7-17.26,6.38-15.68,18.07A15.59,15.59,0,0,1,46.06,78.5,23.63,23.63,0,0,1,31.06,83.75Zm14.08-81c-17.23.74-29,7.37-36.93,20.84C1,35.85.13,51.87,6.11,64.39A32.61,32.61,0,0,0,24.89,80.81,21.7,21.7,0,0,0,44.77,77a13.61,13.61,0,0,0,5.14-12.6C48,49.91,57.34,46.4,67.12,44.12c7-1.66,11.38-6.48,12.33-13.58.9-6.72-.75-12.44-4.91-17-8-8.77-23.27-11.06-29.4-10.8Z"/><path class="cls-1" d="M43.8,25.17A7.68,7.68,0,1,1,45.36,25,7.45,7.45,0,0,1,43.8,25.17Zm0-13.3a5.65,5.65,0,0,0-5.66,5.64v0a5.35,5.35,0,0,0,.12,1.13,5.65,5.65,0,1,0,11.07-2.27h0A5.65,5.65,0,0,0,43.8,11.87Z"/><path class="cls-1" d="M63.24,34a7.65,7.65,0,1,1,7.51-9.19h0a7.65,7.65,0,0,1-6,9h0A7.7,7.7,0,0,1,63.24,34Zm0-13.3a5.65,5.65,0,0,0-5.66,5.64h0a5.45,5.45,0,0,0,.12,1.14,5.66,5.66,0,0,0,11.1-2.21h0a5.65,5.65,0,0,0-5.53-4.51Z"/><path class="cls-1" d="M25,34a7.65,7.65,0,1,1,7.51-9.19h0a7.64,7.64,0,0,1-5.95,9h0A7.4,7.4,0,0,1,25,34Zm0-13.3a5.65,5.65,0,0,0-5.65,5.65,6.29,6.29,0,0,0,.11,1.14,5.65,5.65,0,1,0,11.08-2.24h0A5.65,5.65,0,0,0,25,20.73Z"/><path class="cls-1" d="M17.77,55.75a7.66,7.66,0,1,1,7.51-9.2h0a7.66,7.66,0,0,1-6,9A7,7,0,0,1,17.77,55.75Zm0-13.31a5.65,5.65,0,0,0-5.66,5.66h0a6,6,0,0,0,.11,1.12A5.67,5.67,0,0,0,23.34,47v-.08h0a5.64,5.64,0,0,0-5.54-4.48Z"/><path class="cls-1" d="M31.25,74.35a8.39,8.39,0,1,1,1.69-.17A8.73,8.73,0,0,1,31.25,74.35Zm0-14.8a7.07,7.07,0,0,0-1.3.13,6.38,6.38,0,1,0,1.3-.13Z"/><path class="cls-1" d="M103.29,17a2.49,2.49,0,0,0-1.39-1.6,2.82,2.82,0,0,0-2.24.07C91.29,19,73.5,63.22,70.76,70.12c-7.13,2.46-9,5.74-12.13,12.2-1.48,3.05-4.67,4.58-7.08,5.32A2.19,2.19,0,0,0,50,89.82,2.33,2.33,0,0,0,51.72,92a24.26,24.26,0,0,0,6.45.9,23.56,23.56,0,0,0,8.42-1.59c7.54-2.8,11.3-12.84,11-17.74C81.13,67.56,105.93,25.05,103.29,17Zm-2.85.32c.43-.18.61-.1.68-.07s.17.07.27.38C102.84,22,92.92,42.19,83.1,59.9l-4.95-2.39C85.26,41,95.47,19.4,100.43,17.32Zm-23.07,42,4.76,2.3c-2,3.65-4.07,7.18-6,10.4l-3.33-1.6c1.2-3,2.76-6.82,4.57-11.07ZM65.89,89.47a21.15,21.15,0,0,1-13.65.64.34.34,0,0,1-.3-.32c0-.12.06-.19.2-.23,4-1.24,6.88-3.44,8.3-6.36,3-6.29,4.58-9,11-11.2l4.12,2C75.72,78.39,72.09,87.16,65.89,89.47Z"/><path class="cls-1" d="M66.24,91.41a1,1,0,0,1-.55-1.84,1.84,1.84,0,0,0,1-2.08A1.55,1.55,0,0,0,65,86.54a4.87,4.87,0,0,1-4.11-1.83A5.73,5.73,0,0,1,60,79.54a1,1,0,0,1,1.26-.65h0a1,1,0,0,1,.75,1.2v0a3.65,3.65,0,0,0,.51,3.35,2.82,2.82,0,0,0,2.43,1.07,3.54,3.54,0,0,1,3.7,2.33,3.82,3.82,0,0,1-1.8,4.37A1,1,0,0,1,66.24,91.41Z"/><path class="cls-1" d="M13.29,92.94H13a4,4,0,0,1-3.36-4.55,4.15,4.15,0,0,1,.14-.61c.6-2.34,2.19-2.49,3.08-2.37,1.42.19,3.87,1.76,3.6,3.74h0C16.3,90.53,15.05,92.94,13.29,92.94Zm-.88-5.57c-.25,0-.48.13-.67.9a2,2,0,0,0,1.19,2.57l.07,0,.31.08a3.11,3.11,0,0,0,1.21-2.06h0c.06-.45-1.12-1.39-1.88-1.49Z"/><path class="cls-1" d="M31.69,96.86c-3.3,0-6.62-.64-8.29-2.21a3.38,3.38,0,0,1-1-3.57c1-3.19,7.83-2.81,17.45-1.94l2,.18h0c2,.18,2.46,1.18,2.54,1.75.3,2.28-3.94,4.08-5.77,4.74A21.47,21.47,0,0,1,31.69,96.86Zm-2-6.33c-2.83,0-5.12.27-5.38,1.12a1.39,1.39,0,0,0,.42,1.54c2.15,2,9.4,2.14,13.24.74,2.94-1.07,4.53-2,4.37-2.5,0-.12-.32-.08-.64-.11h0l-2-.18c-2.4-.22-6.58-.61-10-.61Z"/></svg>