<svg id="Слой_1" data-name="Слой 1" xmlns="http://www.w3.org/2000/svg" viewBox="0 0 99.25 112.25"><defs><style>.cls-1{fill:#70a7ff;}</style></defs><title>5</title><path class="cls-1" d="M97.52,53.87a3.79,3.79,0,0,0-1.06-5.25h0a3.67,3.67,0,0,0-1.15-.49c-.12-2.68-.55-10.37-1.57-13.85l.75-.18c2-.47,3.3-1.78,3.3-3.33s-1.3-2.86-3.3-3.33L51.38,17.22a11.11,11.11,0,0,0-5,0L3.3,27.4c-2,.47-3.3,1.78-3.3,3.33s1.3,2.86,3.3,3.33l9.22,2.18c0,1.23-.06,2.67-.09,4.24-.15,6.48-.36,15.35.1,20.44.38,4.38,24.62,9.72,36.36,9.72s36-5.34,36.36-9.72c.45-5.1.25-14,.1-20.44,0-1.58-.06-3-.08-4.24l6.52-1.54c.78,2.43,1.31,9,1.51,13.42a3.77,3.77,0,0,0-2.64,4.65h0a3.58,3.58,0,0,0,.49,1.07c-.58,1.5-2.08,5.8-1.68,9a2.43,2.43,0,0,0,1.83,2.27,12.56,12.56,0,0,0,3.11.39,12.15,12.15,0,0,0,3-.38,2.41,2.41,0,0,0,1.79-2.24C99.51,59.85,98.06,55.39,97.52,53.87ZM2,30.73c0-.48.55-1.1,1.76-1.38l43.1-10.23a9.27,9.27,0,0,1,4.06,0L94,29.35c1.21.28,1.76.9,1.76,1.38s-.55,1.1-1.76,1.39L50.92,42.3a9,9,0,0,1-4.06,0L3.76,32.12C2.55,31.83,2,31.22,2,30.73Zm81.35,9.79c.15,6.43.35,15.24-.07,20.14-1,2.2-20.8,8-34.39,8s-33.35-5.78-34.37-7.9c-.44-5-.24-13.79-.09-20.21,0-1.4.06-2.69.08-3.82L46.4,44.25a11.11,11.11,0,0,0,5,0l31.9-7.54C83.29,37.84,83.32,39.12,83.35,40.52Zm11,9.44a1.82,1.82,0,1,1-1.81,1.83v0A1.81,1.81,0,0,1,94.33,50Zm2.89,12.71c0,.43-.22.48-.3.5a10.17,10.17,0,0,1-5.14,0c-.09,0-.27-.06-.32-.52-.3-2.39.7-5.67,1.31-7.39a3.75,3.75,0,0,0,3.11,0c.57,1.78,1.54,5.17,1.32,7.41Z"/><path class="cls-1" d="M85.84,18.48l1.36.74.73,1.35a2.35,2.35,0,0,0,3.19.94,2.47,2.47,0,0,0,.93-.94l.74-1.35,1.35-.74a2.35,2.35,0,0,0,.93-3.18h0a2.44,2.44,0,0,0-.93-.93l-1.35-.74-.74-1.35a2.36,2.36,0,0,0-4.12,0l-.73,1.35-1.36.74a2.35,2.35,0,0,0-.93,3.18A2.31,2.31,0,0,0,85.84,18.48Zm1-2.36,1.78-1a.29.29,0,0,0,.14-.13l1-1.78a.35.35,0,0,1,.47-.14.32.32,0,0,1,.14.14l1,1.78a.4.4,0,0,0,.13.13l1.78,1a.35.35,0,0,1,.14.47.32.32,0,0,1-.14.14l-1.78,1a.29.29,0,0,0-.13.14l-1,1.78a.35.35,0,0,1-.47.14.32.32,0,0,1-.14-.14l-1-1.78a.4.4,0,0,0-.13-.13l-1.79-1a.35.35,0,0,1-.14-.47.32.32,0,0,1,.14-.14Z"/><path class="cls-1" d="M70.3,9.12l2.21,1.21,1.22,2.21a2.49,2.49,0,0,0,4.39,0l1.21-2.21,2.21-1.21a2.5,2.5,0,0,0,1-3.39,2.53,2.53,0,0,0-1-1L79.33,3.52,78.12,1.31a2.49,2.49,0,0,0-4.39,0L72.52,3.52,70.3,4.73a2.51,2.51,0,0,0,0,4.4Zm1-2.64,2.56-1.36a.64.64,0,0,0,.2-.2l1.42-2.6a.49.49,0,0,1,.67-.21h0a.53.53,0,0,1,.21.21l1.42,2.6a.48.48,0,0,0,.2.2l2.6,1.42a.51.51,0,0,1,.21.67.53.53,0,0,1-.21.21L78,8.79a.48.48,0,0,0-.2.2l-1.42,2.6a.49.49,0,0,1-.67.21h0a.53.53,0,0,1-.21-.21L74.07,9a.64.64,0,0,0-.2-.2l-2.6-1.42a.51.51,0,0,1-.21-.67.53.53,0,0,1,.21-.21Z"/><path class="cls-1" d="M86.72,70.86c-2.75.54-4.62,3.72-6.26,6.52l-.11.18-.1-.15a3.65,3.65,0,0,0-4.11-1.29c-1.74.55-6.47,3.3-9.09,5A24.64,24.64,0,0,0,57.28,94c-1,2.78-2.75,11.93-2,15.51a2.87,2.87,0,0,0,1,1.69c.87.69,3.24,1,5.58,1a14.89,14.89,0,0,0,5.3-.7,2.81,2.81,0,0,0,1.57-2c.11-.45.2-.91.27-1.37a14.52,14.52,0,0,1,.94-4.32c1.14-2.38,4-4.88,6.37-6.89,1.07-.93,2-1.73,2.68-2.44C82.22,91.08,90.4,77.4,90.58,73.84a2.76,2.76,0,0,0-1-2.19A3.46,3.46,0,0,0,86.72,70.86ZM77.53,93c-.61.64-1.55,1.45-2.54,2.3-2.47,2.13-5.55,4.79-6.87,7.54a15.86,15.86,0,0,0-1.12,5,9.9,9.9,0,0,1-.17,1.2.85.85,0,0,1-.52.7c-1.32.67-7.83.62-8.72-.07a.8.8,0,0,1-.32-.55c-.65-3,.88-11.6,1.89-14.41a22.74,22.74,0,0,1,9-11.88,58.44,58.44,0,0,1,8.57-4.79,2.84,2.84,0,0,1,.65-.1,1.51,1.51,0,0,1,1.25.62,1.47,1.47,0,0,1,0,1.74h0a13.3,13.3,0,0,1-2.78,2.46c-1.91,1.43-4.08,3-4.78,5.54A1,1,0,0,0,73,88.9h0c.52-1.84,2.32-3.19,4.06-4.49a15.24,15.24,0,0,0,3.19-2.86,30,30,0,0,0,2-3.12c1.43-2.44,3.06-5.2,4.92-5.57a1.44,1.44,0,0,1,1.18.3.67.67,0,0,1,.27.57c-.14,2.82-8,16.11-11,19.35Z"/><path class="cls-1" d="M32.32,81.18c-2.62-1.73-7.35-4.48-9.09-5a3.64,3.64,0,0,0-4.11,1.26,1.3,1.3,0,0,0-.1.15l-.11-.18c-1.65-2.8-3.51-6-6.26-6.52a3.42,3.42,0,0,0-2.88.75,2.68,2.68,0,0,0-1,2.18C9,77.35,17.17,91,20.4,94.42c.67.71,1.6,1.51,2.68,2.44,2.32,2,5.22,4.51,6.36,6.89a14.3,14.3,0,0,1,1,4.32c.06.56.11,1,.19,1.41a2.83,2.83,0,0,0,1.58,2.06,15.36,15.36,0,0,0,5.3.7c2.34,0,4.71-.29,5.57-1a2.77,2.77,0,0,0,1-1.69c.79-3.59-1-12.74-2-15.51A24.69,24.69,0,0,0,32.32,81.18Zm9.78,28a.85.85,0,0,1-.32.56c-.89.69-7.4.74-8.72.07a.88.88,0,0,1-.53-.7c-.05-.26-.1-.7-.16-1.2a15.61,15.61,0,0,0-1.13-5c-1.32-2.75-4.39-5.41-6.86-7.54-1-.86-1.93-1.67-2.54-2.3-3.08-3.24-10.9-16.53-11-19.35a.72.72,0,0,1,.28-.58,1.43,1.43,0,0,1,1.18-.29c1.87.36,3.49,3.13,4.92,5.57a28.87,28.87,0,0,0,2,3.11,15.28,15.28,0,0,0,3.19,2.87c1.74,1.3,3.54,2.65,4.06,4.48a1,1,0,1,0,2-.4s0-.06,0-.08v-.06c-.7-2.49-2.87-4.11-4.78-5.54a13.86,13.86,0,0,1-2.78-2.46h0a1.43,1.43,0,0,1,0-1.73,1.62,1.62,0,0,1,1.89-.52,57.64,57.64,0,0,1,8.58,4.79,22.74,22.74,0,0,1,9,11.88c1,2.8,2.53,11.43,1.88,14.4Z"/></svg>