<svg id="Слой_1" data-name="Слой 1" xmlns="http://www.w3.org/2000/svg" viewBox="0 0 97.05 113.22"><defs><style>.cls-1{fill:#70a7ff;}</style></defs><title>1</title><path class="cls-1" d="M92.87,15.07H79.17V3.5a3,3,0,0,0-3-3H20.47a3,3,0,0,0-3,3V15.07H4.17A4.17,4.17,0,0,0,0,19.24v61a4.17,4.17,0,0,0,4.17,4.17h30l-1.44,13h-4.6a3.21,3.21,0,0,0-3.2,3.19v.3a3.21,3.21,0,0,0,3.2,3.2H68.79A3.21,3.21,0,0,0,72,101v-.3a3.19,3.19,0,0,0-3.19-3.19H64.3l-1.44-13h30A4.19,4.19,0,0,0,97,80.34v-61A4.18,4.18,0,0,0,93,15.07Zm-13.7,6h12V64.49h-12ZM19.47,3.5a1,1,0,0,1,1-1H76.18a1,1,0,0,1,1,1v61H19.48ZM5.84,64.5V21H17.47V64.49ZM70,100.65v.29a1.19,1.19,0,0,1-1.18,1.2H28.13a1.2,1.2,0,0,1-1.2-1.2v-.29a1.19,1.19,0,0,1,1.19-1.19H68.79A1.19,1.19,0,0,1,70,100.63Zm-7.7-3.19H34.76l1.45-13H60.84ZM95,80.27a2.17,2.17,0,0,1-2.17,2.17H4.17A2.17,2.17,0,0,1,2,80.27v-61A2.17,2.17,0,0,1,4.17,17.1h13.3v2H4.84a1,1,0,0,0-1,1V65.49a1,1,0,0,0,1,1H92.15a1,1,0,0,0,1-1V20a1,1,0,0,0-1-1h-13V17h13.7A2.17,2.17,0,0,1,95,19.17Z"/><path class="cls-1" d="M37.32,13.35H60.5a1,1,0,0,0,0-2H37.32a1,1,0,0,0,0,2Z"/><path class="cls-1" d="M36.73,19.52H59.92a1,1,0,0,0,0-2H36.73a1,1,0,0,0,0,2Z"/><path class="cls-1" d="M70,35H27.81a1,1,0,0,0,0,2H70a1,1,0,0,0,0-2Z"/><path class="cls-1" d="M70,43.78H27.81a1,1,0,0,0,0,2H70a1,1,0,0,0,0-2Z"/><path class="cls-1" d="M70,52.54H27.81a1,1,0,1,0,0,2H70a1,1,0,0,0,0-2Z"/><path class="cls-1" d="M70,61.29H27.81a1,1,0,1,0,0,2H70a1,1,0,0,0,0-2Z"/><path class="cls-1" d="M86.27,95.8c-6.36,0-10.18,2.22-10.77,6.25a1.76,1.76,0,0,0,.42,1.39,2.06,2.06,0,0,0,1.57.7H95a2.06,2.06,0,0,0,1.57-.7,1.73,1.73,0,0,0,.42-1.39C96.45,98,92.62,95.8,86.27,95.8Zm-8.75,6.34c.71-3.77,5.76-4.34,8.75-4.34s8,.57,8.75,4.34Z"/><path class="cls-1" d="M91,105.89H7.2a3.5,3.5,0,0,0-3.5,3.5v.33a3.52,3.52,0,0,0,3.5,3.5H91a3.52,3.52,0,0,0,3.5-3.5v-.33A3.5,3.5,0,0,0,91,105.89Zm1.5,3.83a1.5,1.5,0,0,1-1.5,1.5H7.2a1.5,1.5,0,0,1-1.5-1.5h0v-.33a1.5,1.5,0,0,1,1.5-1.5H91a1.51,1.51,0,0,1,1.5,1.5Z"/><path class="cls-1" d="M70,28.27H27.81a1,1,0,0,1,0-2H70a1,1,0,0,1,0,2Z"/></svg>