<svg id="OBJECTS" xmlns="http://www.w3.org/2000/svg" viewBox="0 0 61.88 63.24"><defs><style>.cls-1{fill:#40bced;}</style></defs><title>lin</title><path class="cls-1" d="M42.93,61.88H19A19,19,0,0,1,0,42.93V19A19,19,0,0,1,19,0h24a19,19,0,0,1,19,19v24A19,19,0,0,1,42.93,61.88ZM19,2.3A16.67,16.67,0,0,0,2.3,19v24A16.67,16.67,0,0,0,19,59.59h24A16.67,16.67,0,0,0,59.59,42.93V19A16.67,16.67,0,0,0,42.93,2.3Z"/><rect class="cls-1" x="19.89" y="26.58" width="4.52" height="15.5"/><path class="cls-1" d="M22.15,19.81a2.48,2.48,0,1,0,2.48,2.47A2.48,2.48,0,0,0,22.15,19.81Z"/><path class="cls-1" d="M38.51,26.52a6.06,6.06,0,0,0-6.43,1.66h0l-.56-2.05H27.38v16h4.85V32.62a2.55,2.55,0,0,1,2.55-2.56h0a2.55,2.55,0,0,1,2.56,2.56v9.46h4.85v-8S42.73,27.71,38.51,26.52Z"/></svg>