<svg id="Слой_1" data-name="Слой 1" xmlns="http://www.w3.org/2000/svg" viewBox="0 0 819.4 851.3"><defs><style>.cls-1{fill:#c2c1d3;}.cls-2{fill:#193541;}.cls-3{fill:#6d839b;}.cls-4{fill:#989ab7;}.cls-5{fill:#103b72;}.cls-6{fill:#5ca595;}.cls-7{fill:#524e64;}.cls-8{fill:#5183ff;}.cls-9{fill:#f56463;}.cls-10{fill:#ffde2e;}.cls-11{fill:#d5292a;}.cls-12{fill:#f1bda3;}.cls-13{fill:#f1f6fa;}.cls-14{fill:#151822;}.cls-15{fill:#ef7f1a;}.cls-16{fill:#2b2a29;}.cls-17{fill:#e7d9d7;}.cls-18{fill:#e8cdde;}.cls-19{fill:#d93a36;}.cls-20{fill:#fff9dc;}.cls-21{fill:#739fba;}.cls-22{fill:#79abc4;}.cls-23{fill:#fff;}.cls-24{fill:#deeefa;}.cls-25{fill:#88877c;}.cls-26{fill:#b8486b;}.cls-27{fill:#345889;}.cls-28{fill:#636047;}.cls-29{fill:#d9d8cb;}</style></defs><title>postman</title><path class="cls-1" d="M488,397.7s79.4,142.4,105.8,140S764,424.1,777.2,397.7,637.4,148.1,637.4,148.1s-18,1.2-11.4,18,22.2,42.6,22.2,42.6-27-32.4-36.6-25.8a15.65,15.65,0,0,0-6.8,16.6l16.4,69.8s-15.6-18.6-23.4-5.4-4.3,83.8-4.3,83.8L488,397.7Z"/><path class="cls-2" d="M686,221.5c-24.5-42-45.8-71.7-49.1-76.5s-26.1-12.8-13.5,18.2c12.3,30.4,17,35.6,17,35.6s-20.6-23.8-30.2-17.2-6.5,16.3-6.5,16.3l15.4,67.2s-14.2-16-22-2.8c-8.1,13.2-4.5,63.7-3.8,80.2L610.1,383s-1.7-76,5.5-99.4S646.8,301,646.8,301s-13.2-46.2-9.4-61,15.4,13,17.8,19,3-39,18-40.8c2.4-.2,7,1,12.8,3.3Z"/><path class="cls-3" d="M488,397.7s79.4,142.4,105.8,140S764,424.1,777.2,397.7c6.4-12.8-26-71.4-61.3-128.7-17.8,1.5-21.2,46.5-21.2,46.5s-13.2-9.6-24-10.2-4.8,50.4-4.8,50.4-16.8-7.8-31.2-5.4-15.2,71.9-15.2,71.9l-92.8-42.8L488,397.7Z"/><path class="cls-4" d="M651,671.2c23.4-1.8,55.1-28.1,52.2-29.8s30.2-2.3-43.2-55.4S522.6,484.6,522.6,484.6L364.8,592s195,66.6,230.4,73.2S651,671.2,651,671.2Z"/><path class="cls-1" d="M425.9,419c-16.9,7-25.2,10.3-37,22-5.2,5.2-39.3,33.7-46,40-9,7.1-17.1,13.2-24.2,18.3-34.9,23.6-38.9,24.9-47.7,30.3,3.8,10.5,16.6,17.2,26.9,20.7,91.9,47.1,163.8,56.6,209,65.5,13.2-2.1,33.9-16.8,50.8-36.9,18.6-22.1,33-50.2,33.7-67.2a80.91,80.91,0,0,0,.1-18.4c-3-11.6-5.9-19.4-11.7-27.3-2.4-3.3-6.7-6.3-11.6-8.2-6.6-2.6-11.2-1.7-16.7-3.1-2.8-3-1.4-3.1-5-6.2L535,437.7c-56.2-42.3-102.1-17.1-109.1-18.7Z"/><path class="cls-5" d="M501.6,620.5c-14.6,10-39.4,17.1-56.1,20.8-.2,0-9.2,3.6-11.6,4.2l-43.1,9c4.1,2.5,25.8,5.1,34.8,6.4-11.9,4-61.9,7.6-77.8,7.4-34.6-.5-62.6-11.1-72.5-9.6l-9.4,56c-1.1,8.7-7.7,37.6-5.4,44.3,1,3.1-1.2,7.6,24.6,11.2,88.7,12.5,215.5,37.7,243.5,39.2,12.2.6,13.9-7.6,15.9-18,3-25.7,11.8-88.1,20.8-132.4-1.7-.5-2.2-8.4-6.4-5.5-20,14-15.7,15.5-31.4,12.5-26.3-19.7,1.4-35-67.6-3.7-4.3-.6-21.2.6-24.6-2,40.6-8.1,82.8-32.4,110.4-51.8l-20.2-3.7c-5,2.8-21.1,13.8-23.9,15.7Z"/><path class="cls-6" d="M449.1,347.5c5.1,2.6,9,6.5,14.1,9.9,33.7,22.7,80.5,28.2,118.8,13.1,9.6-3.8,10.5-8,15.4-9.4l-1.1-4.7C591.1,340,583.2,318,576,297c-30.9,7.4-64.8-2.1-81.2-18.9-31.7-32.5-10.7-77-10.8-77.4-9.8,11.7-19.4,52.8-22.3,70.8-3.7,24.2-6.7,52.8-12.6,76Z"/><path class="cls-7" d="M425.9,419c6.9,1.7,52.9-23.6,109,18.7l11.5,10.8c3.6,3.1,2.2,3.2,5,6.2,5.5,1.4,10.1.4,16.7,3.1,4.9,1.9,9.2,4.9,11.6,8.2,5.8,7.9,8.7,15.8,11.7,27.3l18.8-6.1c5.5-52.9,1.6-78.4-11.4-127.4-4.9,1.4-7.8,5.1-17.4,8.9-38.2,15.1-84.4,9.3-118.2-13.4-5.1-3.4-8.8-6.7-13.9-9.3-6.3,28.3-16.1,50.2-23.4,73Z"/><path class="cls-3" d="M504.7,177.2c-6.7,4.8-18.5,15.4-22.1,26.7.1.4-19.8,42.4,12,75,16.4,16.8,50.6,25.8,81.5,18.3-5-15.7-13.9-30.9,4.1-48.5,7.2-7.1,17.9-11.3,28.2-8.8-3.9-9.7-19.6-14.5-32.3-16.7l5.3-.1c1.6-1,4.1-3.6,3.5-5.8,1-6.6.3-2.2,3.1-6.8a15.48,15.48,0,0,0,2.3-5.1c2.1-6.1,1.9-6.1,8.8-7.5-2.9-7.2-8.4-9-11.3-15.1l-54.2-7.3c-9.5-1.9-19.4,2.4-28.9,1.7Z"/><path class="cls-1" d="M26.5,629.2c40,10.6,124.6,14.1,145.8,21.6-2,4.3-9.4,8.8-9.9,10.2-.2,0,58.2,1,85.6.4,8.8-.2,18.2-1.7,27.2-1.9,9.8-1.5,38.5,9.7,73,10.2,16,.2,62.8-6.5,78.8-9.2-9-1.3-27.1-1.9-31.2-4.4,28.1-2.1,79.9-21.2,92.9-31.6-17.5,1.3-59.6-4.4-77.4-7.7-56.1-10.5-129.1-37.2-175-66.2C108.7,608,31.9,622.7,26.5,629.2Z"/><path class="cls-3" d="M128,680.3c-2.7.8-45.1,19.1-46,20.1,8.4-1.2-8.1,4.1-5,9.5,8.2,10.4,75-9.4,91.3-14.8,8.5-2.8,19.9-7.9,27.9-9.6-2,4.7-1.6,4.1-5.4,7.6-2.4,2.2-4.5,4.9-6.7,6.9-2.8,2.5-11.2,8-15.6,10.5l-34.7,15c-2.4,1.3-.6,0-2.4,1.7,20.6-1.4,44.3-7.5,64.5-10.1,18.7-2.4,52.1-5.2,70.4-4.7,2.6-18.4-15.4-38-34.9-41.7l-4.1-.6c-.4,0-.7-.1-1.1-.1l-19.2-.3C196.2,677.9,140.3,692.4,128,680.3Z"/><path class="cls-5" d="M597.3,361.1c13,49,16,73.6,10.5,126.5-12.5,83.2-64.9,113.4-64.1,114.1,11.4,4.4,22.5,5.8,34.2,6.1,29-21.4,48.4-79.7,50.4-115.2,1.6-28.1-19-136.2-32-136.2l1,4.7Z"/><path class="cls-8" d="M525.5,677.2c15.7,3,14-1.2,34-15.2,4.1-2.9,3.9-3.4,5.6-2.9l5.3-30.4c6.5-14.2,8.9-18.7-.6-21.3l-18.3-3.1-4-1.2c-27.6,19.3-76.8,49.3-117.4,57.4,3.4,2.6,23,5.1,27.3,5.7,49.8,6.9,23.3,2.5,68.1,11Z"/><path class="cls-2" d="M81.9,700.4C69,704,2.5,731.4.4,741.9c9.7,3.8,54.9-3.7,67.8-5.4l63.1-9.4c1.7-1.7-.1-.3,2.4-1.7,18.4-8,58.3-17.9,62.4-40-8,1.7-19.3,6.8-27.9,9.6-16.3,5.4-83.1,25.2-91.3,14.8-3.1-5.2,13.4-10.6,5-9.4Z"/><path class="cls-9" d="M425.1,808.3c1.3,6.3,6,10.3,5.1,16.7,5.8,3.6,2.9,7.7,9,15.2-1.1,1.4,2.9,1.8-2.1,1,4.2,4.4,13.8,8.8,21.4,9.8h58.7c8.7-1.4,2.2-1.3,10.4,0,5.4.9,7.6-.2,10.9-2.9,2-4.7,2.9-6.8,1.3-13.1-10.8-12-7.9,1.9-47.2.9-35.8-.8-41.5-18.7-29.5-17.2-1.8-4.2-7-11-10-16l-3.8-5.7-3.9-.5c-1.4,3.3-3.9,7.1-7.8,8.5-9.9,3.4-12.7-4.3-12.5,3.3Z"/><path class="cls-5" d="M343,481c20.7-15.4,42.2-37.5,63.2-52.4,4.6-12.7,18.2-33.2,30.5-39.8,2.9-5.9,8.6-24.5,10.3-32.1-42.8,21.1-83,88.8-104,124.3Z"/><path class="cls-8" d="M502,156.5c25.2-.3,56.3-2.5,78.3-13.8l2.3,2.8-.1-4.5c5.6-2.3,11.2-4.5,16.8-6.8,4.2-3-6.6-23.7-11.9-17.7-11.6,13.4-50.9,23.3-70.4,25.6-8.5,1-24,1.5-30.6,3-.5,4.1-1.6,8.7,2.9,10.6,3,1.1,10.1,1.7,12.7.8Z"/><path class="cls-7" d="M163.8,660.3c-3.2,1.7-.4-.2-3.5,2.3-.7.5-4.8,2.9-5.3,3.4,24,1.9,51,4.3,74.7,7.8,15.2,2.8,31.3,24.9,36.1,40.9l10.5-56.1c-9,.2-18.8,1.9-27.6,2.1-27.4.6-64-1.5-85.4-.4Z"/><path class="cls-10" d="M501.8,156.3l3,20.9c9.4.7,16,.6,28.8-1.8,3.1-3.2,7.3-4,11.9-4.9s8.4-2,12.8-3.3c7.4-2.2,19.6-5.9,26.5-7l-2.2-14.8-.1-4.5C558.9,150.2,527,156,501.8,156.3Z"/><path class="cls-2" d="M533.5,175.4l54.2,7.3c6,.5,10.7-1.1,14-4.2A15.41,15.41,0,0,0,606,165c-7.1-1.4-14.2-2.8-21.2-4.8-6.5-3.2-21.4,7-39.3,10.3C540.9,171.4,536.7,172.2,533.5,175.4Z"/><path class="cls-2" d="M128,680.3c12.3,12.1,68.3-2.4,79-10.8l-48.5-5C155.5,665.4,130.6,678.2,128,680.3Z"/><path class="cls-7" d="M584.9,217.3c-6.6,6.8-20.4,5.1-26.7,4.4-6.9,7.7,4.4,8.9,35.2,15.3s35.2,5.6,43.9,3.1c2.4-7.2-2.1-13.7-6.2-17.1-3.8-3.2-10.9-8.1-15.7-9.4C609.8,225.1,595,219.7,584.9,217.3Z"/><path class="cls-11" d="M421.5,828.4c-5.1,4.5-22.2,2.7-29.7,2a10.06,10.06,0,0,1-1.8,2.5c-.7.9-.4-.1-1.8,1.9a20.35,20.35,0,0,0-2,4.4c-.5,11.1,12.1,13.5,22.9,10.3,13-3.9,10.1-6.6,28-8.4,5.1.8,1.1.4,2.1-1-6.1-7.5-3.2-11.6-9-15.2C426.6,828.1,426.8,828.5,421.5,828.4Z"/><path class="cls-7" d="M524,605.7l16.8,2.8,2.3-.4c1.3-.7,4-3.3,3.3-5.4,12.7-7.9,38-41.4,41.2-55.6,2.3-9.9,7.6-26.1,3.8-35.4-1.6,37.6-38,74-67.4,94Z"/><path class="cls-12" d="M584.9,217.3c10.1,2.4,25,7.9,30.5-3.8-2.6-9.5-6.5-14-16.4-15.6-6.8,1.5-6.6,1.4-8.8,7.5a15.48,15.48,0,0,1-2.3,5.1c-2.7,4.5-2,.1-3,6.8Z"/><path class="cls-7" d="M532.9,826.4l9.7,3.6c2.6,1.8,6,4.5,6.9,8.4l-9.8-3.5c1.6,6.3.7,8.4-1.3,13.1,15.5-3.1,9.4,2.7,16.6,2.8-.2-5.4-2.8-7.9-4.3-11.4,12.1-2.1,11.4,3.8,18.2,5.4,2.6-9.6-11.4-29.6-36-18.4Z"/><path class="cls-11" d="M539.7,834.9l9.8,3.5a14.57,14.57,0,0,0-5.8-8.7l-10.9-3.3c-7.9,6.6-45.4,4.5-56.7,1.9-8.4-2.9-9.3-7.9-13.3-9.6-12-1.5-6.3,16.3,29.5,17.2C531.8,836.7,528.9,822.9,539.7,834.9Z"/><path class="cls-3" d="M591.3,492.5c.2,6.3.3,12.7.1,19.2,3.7,9.3-1.5,25.5-3.8,35.4,8.5-7.5,18.7-42.3,20.2-60l-16.5,5.4Z"/><path class="cls-13" d="M539.3,192.1c19.1-2.3,18.3,17.3,8.1,20-6.6,1.8-11.8-1.4-13.5-6-2.5-7.1,2-10.7,5.4-14Zm-.8-4.2c-21.8,9.6-3,39.4,13.8,26.6l5-3.5c2.4-1.9,4.1-.7,5.3-2.3,3.6-3.9-1.8-5.9-3.9-10.2S551.7,182.2,538.5,187.9Z"/><path class="cls-4" d="M425,807.8l.1.4c-.1-7.5,3.2,1.3,13-2.1,3.9-1.3,5.8-6.4,7.2-9.7l3.9.5-36-5.8c1.3,2.3,4.4,8,5.3,9.2C421.3,804.2,423,802.2,425,807.8Z"/><path class="cls-14" d="M536.6,205.7c-5.5-12.8,11.7-16,14.9-7C555,208.9,541.5,214.9,536.6,205.7Zm-3.3.9c1.7,4.6,7.6,7.2,14.2,5.4,18.9-5,8.1-19.8-2.6-21.1-6.2-.8-15.6,5.1-11.6,15.7Z"/><path class="cls-15" d="M536.6,205.7c4.9,9.2,18.4,3.2,14.9-7C548.3,189.7,531.1,192.8,536.6,205.7Z"/><path class="cls-7" d="M383.6,831.3c-1.6,2.3-2.6,1.9-4.5,4.4-1,1.2-1.7,3.3-2.8,5.3l.2,2.6,2.6.4c2.6-3.4,2.5-3.5,7.1-4.8a20.35,20.35,0,0,1,2-4.4c1.4-2,1.1-1.1,1.8-1.9a10.06,10.06,0,0,0,1.8-2.5l-8.2.9Z"/><path class="cls-9" d="M688.6,661.9c5.2,3.7,11.4,3.5,15,8.9,6.7-1.2,7.3,3.7,16.9,5.1.2,1.8,3.4-.7-.9,2.2,6.1.4,16.1-2.9,22.4-7.2l43.3-39.7c5.4-6.9.8-2.5,7.7-7,4.6-3,5.5-5.3,6.1-9.5-1.7-4.8-2.5-7-7.9-10.5-16.1-1.5-4.6,6.7-34.2,32.6-27,23.6-43.3,14.2-33.4,7.3-4.2-1.9-12.6-3.4-18.2-5l-6.7-1.6-3.2,2.3a15,15,0,0,1-.8,11.5c-5,8.9-11.6,5-6.1,10.6Z"/><path class="cls-11" d="M699.6,679.2c-.7,6.8-14.6,16.9-20.6,21.5.5,2.4.2.8.3,3,.1,1.1-.3.2,0,2.6a22.12,22.12,0,0,0,1.5,4.6c7.1,8.5,18,1.8,23.8-7.9,7-11.7,3-11.7,15-25.1,4.3-2.8,1.1-.4.9-2.2-9.5-1.4-10.2-6.4-16.9-5.1C703.2,675.4,703.6,675.6,699.6,679.2Z"/><path class="cls-7" d="M780.5,602.4l10.2-4.9a15,15,0,0,1,10.1,2.5l-9.6,4c5.4,3.5,6.1,5.7,7.9,10.5,9.3-12.7,8.8-4.3,14.1-9.2-3.8-3.8-7.3-3.9-10.9-5.5,7.5-9.7,11-4.9,17.1-8.3-4.5-8.6-28.4-13.9-38.9,10.9Z"/><path class="cls-11" d="M791.2,604.1l9.6-4a14,14,0,0,0-10.1-2.5l-10.2,4.9c-1.4,10.2-30.5,34-40.5,39.7-8.1,3.5-12.2.5-16.3,1.9-9.9,7,6.4,16.3,33.4-7.3,29.5-26,18-34.3,34.1-32.7Z"/><path class="cls-4" d="M688.3,661.6l.3.3c-5.2-5.5,2-1.7,6.9-10.8,1.9-3.6,1.2-8.1,0-11.5l3.2-2.3-29.8,20c2.5.8,8,3,9.5,3.2,4.7.9,4.6-1.7,9.9,1.1Z"/><path class="cls-7" d="M673.7,706.8c.4,2.8-.6,3.1-.4,6.3.1,1.5,1,3.6,1.5,5.8l1.9,1.8,2.2-1.5c-.4-4.2-.5-4.3,2-8.3a24.19,24.19,0,0,1-1.5-4.6c-.3-2.4.1-1.5,0-2.6a10.54,10.54,0,0,0-.3-3l-5.4,6.1Z"/><circle class="cls-16" cx="544.1" cy="201.4" r="4.7"/><path class="cls-13" d="M541,197.9c.9,6.3,5.8,5.2,2.9-.8C542.4,194.6,540.5,194.9,541,197.9Z"/><path class="cls-4" d="M493.9,649.4,512,653a5.49,5.49,0,0,1,4.3,6.5l-5.6,27.8a5.49,5.49,0,0,1-6.5,4.3L486.1,688a5.49,5.49,0,0,1-4.3-6.5l5.6-27.8A5.49,5.49,0,0,1,493.9,649.4Z"/><path class="cls-17" d="M493.9,649.3l18.2,3.7a5.4,5.4,0,0,1,4.2,6.4l-2.8,13.8a5.4,5.4,0,0,1-6.4,4.2l-18.2-3.7a5.4,5.4,0,0,1-4.2-6.4l2.8-13.8A5.4,5.4,0,0,1,493.9,649.3Z"/><path class="cls-2" d="M282.1,522.9c-7.5,4.1-45.1,26.7-67.5,36.2s-22.8,19.6,11.7,13.6,25.8-4.8,25.8-4.8-28.2,21.6-6,19.8a312.46,312.46,0,0,0,38.4-5.4s-15.3,14.7-.6,14.4a203,203,0,0,0,29.1-3s-17.4,18.3,1.2,19.5,44.4-4.8,44.4-4.8-17.4,6,1.8,10.8,46.8.9,46.8.9-3.3,9,3,10.2,45.6-.6,45.6-.6,2,2.7,7.8,3.3,27.5-5.4,49-21.8-13.1-8.4-30.1-5.8-24.3-4.8-21.6-11.7-27.3,5.7-30-3.6-31.5-1.8-36-10.8-32.4-6.6-43.5-12.3-3.3-12.9-3.3-12.9a93.82,93.82,0,0,1-27-2.1c-13.5-3.3-7.5-15.3-7.5-15.3-13,5.2-38.4,7.5-31.5-13.8Z"/><path class="cls-7" d="M534.2,605.2l-6.7-2s-50.5,33-96.5,44.1-48.8,10-48.8,10,17.8,8.3,48.8,2.8,74-26.5,96.2-41.5,29.7-22.8,33.6-29.4S534.2,605.2,534.2,605.2Z"/><path class="cls-2" d="M166.6,579.9l-137.4,47c-10.7,3.7-32.6,5.2-24.5,9.4s70.5,3.5,70.5,3.5-5.1,4.3,9.3,6.1,87.8,5,87.8,5-35.5,4.8-25.1,9.1,136.2,3.6,136.2,3.6-19.5,6.9-7.5,10.2,89.8-3.4,112.1-6,48.6-8.7,48.6-8.7-44.6-5.3-63.2-6.8S344.9,640,341,640.9s-37.8,1.2-42.9-2.4-16.8-.6-33.9-1.2-15.3-11.4-15.3-11.4-34.8,6.9-46.2,5.1-6-10.2-6-10.2-32.7,3.3-66.3.6-10.8-16.8,7.8-25.2,28.4-16.3,28.4-16.3Z"/><path class="cls-18" d="M446.7,170.7a65.31,65.31,0,0,1-5.2-18.5h1c11.8,0,21.4-12.5,21.4-27.9V31.1c0-15.3-9.7-27.9-21.4-27.9H291.2c-11.8,0-21.4,12.5-21.4,27.9v93.2c0,15.3,9.7,27.9,21.4,27.9H408.8c8.5,10,19.3,21.5,29.1,28.1,20.4,13.7,27.8,13.2,27.8,13.2S455.5,189.3,446.7,170.7Z"/><path class="cls-19" d="M339.2,19.8,312.7,75.7S323.1,98,323.4,98.6c4.4,9.9,87.7-35.6,87.7-35.6L398.8,36.4Z"/><rect class="cls-20" x="322.31" y="25.89" width="72.7" height="56.1" transform="translate(6.27 139.8) rotate(-22.25)"/><polygon class="cls-21" points="312.7 75.7 341.5 137.6 427.5 98.5 398.8 36.4 367.3 82.2 312.7 75.7"/><path class="cls-22" d="M423.8,96.3s-51.1-30.5-54.6-31.9-11.7-.2-14.4,5.3c-2.6,5.2-13.2,67.9-13.2,67.9l85.9-39.2Z"/><circle class="cls-19" cx="366.6" cy="79.8" r="4.7"/><path class="cls-23" d="M335.8,691.6l-.1-.5h0l-.1-.5a1.49,1.49,0,0,1-1.8-1.1,1.56,1.56,0,0,1,.9-1.8c.1,0,.1-.1.1-.2l-.2-.7c0-.1-.2-.2-.3-.2l-.9.2-.1.1a1.39,1.39,0,0,1-1.1,1.7,1.49,1.49,0,0,1-1.8-1.1l-.5.1h0l-.5.1a1.49,1.49,0,1,1-2.9.7l-.5.1-.5.1a1.49,1.49,0,1,1-2.9.7l-.5.1-.5.1a1.49,1.49,0,1,1-2.9.7l-.5.1-.5.1a1.49,1.49,0,1,1-2.9.7l-.5.1-.5.1a1.49,1.49,0,1,1-2.9.7l-.5.1-.5.1a1.49,1.49,0,1,1-2.9.7l-.5.1-.5.1a1.49,1.49,0,1,1-2.9.7l-.5.1-.5.1a1.49,1.49,0,1,1-2.9.7l-.5.1-.5.1a1.49,1.49,0,1,1-2.9.7l-.5.1-.5.1a1.49,1.49,0,0,1-1.1,1.8,1.56,1.56,0,0,1-1.8-.9c0-.1-.1-.1-.2-.1l-.7.2c-.1,0-.2.2-.2.3l.2.9.1.1a1.39,1.39,0,0,1,1.7,1.1,1.49,1.49,0,0,1-1.1,1.8l.1.5.1.5a1.49,1.49,0,1,1,.7,2.9l.1.5.1.5a1.49,1.49,0,1,1,.7,2.9l.1.5.1.5a1.49,1.49,0,1,1,.7,2.9l.1.5.1.5a1.49,1.49,0,0,1,.7,2.9l.1.5.1.5a1.49,1.49,0,1,1,.7,2.9l.1.5.1.5a1.49,1.49,0,1,1,.7,2.9l.1.5.1.5a1.49,1.49,0,1,1,.7,2.9l.1.5.1.5a1.49,1.49,0,1,1,.7,2.9l.1.5.1.5a1.49,1.49,0,0,1,.7,2.9l.1.5.1.5a1.49,1.49,0,0,1,1.8,1.1,1.56,1.56,0,0,1-.9,1.8c-.1,0-.1.1-.1.2l.2.7c0,.1.2.2.3.2l.9-.2.1-.1a1.39,1.39,0,0,1,1.1-1.7,1.49,1.49,0,0,1,1.8,1.1l.5-.1h0l.5-.1a1.49,1.49,0,1,1,2.9-.7l.5-.1.5-.1a1.49,1.49,0,0,1,2.9-.7l.5-.1.5-.1a1.49,1.49,0,0,1,2.9-.7l.5-.1.5-.1a1.49,1.49,0,0,1,2.9-.7l.5-.1.5-.1a1.49,1.49,0,0,1,2.9-.7l.5-.1.5-.1a1.49,1.49,0,1,1,2.9-.7l.5-.1.5-.1a1.49,1.49,0,0,1,2.9-.7l.5-.1.5-.1a1.49,1.49,0,0,1,2.9-.7l.5-.1.5-.1a1.49,1.49,0,0,1,2.9-.7l.5-.1.5-.1a1.49,1.49,0,0,1,1.1-1.8,1.56,1.56,0,0,1,1.8.9c0,.1.1.1.2.1l.7-.2c.1,0,.2-.2.2-.3l-.2-.9-.1-.1a1.39,1.39,0,0,1-1.7-1.1,1.49,1.49,0,0,1,1.1-1.8l-.1-.5-.1-.5a1.49,1.49,0,0,1-.7-2.9l-.1-.5-.1-.5a1.49,1.49,0,0,1-.7-2.9l-.1-.5-.1-.5a1.49,1.49,0,0,1-.7-2.9l-.1-.5-.1-.5a1.49,1.49,0,0,1-.7-2.9l-.1-.5-.1-.5a1.49,1.49,0,0,1-.7-2.9l-.1-.5-.1-.5a1.49,1.49,0,0,1-.7-2.9l-.1-.5-.1-.5a1.49,1.49,0,0,1-.7-2.9l-.1-.5-.1-.5a1.49,1.49,0,0,1-.7-2.9l-.1-.5-.1-.5a1.49,1.49,0,0,1-1.8-1.1A1.59,1.59,0,0,1,335.8,691.6Z"/><path class="cls-23" d="M342.3,728.7c-3.4.9-33.6,9-38.1,10.2-3.8-14.3-6.4-23.8-10.2-38.1l38.1-10.2C344.4,736.5,340.7,722.5,342.3,728.7Z"/><path class="cls-24" d="M332.1,690.6l10.2,38.1-1.8.5Zm6.6,39.1,1.8-.5-10.2-38.1Zm-1.8.5,1.8-.5-10.2-38.1Zm-1.8.5,1.8-.5-10.2-38.1Zm-1.8.5,1.8-.5-10.2-38.1Zm-1.8.4,1.8-.5-10.2-38Zm-1.9.5,1.8-.5-10.2-38.1Zm-1.8.5,1.8-.5L319.4,694Zm-1.8.5,1.8-.5-10.2-38.1Zm-1.8.5,1.8-.5L315.8,695Zm-1.8.5,1.8-.5L314,695.5Zm-1.8.5,1.8-.5L312.2,696Zm-1.8.4,1.8-.5-10.2-38.1Zm-1.9.5,1.8-.5-10.1-38.1Zm-1.8.5,1.8-.5-10.2-38.1Zm-1.8.5,1.8-.5-10.2-38.1Zm-1.8.5,1.8-.5-10.2-38.1Zm-1.8.5,1.8-.5-10.2-38.1Zm-1.8.5,1.8-.5-10.2-38.1Zm-1.8.4,1.8-.5-10.2-38.1Zm-1.9.5,1.8-.5-10.2-38.1Z"/><path class="cls-25" d="M334.6,730.8c-2.7.7-26.8,7.2-30.4,8.1-.6-2.2-1-3.6-1.6-5.8,11.3-3,19.1-5.1,30.4-8.1C334.9,732,334.4,729.8,334.6,730.8Z"/><path class="cls-26" d="M331.4,693.2a.66.66,0,0,1-.1.6,1.38,1.38,0,0,1-.4.3l-.4.1a.44.44,0,0,1-.5-.1l-1.1.6-.1-.4,1-.5h0l-.1-.2-1,.3-.1-.4,2.7-.7Zm-.6.4c.2,0,.2-.1.2-.3l-.1-.2-.9.2.1.2a.1.1,0,0,0,.1.1h.6Z"/><path class="cls-26" d="M328.9,695l2.7-.7.3,1.2-.4.1-.2-.8-.7.2.1.6-.4.1-.1-.6-.7.2.2.8-.4.1Z"/><path class="cls-26" d="M332.2,696.3a.44.44,0,0,1-.1.5,1.38,1.38,0,0,1-.4.3l-.4.1a.75.75,0,0,1-.5-.1c-.2-.1-.3-.2-.3-.4l-.1-.2-1,.3-.1-.4,2.7-.7Zm-.6.5c.1,0,.1-.1.2-.1v-.2l-.1-.2-.9.2.1.2a.1.1,0,0,0,.1.1h.6Z"/><path class="cls-26" d="M329.9,698.7a.75.75,0,0,1,.1-.5c.1-.2.2-.3.4-.3l2.1-.6.1.4-2.1.6a.1.1,0,0,0-.1.1v.2a.1.1,0,0,0,.1.1h.2l2.1-.6.1.4-2.1.6a.75.75,0,0,1-.5-.1C330,699,329.9,698.9,329.9,698.7Z"/><path class="cls-26" d="M330.2,699.7l2.7-.7.2.6v.5q0,.15-.3.3c-.1,0-.2.1-.3.1H332a.1.1,0,0,1-.1-.1c0,.1-.1.2-.1.3l-.2.2c-.1,0-.1,0-.2.1s-.3.1-.5,0-.2-.1-.3-.2-.2-.2-.2-.3Zm.5.4v.2c0,.1.1.2.3.2h.2c.2,0,.3-.1.3-.2s.1-.2,0-.3v-.2Zm1.2-.4v.2c0,.1.1.2.3.2h.2a.22.22,0,0,0,.2-.2v-.4Z"/><path class="cls-26" d="M331,702.6l-.3-1.1,2.7-.7.1.4-2.3.6.2.7Z"/><path class="cls-26" d="M331.1,703.3l-.1-.4,2.7-.7.1.4Z"/><path class="cls-26" d="M332.2,704.8h-.4v.2l-.4.1a.44.44,0,0,1,.1-.5c-.1-.1-.1-.2-.2-.3a.75.75,0,0,1,.1-.5c.1-.2.2-.3.4-.3l1.5-.4a.75.75,0,0,1,.5.1c.2.1.3.2.3.4a.75.75,0,0,1-.1.5c-.1.2-.2.3-.4.3Zm1.4-.8a.1.1,0,0,0,.1-.1v-.2a.1.1,0,0,0-.1-.1h-.2l-1.5.4a.1.1,0,0,0-.1.1v.2a.1.1,0,0,0,.1.1h.2Z"/><path class="cls-26" d="M331.8,706a.75.75,0,0,1,.1-.5c.1-.2.2-.3.4-.3l2.1-.6.1.4-2.1.6a.1.1,0,0,0-.1.1v.2a.1.1,0,0,0,.1.1h.2l2.1-.6.1.4-2.1.6a.75.75,0,0,1-.5-.1C332,706.3,331.9,706.1,331.8,706Z"/><path class="cls-26" d="M332.1,707l2.7-.7.3,1.2-.4.1-.2-.8-.7.2.1.6-.4.1-.1-.6-.7.2.2.8-.4.1Z"/><path class="cls-26" d="M332.7,709.1l-.1-.4,2.7-.7.3,1.2-.4.1-.2-.8-.7.2.1.6-.4.1-.1-.6Z"/><path class="cls-26" d="M335.9,710.1a.66.66,0,0,1-.1.6,1.38,1.38,0,0,1-.4.3l-.4.1a.44.44,0,0,1-.5-.1l-1.1.6-.1-.4,1-.5h0l-.1-.2-1,.3-.1-.4,2.7-.7Zm-.6.4c.2,0,.2-.1.2-.3l-.1-.2-.9.2.1.2a.1.1,0,0,0,.1.1h.6Z"/><path class="cls-26" d="M334.2,712.2l-.7.1-.1-.4,2.9-.3.2.6-2.6,1.2-.1-.4.6-.3Zm1.6-.1-1.1.1.1.3Z"/><path class="cls-26" d="M336.8,713.4l-1.7,1,1.8-.5.1.4-2.7.7-.1-.4,1.6-1-1.7.5-.1-.4,2.7-.7Z"/><path class="cls-26" d="M334.6,716.2a.75.75,0,0,1,.1-.5c.1-.2.2-.3.4-.3l1.5-.4a.75.75,0,0,1,.5.1c.2.1.3.2.3.4a.75.75,0,0,1-.1.5c-.1.2-.2.3-.4.3l-.3.1-.1-.4.3-.1a.1.1,0,0,0,.1-.1v-.2a.1.1,0,0,0-.1-.1h-.2l-1.5.4a.1.1,0,0,0-.1.1v.2a.1.1,0,0,0,.1.1h.2l.4-.1.1.4-.4.1a.75.75,0,0,1-.5-.1A.54.54,0,0,1,334.6,716.2Z"/><path class="cls-26" d="M335.6,717.4l-.7.1-.1-.4,2.9-.3.2.6-2.6,1.2-.1-.4.6-.3Zm1.5-.2-1.1.1.1.3Z"/><path class="cls-26" d="M335.4,719.3l-.1-.4,2.7-.7.1.4Z"/><path class="cls-26" d="M336.6,720.8c-.2.1-.4,0-.5,0s-.2-.1-.3-.2-.1-.1-.1-.2V720c0-.1.1-.2.2-.3s.2-.1.4-.2l.1.4c-.2.1-.3.1-.3.2s-.1.1,0,.2.1.1.2.2h.2c.1,0,.2-.1.3-.2s.1-.3.2-.5a1.38,1.38,0,0,1,.3-.4.52.52,0,0,1,.4-.2.61.61,0,0,1,.6.1.52.52,0,0,1,.2.4v.4c0,.1-.1.2-.2.3s-.2.1-.3.2l-.2-.4a.22.22,0,0,0,.2-.2v-.2a.1.1,0,0,0-.1-.1h-.2q-.15,0-.3.3c0,.1-.1.1-.1.2a.31.31,0,0,0-.1.2c-.1.1-.2.2-.2.3l-.1.1C336.7,720.7,336.6,720.8,336.6,720.8Z"/><path class="cls-26" d="M336,721.3l2.7-.7.3,1.2-.4.1-.2-.8-.7.2.1.6-.4.1-.1-.6-.7.2.2.8-.4.1Z"/><path class="cls-27" d="M313.3,715.1l.7-.2,2.9,10.9-.7.2Zm11.5,8.6.7-.2-2.9-10.9-.7.2Zm-19-7h-.2v.2h.2Zm.2-.3.2.6-.6.2-.2-.6Zm-.1.2-.4.1.1.4.4-.1Zm.7-.1h-.2v.2h.2Zm.1-.3.2.6-.6.2-.2-.6Zm0,.2-.4.1.1.4.4-.1Zm.8-.4.2.6-.6.2-.2-.6Zm-.1.1-.4.1.1.4.4-.1Zm0,.2h-.2v.2h.2Zm.9-.5.2.6-.6.2-.2-.6Zm-.1.1-.4.1.1.4.4-.1Zm-.1.2h-.2v.2h.2Zm.8-.2h-.2v.2h.2Zm.2-.3.2.6-.6.2-.2-.6Zm-.1.1-.4.1.1.4.4-.1Zm.8-.3.2.6-.6.2-.2-.6Zm0,.1-.4.1.1.4.4-.1Zm-.1.1h-.2v.2h.2Zm.9-.4.2.6-.6.2-.2-.6Zm-.1.1-.4.1.1.4.4-.1Zm0,.1h-.2v.2h.2Zm.9-.4.2.6-.6.2-.2-.6Zm-.1.1-.4.1.1.4.4-.1Zm-.1.1H311v.2h.2Zm.8-.2h-.2v.2h.2Zm.2-.2.2.6-.6.2-.2-.6Zm-.1.1-.4.1.1.4.4-.1Zm.3-.2.6-.2.2.6-.6.2Zm.2.4.4-.1-.1-.4-.4.1Zm.1-.1h.2v-.2h-.2Zm1-.7.2.6-.6.2-.2-.6Zm0,.2-.4.1.1.4.4-.1Zm-.1.1h-.2v.2h.2Zm8.6-2.3H322v.2h.2Zm.1-.3.2.6-.6.2-.2-.6Zm0,.2-.4.1.1.4.4-.1Zm.7-.1h-.2v.2h.2Zm.3.3-.6.2-.2-.6.6-.2Zm-.3-.4-.4.1.1.4.4-.1Zm.8-.1h-.2v.2h.2Zm.1-.3.2.6-.6.2-.2-.6Zm-.1.2-.4.1.1.4.4-.1Zm.7-.1h-.2v.2h.2Zm.2-.3.2.6-.6.2-.2-.6Zm-.1.1-.4.1.1.4.4-.1Zm.7,0h-.2v.2h.2Zm.2-.3.2.6-.6.2-.2-.6Zm-.1.1-.4.1.1.4.4-.1Zm.8-.3.2.6-.6.2-.2-.6Zm0,.1-.4.1.1.4.4-.1Zm-.1.2h-.2v.2h.2Zm.8-.2h-.2v.2h.2Zm.1-.3.2.6-.6.2-.2-.6Zm-.1.1-.4.1.1.4.4-.1Zm.9-.3.2.6-.6.2-.2-.6Zm-.1.1-.4.1.1.4.4-.1Zm-.1.1h-.2v.2h.2Zm1-.4.2.6-.6.2-.2-.6Zm-.1.1-.4.1.1.4.4-.1Zm-.1.1h-.2v.2h.2Zm.8-.2H329v.2h.2Zm.1-.2.2.6-.6.2-.2-.6Zm0,.1-.4.1.1.4.4-.1Zm.7-.1h-.2v.2h.2Zm.1-.2.2.6-.6.2-.1-.7Zm-.1.1-.4.1.1.4.4-.1Zm-25.7.9,24.1-6.4-.1-.3-24.1,6.4Zm-1.3-2.2,25.4-6.8v-.1L303,708.7Zm-.5-4,24.3-6.5-.1-.2-24.3,6.5Zm-.2-.5-.4-.2.3-.1.1-.2h.2l-.1-.2c0-.1,0-.2.2-.3s.3.1.3.2h0l2.1-.6h0c0-.1,0-.2.2-.3s.3.1.3.2h0l2.1-.6h0c0-.1,0-.2.2-.3s.3.1.3.2h0l2.1-.6h0c0-.1,0-.2.2-.3s.3.1.3.2h0l2.1-.6h0c0-.1,0-.2.2-.3s.3.1.3.2h0l2.1-.6h0c0-.1,0-.2.2-.3s.3.1.3.2h0l2.1-.6h0c0-.1,0-.2.2-.3s.3.1.3.2h0l2.1-.6h0c0-.1,0-.2.2-.3s.3.1.3.2h0l2.1-.6h0c0-.1,0-.2.2-.3s.3.1.3.2h0l2.1-.6h0c0-.1,0-.2.2-.3s.3.1.3.2l.1.2h.2l.2.1.3-.1-.2.4Zm23.5-6.9.3-.1v-.2s-.1-.2-.2-.1-.1.2-.1.2Zm-2.1.6,2.1-.6v-.1l-2.1.6Zm-.5.1.3-.1v-.2s-.1-.2-.2-.1-.1.2-.1.2Zm-2.1.6,2.1-.6V698l-2.1.6Zm-.5.1.3-.1v-.2s-.1-.2-.2-.1-.1.2-.1.2Zm-2.1.6,2.1-.6v-.1l-2.1.6Zm-.4.1.3-.1v-.2s-.1-.2-.2-.1-.1.2-.1.2Zm-2.2.6,2.1-.6v-.1l-2.1.6Zm-.4.1.3-.1v-.2s-.1-.2-.2-.1-.1.2-.1.2Zm-2.2.6,2.1-.6v-.1l-2.1.6Zm-.4.1.3-.1v-.2s-.1-.2-.2-.1-.1.2-.1.2Zm-2.1.6,2.1-.6v-.1l-2.1.6Zm-.5.1.3-.1v-.2s-.1-.2-.2-.1-.1.2-.1.2Zm-2.1.6,2.1-.6v-.1l-2.1.6Zm-.5.1.3-.1V702s-.1-.2-.2-.1-.1.2-.1.2Zm-2.1.5,2.1-.6v-.1l-2.1.6Zm-.4.2.3-.1v-.2s-.1-.2-.2-.1-.1.2-.1.2Zm-2.2.5,2.1-.6v-.1l-2.1.6Zm-.4.1.3-.1v-.2s-.1-.2-.2-.1-.1.2-.1.2Zm25.6-2.4.1.3v.1l-25.4,6.8v-.1l-.1-.3.5-.1-.1-.4v-.1l-.7-2.5,1.1-.3h0l1.5-.4,1.1-.3.5,1.9,1.5-.4-.4-1.7-1.5.4-.1-.2,1.5-.4h0l1.1-.3.5,1.9,1.5-.4-.4-1.7-1.5.4-.1-.2,1.5-.4h0l1.1-.3.5,1.9,1.5-.4-.4-1.7-1.5.4-.1-.2,1.5-.4h0l1.1-.3.5,1.9,1.5-.4-.4-1.7-1.5.4-.1-.2,1.5-.4h0l1.1-.3.5,1.9,1.5-.4-.4-1.7-1.5.4-.1-.2,1.5-.4h0l1.1-.3.5,1.9,1.5-.4-.4-1.7-1.5.4-.1-.2,1.5-.4h0l1.1-.3.5,1.9,1.5-.4-.4-1.7-1.5.4-.1-.2,1.5-.4h0l1.1-.3.5,1.9,1.5-.4-.4-1.7-1.5.4-.1-.2,1.5-.4h0l1.1-.3.7,2.5h0v.1l.1.4Zm-17.3,3.6h.2l-.4-1.5h.2l.4,1.5.2-.1-.4-1.5h.2l.4,1.5h.2l-.4-1.7-.9.3Zm.1.5.9-.3-.1-.4-.9.3Zm-4.1,1.2,1.5-.4-.1-.5-1.5.4Zm-1.2-.4h.2l-.4-1.5h.2l.4,1.5.2-.1-.4-1.5h.2l.4,1.5h.2l-.4-1.7-.9.3Zm.1.6.9-.3-.1-.4-.9.3Zm-1.7-.1,1.5-.4-.4-1.7-1.5.4Zm.2.6,1.5-.4-.1-.5-1.5.4Zm-1.2-.4h.2l-.4-1.5h.2l.4,1.5.2-.1-.4-1.5h.2l.4,1.5h.2l-.4-1.7-.9.3Zm.1.5.9-.3-.1-.4-.9.3Zm2-.3-1.6.4.1.4,1.6-.4Zm2-.5-1.6.4.1.4,1.6-.4Zm2-.6-1.6.4.1.4,1.6-.4Zm0-.6-.9.3.1.4.9-.3Zm-.4-1.8-.9.3.4,1.7h.2l-.4-1.5h.2l.4,1.5.2-.1-.4-1.5h.2l.4,1.5h.2Zm.7,2.3,1.5-.4-.1-.5-1.5.4Zm1.7-.4-1.6.4.1.4,1.6-.4Zm2-.5-1.6.4.1.4,1.6-.4Zm.2-.7-1.5.4.1.5,1.5-.4Zm5.2-1.5h.2l-.4-1.5h.2l.4,1.5.2-.1-.4-1.5h.2l.4,1.5h.2l-.4-1.7-.9.3Zm.1.5.9-.3-.1-.4-.9.3Zm-2.7.2h.2l-.4-1.5h.2l.4,1.5.2-.1-.4-1.5h.2l.4,1.5h.2l-.4-1.7-.9.3Zm.2.5.9-.3-.1-.4-.9.3Zm-1.6.5,1.5-.4-.1-.5-1.5.4Zm-1.2-.3h.2l-.4-1.5h.2l.4,1.5.2-.1-.4-1.5h.2l.4,1.5h.2l-.4-1.7-.9.3Zm.2.5.9-.3-.1-.4-.9.3Zm1.6-.3-1.6.4.1.4,1.6-.4Zm2-.5-1.6.4.1.4,1.6-.4Zm0-.1,1.5-.4-.1-.5-1.5.4Zm2-.4-1.6.4.1.4,1.6-.4Zm2-.6-1.6.4.1.4,1.6-.4Zm-.1-.6-1.5.4.1.5,1.5-.4Zm3.8-.5,1.5-.4-.1-.5-1.5.4Zm-1.1-.3h.2l-.4-1.5h.2l.4,1.5.2-.1-.4-1.5h.2l.4,1.5h.2l-.4-1.7-.9.3Zm.1.5.9-.3-.1-.4-.9.3Zm-1.5.5,1.5-.4-.1-.5-1.5.4Zm-1.2-.3h.2l-.4-1.5h.2l.4,1.5.2-.1-.4-1.5h.2l.4,1.5h.2l-.4-1.7-.9.3Zm.1.5.9-.3-.1-.4-.9.3Zm1.9-.3-1.6.4.1.4,1.6-.4Zm2-.5-1.6.4.1.4,1.6-.4Zm2-.6-1.6.4.1.4,1.6-.4Zm.1-.7-.9.3.1.4.9-.3Zm-.5-1.7-.9.3.4,1.7h.2l-.4-1.5h.2l.4,1.5.2-.1-.4-1.5h.2l.4,1.5h.2Zm-23.1,10.1,24.1-6.4.5,1.8-24.1,6.4Zm.6,1.6,23.8-6.4-.4-1.5-23.8,6.4Zm.1-.3,23.3-6.2-.3-1-23.3,6.2Zm18.6,2.4,7.5-2,2.9,10.9-2.1.6-.2-.8,2.1-.5v-.1l-2.1.5-.6-2.2,2.1-.5v-.1l-1.8.5-.1-.4-.3.1v-.1h.1v-.1h-.1l-.1-.2-3.2.9.1.2h-.1v.1h.1v.1l-.3.1.1.4-1.8.5v.1l2-.5v-.1l3.2-.9v.1l-3.2.8.6,2.1,3.2-.8v.1l-3.2.8h-.1l-2,.5v.1l2-.5.2.8-2.1.6Zm3,10.8,1.9-.5-.2-.6-1.9.5Zm-.3-.9,1.9-.5-.5-2-1.9.5Zm6.8-4-1.9.5.5,2,1.9-.5Zm.6,2.4-1.9.5.2.6,1.9-.5Zm-8-.7,1.7-.4-.1-.4h.1l-.1-.2h.1l-.1-.2,3.4-.9.1.2h.1l.1.2h.1l.1.4,1.7-.4-2-7.5-7.3,2Zm-15.5,4.2v.1l3.2-.9v-.1Zm-4.1-7.1,7.5-2,2.9,10.9-2.1.6-.2-.8,2.1-.5v-.1l-2.1.5-3.2.9-2,.5v.1l2-.5.2.8-2.1.6Zm3,10.8,1.9-.5-.2-.6-1.9.5Zm7.1-2.5-1.9.5.2.6,1.9-.5Zm-6-1-1.9.5.5,2,1.9-.5Zm5.4-1.4-1.9.5.5,2,1.9-.5Zm-7.4,1.6,1.7-.4-.1-.4h.1l-.1-.2h.1l-.1-.2,3.4-.9.1.2h.1l.1.2h.1l.1.4,1.7-.4-2-7.5-7.3,2Zm0,.3,2-.5.6,2.1,3.2-.9-.6-2.1,2.1-.5V723l-1.8.5-.1-.4-.3.1v-.1h.1V723h-.1l-.1-.2-3.2.9.1.2h-.1v.1h.1v.1l-.3.1.1.4-1.8.5Zm18.7-8.2c.1-.1.3-.2.3-.3v-.3a1.42,1.42,0,0,1-.2.4c0,.1-.1,0-.1,0s.3-.7.4-.6.1.4.1.4l.4.1a4.71,4.71,0,0,1-.2-.5,3.63,3.63,0,0,1-.7-.3,3.71,3.71,0,0,1-.2-.9c.1,0,.3.7.4.7s.6.1.6.1-.1-.4,0-.4h-.3c-.1-.1.3-.7.3-.8s-.4-.7-.5-.7l-.3.1s.3.1.2.1-.6-.1-.6-.2a6.66,6.66,0,0,1,.7-.3h0s-.2-.2-.2-.3.2-.3.3-.2a1.44,1.44,0,0,1,.2.3,1.58,1.58,0,0,1,0-.7.35.35,0,0,1,.2-.1v-.2a.1.1,0,0,1-.1-.1c0-.1,0-.1.2-.2s.2,0,.2.1a.35.35,0,0,1-.1.2v.1a.85.85,0,0,1,.7,0c.4.1,1.2.4,1.2.4l-.3.3a.14.14,0,0,1-.2,0,.37.37,0,0,1-.3.2H328s0,.1-.2.2-.3-.1-.4-.1h0a5.74,5.74,0,0,0,.4.7,3.21,3.21,0,0,0,.5.3c.1,0,1,.1,1,.2s-.9.1-1.1,0a4.17,4.17,0,0,1-.6-.2s-.3.3-.2.4.7-.2.7-.1a3,3,0,0,1-.6.3h0a1.42,1.42,0,0,0,.2.4h.1c.1,0,.1.3.1.3l.1.2a.1.1,0,0,1,.1-.1c0-.1-.1-.4,0-.4a.37.37,0,0,1,.3-.1c.1,0,.1.4.1.4h0a.49.49,0,0,1,.1-.3l.2-.1v-.4c0-.1.3-.1.3,0s.1.4.1.5a4.89,4.89,0,0,1,.7,1.1c-.1.1-.6-.6-.6-.6l.1.5.2.2h-.1l.4,1.2h-.1l-.6-1.1.1.6.4.6h-.2l-.2-.2v.2h-.2l-.7-.7-.1.2.3.7h-.1a6.89,6.89,0,0,1-.3-.8.49.49,0,0,1,.1-.3l-.3-.3-.1.6.4.9h-.1a5.58,5.58,0,0,1-.5-.8v-.1l-.2.3-.1.9h-.2v-1a2.19,2.19,0,0,1,.3-.5l-.4-.1.1,1.4h-.1s-.2-1-.3-1.4c-.1.1-.2.1-.2.2A.21.21,0,0,1,326.3,716.8Zm2.6-.2a.35.35,0,0,1,.1.2l-.1-.5v-.2a.1.1,0,0,1-.1-.1S328.8,716.5,328.9,716.6Zm-.4.4c.3.4.6.8.7.9l-.1-.5c-.1-.1-.1-.1-.2-.1l-.4-.4Zm-20,3.7a4.17,4.17,0,0,0,.6.2l.2-.4a.35.35,0,0,0-.2-.1.19.19,0,0,1-.1-.3c0-.1.4-.2.4-.1a.49.49,0,0,1,.1.3h0c.1,0,.3.1.3.2a.31.31,0,0,0,.1.2h0a5.64,5.64,0,0,0,.1-.7.31.31,0,0,1,.1-.2h.2a1,1,0,0,1-.1-.3c0-.1.1-.1.1-.2s.2,0,.2.1v.3h.1c.2,0,.3.2.4.3s.4,1.4.4,1.4l-.1.1.4,1.1h-.2l-.5-1,.2,1.1H311l-.3-1-.3.2s-.2-.9-.3-1.4c0,.1-.1.2-.1.3l-.1.1v.1c.1-.1.2,0,.3.1s0,.2-.1.2H310c.1.2.1.4.2.6l.2.2a.31.31,0,0,1,.1-.2.19.19,0,0,1,.3,0c.1.1.1.4,0,.4s-.2.1-.3,0a1,1,0,0,0-.3-.1v.1a.75.75,0,0,1,.3.3c0,.1-.4.3-.4.3H310l.2-.3-.3-.2v.5l-.5.1h-.1a.31.31,0,0,1,.1-.2,6.05,6.05,0,0,1-.2-1.5c0-.1.1-.2.2-.3l-.2-.4a.35.35,0,0,1-.2.1C309.1,721,308.5,720.7,308.5,720.7Zm1.5,1.5Zm1.3-2.6h0c-.1,0-.4-.1-.5-.1s-.1-.3-.2-.3a.31.31,0,0,0-.2-.1,1,1,0,0,1-.3.1c-.1,0,0,.1,0,.1l.3-.1h.1a1.42,1.42,0,0,0,.2.4c0,.1.5.3.5.3a1.42,1.42,0,0,0,.2.4v.7a15.6,15.6,0,0,0,.5,1.6h.1l-.2-1.5.5,1.2h.1s-.2-1.3-.3-1.6a1.07,1.07,0,0,0-.3-.5,2.54,2.54,0,0,1-.2-.7h-.1s.1-.2,0-.3-.3,0-.3,0A2.27,2.27,0,0,0,311.3,719.6Zm-2.7,0c0,.1-.1.1-.1.2s.2.1.2.1l-.1.3a17.1,17.1,0,0,1,1.4-1.1,2.85,2.85,0,0,0,.4-.8s.1.5.2.5.5-.5.5-.5-.1-.1-.1,0a1.44,1.44,0,0,1-.3.2,1.42,1.42,0,0,0-.2-.4c-.1-.1-.2,0-.2-.1s.1-.1.1-.2-.3-.2-.4-.1,0,.4.1.4a.35.35,0,0,0-.2-.1c-.1.1-.3.3-.4.2s-.4-.3-.5-.2.4.4.5.4a1.47,1.47,0,0,0,.4-.2,4.33,4.33,0,0,0-.1.5c-.1.1-.3,0-.5.2s-.9.8-.8.8C308.3,719.6,308.6,719.5,308.6,719.6Zm4-10.2c-.1,0-.2-.1-.4-.1a.64.64,0,0,0-.5.5,2.19,2.19,0,0,0,.5.3h0v-.3C312.3,709.6,312.5,709.5,312.6,709.4Zm1.2-.4h0c-.1,0-.3-.1-.4,0h0a.1.1,0,0,0,.1.1h.1C313.6,709,313.8,709,313.8,709Zm-1.2,1.7v-.3c0-.1,0-.1.1-.2-.1,0-.1,0-.2-.1a1,1,0,0,0-.3.1c-.2.1-.1.3-.1.4s.2.2.2.3-.1.2,0,.4.3,1.1.4,1a4.08,4.08,0,0,1,.2-.7h-.1l-.1-.1c-.1-.1-.1-.4-.1-.5S312.5,710.8,312.6,710.7Zm2.7-2.2c.1-.1-.2,0-.3,0h-.1v.1h0v.1C315.1,708.7,315.3,708.6,315.3,708.5Zm-2.6,3,.4-1a.75.75,0,0,0,.3-.3,2.25,2.25,0,0,0,.1-.7,2.07,2.07,0,0,0,.6-.2,4,4,0,0,0,.3-.4l.4-.1v-.1c0-.1-.4.2-.4.2s-.3.3-.4.3-.5.1-.6.1a.35.35,0,0,0-.2.1l.1-.1c.1,0,0-.2-.1-.2s-.1-.1-.2,0,.1.3,0,.4c-.4.2-.5.4-.5.5s.5.2.5.1l-.3-.2.3-.1v.3a1.42,1.42,0,0,1-.2.4.35.35,0,0,0,.1.2,1.42,1.42,0,0,1-.2.4A.48.48,0,0,0,312.7,711.5Zm7.9-4.4c-.1.1-.2.2-.3.2a.73.73,0,0,1,.6.2c.1.1.1.1.1.2v.1c.1-.2.3-.4.3-.5A.62.62,0,0,0,320.6,707.1Zm-1.2.4h0l.1-.1h0c-.2,0-.3.2-.4.2h.1C319.1,707.6,319.3,707.5,319.4,707.5Zm-1.5.3h0c-.2.1-.4.1-.3.2h.3v-.2Zm3.3.1a1,1,0,0,0-.3.1c0,.1-.1.1-.1.2l.1.1a.37.37,0,0,1,.1.3c.1.1.2.2.3.2a.76.76,0,0,1,.2.5v.1l-.1.1c.2.2.4.5.5.5s-.1-.8-.2-1-.2-.2-.2-.3.1-.2,0-.4S321.4,707.9,321.2,707.9Zm-2.6-.2s-.5,0-.5.1,0,.1.1.1a1.42,1.42,0,0,0,.4-.2c0,.1.4.3.5.3a4.17,4.17,0,0,0,.6-.2,2.88,2.88,0,0,0,.4.6,1,1,0,0,0,.4.1s.8.7.8.6a.49.49,0,0,0-.1-.3,4,4,0,0,0-.4-.3.31.31,0,0,0-.1-.2c-.1-.1-.3-.3-.4-.3s-.2-.2-.1-.3l.4-.1-.2.3s.3-.3.3-.4-.3-.2-.7-.2c-.1,0,0-.3-.2-.3s-.2,0-.2.1v.3h.1a.31.31,0,0,0-.2.1c-.1,0-.5.2-.6.2C319,707.8,318.7,707.7,318.6,707.7Zm-13.3,4.2,5.2-1.4.7,2.5-5.2,1.4Zm.7,2.3,5-1.3-.6-2.3-5,1.3Zm15.4-7.6,7.5-2,1.3,4.8-7.5,2Zm1.3,4.6,7.3-2-1.2-4.6-7.3,2Zm-18.8,0,7.5-2,1.3,4.8-7.5,2Zm1.3,4.7,7.3-2-1.2-4.6-7.3,2Zm17.5-8.7,5.2-1.4.7,2.5-5.2,1.4Zm.7,2.4,5-1.3-.6-2.3-5,1.3Zm-17.3,3.3a4,4,0,0,0,.3.4c.1,0-.1-.4-.2-.5s-.2-.1-.1-.1a.35.35,0,0,0-.2-.1v.2l.1.5.1.1c.1,0,.1.4.2.5h.1C306.4,713.8,306.1,712.9,306.1,712.9Zm4.4-.9a1,1,0,0,1,.1.4s-.1-.1-.1,0v.4l-.3.1h-.1s-.2-.2-.2-.3v-.4s-.1.3-.2.3v.4h-.1v-.5a1,1,0,0,1,.1-.3v-.3c0,.1-.1.1-.1.2h-.2v.3a2.57,2.57,0,0,0,.2.5v.1l-.3.1-.1-.1v-.1h-.1c-.1,0,0,.1,0,.1a.1.1,0,0,1-.1.1c-.1,0-.1,0-.2.1h-.1a.1.1,0,0,1-.1-.1h0a.31.31,0,0,1-.1-.2v-.1l-.1.1v.3h0a.35.35,0,0,1,.2.1h0l-.2.1h-.1l-1.6.4.1-.1v-.3c0-.1.1-.1.1-.2s-.2-.1-.2-.3a.44.44,0,0,1,.1-.3,1,1,0,0,1,.4-.1c0-.1-.1-.3-.1-.4a.1.1,0,0,1,.1-.1v-.1a.35.35,0,0,1,.2-.1s.1.2,0,.2a1,1,0,0,1,.1.3v.1h.1a.76.76,0,0,1,.2-.4.19.19,0,0,1,.3.1c0,.1.1.4,0,.5s-.2-.2-.2-.2a2.27,2.27,0,0,0-.1.4c0,.1.2.1.3.2a.1.1,0,0,1,.1.1v-.1c0-.1.2-.3.2-.3s0-.2-.1-.2v-.1l-.1-.1.1-.1c-.1-.1-.1-.2,0-.2a.14.14,0,0,1,.2,0v.2h.1a.75.75,0,0,1,.1.5c0,.1-.1.1-.1.2a.49.49,0,0,0,.1.3h0s.1-.3.3-.3a.31.31,0,0,1,.2-.1v-.6l-.2.1c0,.1,0,.3-.1.3s0-.3,0-.4a.22.22,0,0,1,.2-.2l.2-.1s-.1-.2,0-.2.2.1.2.1a.31.31,0,0,0,.1.2v.1h.1a.35.35,0,0,0,.1-.2v-.3s.1-.1.1,0l.1.2a2.57,2.57,0,0,1,.2.5v.5l.2.2c0-.1-.1-.6-.1-.6s-.1-.2-.2-.4l.3-.3C310.3,711.6,310.4,711.8,310.5,712Zm-2.5,1.2a1.44,1.44,0,0,0-.3-.2h-.4a.35.35,0,0,1-.2-.1l-.3.1s.1,0,0,.1a1.44,1.44,0,0,0-.2.3v.1l.2-.2c.1,0,0-.2.1-.2s.3,0,.3.1l-.1.1h.1l-.1.2h.2v-.1s0-.2.1-.2a.37.37,0,0,1,.3.1c0,.1,0,.1.1.1s0-.2.1-.2a.1.1,0,0,1,.1.1c-.1.1-.1,0,0-.1Zm16.7-4.9c0-.1-.1-.6-.2-.6a.31.31,0,0,0-.2-.1v-.2s-.2-.1-.2,0v.2H324v-.3a.1.1,0,0,0-.1.1v.4h0a.35.35,0,0,0-.1-.2c0-.1-.1,0-.1,0s0-.2-.1-.2-.1,0-.1,0l.1.2a.35.35,0,0,0-.1.2c0,.1.2.2.2.3l.1.4v.1l.1.5h.1l-.1-.4h.1l.2.4h.1l-.1-.5a2,2,0,0,1-.1-.5s0-.1.1,0l.2,1h.1v-.6l.2.5h.1l-.1-.6h0c.1.1.4.5.4.5h.1s-.3-1.1-.3-1.2h0c-.4.2-.3.6-.2.6C324.6,708.4,324.7,708.4,324.7,708.3Zm1.7-.4c0,.1,0,.1-.1.1h.1l.1.5h-.1l-.1-.3-1.5.4.1.3h-.2l-.1-.5h0v-.1c0-.1-.1-.3,0-.4a.76.76,0,0,1,.2-.5c.1-.1.3-.1.3,0s0,.2.1.2h.4s0,.2-.1.1a2,2,0,0,1-.5-.1l.1.4h0c.2-.1.1,0,.2-.1s.2-.2.4-.3l-.1-.4s-.2-.2-.2-.3,0-.2.1-.2l.2.2a.14.14,0,0,1,.2,0c.1,0,.2.4.3.7S326.4,707.9,326.4,707.9Zm-.5.3h0c-.2,0-.5.1-.7.1h0Zm2.2-.1h0l-.3-.4h-.1v.5h-.1l-.1-.5h-.1a2.27,2.27,0,0,1-.1-.4.1.1,0,0,1,.1-.1v0a1,1,0,0,1-.3-.1v.2c0,.1.1.4.1.5a4.17,4.17,0,0,1-.2.6h-.1l.1-.4h-.2a4.33,4.33,0,0,1-.1-.5v-.1l-.1.1.1.1c0,.1.2.8.2.8h-.1l-.1-.4h0v.4h-.1V708h-.1a2.57,2.57,0,0,1-.2-.5.35.35,0,0,1,.1-.2,1,1,0,0,1-.1-.3.1.1,0,0,1,.1-.1.35.35,0,0,1-.1-.2s.1-.2.2-.1.1.2.1.2a.31.31,0,0,1,.2.1c0,.1.1.2.1.3h0a1.34,1.34,0,0,1,.1-.5.36.36,0,0,1,.3-.2h.1v-.1s.1-.1.1,0a.35.35,0,0,0,.1.2.1.1,0,0,1,.1.1,1,1,0,0,0,.1.3l-.1.1a.1.1,0,0,1,.1.1A9.2,9.2,0,0,1,328.1,708.1Zm-.7-1.3a.35.35,0,0,0-.2.1l.1.2a.44.44,0,0,0,.1-.3Zm-11.6,1.9a4.11,4.11,0,0,0-1.9,1.6,5.12,5.12,0,0,0-.9,3.8l.9-.2a4,4,0,0,1,2.3-4.3l-.1-.3h0Zm6.7,2.9a5.25,5.25,0,0,0-2.7-2.8,4.68,4.68,0,0,0-2.5-.4l.1.6h0l.1.3a4.18,4.18,0,0,1,4.2,2.6Zm-8.8-1.4a4.89,4.89,0,0,1,2-1.6l-.1-.1a5.89,5.89,0,0,0-2,1.6,4.63,4.63,0,0,0-1,3l-1-3.8,4-1.1-.1-.1-4.1,1.1,1.3,5-7.6,2,.2.2,8.5-2.3v-.3l-1.1.3A5.37,5.37,0,0,1,313.7,710.2Zm7.6-3.6-4.1,1.1v.1l4-1.1,1,3.8a5,5,0,0,0-2.4-2.1,4.89,4.89,0,0,0-2.6-.4v.1a4.68,4.68,0,0,1,2.5.4,5.18,5.18,0,0,1,2.8,3l-1.1.3.2.2,8.5-2.3v-.3l-7.6,2Zm-5.1,3,1.2-.3-.1-.3-1.2.3Zm.9-.6-.3-1.2h-.1l.3,1.2Zm-.8.2L316,708h-.1l.3,1.2Zm-11-4a.67.67,0,1,1-.8-.5A.89.89,0,0,1,305.3,705.2Zm-.2.1a.47.47,0,1,0-.9.3.55.55,0,0,0,.6.4C305,705.8,305.2,705.6,305.1,705.3Zm2.3.1a.67.67,0,1,1,.5-.8A.75.75,0,0,1,307.4,705.4Zm-.1-.2a.55.55,0,0,0,.4-.6c0-.3-.3-.4-.6-.3a.42.42,0,0,0-.3.6A.38.38,0,0,0,307.3,705.2Zm2.7-.5a.67.67,0,1,1,.5-.8A.89.89,0,0,1,310,704.7Zm-.1-.2a.55.55,0,0,0,.4-.6c0-.3-.3-.4-.6-.3a.42.42,0,0,0-.3.6A.35.35,0,0,0,309.9,704.5Zm2.6-.5a.67.67,0,1,1,.5-.8A.66.66,0,0,1,312.5,704Zm0-.2a.55.55,0,0,0,.4-.6c0-.3-.3-.4-.6-.3a.42.42,0,0,0-.3.6A.35.35,0,0,0,312.5,703.8Zm2.6-.5a.67.67,0,1,1,.5-.8A.66.66,0,0,1,315.1,703.3Zm0-.2a.55.55,0,0,0,.4-.6c0-.3-.3-.4-.6-.3a.42.42,0,0,0-.3.6C314.5,703.1,314.8,703.2,315.1,703.1Zm2.6-.5a.67.67,0,1,1,.5-.8A.62.62,0,0,1,317.7,702.6Zm0-.2a.47.47,0,1,0-.6-.3C317.1,702.4,317.4,702.5,317.7,702.4Zm2.6-.5a.67.67,0,1,1,.5-.8A.69.69,0,0,1,320.3,701.9Zm-.1-.1a.47.47,0,1,0-.6-.3C319.7,701.8,320,701.8,320.2,701.8Zm2.7-.6a.67.67,0,1,1,.5-.8A.79.79,0,0,1,322.9,701.2Zm-.1-.1a.47.47,0,0,0-.3-.9.55.55,0,0,0-.4.6C322.1,701.1,322.6,701.1,322.8,701.1Zm2.6-.6a.67.67,0,1,1,.5-.8C326,700.1,325.8,700.5,325.4,700.5Zm0-.1a.47.47,0,0,0-.3-.9.55.55,0,0,0-.4.6C324.7,700.4,325.1,700.4,325.4,700.4Z"/><rect class="cls-26" x="335.59" y="723.64" width="6" height="6" transform="translate(-176.39 112.27) rotate(-14.99)"/><path class="cls-23" d="M336.6,726.9l.4-.6-.3-1-.6-.2,1.2-.3.4,1.4.6.3Z"/><path class="cls-23" d="M340.1,725.7a1.16,1.16,0,0,1-.7.5,1.06,1.06,0,0,1-.8-.1c-.3-.1-.4-.3-.5-.6a1.13,1.13,0,0,1,.1-.8,1.16,1.16,0,0,1,.7-.5,1.06,1.06,0,0,1,.8.1c.3.1.4.3.5.6A.75.75,0,0,1,340.1,725.7Zm-.8-1a.37.37,0,0,0-.3-.1c-.1,0-.2.1-.2.3v.5a.52.52,0,0,0,.2.4.37.37,0,0,0,.3.1c.1,0,.2-.1.2-.3v-.5A.76.76,0,0,0,339.3,724.7Z"/><path class="cls-23" d="M307.4,735.9l-1.1.3-.1-.3.2-.2-.1-.2-.7.2v.3h.3l.1.3-1,.3-.1-.3.2-.2.2-2.1.5-.2,1.2,1.8h.3Zm-1.7-1.4-.1.9.5-.1Z"/><path class="cls-23" d="M307.8,734.1a1.4,1.4,0,0,1,.4-.4h.3l.1.6-.3.1-.1-.3a.75.75,0,0,0-.3.3l.2.9h.4l.1.3-1.1.3-.1-.3.2-.2-.3-1.1H307l-.1-.3.7-.2Z"/><path class="cls-23" d="M310.6,734.8a1.58,1.58,0,0,1-.6.5.89.89,0,0,1-1.1-.7c-.2-.6.1-1,.7-1.2a1.06,1.06,0,0,1,.6,0l.1.5-.3.1-.1-.2h-.2a.6.6,0,0,0-.3.6c.1.4.3.5.6.5a1.38,1.38,0,0,0,.4-.3Z"/><path class="cls-23" d="M311.4,732.8h-.3l-.1-.3.8-.2.3-.1c.7-.2,1.2.1,1.4.9a1.13,1.13,0,0,1-.8,1.5l-1,.3-.1-.3.2-.2Zm1.2,1.3c.3-.1.5-.3.3-.9s-.4-.7-.7-.6l-.3.1.4,1.5Z"/><path class="cls-23" d="M314.3,733.2c.1.3.3.4.5.3a1.41,1.41,0,0,0,.5-.3l.2.2a1.48,1.48,0,0,1-.7.5c-.6.2-.9-.1-1.1-.7a.9.9,0,0,1,.6-1.2.8.8,0,0,1,1,.6v.3Zm.6-.5c-.1-.2-.2-.3-.4-.3s-.3.2-.2.4Z"/><path class="cls-23" d="M316.8,731.3l-.3.1v.3l-.3.1-.2-.7,1.9-.5.2.7-.3.1-.2-.3-.3.1.4,1.6h.3l.1.3-1.1.3-.1-.3.3-.2Z"/><path class="cls-23" d="M319,731.1a1.4,1.4,0,0,1,.4-.4h.3l.1.6-.3.1-.1-.3a.75.75,0,0,0-.3.3l.2.9h.4l.1.3-1.1.3-.1-.3.2-.2-.3-1.1h-.3l-.1-.3.7-.2Z"/><path class="cls-23" d="M321.2,731.9l.1.3-1,.3-.1-.3.2-.2-.3-1.1h-.3l-.1-.3.8-.2.4,1.4Zm-1.1-2.2c.2,0,.3,0,.4.2s-.1.3-.2.4-.3,0-.4-.2S319.9,729.7,320.1,729.7Z"/><path class="cls-23" d="M323,730.7a.86.86,0,0,1-.6,1.2,1,1,0,0,1-.5-1.9A1,1,0,0,1,323,730.7Zm-1.2.4c.1.4.2.5.5.4s.3-.2.2-.6-.2-.5-.5-.4S321.6,730.7,321.8,731.1Z"/><path class="cls-23" d="M326.5,730.8l-.9.2-.1-.3.2-.1-.2-.8c0-.2-.1-.3-.3-.2a.75.75,0,0,0-.3.3l.2.9h.2l.1.3-.8.2-.1-.3.1-.1-.2-.8c0-.2-.1-.3-.3-.2a.75.75,0,0,0-.3.3l.2.9h.2l.1.3-.9.2-.1-.3.2-.2-.3-1.1h-.3l-.1-.3.7-.2.1.2a1.13,1.13,0,0,1,.5-.4.37.37,0,0,1,.5.2.55.55,0,0,1,.5-.4c.3-.1.6.1.7.5l.2.9h.2Z"/><path class="cls-23" d="M326.9,728.8l.1.2s.2-.3.4-.3c.5-.1.8.2.9.7s0,1.1-.6,1.2h-.3l.1.4h.3l.1.3-1.1.3-.1-.3.2-.1-.5-1.8h-.3l-.1-.3Zm.4,1.3h.3c.3-.1.3-.3.2-.6s-.2-.5-.5-.4a.75.75,0,0,0-.3.3Z"/><path class="cls-23" d="M329.1,728.4a2.18,2.18,0,0,1,.5-.4c.3-.1.6.1.7.5l.2.9h.3l.1.3-.9.2-.1-.3.2-.1-.2-.8c0-.2-.1-.2-.3-.2s-.3.3-.3.3l.2.9h.2l.1.3-.9.3-.1-.3.2-.2-.5-1.9h-.3l-.1-.3.8-.2Z"/><path class="cls-23" d="M331.3,728.6c.1.3.3.4.5.3a1.41,1.41,0,0,0,.5-.3l.2.2a1.48,1.48,0,0,1-.7.5c-.6.2-.9-.1-1.1-.7a.9.9,0,0,1,.6-1.2.8.8,0,0,1,1,.6v.3Zm.6-.4c-.1-.2-.2-.3-.4-.3s-.3.2-.2.4Z"/><path class="cls-23" d="M338.9,727.4l-.9.2.1.4.5-.1.3-.3.2.8-.4-.1-.5.1.1.3.6.3-1.6.4.3-.5-.3-1-.6-.3,2.4-.6.2.8Z"/><path class="cls-27" d="M306.4,730.7l-.7-.5-1.3.3-.3.8-.4-1.4,1.8-.5.4-.7Z"/><path class="cls-27" d="M305,726.5a1.46,1.46,0,0,1,.6.9c0,.2.1.3.1.5s0,.3-.1.4a.1.1,0,0,1-.1.1l-.1.1h-.2c-.1,0-.1-.1-.2-.3v-.4h.2a.1.1,0,0,0,.1-.1v-.2a.27.27,0,0,0-.3-.3h-.5c.1.1.2.1.3.3s.1.2.2.4a1.1,1.1,0,0,1,0,.8.82.82,0,0,1-.5.5.44.44,0,0,1-.5-.1c-.2-.1-.3-.3-.4-.4a.37.37,0,0,1-.1-.3.35.35,0,0,0-.1-.2,1.15,1.15,0,0,1,.1-1,1.34,1.34,0,0,1,.7-.6C304.3,726.2,304.7,726.3,305,726.5Zm-1.4,1a.19.19,0,0,0,0,.3c0,.1.1.2.2.3a.37.37,0,0,0,.3.1.22.22,0,0,0,.2-.2.19.19,0,0,0,0-.3c0-.1-.1-.2-.2-.3a.37.37,0,0,0-.3-.1C303.7,727.3,303.7,727.4,303.6,727.5Z"/><path class="cls-27" d="M304.5,723.9a2,2,0,0,1,.4.8,2.77,2.77,0,0,1,.1.9.7.7,0,0,1-.4.5.37.37,0,0,1-.3-.1.52.52,0,0,1-.2-.4v-.2h.3a.22.22,0,0,0,.2-.2v-.4c0-.1-.1-.2-.2-.3a.37.37,0,0,0-.3-.1.22.22,0,0,0-.2.2,1.09,1.09,0,0,0,.1.5l-.3.1h0c-.1-.2-.1-.4-.2-.4s-.2-.1-.3,0a.22.22,0,0,0-.2.2v.3c0,.2.1.3.2.3s.2.1.3,0h.1a.1.1,0,0,0,.1-.1v.6a.22.22,0,0,1-.2.2c-.2,0-.4,0-.5-.2a1.61,1.61,0,0,1-.4-.7,1.39,1.39,0,0,1,0-.9c.1-.2.2-.4.4-.4a.37.37,0,0,1,.3.1l.3.3a.75.75,0,0,1,.1-.5l.3-.3C304.1,723.6,304.3,723.7,304.5,723.9Z"/><path class="cls-27" d="M304.3,722.7l-.7-.5h-.1l.4,1.4-.4.1-1.6-1.1-.2-.7,1.3-.3-.1-.6.4.1.1.4h.1l.4-.7Zm-1.9-.2.9.6-.2-.8Z"/><path class="cls-26" d="M301.4,715.9a1,1,0,0,1,.4.5l.2.9.2-.1.4-.7.5,1.9-.7-.4-1.2.3-.4.7-.6-2.2h0a1.7,1.7,0,0,1,.1-.7.66.66,0,0,1,.5-.4A.85.85,0,0,1,301.4,715.9Zm-.6.9c-.1.1-.1.1-.1.2l.2.7.6-.2-.2-.7c0-.1-.1-.1-.1-.2H301C301,716.7,300.9,716.7,300.8,716.8Z"/><path class="cls-26" d="M301.4,712.9a1.46,1.46,0,0,1,.6.9,1.38,1.38,0,0,1-.1,1.1,1.58,1.58,0,0,1-.7.7,1.23,1.23,0,0,1-1-.2,2.18,2.18,0,0,1-.7-.9,1.46,1.46,0,0,1,.9-1.8A1.16,1.16,0,0,1,301.4,712.9Zm-1.3,1a.44.44,0,0,0-.1.5c0,.2.2.3.4.3a.64.64,0,0,0,.6,0,2.19,2.19,0,0,0,.5-.3c.1-.1.2-.3.1-.4a.32.32,0,0,0-.3-.3.64.64,0,0,0-.6,0A1.07,1.07,0,0,0,300.1,713.9Z"/><path class="cls-26" d="M300.8,710.2a.84.84,0,0,1,.4.7.37.37,0,0,0,.1.3c.1.1,0,.2,0,.3v.6l.4.3-1.2.3c.1-.1.2-.3.3-.4a.6.6,0,0,0,.1-.4v-.5c0-.2,0-.3-.1-.3h0a.35.35,0,0,0-.1-.2l-.1-.1h0l-.1.1V712a1.27,1.27,0,0,1-.1.6.55.55,0,0,1-.5.3.66.66,0,0,1-.6-.1.92.92,0,0,1-.4-.6,1.09,1.09,0,0,1-.1-.5v-.4l-.3-.3,1-.3a.37.37,0,0,0-.1.3c0,.1-.1.2-.1.3a.64.64,0,0,0,0,.6c0,.2.1.3.1.4h0c0,.1.1.1.1.2a.1.1,0,0,1,.1.1.1.1,0,0,0,.1-.1v-.1a.75.75,0,0,0-.1-.5v-.5a1.48,1.48,0,0,1,.1-.7,1,1,0,0,1,.5-.4C300.4,710,300.6,710,300.8,710.2Z"/><path class="cls-26" d="M298.4,708.3l.1.4,1.4-.4.4-.7.5,1.9-.7-.4-1.4.4.1.4.9.4-1.1.2-.7-2.6,1.1-.3Z"/><path class="cls-26" d="M300.1,707.2l-.6-.4-1.3.3-.4.7-.8-3,1-.3-.4.7.3,1.1.5-.1-.2-.6-.4-.3,1-.3-.2.5.2.6.5-.1-.3-1.1-.8-.5,1.1-.3Z"/><path class="cls-26" d="M298.6,701.9a.84.84,0,0,1,.4.7.37.37,0,0,0,.1.3v.9l.4.3-1.2.3c.1-.1.2-.3.3-.4a.6.6,0,0,0,.1-.4v-.5c0-.2,0-.3-.1-.3h0a.35.35,0,0,0-.1-.2l-.1-.1h0l-.1.1v1.1a1.27,1.27,0,0,1-.1.6.55.55,0,0,1-.5.3.66.66,0,0,1-.6-.1.92.92,0,0,1-.4-.6,1.09,1.09,0,0,1-.1-.5V703l-.3-.3,1-.3a.37.37,0,0,0-.1.3c0,.1-.1.2-.1.3a.64.64,0,0,0,0,.6c0,.2.1.3.1.4h0c0,.1.1.1.1.2a.1.1,0,0,1,.1.1.1.1,0,0,0,.1-.1v-.1a.75.75,0,0,0-.1-.5v-.5a1.48,1.48,0,0,1,.1-.7,1,1,0,0,1,.5-.4C298.1,701.7,298.4,701.7,298.6,701.9Z"/><path class="cls-28" d="M312.7,729.3h0a13.16,13.16,0,0,1,1.5,3.9h0a6.64,6.64,0,0,0-.6-2h0a1.42,1.42,0,0,1-.2-.6h0v-.1h0a9.29,9.29,0,0,1-.5-1h0c-.1-.2-.1-.2-.2-.2Z"/><path class="cls-28" d="M312.8,729.1h0c0,.1-.1.1,0,0h0c-.1,0-.1.1,0,0Z"/><path class="cls-28" d="M316.1,737.6l-.9-.2v-.2h-.1l-.1.6h.1l.1-.2.5.1c.1,0,.1-.1.2-.1Z"/><path class="cls-28" d="M315.1,738.2h0V738H315l-.1.5h.1l.1-.1C315,738.4,315.1,738.3,315.1,738.2Z"/><path class="cls-28" d="M314.6,739.5h0l.1-.2h.1v-.1h0v-.1h0V739h0v-.2h-.1v.2h.1v.2h-.1l-.1.2h0v.1Z"/><path class="cls-28" d="M308.3,730.1h0l.2-.1-.1-.1v.1c-.1,0-.1,0-.1.1s0-.1,0,0Z"/><path class="cls-28" d="M312.6,729.2Z"/><path class="cls-28" d="M302.4,735.2a.52.52,0,0,0-.2-.4l-.1-.1a.76.76,0,0,0-.4-.2.55.55,0,0,0-.5.2l-.1.1h0v.1h0l.1-.1a.43.43,0,0,1,.7.1l.1.1a1.33,1.33,0,0,1,.3.5c0,.2,0,.3-.2.4l.1.1a.64.64,0,0,1,.9.1l.1.2a.6.6,0,0,1,0,.8.5.5,0,0,1-.6,0h0a.76.76,0,0,0,.4.2h.2s.1,0,0,.1c.1,0,.1-.1.2-.1a.72.72,0,0,0,0-1l-.2-.2-.2-.2c-.2-.1-.3-.1-.4,0l-.3.1.1-.3Zm1.3,1.2Z"/><path class="cls-28" d="M311.5,728.7h-.1v-.1c-.1,0-.1-.1-.2-.1h-.1a10.69,10.69,0,0,1,2.4,5.3h0l.1.1h0a8.54,8.54,0,0,0-2.1-5.2Z"/><path class="cls-28" d="M309.1,735.9h0c-.1.1-.1.1-.1.2l.7-.6h0l2.8-2.6h0l-3.4,3Z"/><path class="cls-28" d="M310,730.8c-.1,0-.1-.1,0,0h0l-.1-.1c0,.1-.1.1-.1.2a.35.35,0,0,1-.2.1,1.09,1.09,0,0,1-.5-.1l-.1.1a.52.52,0,0,0,.4.2.55.55,0,0,0,.5-.2.35.35,0,0,0,.1-.2Z"/><path class="cls-28" d="M316.2,737.2h0l.2.2-.1.3h.1l.1-.4Z"/><path class="cls-28" d="M311.5,728.6c-.1-.1-.2-.3-.4-.4l-.1.1h0c.1,0,.1.1.2.1S311.4,728.5,311.5,728.6Z"/><path class="cls-28" d="M315.2,736.3h0l.1.1h0v-.1a.35.35,0,0,1,.1-.2h.2V736h-.3C315.3,735.9,315.3,736.1,315.2,736.3Z"/><path class="cls-28" d="M315.7,736.6l-.1.1h0v.1h-.1c.1.1.1.1.3.1s.2,0,.2-.1.1-.1.1-.2H316c-.2-.1-.2-.1-.3,0Z"/><path class="cls-28" d="M316.3,735.9a.37.37,0,0,0-.3.1c-.1.1-.1.2-.2.3s0,.1-.1.1h.3a.35.35,0,0,1,.3-.3c.1,0,.1,0,.2.1v.2a.35.35,0,0,1-.1.2h-.2v.1h.3c0-.1.1-.2.1-.4S316.6,736,316.3,735.9Z"/><path class="cls-28" d="M314.4,733.6h0c-.1-.1-.1-.1-.1-.2h0v.2c0-.1,0-.1.1,0-.1-.1-.1,0,0,0Z"/><path class="cls-28" d="M310,730.6h0l.1.1h0v-.1a.76.76,0,0,0-.2-.5l-.5-.6c-.2-.2-.3-.3-.4-.3a.76.76,0,0,0-.4.1l-.1.1v.1l.1-.1h.1v-.1h0c.1,0,.1-.1.2-.1a.52.52,0,0,1,.4.2l.6.6a1.08,1.08,0,0,0,.1.6c-.1,0-.1-.1,0,0Z"/><path class="cls-28" d="M305.8,722.1l-.5.7.1.1h0l.4-.8.2.9-.5-.1h.1c.1,0,.1,0,.2.1h.1v.1l.1.1h-.1v.1h-.2v.1l.5.1h0l.5.2v-.1l-.1-.1.3-.8h.1v.1l.1.5h.1l.4-.4.1-.1.1.1-.3.8h-.2v.1l.5.2v-.1l-.1-.1.4-1h.2v-.1l-.4-.1-.6.6-.1-.9-.4-.1v.1l.1.1-.4,1h-.2l-.2-.1-.2-1.3Z"/><path class="cls-28" d="M308.2,724.1h0l.4.3v-.1l-.1-.1.2-.4.2.1a.64.64,0,0,0,.6,0,.35.35,0,0,0,.1-.2.37.37,0,0,0-.2-.5l-.2-.1-.4-.2v.1l.1.1-.5,1Zm.8-.9.2.1c.2.1.2.2.1.4a.1.1,0,0,1-.1.1c-.1.1-.2.1-.4,0l-.2-.1Z"/><path class="cls-28" d="M311.9,728.2c.2.3.4.5.6.8h0v-.1h0c-.1-.2-.3-.4-.4-.6h0v.1h0C312,728.2,312,728.2,311.9,728.2Z"/><path class="cls-28" d="M310.1,724.9c-.1.1-.2.1-.4,0l-.1-.1h-.1l.1.1a.64.64,0,0,0,.6,0l.1-.1c.1-.2,0-.3-.1-.5s-.2-.3-.1-.4h0a.19.19,0,0,1,.3,0,.31.31,0,0,0,.2.1h0v.2h.1l.2-.2-.3-.3a.45.45,0,0,0-.5,0l-.1.1a.66.66,0,0,0,.1.6c0,.2.1.4,0,.5Z"/><path class="cls-28" d="M312.7,729.1h0c.1,0,0-.1,0-.1v.1Z"/><path class="cls-28" d="M309.1,725.5h0c0,.1-.1.1,0,0l-.1.1h-.1a10,10,0,0,1,2,1.6h.3c-.4-.4-.8-.7-1.2-1.1h0V726h0c-.2,0-.5-.3-.9-.5Z"/><path class="cls-28" d="M300.3,722.1l.1.3h.1v-.2l.3-.1.2,1.1-.2.1v.1l.6-.1v-.1h-.2l-.2-1.1.3-.1.1.2h.1l-.1-.3h-.1Zm.9-.1Z"/><path class="cls-28" d="M299.4,724.6h0l-.9.3a.37.37,0,0,1-.1.3c.4-.2.7-.3,1.1-.5h0l-.1-.1h0c.1.1,0,.1,0,0h0c.1.1.1,0,0,0h0l.1.1h0c0-.1,0-.1-.1-.1Z"/><path class="cls-28" d="M300.6,720.9a.1.1,0,0,1-.1-.1.1.1,0,0,0-.1-.1,20.74,20.74,0,0,0-3.3,1,1.58,1.58,0,0,1-.8.5v.1A26.83,26.83,0,0,1,300.6,720.9Z"/><path class="cls-28" d="M302.8,724.1a8.6,8.6,0,0,1,1.6.1H303c-.2-.2-.2-.2-.2-.1Z"/><path class="cls-28" d="M304.2,723.2l.6.1v-.1l-.2-.1.1-1.1h.3v.2h.1v-.3l-.6-.1-.1.1h.1l-.1,1.1-.2.2Z"/><path class="cls-28" d="M304.2,721.9h0l.1-.1h-.1v.1Z"/><path class="cls-28" d="M302.8,722.8v.3c.1,0,.2.1.4.1s.3,0,.4-.1a.37.37,0,0,0,.1-.3c0-.2-.2-.3-.4-.4s-.3-.1-.3-.3,0-.1.1-.1.1-.1.2-.1h.2v.2h.1v-.3c-.1,0-.2-.1-.4-.1s-.3,0-.4.1a.37.37,0,0,0-.1.3c0,.3.2.3.4.4s.3.1.3.3,0,.1-.1.2a.37.37,0,0,1-.3.1.35.35,0,0,1-.2-.1h0v-.2Z"/><path class="cls-28" d="M304,722.1h0l.1-.1v-.2H304Z"/><path class="cls-28" d="M312.7,726.7l.2.5.1-.5.5-.1-.5-.3.1-.5-.3.3h.1v.1l-.1.1-.1.1c-.1.1-.2.1-.2.2h0a.1.1,0,0,1-.1.1v-.1c.1-.1.2-.2.3-.2v-.1h0l-.5-.2.2.5-.4.4Z"/><path class="cls-28" d="M304.7,724.1h0c.1-.1,0-.1,0,0Z"/><path class="cls-28" d="M306.6,724.6h0l.1-.1h0a12.86,12.86,0,0,0-1.9-.4h0v.1h0a2.92,2.92,0,0,1,.9.2h.1C306,724.5,306.3,724.5,306.6,724.6Z"/><path class="cls-28" d="M309.5,724.5l-.2.2.1.1h.1v-.1h0v-.2Z"/><path class="cls-28" d="M305.4,723.3h0C305.3,723.2,305.3,723.3,305.4,723.3Z"/><path class="cls-28" d="M302.8,724.8c0,.1-.1.1-.2.1h-.1a.37.37,0,0,0,.3-.1Z"/><path class="cls-28" d="M299.7,724.7h0l.1-.1h-.1v.1Z"/><path class="cls-28" d="M299.4,722.5a.35.35,0,0,1,.2-.1h.2l.1.1h.1l-.1-.3h-.4c-.1,0-.2.1-.3.1s-.1.2-.1.4a.22.22,0,0,0,.2.2h.3c.2,0,.3,0,.4.2s0,.2-.1.2a.35.35,0,0,1-.2.1h-.2v-.2h-.1l.1.2h0a.76.76,0,0,0,.4-.1c.1,0,.2-.1.3-.1s.2-.3.1-.4-.2-.2-.5-.3-.3,0-.4-.2C299.3,722.6,299.3,722.6,299.4,722.5Z"/><path class="cls-28" d="M302.8,729.5h0l.9-.9h0l2.1-1.9h0l-3,2.8Z"/><path class="cls-28" d="M298.2,726h0l-.1.1H298c-.2.1-.3.2-.5.3l.1.2a11.4,11.4,0,0,1,1.9-1h0v-.1h.2c.1,0,.1,0,.2-.1h0v-.1h0l.1-.1h0a5.55,5.55,0,0,0-1.8.8Z"/><path class="cls-28" d="M315.8,730.8a.63.63,0,0,0-.6,0,.52.52,0,0,0-.4.2c-.2.1-.2.3-.1.6s.5.5.9.4c.1,0,.3-.1.3-.2a.47.47,0,0,0,.1-.6A.52.52,0,0,0,315.8,730.8Zm.1.8c-.1.1-.2.1-.3.2-.4.1-.6,0-.7-.2a.6.6,0,0,1,.1-.4c.1-.1.2-.1.4-.2a.45.45,0,0,1,.5,0,.22.22,0,0,1,.2.2C316,731.3,316,731.5,315.9,731.6Z"/><path class="cls-28" d="M315.2,732.6l.1-.1v-.1l-.3.1v.4a.35.35,0,0,0,.1.2h0a.1.1,0,0,0,.1.1.37.37,0,0,0,.3.1c.1,0,.1,0,.2-.1h-.3c-.1,0-.1,0-.2-.1h.3q-.15,0-.3-.3v-.2Z"/><path class="cls-28" d="M302.7,729.6l-.4.3h0l.1-.1a.1.1,0,0,1,.1-.1h0c.1,0,.2,0,.2-.1Z"/><path class="cls-28" d="M315.5,729.6l-.2-.4h-.1v.2l-1,.5-.1-.1H314l.2.5h.1v-.2l.4-.2.1.2c0,.1.1.1.1.2h0c.1.1.1.1.2.1h.3a.1.1,0,0,0,.1-.1.45.45,0,0,0,0-.5Zm-.1.5a.1.1,0,0,0-.1.1c-.2.1-.3,0-.4-.2l-.1-.2.6-.3.1.2C315.5,729.9,315.5,730.1,315.4,730.1Z"/><path class="cls-28" d="M311.7,727.6h-.1l-.1.1a1.76,1.76,0,0,1,.4.5v-.3c0-.1-.1-.2-.2-.3Z"/><path class="cls-28" d="M312.5,728.7h0v.1h0c.1,0,0-.1,0-.1Z"/><path class="cls-28" d="M302.3,730l-.8.7h.1l.7-.7Z"/><path class="cls-28" d="M316.4,734.5h.3l-.1-1.1h-.3v.1h.2v.3l-1.1.1-.1-.2h-.1l.1.6h0v-.2l1.1-.1v.5Z"/><path class="cls-28" d="M305,739.8h0l3.8-3.5a.1.1,0,0,0-.1.1h-.1l-3.6,3.4Z"/><path class="cls-28" d="M301.5,730.7l-1.1,1h0l1.1-1Z"/><path class="cls-28" d="M305.4,722.8l-.2.4h-.1v.1h.3l.1-.2h0c-.1-.2-.1-.2-.1-.3Z"/><path class="cls-28" d="M314.5,736.1h0l-.1-.1h.1a16.2,16.2,0,0,0-.1-2.2h0v-.1h0a10.48,10.48,0,0,1,.1,2.5c-.1-.1-.1-.1,0-.1h0c-.1.1-.1,0,0,0h-.2c0,.3-.1.5-.1.8a.35.35,0,0,0,.1.2s.1.1,0,.1h-.1a8.3,8.3,0,0,1-.6,2.1c.1.1.1.1.1.2a8.08,8.08,0,0,0,.8-3.4Z"/><path class="cls-28" d="M298,722.8a.35.35,0,0,0-.2.1.52.52,0,0,0-.2.4c.1,0,.1.1.2.1,0-.2,0-.3.1-.4l.1-.1c.3-.1.5.2.6.3h.1v.1h0c0,.1,0,.1.1.2h0c0,.2,0,.3-.1.4l-.1.1h-.1v.1h.1c.1,0,.1-.1.2-.1a.31.31,0,0,0,.1-.2h0v-.5A.68.68,0,0,0,298,722.8Z"/><path class="cls-28" d="M316,732.3c-.1,0-.1,0-.2.1a.6.6,0,0,0-.1.4.37.37,0,0,1-.1.3h.2v-.2a.37.37,0,0,1,.1-.3h.1c.1,0,.2,0,.3.3v.2h0l-.2.1v.1h.3v-.4C316.4,732.4,316.3,732.2,316,732.3Z"/><path class="cls-28" d="M300.2,725.1h0c-.1.1-.1.1-.1.2v.1a17.42,17.42,0,0,1,2.2-.5l.1-.1c.1,0,.1,0,.2-.1h.2v-.1a23.81,23.81,0,0,0-2.6.5Z"/><path class="cls-28" d="M302.7,724h0a.1.1,0,0,1-.1.1h.2c-.1,0-.1,0-.1-.1Z"/><path class="cls-28" d="M304.7,724.1h0c0,.1-.1.1,0,0v.1h0v-.1Z"/><path class="cls-28" d="M300,724.4h0l-.1.1h.1c.1,0,.1,0,.2-.1h.1a14.16,14.16,0,0,1,2-.4h0c.1,0,.1-.1.1-.2h0a21,21,0,0,0-2.4.6Z"/><path class="cls-28" d="M314,725.1a14.68,14.68,0,0,0-13.3-4.4h0c0,.1.1.1.1.2a14.24,14.24,0,0,1,11.2,2.9h.2v.1a19.2,19.2,0,0,1,1.5,1.4,15,15,0,0,1,4,9.8h0c0,.1,0,.1.1,0a.35.35,0,0,1,.2-.1A14.25,14.25,0,0,0,314,725.1Z"/><path class="cls-28" d="M318,735.4h-.1v.8h0a.1.1,0,0,0,.1-.1s0-.1.1,0h.1c-.1-.4-.1-.6-.2-.7Z"/><path class="cls-28" d="M318,735.3h0c.1-.1.1-.1.1-.2H318a.14.14,0,0,0,0,.2c-.1-.1-.1,0,0,0Z"/><path class="cls-28" d="M318,736.3h-.1v.1h0v.1h-.1a9.85,9.85,0,0,1-.2,1.7c.1.1.1.2.2.3a9.08,9.08,0,0,0,.3-2.3A.1.1,0,0,0,318,736.3Z"/><path class="cls-28" d="M301.3,735.4c-.1-.1-.1-.1-.1-.2h0v.1c-.1,0,0,.1.1.1Z"/><path class="cls-28" d="M302.9,724.8v.1a9.58,9.58,0,0,1,3.7.6h0v-.1a11.15,11.15,0,0,0-3.1-.5h-.4c0-.2-.1-.2-.2-.1Z"/><path class="cls-28" d="M304.2,724h.1s0-.1-.1,0Z"/><path class="cls-28" d="M304.6,724.1h-.1c0,.1.1.1.1,0Z"/><path class="cls-28" d="M302.5,742.1h0l-.6.5v.1Z"/><path class="cls-28" d="M308.8,736.1h0l.1-.1a.1.1,0,0,1,.1-.1h0l-.2.2Z"/><path class="cls-28" d="M304.6,740.1h0l.3-.2h0Z"/><path class="cls-28" d="M313.5,737.4h0c-.1,0-.1,0-.1-.1a7.37,7.37,0,0,1-.4,1.4c.1,0,.1.1.2.1a5.77,5.77,0,0,0,.3-1.4C313.6,737.5,313.5,737.5,313.5,737.4Z"/><path class="cls-28" d="M301.1,738.9h.2l-.1-.1Z"/><path class="cls-28" d="M313.1,732.1h0l-.7.5h0v.1Z"/><path class="cls-28" d="M313.8,736.4h0c0,.1,0,.1-.1.1l.1-.1h0l-.1-.1v-.1h-.1c0,.3-.1.5-.1.8h0v.4h0v.1a.1.1,0,0,0,.1.1C313.7,737.1,313.7,736.8,313.8,736.4Z"/><path class="cls-28" d="M303.2,741.4l-.5.5h0l.5-.5Z"/><path class="cls-28" d="M301.1,734.9H301v.2h0c.1-.1.1-.1.1-.2Z"/><path class="cls-28" d="M313.7,736h0c.1,0,.1.1,0,0h0a11.48,11.48,0,0,0,.1-1.9h0a.1.1,0,0,0-.1.1h0a5.44,5.44,0,0,1,0,1.8h0c-.1.1,0,.1,0,0Z"/><path class="cls-28" d="M304.6,740.1h0l-1.3,1.2h0Z"/><path class="cls-28" d="M301.4,737.3l.8.8.1-.1-.8-.9C301.5,737.2,301.5,737.2,301.4,737.3Z"/><path class="cls-28" d="M306.8,733.6c.2,0,.3-.1.5-.2a.76.76,0,0,0,.2-.5c0-.2-.1-.3-.2-.5l-.3-.3v.1h0v.2l.1.1c.1.1.1.2.1.4s-.1.3-.2.3-.2.1-.4.1-.2-.1-.3-.2l-1.3-1.4a.37.37,0,0,1-.1-.3c0-.1.1-.3.2-.3s.2-.1.4-.1.3.1.3.2l.3.4h0l.2.2h0l.1.1v-.3c.1,0,.1.1.1.2h0v.1l.4.4h0v-.2h0V732h0l-.1-.1h-.2v-.1h0l-.8-.8a.76.76,0,0,0-.5-.2c-.2,0-.3.1-.5.2a.76.76,0,0,0-.2.5c0,.2.1.3.2.5l1.3,1.4A1.23,1.23,0,0,0,306.8,733.6Z"/><path class="cls-28" d="M305,734.7h0c.1-.1.1-.1.1-.2v-.1h-.2v.1l.1.2Z"/><path class="cls-28" d="M304.9,735v.2l.2.2,1-.9-.1-.1-.8.7-.1-.1a.1.1,0,0,0-.1-.1v-.1h0A.31.31,0,0,0,304.9,735Z"/><path class="cls-28" d="M303.2,733a1.42,1.42,0,0,0,.2.6l.1-.1c-.1-.1-.1-.1-.1-.2a.56.56,0,0,1,.1-.6.37.37,0,0,1,.3-.1h0v-.1h.1v.1h0a.76.76,0,0,1,.4.2c.1.1.2.3.3.4s.1.5.2.8a.9.9,0,0,0,.1.5h.2a4.33,4.33,0,0,0-.1-.5,2.64,2.64,0,0,1-.1-.7l-.3-.6a.76.76,0,0,0-.5-.2c-.2,0-.4,0-.5.2C303.3,732.7,303.2,732.8,303.2,733Z"/><path class="cls-28" d="M306.5,729.7v.4c0,.1-.1.2-.1.3h0l.3-.3,1.9,2,.1-.1-2.2-2.3Z"/><path class="cls-28" d="M313.7,733.9h0c-.1-.1-.2-.1-.2-.2h0a.6.6,0,0,0,.1.4.1.1,0,0,0,.1-.1h.1Z"/><path class="cls-28" d="M304.4,735.9h0v.2l.1-.1-.1-.1C304.5,735.8,304.5,735.9,304.4,735.9Z"/><path class="cls-28" d="M306.9,724.5h0a.1.1,0,0,1-.1.1h-.1a8.11,8.11,0,0,1,2.1,1h0A3.68,3.68,0,0,0,306.9,724.5Z"/><path class="cls-28" d="M306.6,725.9h0l-.7.7h0l.7-.7Z"/><path class="cls-28" d="M308.2,730h0v-.1h0l-.1-.1H308l-.6-.7.8-.7-.1-.1-.9.8Z"/><path class="cls-28" d="M306.7,725.4h0a11.46,11.46,0,0,1,3.9,2.4h0v.1h0l.2.2.1.1h0a.1.1,0,0,0,.1-.1l-.1-.1a11.92,11.92,0,0,0-1.8-1.5H309a.1.1,0,0,1-.1-.1h0a.1.1,0,0,1-.1-.1h0v-.1c-.1,0-.1-.1-.2-.1h0a14.17,14.17,0,0,0-1.8-.8h0c-.1,0-.1,0-.1.1Z"/><path class="cls-28" d="M306.7,725.8h0l.3-.2h-.1l-.2.2Z"/><path class="cls-23" d="M532.3,764.1,532,763a.1.1,0,0,0-.1-.1,1.91,1.91,0,0,1-2.2-1.3,1.85,1.85,0,0,1,1.3-2.3l-.2-.7h0l-.2-.7a1.87,1.87,0,1,1-1-3.6l-.2-.7-.2-.7a1.87,1.87,0,1,1-1-3.6l-.2-.7-.2-.7a1.87,1.87,0,0,1-1-3.6l-.4-1.3a1.87,1.87,0,0,1-1-3.6l-.4-1.3a1.87,1.87,0,1,1-1-3.6l-.2-.7-.2-.7a1.87,1.87,0,0,1-1-3.6l-.2-.7-.2-.7a1.87,1.87,0,0,1-1-3.6l-.4-1.3a1.87,1.87,0,1,1-1-3.6l-.2-.7-.2-.7a1.87,1.87,0,1,1-1-3.6l-.2-.7-.2-.7a1.85,1.85,0,0,1-2.3-1.3,1.75,1.75,0,0,1,1.1-2.2c.1,0,.1-.1.1-.2l-.2-.9c0-.2-.2-.3-.4-.2l-1.1.3a.1.1,0,0,0-.1.1,1.91,1.91,0,0,1-1.3,2.2,1.85,1.85,0,0,1-2.3-1.3l-.7.2-.7.2a1.87,1.87,0,0,1-3.6,1l-1.3.4a1.87,1.87,0,1,1-3.6,1l-.7.2-.7.2a1.87,1.87,0,0,1-3.6,1l-.7.2-.7.2a1.87,1.87,0,0,1-3.6,1l.4.7-.7.2a1.87,1.87,0,0,1-3.6,1l-1.3.4a1.87,1.87,0,0,1-3.6,1l-.7.2-.7.2a1.87,1.87,0,0,1-3.6,1l-.7.2-.7.2a1.87,1.87,0,0,1-3.6,1l-1.3.4a1.87,1.87,0,0,1-3.6,1l-1.3.4a1.85,1.85,0,0,1-1.3,2.3,1.75,1.75,0,0,1-2.2-1.1c0-.1-.1-.1-.2-.1l-.9.2c-.2,0-.3.2-.2.4l.3,1.1a.1.1,0,0,0,.1.1,1.91,1.91,0,0,1,2.2,1.3,1.85,1.85,0,0,1-1.3,2.3l.2.7h0l.2.7a1.87,1.87,0,0,1,1,3.6l.2.7.2.7a1.87,1.87,0,0,1,1,3.6l.4,1.3a1.87,1.87,0,0,1,1,3.6l.2.7.2.7a1.87,1.87,0,0,1,1,3.6l.4,1.3a1.87,1.87,0,0,1,1,3.6l.2.7.2.7a1.87,1.87,0,0,1,1,3.6l.2.7.2.7a1.87,1.87,0,0,1,1,3.6l.2.7.2.7a1.87,1.87,0,0,1,1,3.6l.4,1.3a1.87,1.87,0,0,1,1,3.6l.2.7.2.7a1.85,1.85,0,0,1,2.3,1.3,1.75,1.75,0,0,1-1.1,2.2c-.1,0-.1.1-.1.2l.2.9c0,.2.2.3.4.2l1.1-.3a.1.1,0,0,0,.1-.1,1.91,1.91,0,0,1,1.3-2.2,1.85,1.85,0,0,1,2.3,1.3l1.3-.4a1.87,1.87,0,1,1,3.6-1l1.3-.4a1.87,1.87,0,0,1,3.6-1l1.3-.4a1.87,1.87,0,1,1,3.6-1l.7-.2.7-.2a1.87,1.87,0,1,1,3.6-1l.7-.2.7-.2a1.87,1.87,0,1,1,3.6-1l.7-.2.7-.2a1.87,1.87,0,0,1,3.6-1l.7-.2.7-.2a1.87,1.87,0,0,1,3.6-1l1.3-.4a1.87,1.87,0,0,1,3.6-1l.7-.2.7-.2a1.87,1.87,0,0,1,3.6-1l.7-.2h0l.7-.2a1.85,1.85,0,0,1,1.3-2.3,1.75,1.75,0,0,1,2.2,1.1c0,.1.1.1.2.1l.9-.2C532.2,764.4,532.3,764.2,532.3,764.1Zm-18.6-12.7a1.13,1.13,0,0,1-1.1.3l-.1.1c-.3.2-.5.5-.8.7a1,1,0,0,1-.9.1,1.17,1.17,0,0,1-1.1.9,2.19,2.19,0,0,1-.5.3c.7.9-.4,2.4-1.5,1.7a1.22,1.22,0,0,1,.3-2.2,1.13,1.13,0,0,1,.3-1.6,1,1,0,0,1,1.1-.5c.2,0,.4-.1.5,0a1.79,1.79,0,0,1,.5-.7l.1-.1h0c.1,0,.2-.2.3-.2a1.38,1.38,0,0,1,1.2-.3,1.79,1.79,0,0,1,.7-.5,1,1,0,0,1,1.3-.2A1.19,1.19,0,0,1,513.7,751.4Z"/><path class="cls-27" d="M514.4,714.1l-47.4,13c1.5,5.6,11.8,43.1,13,47.4,7.8-2.1-9.7,2.7,47.4-13C522.6,743.9,519.2,731.8,514.4,714.1Zm-.7,37.3a1.13,1.13,0,0,1-1.1.3l-.1.1c-.3.2-.5.5-.8.7a1,1,0,0,1-.9.1,1.17,1.17,0,0,1-1.1.9,2.19,2.19,0,0,1-.5.3c.7.9-.4,2.4-1.5,1.7a1.22,1.22,0,0,1,.3-2.2,1.13,1.13,0,0,1,.3-1.6,1,1,0,0,1,1.1-.5c.2,0,.4-.1.5,0a1.79,1.79,0,0,1,.5-.7l.1-.1h0c.1,0,.2-.2.3-.2a1.38,1.38,0,0,1,1.2-.3,1.79,1.79,0,0,1,.7-.5,1,1,0,0,1,1.3-.2A1.19,1.19,0,0,1,513.7,751.4Z"/><path class="cls-29" d="M513.7,715.3l-45.5,12.4,12.4,45.5,45.5-12.4Zm-1.1,36.4-.1.1c-.3.2-.5.5-.8.7a1,1,0,0,1-.9.1,1.17,1.17,0,0,1-1.1.9,2.19,2.19,0,0,1-.5.3c.7.9-.4,2.4-1.5,1.7a1.22,1.22,0,0,1,.3-2.2,1.13,1.13,0,0,1,.3-1.6,1,1,0,0,1,1.1-.5c.2,0,.4-.1.5,0a1.79,1.79,0,0,1,.5-.7l.1-.1h0c.1,0,.2-.2.3-.2a1.38,1.38,0,0,1,1.2-.3,1.79,1.79,0,0,1,.7-.5,1,1,0,0,1,1.3-.2,1.22,1.22,0,0,1-.4,2.2A.78.78,0,0,1,512.6,751.7Z"/><path class="cls-23" d="M513.7,715.3l-45.5,12.4,12.4,45.5,45.5-12.4Zm-1.1,36.4-.1.1c-.3.2-.5.5-.8.7a1,1,0,0,1-.9.1,1.17,1.17,0,0,1-1.1.9,2.19,2.19,0,0,1-.5.3c.7.9-.4,2.4-1.5,1.7a1.22,1.22,0,0,1,.3-2.2,1.13,1.13,0,0,1,.3-1.6,1,1,0,0,1,1.1-.5c.2,0,.4-.1.5,0a1.79,1.79,0,0,1,.5-.7l.1-.1h0c.1,0,.2-.2.3-.2a1.38,1.38,0,0,1,1.2-.3,1.79,1.79,0,0,1,.7-.5,1,1,0,0,1,1.3-.2,1.22,1.22,0,0,1-.4,2.2A.78.78,0,0,1,512.6,751.7Z"/><polygon class="cls-24" points="517.4 728.8 517 727.3 471.5 739.8 471.9 741.3 517.4 728.8"/><polygon class="cls-24" points="518.3 732.2 517.9 730.6 472.4 743.2 472.9 744.7 518.3 732.2"/><polygon class="cls-24" points="516.5 725.5 516.1 723.9 470.6 736.5 471 738 516.5 725.5"/><polygon class="cls-24" points="515.6 722.1 515.2 720.6 469.7 733.1 470.1 734.6 515.6 722.1"/><polygon class="cls-24" points="468.8 729.8 469.2 731.3 514.7 718.8 514.2 717.2 468.8 729.8"/><polygon class="cls-24" points="520.1 738.9 519.7 737.3 474.3 749.9 474.7 751.4 520.1 738.9"/><polygon class="cls-24" points="519.2 735.5 518.8 734 473.4 746.5 473.8 748 519.2 735.5"/><polygon class="cls-24" points="524.7 755.6 524.3 754.1 478.9 766.6 479.3 768.1 524.7 755.6"/><path class="cls-24" d="M523.4,750.7l-13.9,3.8a1.15,1.15,0,0,1-1.7.9,1.38,1.38,0,0,1-.4-.3L478,763.2l.4,1.5,45.5-12.5Z"/><polygon class="cls-24" points="521.1 742.2 520.6 740.7 475.2 753.2 475.6 754.7 521.1 742.2"/><polygon class="cls-24" points="525.6 759 525.2 757.4 479.8 770 480.2 771.5 525.6 759"/><polygon class="cls-24" points="522 745.6 521.6 744 476.1 756.6 476.5 758.1 522 745.6"/><path class="cls-24" d="M509.4,751.1c.2,0,.4-.1.5,0,0-.1.1-.2.2-.3L477,759.9l.4,1.5,30.4-8.4a1.24,1.24,0,0,1,.4-1.4A2.08,2.08,0,0,1,509.4,751.1Z"/><path class="cls-24" d="M513.9,751.4l9-2.5-.4-1.5-8,2.2A1.27,1.27,0,0,1,513.9,751.4Z"/><path class="cls-26" d="M479.5,738.6l2.8-5,1.1.6a2.34,2.34,0,0,1,.7.7,1.25,1.25,0,0,1,.1.9,1.42,1.42,0,0,1-.2.6,1.58,1.58,0,0,1-.7.7c-.1,0-.2.1-.4,0a1.42,1.42,0,0,1,.2.6,1.27,1.27,0,0,1-.1.6c0,.1-.1.2-.2.4a4.35,4.35,0,0,1-.6.7,1.42,1.42,0,0,1-.6.2,1.48,1.48,0,0,1-.7-.1Zm2.5-2.5.3.2a.62.62,0,0,0,.7-.1c.1-.1.2-.2.2-.3a.66.66,0,0,0,.1-.6c0-.2-.1-.3-.3-.4l-.3-.2Zm-1.3,2.2.3.2a.78.78,0,0,0,.8-.1c.1-.1.2-.2.2-.3a1.08,1.08,0,0,0,.2-.7c0-.2-.1-.3-.3-.4l-.3-.2Z"/><path class="cls-26" d="M483.4,740.9l-.8-.4,2.8-5,.8.4Z"/><path class="cls-26" d="M485.3,742a1.56,1.56,0,0,1-.6-.8,1.15,1.15,0,0,1,.1-1l1.6-2.7a1.56,1.56,0,0,1,.8-.6,1.15,1.15,0,0,1,1,.1,1.56,1.56,0,0,1,.6.8,1.15,1.15,0,0,1-.1,1l-.3.6-.8-.4.3-.6c.1-.1.1-.2,0-.4s-.1-.2-.2-.3-.2-.1-.4,0-.2.1-.3.2l-1.6,2.7c-.1.1-.1.2,0,.4s.1.2.2.3.2.1.4,0,.2-.1.3-.2l.6-1-.4-.2.4-.8,1.2.7-1,1.7a1.56,1.56,0,0,1-.8.6A1.15,1.15,0,0,1,485.3,742Z"/><path class="cls-26" d="M504.1,752.6l2.8-5,1.1.6a2.34,2.34,0,0,1,.7.7,1.25,1.25,0,0,1,.1.9,1.42,1.42,0,0,1-.2.6,1.58,1.58,0,0,1-.7.7c-.1,0-.2.1-.4,0a1.42,1.42,0,0,1,.2.6,1.27,1.27,0,0,1-.1.6c0,.1-.1.2-.2.4a4.35,4.35,0,0,1-.6.7,1.42,1.42,0,0,1-.6.2,1.48,1.48,0,0,1-.7-.1Zm2.5-2.5.3.2a.62.62,0,0,0,.7-.1c.1-.1.2-.2.2-.3a.66.66,0,0,0,.1-.6c0-.2-.1-.3-.3-.4l-.3-.2Zm-1.3,2.3.3.2a.78.78,0,0,0,.8-.1c.1-.1.2-.2.2-.3a1.08,1.08,0,0,0,.2-.7c0-.2-.1-.3-.3-.4l-.3-.2Z"/><path class="cls-26" d="M507.2,754.5l2.8-5,2.1,1.2-.4.8-1.4-.8-.8,1.4,1,.6-.4.8-1-.6-.8,1.4,1.4.8-.4.8Z"/><path class="cls-26" d="M513.6,751.5l-.9,3.9,1.9-3.4.8.4-2.8,5-.8-.5.8-3.8-1.8,3.2-.8-.4,2.8-5Z"/><path class="cls-27" d="M485.2,757.4l.7.4,2.4-4.2a.51.51,0,0,1,.9.5l-2.4,4.2.2.1,2.4-4.2a.51.51,0,0,1,.9.5l-2.4,4.2.2.1,2.4-4.2a.51.51,0,1,1,.9.5l-2.4,4.2.2.1,2.4-4.2a.51.51,0,1,1,.9.5l-2.4,4.2.2.1,2.4-4.2a.51.51,0,0,1,.9.5l-2.4,4.2.7.4,2.7-4.7-6.8-3.9Z"/><polygon class="cls-27" points="494.75 756.59 494.75 756.59 494.84 756.63 494.84 756.63 494.75 756.59"/><polygon class="cls-27" points="487.75 752.65 487.75 752.65 487.84 752.7 487.84 752.7 487.75 752.65"/><path class="cls-27" d="M483.1,756.2l2,1.1,2.7-4.7-2-1.1Zm3.4-2.3c0-.1.1-.1.2,0s.1.1,0,.2l-.8,1.4-.2-.1Zm-1,1.7c0-.1.1-.1.2,0s.1.1,0,.2l-.8,1.4-.2-.1Zm.3-2.1c0-.1.1-.1.2,0s.1.1,0,.2l-.8,1.4-.2-.1Zm-1,1.7c0-.1.1-.1.2,0s.1.1,0,.2l-.8,1.4-.2-.1Zm.6-1.9c0-.1.1-.1.2,0s.1.1,0,.2l-.8,1.4-.2-.1Zm-1,1.7c0-.1.1-.1.2,0s.1.1,0,.2l-.8,1.4-.2-.1Z"/><path class="cls-27" d="M490.1,754.2a.48.48,0,0,0-.6.2l-2.4,4.2.2.1.4-.8a.22.22,0,1,1,.4.2l-.4.8.2.1,2.4-4.2A.48.48,0,0,0,490.1,754.2Zm-1.8,3.5-.3-.2,1.3-2.3a.22.22,0,0,1,.4.2Z"/><path class="cls-27" d="M503.2,748.1l-1.3-.8,1.9-3.4-9.6-5.5-1.9,3.4L491,741l-5.7,10,12.3,7Zm-1.9-4.6c.1-.2.3-.2.5-.1s.2.3.1.5l-.9,1.5-.6-.4Zm-1-.6c.1-.2.3-.2.5-.1s.2.3.1.5l-.9,1.5-.6-.4Zm-1-.6c.1-.2.3-.2.5-.1s.2.3.1.5l-.9,1.5-.6-.4Zm-1.1-.6c.1-.2.3-.2.5-.1s.2.3.1.5l-.9,1.5-.6-.4Zm-1-.6c.1-.2.3-.2.5-.1s.2.3.1.5L497,743l-.6-.4Zm-1-.6c.1-.2.3-.2.5-.1s.2.3.1.5l-.9,1.5-.6-.4Zm-1-.6c.1-.2.3-.2.5-.1s.2.3.1.5l-.9,1.5-.6-.4Zm-8.6,11.2-.2-.1.6-1c0-.1.1-.1.2,0s.1.1,0,.2Zm1.3-2.3-.2-.1.8-1.3c0-.1.1-.1.2,0s.1.1,0,.2Zm-1.1,2.5-.2-.1.6-1c0-.1.1-.1.2,0s.1.1,0,.2Zm1.4-2.4-.2-.1.8-1.3c0-.1.1-.1.2,0s.1.1,0,.2Zm.6-1.6-.2-.6.6-.2.2.6Zm.1-.9.8-1.3c0-.1.1-.1.2,0s.1.1,0,.2l-.8,1.3Zm.3.2.8-1.3c0-.1.1-.1.2,0s.1.1,0,.2l-.8,1.3Zm.8-1.5-.2-.6.6-.2.2.6Zm.2-.9.8-1.3c0-.1.1-.1.2,0s.1.1,0,.2l-.8,1.3Zm.3.2.8-1.3c0-.1.1-.1.2,0s.1.1,0,.2l-.8,1.3Zm.8-1.5-.2-.6.6-.2.2.6Zm-4,8.6-.2-.1.6-1c0-.1.1-.1.2,0s.1.1,0,.2Zm1.4-2.3-.2-.1.8-1.3c0-.1.1-.1.2,0s.1.1,0,.2Zm-1.1,2.5-.2-.1.6-1c0-.1.1-.1.2,0s.1.1,0,.2Zm1.3-2.3-.2-.1.8-1.3c0-.1.1-.1.2,0s.1.1,0,.2Zm.6-1.7-.2-.6.6-.2.2.6Zm.2-.8.8-1.3c0-.1.1-.1.2,0s.1.1,0,.2l-.8,1.3Zm.3.1.8-1.3c0-.1.1-.1.2,0s.1.1,0,.2l-.8,1.3Zm.8-1.5-.2-.6.6-.2.2.6Zm.2-.9.8-1.3c0-.1.1-.1.2,0s.1.1,0,.2l-.8,1.3Zm.3.2.8-1.3c0-.1.1-.1.2,0s.1.1,0,.2l-.8,1.3Zm.7-1.5-.2-.6.6-.2.2.6Zm-3.1,9.2-.6-.4.5-.9c.1-.2.3-.2.5-.1s.2.3.1.5Zm1,.6-.6-.4.5-.9c.1-.2.3-.2.5-.1s.2.3.1.5Zm1,.5-.6-.4.5-.9c.1-.2.3-.2.5-.1s.2.3.1.5Zm1.1.6-.6-.4.5-.9c.1-.2.3-.2.5-.1s.2.3.1.5Zm1,.6-.6-.4.5-.9c.1-.2.3-.2.5-.1s.2.3.1.5Zm1,.6-.6-.4.5-.9c.1-.2.3-.2.5-.1s.2.3.1.5Zm1.1.6-.6-.4.5-.9c.1-.2.3-.2.5-.1s.2.3.1.5Zm5.7-9.3-4.5,7.9-7.4-4.2,4.5-7.9.6-1.1,7.4,4.2Zm-4.9,9.7-.2-.1.6-1c0-.1.1-.1.2,0s.1.1,0,.2Zm1.4-2.3-.3-.1.8-1.3c0-.1.1-.1.2,0s.1.1,0,.2Zm-1.1,2.5-.2-.1.6-1c0-.1.1-.1.2,0s.1.1,0,.2Zm1.3-2.3-.2-.1.8-1.3c0-.1.1-.1.2,0s.1.1,0,.2Zm.6-1.6-.2-.6.6-.2.2.6Zm.2-.9.8-1.3c0-.1.1-.1.2,0s.1.1,0,.2l-.8,1.3Zm.3.1.8-1.3c0-.1.1-.1.2,0s.1.1,0,.2l-.8,1.3Zm.8-1.5-.2-.6.6-.2.2.6Zm.2-.9.8-1.3c0-.1.1-.1.2,0s.1.1,0,.2l-.8,1.3Zm.2.2.8-1.3c0-.1.1-.1.2,0s.1.1,0,.2l-.8,1.3Zm.9-1.5-.2-.6.6-.2.2.6Zm-4,8.7-.2-.1.6-1c0-.1.1-.1.2,0s.1.1,0,.2Zm1.3-2.4-.2-.1.8-1.3c0-.1.1-.1.2,0s.1.1,0,.2Zm-1,2.5-.2-.1.6-1c0-.1.1-.1.2,0s.1.1,0,.2Zm1.3-2.3-.2-.1.8-1.3c0-.1.1-.1.2,0s.1.1,0,.2Zm.6-1.6-.2-.6.6-.2.2.6Zm.2-.9.8-1.3c0-.1.1-.1.2,0s.1.1,0,.2l-.8,1.3Zm.2.2.8-1.3c0-.1.1-.1.2,0s.1.1,0,.2l-.8,1.3Zm.8-1.5-.2-.6.6-.2.2.6Zm.2-.9.8-1.3c0-.1.1-.1.2,0s.1.1,0,.2l-.8,1.3Zm.3.1.8-1.3c0-.1.1-.1.2,0s.1.1,0,.2l-.8,1.3Zm.8-1.4-.2-.6.6-.2.2.6Z"/><path class="cls-27" d="M491.2,754.8a.48.48,0,0,0-.6.2l-2.4,4.2.8.4,2.4-4.2A.48.48,0,0,0,491.2,754.8Z"/><path class="cls-27" d="M493.5,756.1a.48.48,0,0,0-.6.2l-2.4,4.2.2.1.4-.8a.22.22,0,1,1,.4.2l-.4.8.2.1,2.4-4.2A.48.48,0,0,0,493.5,756.1Zm-1.8,3.5-.3-.2,1.3-2.3a.22.22,0,1,1,.4.2Z"/><path class="cls-27" d="M488.9,753.5a.48.48,0,0,0-.6.2l-2.4,4.2.2.1.4-.8a.22.22,0,0,1,.4.2l-.4.8.2.1,2.4-4.2A.48.48,0,0,0,488.9,753.5Zm-1.7,3.5-.3-.2,1.3-2.3a.22.22,0,1,1,.4.2Z"/><path class="cls-27" d="M492.3,755.4a.48.48,0,0,0-.6.2l-2.4,4.2.2.1.4-.8a.22.22,0,1,1,.4.2l-.4.8.2.1,2.4-4.2C492.6,755.8,492.6,755.6,492.3,755.4Zm-1.7,3.6-.3-.2,1.3-2.3a.22.22,0,1,1,.4.2Z"/><polygon class="cls-27" points="493.2 739.2 493.2 739.2 493.8 737.9 493.6 737.7 492.7 739 492.7 739 491.4 741.3 491.8 741.6 493.2 739.2"/><path class="cls-27" d="M494.8,756.7l-2.7,4.7,2,1.1,2.7-4.7Zm-2.2,4.8-.2-.1.8-1.4c0-.1.1-.1.2,0s.1.1,0,.2Zm1-1.7-.2-.1.8-1.4c0-.1.1-.1.2,0s.1.1,0,.2Zm-.3,2.1-.2-.1.8-1.4c0-.1.1-.1.2,0s.1.1,0,.2Zm1-1.7-.2-.1.8-1.4c0-.1.1-.1.2,0s.1.1,0,.2Zm-.6,1.9-.2-.1.8-1.4c0-.1.1-.1.2,0s.1.1,0,.2Zm.8-1.8.8-1.4c0-.1.1-.1.2,0s.1.1,0,.2l-.8,1.4Z"/><polygon class="cls-27" points="497.2 747.2 497 747 496.5 747.3 496.7 747.5 497.2 747.2"/><rect class="cls-27" x="496.75" y="749.29" width="0.3" height="0.6" transform="translate(-400.41 809.77) rotate(-60.3)"/><rect class="cls-27" x="496.91" y="748.31" width="0.6" height="0.3" transform="translate(-4.25 2.84) rotate(-0.33)"/><rect class="cls-27" x="493.43" y="750.29" width="0.6" height="0.3" transform="translate(-402.75 807.45) rotate(-60.3)"/><rect class="cls-27" x="494.71" y="750.41" width="0.3" height="0.6" transform="translate(-3.78 2.5) rotate(-0.29)"/><rect class="cls-27" x="492.73" y="746.98" width="0.3" height="0.6" transform="translate(-400.43 805.12) rotate(-60.3)"/><rect class="cls-27" x="492.56" y="749.4" width="0.6" height="0.3" transform="translate(-310.51 350.38) rotate(-30.25)"/><path class="cls-27" d="M493.9,750.1a2,2,0,1,0,2-3.4,2,2,0,0,0-2.1.1l-.2-.2s0,.1.2.3c-.2.2-.4.3-.5.6A1.69,1.69,0,0,0,493.9,750.1Zm-.2-3.1c.2.3.6.8.9,1.3-.2,0-.3,0-.3-.1a1,1,0,0,0-.1.3c0,.1.2.3.2.3s.2-.1.4-.2a1.55,1.55,0,0,1,.3.6.49.49,0,0,0,.3-.1l.2-.2c-.1,0-.2-.1-.4-.4.3-.1.6-.1.8-.2l.1.1.6-.3-.7-.1-.1.2c-.3,0-.7.1-1,.1a7.69,7.69,0,0,0-1.2-1.3,1.84,1.84,0,0,1,2-.2,1.84,1.84,0,1,1-2.5.7C493.4,747.3,493.5,747.1,493.7,747Z"/><polygon class="cls-27" points="492.3 748.3 492.3 748.5 492.8 748.5 492.8 748.3 492.3 748.3"/><polygon class="cls-27" points="495.8 750.2 496.1 750.7 496.3 750.6 496 750.1 495.8 750.2"/><path class="cls-27" d="M501,745.7l-7-4-4.9,8.6,7,4Zm-4.8,7.8-6.5-3.7,3.7-6.5,6.5,3.7Z"/><path class="cls-27" d="M506.8,733.4l.3-.5v-.1h0l1.3-2.4h0l.7-1.3-.1-.1-.8,1.3h0l-1,1.8a35.34,35.34,0,0,1,2.7-9.5l-.2-.1-.2-.1a33.14,33.14,0,0,1-6.8,7.1l1-1.8h0l.7-1.3-.1-.1-.8,1.3h0l-1.3,2.4h0l-.3.5-.2.4,5.1,2.9Zm-2.6-3.9-.4-.2.2-.3h.3l.1.2Zm1.7-1.5-.4-.2.2-.3h.3l.1.2Zm-.4,2.2-.4-.2.2-.3h.3l.1.2Zm2.1-3.7-.4-.2.2-.3h.3l.1.2Zm-.5,2.2-.4-.2.2-.3h.3l.1.2Zm-.4,2.2-.4-.2.2-.3h.3l.1.2Z"/><path class="cls-27" d="M509.4,722.3l.6.3.2-.3h.1l.2-.3-.3-.1,1.3-2.3c.1,0,.2,0,.2-.1a.22.22,0,0,0-.4-.2c-.1.1,0,.2,0,.3l-1.3,2.3-.3-.1-.2.3h.1Z"/><polygon class="cls-27" points="504 745.4 504 745.4 504.7 744 504.5 743.9 503.6 745.2 503.6 745.2 502.2 747.5 502.7 747.8 504 745.4"/><polygon class="cls-27" points="495 746.4 495 745.8 494.7 745.8 494.7 746.4 495 746.4"/><rect class="cls-27" x="495.75" y="746.27" width="0.6" height="0.3" transform="translate(-398.09 807.44) rotate(-60.3)"/><path class="cls-27" d="M493.2,751.4a3.45,3.45,0,1,0-1.3-4.7A3.39,3.39,0,0,0,493.2,751.4Zm-1.6-2.2.5-.1v.2l-.5.2Q491.75,749.2,491.6,749.2Zm.1.3.5-.2c0,.1,0,.1.1.2l-.5.2C491.8,749.6,491.8,749.6,491.7,749.5Zm.2.3.5-.2c0,.1,0,.1.1.1l-.5.3C491.9,749.9,491.9,749.9,491.9,749.8Zm.1.3.5-.3.1.1-.4.3C492.1,750.2,492.1,750.2,492,750.1Zm.2.3.4-.3.1.1-.4.4C492.3,750.5,492.3,750.5,492.2,750.4Zm.4.4-.2-.2.4-.4.1.1Zm.3.2c-.1,0-.1-.1-.2-.1l.3-.4.1.1Zm.3.2c-.1,0-.1-.1-.2-.1l.3-.4.1.1Zm.1.1.3-.5.1.1-.2.5A.35.35,0,0,1,493.3,751.3Zm.3.1.2-.5c.1,0,.1,0,.2.1l-.2.5C493.7,751.5,493.7,751.5,493.6,751.4Zm.3.2.2-.5h.2l-.1.5Zm.3,0,.1-.5h.2l-.1.5C494.4,751.7,494.3,751.7,494.2,751.6Zm.4.1.1-.5h.2v.5Zm.3,0v-.5h.2l.1.5Zm.4,0-.1-.5h.2l.1.5Zm.3-.1-.1-.5h.2l.2.5Zm.3-.1-.2-.5c.1,0,.1,0,.2-.1l.2.5C496.1,751.5,496,751.5,495.9,751.5Zm.4-.1-.2-.5a.1.1,0,0,0,.1-.1l.3.5A.35.35,0,0,0,496.3,751.4Zm.3-.2-.3-.5.1-.1.3.4A.35.35,0,0,1,496.6,751.2Zm.3-.2-.3-.4.1-.1.4.4A.35.35,0,0,0,496.9,751Zm.2-.2-.4-.4.1-.1.4.3C497.2,750.7,497.2,750.8,497.1,750.8Zm.3-.2-.4-.4.1-.1.4.3A.35.35,0,0,0,497.4,750.6Zm.2-.3-.4-.3.1-.1.5.3C497.7,750.2,497.6,750.2,497.6,750.3Zm.2-.3-.5-.3.1-.1.5.2C497.8,749.9,497.8,749.9,497.8,750Zm.1-.3-.5-.2c0-.1,0-.1.1-.2l.5.2A.35.35,0,0,0,497.9,749.7Zm.1-.4-.5-.2v-.2l.5.1C498.1,749.2,498,749.3,498,749.3Zm.1-.3-.5-.1v-.2l.5.1Zm0-.3-.5-.1v-.2h.5A.19.19,0,0,1,498.1,748.7Zm.1-.4h-.5v-.2l.5-.1C498.1,748.2,498.2,748.2,498.2,748.3Zm-.1-.5v.2l-.5.1v-.2Zm0-.2-.5.1v-.2l.5-.2Q498,747.6,498.1,747.6Zm-.1-.3-.5.2c0-.1,0-.1-.1-.2l.5-.2C497.9,747.2,497.9,747.2,498,747.3Zm-.2-.3-.5.2c0-.1,0-.1-.1-.1l.5-.3C497.8,746.9,497.8,746.9,497.8,747Zm-.1-.3-.5.3-.1-.1.4-.3C497.6,746.6,497.6,746.6,497.7,746.7Zm-.2-.3-.4.3-.1-.1.4-.4C497.4,746.3,497.4,746.3,497.5,746.4Zm-.4-.4.2.2-.4.4-.1-.1Zm-.3-.2c.1,0,.1.1.2.1l-.3.4-.1-.1Zm-.3-.2c.1,0,.1.1.2.1l-.3.4-.1-.1Zm.7,4.1a2.64,2.64,0,1,1-1-3.6A2.71,2.71,0,0,1,497.2,749.7Zm-.8-4.2-.3.5-.1-.1.2-.5A.35.35,0,0,1,496.4,745.5Zm-.3-.2-.2.5c-.1,0-.1,0-.2-.1l.2-.5A.31.31,0,0,0,496.1,745.3Zm-.3-.1-.2.5h-.2l.1-.5Zm-.3,0-.1.5h-.2l.1-.5C495.3,745.1,495.4,745.1,495.5,745.2Zm-.4-.1-.1.5h-.2v-.5Zm-.3,0v.5h-.2l-.1-.5Zm-.4,0,.1.5h-.2l-.1-.5Zm-.3.1.1.5H494l-.2-.5Zm-.3.1.2.5c-.1,0-.1,0-.2.1l-.2-.5C493.6,745.3,493.7,745.3,493.8,745.3Zm-.4.1.2.5c-.1,0-.1,0-.1.1l-.3-.5A.35.35,0,0,0,493.4,745.4Zm-.3.2.3.5-.1.1-.3-.4A.35.35,0,0,1,493.1,745.6Zm-.3.2.3.4-.1.1-.4-.4A.35.35,0,0,0,492.8,745.8Zm-.2.2.4.4-.1.1-.4-.3C492.5,746.1,492.5,746,492.6,746Zm-.3.2.4.4-.1.1-.4-.3C492.3,746.4,492.3,746.3,492.3,746.2Zm-.2.3.4.3-.1.1-.5-.3C492.1,746.6,492.1,746.6,492.1,746.5Zm-.1.3.5.3-.1.1-.5-.2C491.9,746.9,491.9,746.9,492,746.8Zm-.2.3.5.2c0,.1,0,.1-.1.2l-.5-.2A.35.35,0,0,0,491.8,747.1Zm-.1.4.5.2v.2l-.5-.1C491.6,747.6,491.7,747.5,491.7,747.5Zm-.1.3.5.1v.2l-.5-.1Zm0,.3.5.1v.2h-.5C491.5,748.3,491.6,748.2,491.6,748.1Zm-.1.4h.5v.2l-.5.1C491.6,748.6,491.6,748.6,491.5,748.5Zm.1.3.5-.1v.2l-.5.1Z"/><rect class="cls-27" x="493.6" y="746.05" width="0.3" height="0.6" transform="translate(-309.41 351.69) rotate(-30.34)"/><path class="cls-27" d="M504.3,743.4h0l1.3-2.4h0l.7-1.3-.1-.1-.8,1.3h0l-1.1,1.9.1-5.3h.1l.3-.5,1.2-2.1.5-.8-.1-.1-.2-.5-.6.1-.2-.5-.6.1-.2-.5-.6.1-.2-.5-.6.1-.2-.5-.6.1-.2-.5-.6.1-.1-.1-.5.8-1.2,2.1-.3.5h.1l-4.5,2.8,1.1-1.9h0l.7-1.3-.1-.1-.8,1.3h0l-1.3,2.3h0l-.2.3,9.9,5.6Zm-7.2-5-.5-.3.3-.6.5-.2.1.5Zm4.5-6.9h.2l.1.2-.2.3-.1-.1h-.2Zm-.5.7a2.27,2.27,0,0,1,.4-.1c.1,0,.1.4.1.4l-1.2,2.1-.5-.3Zm-2.1,5-.5-.3.3-.6.5-.2.1.5Zm5.8-3.8h.2l.1.2-.2.3-.1-.1h-.2Zm-.8-.5h.2l.1.2-.2.3-.1-.1h-.2Zm-.8-.5h.2l.1.2-.2.3-.1-.1H503Zm-.8-.4h.2l.1.2-.2.3-.1-.1h-.2Zm-.5.7a2.27,2.27,0,0,1,.4-.1c.1.1.1.4.1.4l-1.2,2.1-.5-.3Zm-2.9,6.8-.5-.3.3-.6.5-.2.1.5Zm3.7-6.4a2.27,2.27,0,0,1,.4-.1c.1.1.1.4.1.4l-1.2,2.1-.5-.3Zm-1.7,5.2-.5-.3.3-.6.5-.2.1.5Zm1.8-2.3-.5-.3,1.2-2.1a2.27,2.27,0,0,1,.4-.1c.1.1.1.4.1.4Zm-1.8,4.6-.5-.3.3-.6.5-.2.1.5Zm3.8-6.3-1.2,2.1-.5-.3,1.2-2.1a2.27,2.27,0,0,1,.4-.1c.1.1.1.4.1.4Zm.8-.5h.2l.1.2-.2.3-.1-.1h-.2Zm-2.7,5.6-.5-.3.3-.6.5-.2.1.5Zm1.5-2.5-.5-.3,1.2-2.1h0a2.27,2.27,0,0,1,.4-.1c.1.1.1.4.1.4Zm-1.5,4.8-.5-.3.3-.6.5-.2.1.5Z"/><path class="cls-26" d="M473.5,750.7c3,10.8,5.9,21.6,6.5,23.7,6.4-1.8-4.3,1.2,23.7-6.5Z"/><path class="cls-23" d="M480.8,765.8l2.4-4.2-.7-.4.3-.6a1.48,1.48,0,0,0,.7.1.85.85,0,0,0,.6-.2l.6.3-3.1,5.5Z"/><path class="cls-23" d="M484.5,762.7a1.86,1.86,0,0,1,1.1-.9,1.72,1.72,0,0,1,1.2.2,1.27,1.27,0,0,1,.7.9,1.72,1.72,0,0,1-.2,1.2,2,2,0,0,1-.9.9,6.39,6.39,0,0,1-1.2.6,5.74,5.74,0,0,0-.7.4l-.3.1c-.2.1-.3.2-.4.2a.1.1,0,0,0-.1.1l1.6.9-.5.8-2.6-1.5.4-.8a1.09,1.09,0,0,1,.4-.2c.1-.1.2-.1.3-.2l.4-.2c.2-.1.6-.3,1.1-.5a5.42,5.42,0,0,0,1.1-.6,2.65,2.65,0,0,0,.5-.6.9.9,0,0,0,.1-.5c0-.2-.1-.3-.3-.4a.62.62,0,0,0-.7.1c-.1.1-.2.2-.2.3l-.1.2-.8-.5Z"/><path class="cls-23" d="M490.1,763.8a1.27,1.27,0,0,1,.7.9,1.47,1.47,0,0,1-.2,1.1l-.5.8a1.27,1.27,0,0,1-.9.7,1.38,1.38,0,0,1-1.1-.1l-.5-.3-1.2,2.1-.8-.5,3.1-5.5Zm-.3,1.6a.6.6,0,0,0,.1-.4q0-.15-.3-.3l-.5-.3-1,1.7.5.3a.6.6,0,0,0,.4.1.32.32,0,0,0,.3-.3Z"/><path class="cls-26" d="M476.5,731.4l.5-.1.3,1.1-2.4.7-.1-.4.3-.2-.6-2.3h-.4l-.1-.4,1.5-.4.1.4-.3.2.6,2.2.7-.2Z"/><path class="cls-26" d="M479.7,730.3a1.38,1.38,0,0,1-.9,1.8c-.8.2-1.3-.1-1.6-1s.1-1.5.9-1.7A1.09,1.09,0,0,1,479.7,730.3Zm-1.8.5c.1.5.4.7.7.6s.5-.4.3-.9-.3-.7-.7-.6S477.8,730.2,477.9,730.8Z"/><path class="cls-26" d="M480.8,729a2,2,0,0,1,.8-.6c.5-.1.8.1,1,.7l.4,1.3h.4l.1.4-1.3.4-.1-.4.2-.2-.3-1.2c-.1-.2-.2-.4-.4-.3a.68.68,0,0,0-.4.4l.3,1.3h.3l.1.4-1.4.4-.1-.4.4-.2-.4-1.6H480l-.1-.4,1-.3Z"/><path class="cls-26" d="M485.4,729.9a.78.78,0,0,1-.6.5c-.7.2-1.1-.2-1.3-1s0-1.5.9-1.8h.4l-.2-.6h-.4l-.1-.4,1.1-.3.9,3.2h.4l.1.4-1,.3Zm-.5-1.8h-.4c-.4.1-.5.5-.3.9s.3.7.7.6a.68.68,0,0,0,.4-.4Z"/><path class="cls-26" d="M488.9,727.7a1.38,1.38,0,0,1-.9,1.8c-.8.2-1.3-.1-1.6-1s.1-1.5.9-1.7A1.13,1.13,0,0,1,488.9,727.7Zm-1.7.6c.1.5.4.7.7.6s.5-.4.3-.9-.4-.7-.7-.6S487,727.7,487.2,728.3Z"/><path class="cls-26" d="M490.1,726.4a2,2,0,0,1,.8-.6c.5-.1.8.1,1,.7l.4,1.3h.4l.1.4-1.3.4-.1-.4.2-.2-.3-1.2c-.1-.2-.2-.4-.4-.3a.68.68,0,0,0-.4.4l.3,1.3h.3l.1.4-1.4.4-.1-.4.4-.2-.4-1.6h-.4l-.1-.4,1-.3Z"/><path class="cls-26" d="M494,727.4l.3-.2-.6-2.3h-.4l-.1-.4,1.1-.3.5-.1a1.15,1.15,0,0,1,1.5.7c.2.8-.2,1.3-1,1.6l-.3.1.2.6h.4l.1.4-1.5.4Zm1-1.8c.4-.1.6-.4.5-.7s-.3-.5-.6-.4l-.4.1.3,1.1Z"/><path class="cls-26" d="M499.3,724.9a1.38,1.38,0,0,1-.9,1.8c-.8.2-1.3-.1-1.6-1s.1-1.5.9-1.7S499,724.1,499.3,724.9Zm-1.8.5c.1.5.4.7.7.6s.5-.4.3-.9-.4-.7-.7-.6S497.3,724.9,497.5,725.4Z"/><path class="cls-26" d="M500.3,725.5a1,1,0,0,0,.4-.1q.45-.15.3-.3c-.1-.4-1.4.1-1.6-.8-.2-.6.3-1,.8-1.1a4.4,4.4,0,0,1,.9-.1l.2.7-.4.1-.2-.3h-.3q-.3.15-.3.3c.1.4,1.4-.1,1.6.7.2.6-.2,1-.9,1.2a5.1,5.1,0,0,1-.9.1l-.2-.8.4-.1Z"/><path class="cls-26" d="M504.1,724.8a1.79,1.79,0,0,1-.7.5c-.6.2-.8-.2-1-.7l-.3-1.1-.4.1-.1-.5.4-.2-.2-.7.7-.3.2.8.7-.2.1.5-.7.2.3,1.1c.1.3.2.4.4.4s.3-.2.4-.2Z"/><path class="cls-26" d="M512.9,735l.2.7,2.1-.6-.7-.6.4-.4,1,.9.2.6-2.9.8.2.7-.6.2-.6-2.1Z"/><path class="cls-26" d="M513.7,737.7a1,1,0,0,0,.1.4c.3,1.1,1.2.8,1.2.8a1.7,1.7,0,0,1-.4-.7.9.9,0,0,1,.7-1.3,1.18,1.18,0,0,1,1.5.9,1.35,1.35,0,0,1-1.1,1.7c-1.2.3-2.2,0-2.5-1.3a1.58,1.58,0,0,1-.1-.4Zm2,1a.66.66,0,0,0,.6-.8.57.57,0,1,0-1.1.3,1.41,1.41,0,0,0,.3.5Z"/><path class="cls-26" d="M517.1,739.6a2.8,2.8,0,0,1,.5,1c.2.8.1,1.3-.5,1.5a.82.82,0,0,1-1-.4.87.87,0,0,1-.6.9c-.8.2-1.3-.4-1.5-1.1a1.73,1.73,0,0,1,0-1.1l.6.1a2.42,2.42,0,0,0,0,.9c.1.4.3.6.7.5s.4-.4.3-.8l-.1-.4.5-.1.1.4c.1.4.3.6.6.5a.6.6,0,0,0,.3-.6,4.71,4.71,0,0,1-.2-.5l-.4.1-.1-.5Z"/><path class="cls-26" d="M515.2,745.6l-.2-.7.7-.2-.4-1.5.6-.2c.9.3,1.8.6,2.6.9l.1.8-2.1.6.1.5-.6.2-.1-.5Zm.9-2,.2.9,1.3-.3Z"/><path class="cls-28" d="M516.4,766.9a14.31,14.31,0,0,0,1.1,1.5.1.1,0,0,1,.1-.1h0a.1.1,0,0,1,.1-.1h0a21.28,21.28,0,0,1-1.6-2.5l-.1.1h0v-.3h0a.1.1,0,0,0,.1.1,16.67,16.67,0,0,1-.8-2,.37.37,0,0,1-.3.1,12.32,12.32,0,0,0,1.4,3.1v.1c0-.1.1-.1,0,0h0Z"/><path class="cls-28" d="M512.7,755.7Z"/><path class="cls-28" d="M525.5,744.1c.1,0,.1-.1.2-.1a11.66,11.66,0,0,0-3.3,1.1v.1h.3c0,.1,0,.1-.1.1h-.2c-.1,0-.1,0-.1.1v.1a16.26,16.26,0,0,1,3.9-1.3v-.1c0-.1,0-.1-.1-.2-.1.1-.1.1-.2.1h-.2c-.1.1-.2.1-.2.2s-.1.1-.2,0h0C525.3,744.3,525.4,744.1,525.5,744.1Zm-.4.2Z"/><path class="cls-28" d="M512.3,753.6a1.27,1.27,0,0,0,.6.1.63.63,0,0,0,.6-.5.91.91,0,0,0-.5-1.2h0v.2h0a2.19,2.19,0,0,1,.5.3.45.45,0,0,1,0,.5c-.1.2-.2.3-.4.3a1.09,1.09,0,0,1-.5-.1.7.7,0,0,1-.5-.4c-.1.1-.1.1-.2.1h0v.1C511.8,753.3,512,753.5,512.3,753.6Z"/><polygon class="cls-28" points="517.9 746.7 518 746.7 518.6 746.2 518.6 746.2 518.3 746.3 517.3 745.1 517.6 744.8 517.9 744.9 518 744.9 517.7 744.5 516.5 745.5 516.8 745.8 516.9 745.8 516.7 745.5 517.1 745.2 518.1 746.4 517.9 746.7"/><path class="cls-28" d="M512.7,752h0a.37.37,0,0,0-.3-.1c-.1.1-.3.2-.4.4.1,0,.1-.1.2-.1h.2l.1-.1h0a.31.31,0,0,1,.2-.1Z"/><path class="cls-28" d="M511.7,753a.1.1,0,0,0,.1-.1v-.4a.22.22,0,0,1,.2-.2c-.1.1-.2.2-.3.2h0a.45.45,0,0,0,0,.5Z"/><path class="cls-28" d="M514.1,751.4h.2a.6.6,0,0,0,.1-.4l-.2.2c0,.1-.1.1-.1.2Z"/><path class="cls-28" d="M509.3,753.7a.76.76,0,0,1,.2.4c.1-.2.1-.4.2-.6C509.5,753.6,509.4,753.7,509.3,753.7Z"/><path class="cls-28" d="M514.2,751.6l-.1.1H514c-.1,0-.1,0-.2.1s-.1.1-.2,0h0l.3.1C514,751.9,514.1,751.7,514.2,751.6Z"/><path class="cls-28" d="M515.6,767Z"/><path class="cls-28" d="M514.6,756.7l.1-.1h0C514.6,756.6,514.6,756.6,514.6,756.7Z"/><path class="cls-28" d="M521.1,746.1h0v-.2h.1v-.1h0l.1.1.1-.1c-.1-.1,0-.1,0-.2h0a15.64,15.64,0,0,0-5.3,4.6l.1.1h-.1c-.6.9-1.1,1.8-1.6,2.7h0a.1.1,0,0,0,.1.1h.2c0-.1.1-.1.1-.2s0-.1.1-.2h0l.3-.6h0c0-.1,0-.1.1-.1h0a12.88,12.88,0,0,1,2.2-3c-.1,0-.1-.1-.1-.2a.35.35,0,0,1,.2.1A14.45,14.45,0,0,1,521.1,746.1Z"/><path class="cls-28" d="M514.8,756.4v.1h0v.1h0v.1h-.1l.1.1h0v.2h0a14,14,0,0,1,1-3.5h0a.1.1,0,0,1-.1-.1c0-.1,0-.1-.1-.1s-.1.2-.1.3h0a.1.1,0,0,0,.1.1v.1h-.2a15.46,15.46,0,0,0-.7,2.3l.1.3v0Z"/><path class="cls-28" d="M520.3,744.9l-1.5-1.1-.3.2.3,1.4h.1v.2h0v.1h0l.2-.2v-.1l-.3.1-.1-.4.7-.4.3.2-.2.2v.1l.6-.4h0l.7-.3v-.1h-.2l-.5-1,.2-.1.1.1.6.4.2-.1v-.9h.2l.5,1.1-.2.2v.1l.5-.2h0l.1-.1v-.1h-.2l-.7-1.4.2-.2v-.1l-.5.3v1.2l-1-.8h0l-.5.3v.1h.2l.7,1.4-.2.2Zm-1.3.2-.3-1.1.9.7Zm1.6-2Z"/><path class="cls-28" d="M518.9,746l.2-.1-.1-.1h-.1v.2Z"/><path class="cls-28" d="M514.1,767.4h.2l-.2-.3H514l.1.3-.3.1A.37.37,0,0,0,514.1,767.4Z"/><path class="cls-28" d="M526.2,743.9c0,.1,0,.2.1.2a4.33,4.33,0,0,0,.5-.1l-.1-.3h-.3c0,.2,0,.2-.2.2Z"/><path class="cls-28" d="M511.1,768.8c0,.1.1.1,0,0a.76.76,0,0,0-.2-.4C510.9,768.6,511.1,768.7,511.1,768.8Z"/><path class="cls-28" d="M511.5,764.5h-.3a1.76,1.76,0,0,0,.1.6.1.1,0,0,0,.1.1h.1v-.7Z"/><path class="cls-28" d="M512.6,764.3c.2,0,.3.1.4.3s0,.3,0,.3h0l-.2.1v.1l.4-.1a1.76,1.76,0,0,0-.1-.6.63.63,0,0,0-.6-.5h-.2c-.3.1-.3.4-.3.7s0,.5-.2.5h-.1c-.1,0-.1,0-.2-.1v.3h0a.37.37,0,0,0,.3.1h.1a.67.67,0,0,0,.4-.7.37.37,0,0,1,.3-.4Z"/><path class="cls-28" d="M514.1,763.5h0c-.2-1-.4-2.1-.5-3.1v-.7h-.1v-.1h.1V759h0c-.1,0-.1.1-.2.1s0-.1.1-.1a.1.1,0,0,0,.1-.1v-.2h.1a12.61,12.61,0,0,1,.4-2.8h0a10,10,0,0,1,1-2.9H515l-.1.1h-.1a.1.1,0,0,0-.1.1h0a15.64,15.64,0,0,0-1.2,7.2,14.46,14.46,0,0,0,.5,3C513.9,763.4,514,763.5,514.1,763.5Zm-.7-3.6h0c.1,0,.1.1,0,.1S513.4,760,513.4,759.9Z"/><path class="cls-28" d="M512.5,755.4v.1h0a.1.1,0,0,0,.1-.1l.1-.4v-.2h0l-.1.2-.5-.1.1-.2a.64.64,0,0,0,0-.6c-.1-.1-.2-.3-.4-.3h-.2c-.2,0-.4.2-.5.5l-.1.3-.1.6h.1l.1-.2.2.1h0c.1-.1.1,0,.2,0h-.1Zm-1.4-.6.1-.3a.32.32,0,0,1,.3-.3h.2a.42.42,0,0,1,.3.6l-.1.2Z"/><path class="cls-28" d="M510.6,750.3h0l.2-.2c.1-.1.2-.1.3-.2a15.76,15.76,0,0,1,1.5-2.4h0c-.1-.1-.2-.2-.3-.2a19.23,19.23,0,0,0-1.8,3.1h0A.1.1,0,0,0,510.6,750.3Z"/><path class="cls-28" d="M508.6,760.9h0a.1.1,0,0,1,.1.1.1.1,0,0,0,.1.1l.1.1h.1a1.27,1.27,0,0,0-.1-.6,20.86,20.86,0,0,1,.4-5.6c-.1.2-.3.3-.4.4a22.4,22.4,0,0,0-.3,5.2c-.1.2-.1.2,0,.3Zm.1-.9c0-.1,0-.1.1-.1S508.8,760,508.7,760Z"/><path class="cls-28" d="M511.8,770c-.2-.3-.3-.6-.5-.9h-.2c-.1,0-.1,0-.1-.1s-.1-.1-.2-.1h0c0,.1.1.2.1.3a2.18,2.18,0,0,1,.5.8h.4Z"/><path class="cls-28" d="M510.7,768.7h0l.1.1h.1c0-.1-.1-.1-.1-.2v-.1a.37.37,0,0,1-.1-.3c0-.1,0-.1-.1-.2v-.1c.1,0,.1.1.1.2a.35.35,0,0,0,.1.2h0l-.3-.6h0c-.1,0-.1-.1,0-.2a6.89,6.89,0,0,1-.3-.8v.1l-.1-.1v-.2c0-.1-.1-.1,0-.2h0a.1.1,0,0,0-.1-.1h0c0,.1-.1.1-.1.2h0v-.2c0-.1,0-.1-.1-.2h0v-.1l.1-.1a20.69,20.69,0,0,1-1-4.3h0c-.1,0-.1,0-.1-.1v-.1h-.2a20.21,20.21,0,0,0,1.4,5.5v-.2h.1c.2.1.2.1.1.3h0A4.28,4.28,0,0,0,510.7,768.7Z"/><path class="cls-28" d="M513.4,749.1h.2a1.69,1.69,0,0,1,.5.2,1.21,1.21,0,0,1,.5.5l.4.3-.1.3h.1l.5-.7h-.1l-.2.2-1.3-.9.2-.2-.1-.1Z"/><path class="cls-28" d="M513.6,766.7h0c.1-.1.1-.1.1,0h0l.2.2h.1l-.3-.6h-.1v.2l-.5.2-.1-.2c-.2-.3-.4-.5-.6-.5a.37.37,0,0,0-.3.1c-.3.1-.4.4-.2.8l.1.3.3.5h.1v-.2l1.2-.8Zm-1.4.4-.1-.3a.37.37,0,0,1,.2-.5h.2a.37.37,0,0,1,.4.3l.1.2Z"/><path class="cls-28" d="M512.5,747.4h0l.1.1a20.6,20.6,0,0,1,11-7.7c-.1-.1-.1-.2-.2-.3a20.85,20.85,0,0,0-11.1,7.7C512.4,747.3,512.4,747.4,512.5,747.4Z"/><path class="cls-28" d="M515.5,746.9h.1c0-.1-.1-.1-.1-.2v-.1h-.2C515.5,746.6,515.4,746.7,515.5,746.9Z"/><path class="cls-28" d="M516.6,747.8h0l-.2-.1-.1.1.3.3a2.19,2.19,0,0,1,.5-.3.63.63,0,0,0,.1-.9.37.37,0,0,0-.3-.1.76.76,0,0,0-.4.2h0v.1h.1a.37.37,0,0,1,.3-.1c.1,0,.2,0,.2.1s.1.1.1.2-.1.2-.2.4A1,1,0,0,0,516.6,747.8Z"/><path class="cls-28" d="M516.1,747.2h0c.1,0,.2-.1.3-.1h0c-.2,0-.2,0-.3.1l.1-.1h0v.1c-.1-.1-.1-.1-.1,0Z"/><path class="cls-28" d="M516.2,746h0c0-.1-.1,0-.2,0h.2Z"/><path class="cls-28" d="M516.2,746.9h0c-.1,0,0,.1,0,0Z"/><path class="cls-28" d="M514,748.5l.3.1.1-.1-.4-.2-.1.2c0-.1,0-.1.1,0Z"/><path class="cls-28" d="M515.1,766a.1.1,0,0,0-.1-.1l.1.1Z"/><path class="cls-28" d="M515.7,747h0c0,.1,0,.1.1.2h0c-.1-.1-.1-.1-.1-.2Z"/><path class="cls-28" d="M521.2,759.5h0c0,.1,0,.1-.1.1h0v.1h.1v.1h0v-.1h0c.1-.1.1-.1,0-.2h0v.1h0v-.1Z"/><path class="cls-28" d="M525.4,758.2h0c-.1-.1-.1,0,0,0h0c-.1.1-.1.1-.1.2h0l.1-.2Z"/><path class="cls-28" d="M518.5,749.5c.5-.5,1-1,1.6-1.5l-.1-.1s0-.1-.1,0h-.2a7.52,7.52,0,0,0-1.6,1.5.1.1,0,0,0,.1.1C518.4,749.4,518.5,749.5,518.5,749.5Z"/><path class="cls-28" d="M520.3,747.8h0c.2,0,.2-.1.3-.1h0a20.13,20.13,0,0,1,2.5-1.4H523c-.1,0-.1,0-.1-.1a13.07,13.07,0,0,0-2.8,1.7C520.1,747.7,520.2,747.8,520.3,747.8Z"/><path class="cls-28" d="M518.2,749.4h0c0,.1.1,0,0,0Z"/><path class="cls-28" d="M522.3,745.1c-.1.1-.3.1-.4.2h.3c0-.1.1-.1.1-.2Z"/><path class="cls-28" d="M525.2,758.2h0c-.1.1,0,.1,0,.1v-.1Z"/><path class="cls-28" d="M522.4,760.9h0a.37.37,0,0,1-.3.1h0v.2a.63.63,0,0,1-.6.5.68.68,0,0,1-.7-.7l-.1.1c0,.1-.1.2-.1.3s.1.2.2.3a.84.84,0,0,0,.7.2h.1a.6.6,0,0,0,.6-.3,1.85,1.85,0,0,0,.2-.7Z"/><path class="cls-28" d="M525.2,757.1c-.1.1-.2.3-.3.4a.76.76,0,0,1-.4.2v.1h.6v.2h0v.1h0v.1h0v.1h0l-.1-1Z"/><path class="cls-28" d="M521.6,745.8h0l-.1.1h0c.1-.1.2-.1.4-.2h0a.37.37,0,0,0-.3.1Z"/><path class="cls-28" d="M522.1,766h0l-2.2.1c.1,0,.1,0,.2.1Z"/><path class="cls-28" d="M518.8,757.7a.84.84,0,0,0-.7-.2.6.6,0,0,0-.6.3.84.84,0,0,0-.2.7l.2,2.7a.6.6,0,0,0,.3.6c.1.1.1.1.2.1h.2v.2h.4a.6.6,0,0,0,.6-.3.84.84,0,0,0,.2-.7V761h0v-.1h0a.1.1,0,0,0-.1-.1h0a.1.1,0,0,1,.1-.1l-.1-2.1A2.37,2.37,0,0,0,518.8,757.7Zm-.8,4.2h0c-.1-.1-.1-.1,0-.1v.1Zm1-.8c0,.2,0,.4-.2.5a.76.76,0,0,1-.5.2c-.2,0-.4,0-.5-.2a.76.76,0,0,1-.2-.5l-.2-2.7c0-.2,0-.4.2-.5a.76.76,0,0,1,.5-.2c.2,0,.4,0,.5.2a.76.76,0,0,1,.2.5Z"/><path class="cls-28" d="M512.9,768.5a1.76,1.76,0,0,1,.8-.9l-.9.5-.2-.1-.1.1.4.4Z"/><path class="cls-28" d="M510.5,761.6l.6-.5.6.4-.3-.7.6-.5h-.7l-.3-.7-.2.7h-.7l.6.4Zm1-.3Z"/><path class="cls-28" d="M523.3,741.6c-.1,0-.2,0-.2.1l-.3.1-.6.2v.1h.2l.5,1.5-.2.2v.1l.7-.2v-.1h-.2l-.2-.5.2-.1a2.19,2.19,0,0,0,.5-.3.45.45,0,0,0,0-.5C523.8,741.7,523.6,741.6,523.3,741.6Zm.3.9c-.1.1-.2.2-.3.2l-.2.1-.3-.8.3-.1h.1c.2,0,.3.1.4.3C523.7,742.2,523.7,742.4,523.6,742.5Z"/><path class="cls-28" d="M508.6,761.2a.1.1,0,0,0-.1-.1v.4h0a.35.35,0,0,1,.2-.1h0C508.7,761.2,508.6,761.2,508.6,761.2Z"/><path class="cls-28" d="M523.6,739.5h0c0,.1.1.2.1.3v.1h.2s-.1-.1,0-.1.1,0,.1.1h.1c.2,0,.4-.1.6-.1h.1a1.7,1.7,0,0,1,.7-.1l-.1-.3A3.67,3.67,0,0,0,523.6,739.5Z"/><path class="cls-28" d="M515.8,767.3v.2h-.1c.1.1.1.2.2.3a1.56,1.56,0,0,1,.6.8.1.1,0,0,0,.1.1l.3-.1A4.23,4.23,0,0,1,515.8,767.3Z"/><path class="cls-28" d="M515.8,753.6l.3-.6v-.1h.1a14,14,0,0,1,2.2-3.2.1.1,0,0,1-.1-.1h-.2l-.4.4v.1h-.1a4.23,4.23,0,0,0-.5.7h0a13.5,13.5,0,0,0-1.5,2.6C515.7,753.4,515.7,753.5,515.8,753.6Zm1.7-3.2c0,.1,0,.1-.1.2C517.4,750.5,517.5,750.5,517.5,750.4Z"/><path class="cls-28" d="M514.6,762.4a.6.6,0,0,0,.1-.4v-.2c-.1-.5-.1-.9-.2-1.4v-2.1a.1.1,0,0,0-.1.1.1.1,0,0,1-.1.1h-.1v1.9A11.8,11.8,0,0,1,514.6,762.4Z"/><path class="cls-28" d="M514.4,758.1h.2c0-.3.1-.6.1-.9h-.1v-.1h0V757h0v-.1h0a5,5,0,0,0-.2,1.2Z"/><path class="cls-28" d="M520.4,753.8h0l8.9-.6h0a1.1,1.1,0,0,1-.8,0l-12.8.9v.1l4.7-.4Z"/><path class="cls-28" d="M514,763.6h-.2a7.84,7.84,0,0,0,.5,1.4s.1.1,0,.1h0a15.05,15.05,0,0,0,1.1,2.2h0v-.1c-.1,0-.1,0-.1-.1h0c.1,0,.1,0,.2-.1-.1-.2-.2-.3-.2-.5H515a.1.1,0,0,0,.1-.1h0a.1.1,0,0,1,.1-.1c0-.1-.1-.1-.1-.2H515l-.1-.1h0v-.4h.1a11.76,11.76,0,0,1-.7-2Zm.8,2.3Z"/><path class="cls-28" d="M514.8,762.5v.2h0v.4h0c0,.1.1.2.1.3h.3c-.1-.5-.3-1-.4-1.4v.5Z"/><path class="cls-28" d="M522.5,766h0c.1,0,.1-.1,0,0Z"/><path class="cls-28" d="M518.5,766.2h0l.1.1a.1.1,0,0,0,.1-.1h-.2Z"/><path class="cls-28" d="M518.4,766.2Z"/><path class="cls-28" d="M516.5,766.4l1.7-.1h0l-1.7.1Z"/><path class="cls-28" d="M523.3,745.8v.1h0v.1h0a13.09,13.09,0,0,1,2.8-.9,1.38,1.38,0,0,1,.4-.3A24.15,24.15,0,0,0,523.3,745.8Z"/><path class="cls-28" d="M520.7,759c-.1-.1-.1-.2-.2-.4h-.1c0,.1,0,.1.1.2a.78.78,0,0,0,.4.4l.2.1v-.1C520.8,759.2,520.7,759.1,520.7,759Z"/><path class="cls-28" d="M522,759a1.42,1.42,0,0,0,.2-.6v-.3a.6.6,0,0,0-.3-.6.84.84,0,0,0-.7-.2h-.1a.6.6,0,0,0-.6.3,1.42,1.42,0,0,0-.2.6v.4h0v-.2h0v-.1h0v-.2a.69.69,0,0,1,.7-.6h.3c.1,0,.1.1.2.1h.1a1.54,1.54,0,0,1,.3.7v.2h0v.1h0c0,.2,0,.3.1.4-.2.1-.3.3-.7.3h-.1v.1h0v.1h0a.6.6,0,0,1,.4.1c.2.1.3.4.4.8v.2h.3v-.4a.6.6,0,0,0-.1-.4c-.1-.2-.3-.3-.4-.4l-.4-.2.4-.2C521.9,759.2,521.9,759.1,522,759Z"/><path class="cls-28" d="M526.2,765.7h.4v-.1h0l-.4.1Z"/><path class="cls-28" d="M521,759.6h0l-.2.1c-.1.1-.2.1-.2.2a.73.73,0,0,0-.2.6v.7c0-.1.1-.2.1-.3s0-.1.1-.1v-.6a1.38,1.38,0,0,1,.3-.4h0c.1-.1.1-.1.1-.2Z"/><rect class="cls-28" x="523.38" y="761.37" width="0.3" height="0.3" transform="translate(-51.11 37.79) rotate(-3.94)"/><path class="cls-28" d="M525.3,758.5h0c-.1,0-.1.1,0,0h0l-.1.1h0l.2,2.9h.3l-.4-3Z"/><path class="cls-28" d="M525.2,758.5h0l-.1.2h0c.1-.1.1-.1.1-.2Z"/><path class="cls-28" d="M527,757.1h-.1c-.1,0-.1.1-.2.2v.1h0l.3-.3c-.1.1,0,.1,0,0Z"/><path class="cls-28" d="M525.3,758.5Z"/><path class="cls-28" d="M526.8,765.6h.6v-.1Z"/><path class="cls-28" d="M526.5,757.8h.2a.37.37,0,0,1,.1-.3h-.1C526.6,757.5,526.5,757.6,526.5,757.8Z"/><path class="cls-28" d="M527.1,756.9h0v.1h0c.1,0,.1,0,0-.1h0c.1.1.1,0,0,0h0c.1,0,.1.1,0,0h.2l-.1.1h.1a.63.63,0,0,1,.7.7v.1a1.08,1.08,0,0,1-.2.8.6.6,0,0,1-.6.3v.2c.5,0,.8.4.9.9v.3c0,.5-.2.7-.7.8-.2,0-.4,0-.5-.2a.52.52,0,0,1-.2-.4h-.2a.55.55,0,0,0,.3.5c.1.1.2.2.3.2v-.1h.1v.1h.4a.91.91,0,0,0,.7-.3.62.62,0,0,0,.2-.7v-.4a.6.6,0,0,0-.1-.4c-.1-.2-.3-.3-.4-.4l-.4-.2.3-.2.2-.2a1.45,1.45,0,0,0,.2-.7v-.2a.6.6,0,0,0-.3-.6.84.84,0,0,0-.7-.2c0,.2-.1.2-.2.2Zm1.3,4.1h0c-.1,0-.1-.1,0,0Z"/><path class="cls-23" d="M433.83,708l.1-.9h0l.1-.9a2.47,2.47,0,0,1-2.1-2.8,2.43,2.43,0,0,1,2.6-2.1c.1,0,.3-.1.3-.2l.2-1.2a.55.55,0,0,0-.3-.5l-1.5-.2c-.1,0-.2,0-.2.1a2.49,2.49,0,0,1-4.9-.9l-.9-.1h0l-.9-.1a2.47,2.47,0,1,1-4.9-.7l-.9-.1-.9-.1a2.47,2.47,0,0,1-2.8,2.1,2.54,2.54,0,0,1-2.1-2.8l-.9-.1-.9-.1a2.47,2.47,0,1,1-4.9-.7l-.9-.1-.9-.09a2.47,2.47,0,0,1-4.9-.7l-.9-.1-.9-.1a2.47,2.47,0,0,1-4.9-.7l-.9-.1-.9-.1a2.47,2.47,0,1,1-4.9-.7l-.9-.1-.9-.1a2.47,2.47,0,0,1-2.8,2.1,2.43,2.43,0,0,1-2.1-2.6c0-.1-.1-.3-.2-.3l-1.2-.2a.55.55,0,0,0-.5.3l-.2,1.5c0,.1,0,.2.1.2a2.49,2.49,0,0,1-.9,4.9l-.1.9-.1.9a2.47,2.47,0,1,1-.7,4.9l-.1.9v.2l-.1.9a2.47,2.47,0,0,1-.7,4.9l-.1.9-.1.9a2.47,2.47,0,1,1-.7,4.9l-.1.9-.1.9a2.47,2.47,0,0,1-.7,4.9l-.1.9-.1.9a2.47,2.47,0,1,1-.7,4.9l-.1.9-.1.9a2.47,2.47,0,1,1-.7,4.9l-.1.9-.1.9a2.47,2.47,0,0,1-.7,4.9l-.1.9-.1.9a2.47,2.47,0,0,1,2.1,2.8,2.43,2.43,0,0,1-2.6,2.1c-.1,0-.3.1-.3.2l-.2,1.2a.55.55,0,0,0,.3.5l1.5.2c.1,0,.2,0,.2-.1a2.49,2.49,0,0,1,4.9.9l.9.1h0l.9.1a2.47,2.47,0,0,1,4.9.7l.9.1.9.1a2.47,2.47,0,1,1,4.9.7l.9.1.9.1a2.47,2.47,0,1,1,4.9.7l.9.1.9.1a2.47,2.47,0,0,1,4.9.7l.9.1.9.1a2.47,2.47,0,0,1,4.9.7l.7.1h.2l.9.09a2.46,2.46,0,0,1,2.8-2.09,2.54,2.54,0,0,1,2.1,2.8l.9.09.9.1a2.47,2.47,0,0,1,2.8-2.1,2.43,2.43,0,0,1,2.1,2.6c0,.1.1.3.2.3l1.2.2a.55.55,0,0,0,.5-.3l.2-1.5c0-.1,0-.2-.1-.2a2.49,2.49,0,0,1,.9-4.9l.1-.9.1-.9a2.47,2.47,0,0,1,.7-4.9l.1-.9.1-.9a2.47,2.47,0,1,1,.7-4.9l.1-.9.1-.9a2.47,2.47,0,0,1,.7-4.9l.1-.9.1-.9a2.47,2.47,0,1,1,.7-4.9l.1-.9.1-.9a2.47,2.47,0,0,1,.7-4.9l.1-.9.1-.9a2.47,2.47,0,0,1,.7-4.9l.1-.9v-.2l.1-.9a2.47,2.47,0,0,1-2.1-2.8A2.37,2.37,0,0,1,433.83,708Z"/><path class="cls-23" d="M422.83,743.9,378,737.2c2.3-15,3.7-24.9,6-40,16.7,2.5,28.2,4.2,44.8,6.7C421.53,752.1,423.83,737.4,422.83,743.9Z"/><path class="cls-27" d="M421,755.9l-44.8-6.7c.7-4.5,1.1-7.5,1.8-12,16.7,2.5,28.2,4.2,44.8,6.7C420.63,758.4,421.33,753.9,421,755.9Z"/><path class="cls-24" d="M402.93,700c-2.3-.3-4.7-.7-7.1-1.1l4.3,41.5h.2Z"/><path class="cls-24" d="M381.83,711.3c-.3,2-.6,3.9-.9,5.8l18.2,23.3h.3Z"/><path class="cls-24" d="M380.33,721.3c-.2,1.1-.3,2.1-.5,3.2l18.7,15.7a.37.37,0,0,1,.3.1Z"/><path class="cls-24" d="M378.33,734.6a7.72,7.72,0,0,0-.2,1.5l10.8,2.7c1.5.2,3.1.5,4.7.7Z"/><path class="cls-24" d="M379.53,727.2c-.1.7-.2,1.5-.3,2.2l18.4,10.8c.2,0,.4.1.6.1Z"/><path class="cls-24" d="M378.83,731.3c-.1.6-.2,1.1-.3,1.7l17,6.8c.4.1.8.1,1.2.2Z"/><path class="cls-24" d="M388.43,697.9c-1.5-.2-2.9-.4-4.5-.7-.3,1.8-.5,3.6-.8,5.3l16.5,38h.2Z"/><path class="cls-24" d="M417,702.2c-2.4-.4-4.8-.7-7.1-1.1l-9.4,39.5h.2Z"/><path class="cls-24" d="M422.93,742.9a6.33,6.33,0,0,0,.2-1.5l-16,.2c1.6.2,3.2.5,4.7.7Z"/><path class="cls-24" d="M423.93,736.1c.1-.7.2-1.4.3-2.2l-21.7,7c.2,0,.4.1.6.1Z"/><path class="cls-24" d="M423.43,739.8c.1-.4.2-1,.3-1.7L404,741.2c.4.1.8.1,1.2.2Z"/><path class="cls-24" d="M424.73,731.3c.1-1,.3-2.1.5-3.2l-23.3,12.7a.37.37,0,0,1,.3.1Z"/><path class="cls-24" d="M428,709.2c.2-1.7.5-3.4.8-5.3-1.5-.2-3-.5-4.5-.7l-23.5,37.4h.2Z"/><path class="cls-24" d="M425.83,723.8c.3-1.8.6-3.7.9-5.8l-25.4,22.7h.3Z"/><path class="cls-26" d="M425.43,712.8l.5-1.2s-7,2.1-21.7,1.5-17.9-3.4-17.9-3.4l.5,1.6-1.8,1v.3s1,.3,2.9.7l.3,1,.9.2.3,1.5s1.3.3,5,.8l-.1.9.4.1-.3,1.8-5.4-.7-.1.4h.2v.1l-.2,1.6s2,.2,5.3.6l-1.2,6.7-3.8-.6.3-1.8.9.1.1-.9h.5l.4-.2a8,8,0,0,1-1.5-.4,5.22,5.22,0,0,1-1.2-.6,4.11,4.11,0,0,1-1.4.2,11.93,11.93,0,0,1-1.5-.1,1.87,1.87,0,0,0,.4.3,4.71,4.71,0,0,0,.5.2l-.1.9.9.1-.3,1.8H387l-.4-.1-.2,1.4.4.1h.2l-.9,5.8h-.2l-.4-.1-.2,1.4.4.1h.2l-.4,2.4,1.9.3.4-2.3,3.6.4-.4,2.4,3,.4.3-2.6,1.9.2-.4,2.7,1.7.3.4-2.7.7.1.2-1.4-.7-.1.8-5.4.8.1.2-1.4-.8-.1.2-1.4.8.1.1-.8h.5a.7.7,0,0,0,.4-.2,6.32,6.32,0,0,1-1.3-.4,5.81,5.81,0,0,1-1.1-.6,3.54,3.54,0,0,1-1.2.2,9.44,9.44,0,0,1-1.4-.1.75.75,0,0,0,.3.3l.4.2-.1.8.8.1-.2,1.5-2.1-.3.9-6.9c2.1.2,4.5.5,7,.7,2.8.3,5.5.5,7.9.6l-1.3,7.4-3.9-.6.3-2,.9.1.1-.9h.5a4.2,4.2,0,0,0,.5-.2,8,8,0,0,1-1.5-.4,3.59,3.59,0,0,1-1.2-.7,5.88,5.88,0,0,1-1.4.3,6,6,0,0,1-1.5,0,1.87,1.87,0,0,0,.4.3,4.71,4.71,0,0,0,.5.2l-.1.9.9.1-.3,2h-.2l-.4-.1-.2,1.6.4.1h.2l-1,6.5h-.3l-.4-.1-.2,1.6.4.1h.2l-.3,1.8,1.9.3.3-1.8,3.7.4-.3,1.9,3,.5.3-2,1.9.2-.3,2.1,1.7.3.3-2.2.7.1.2-1.5-.7-.1.9-6,.8.1.2-1.6-.8-.1.2-1.6.8.1.1-.9h.5l.4-.2a6.32,6.32,0,0,1-1.3-.4,5.81,5.81,0,0,1-1.1-.6,5.76,5.76,0,0,1-1.3.3,5.36,5.36,0,0,1-1.4,0,.75.75,0,0,0,.3.3l.4.2-.1.9.8.1-.2,1.6-2.1-.3,1-7.7c3.2.2,5.3.3,5.3.3h.2l.3-1.8h.1l.1-.4s-2.4,0-5.7-.2l.2-1.7.4.1.2-1.2c1.9.1,3.3.1,4.1.1h.9l1.1-1.8,1.3-.1.1-.3,2.7-.2.5-.3-.6-2.9Zm-24.1,4.6.3,2.9c-1.6-.2-3.4-.4-5.1-.6l.2-1.8.4.1.2-1C398.53,717.1,399.83,717.3,401.33,717.4Zm-6.8,18.1.7-5.5,2,.3-.8,5.4Zm-5.6-6.5,3.8.6-1,5.6-3.7-.4Zm22.6,9.5.8-6.1,2.1.3-.9,6Zm-5.7-7.2,3.8.6-1.1,6.3-3.7-.4Zm6.1-12.2-.3,1.9c-2.3-.1-4.9-.3-7.4-.5l.4-2.9c2.7.2,5,.4,7.1.5l-.1.9Z"/><path class="cls-23" d="M387.23,746.6l.5-.1.4-2.9-.4-.3.1-.5,1.5.2,1.2,3.1.3-2.1-.4-.3.1-.5,1.8.2-.1.6-.5.1-.5,3.6-1-.2-1.2-3-.3,2.1.5.3-.1.5-1.8-.3Z"/><path class="cls-23" d="M392.13,747.3l.5-.1.4-2.9-.4-.3.1-.5,1.9.3-.1.6-.5.1-.4,2.9.4.3-.1.5-1.9-.3Z"/><path class="cls-23" d="M394.43,747.7l.5-.1.4-2.9-.4-.3.1-.5,1.4.2.6.1a1.31,1.31,0,0,1,1.3,1.5c-.2,1-.9,1.4-2,1.3H396l-.1.8.4.3-.1.5-1.9-.3Zm2-1.4a.68.68,0,0,0,.9-.6.62.62,0,0,0-.5-.8l-.5-.1-.2,1.4Z"/><path class="cls-23" d="M398.33,748.3l.5-.1.4-2.9-.4-.3.1-.5,1.4.2.6.1a1.31,1.31,0,0,1,1.3,1.5c-.2,1-.9,1.4-2,1.3h-.3l-.1.8.4.3-.1.5-1.9-.3Zm2-1.5a.68.68,0,0,0,.9-.6.62.62,0,0,0-.5-.8l-.5-.1-.2,1.4Z"/><path class="cls-23" d="M406.53,747.8a2.09,2.09,0,0,1-2.4,2,2,2,0,0,1-1.6-2.5,2,2,0,0,1,2.4-2A2,2,0,0,1,406.53,747.8Zm-3-.4c-.2,1,.1,1.5.7,1.6s1-.3,1.2-1.4-.1-1.5-.7-1.6S403.73,746.3,403.53,747.4Z"/><path class="cls-23" d="M406.73,749.6l.5-.1.4-2.9-.4-.3.1-.5,1.5.2,1.2,3.1.3-2.1-.4-.3.1-.5,1.8.2-.1.6-.5.1-.5,3.6-1-.2-1.2-3-.3,2.1.5.3-.1.5-1.8-.3Z"/><path class="cls-27" d="M399.23,703.9a2.1,2.1,0,0,1,.7-1.4,1.81,1.81,0,0,1,1.3-.3,1.64,1.64,0,0,1,1.1.7,1.52,1.52,0,0,1,.3,1.3,3,3,0,0,1-.5,1.3,7.36,7.36,0,0,1-1,1.1c-.1.1-.3.4-.6.7l-.2.3c-.1.2-.3.3-.3.4l-.1.1,2,.3-.2,1-3.3-.5.1-.9.3-.3.3-.3.3-.3.9-.9a7.29,7.29,0,0,0,.9-1.1,1.33,1.33,0,0,0,.3-.8,1.27,1.27,0,0,0-.1-.6.55.55,0,0,0-.5-.3.75.75,0,0,0-.7.4c-.1.1-.1.2-.1.4v.3l-1-.2Z"/><path class="cls-27" d="M406.23,708.3a1.64,1.64,0,0,1-.7,1.1,1.38,1.38,0,0,1-1.2.3,1.64,1.64,0,0,1-1.1-.7,1.38,1.38,0,0,1-.3-1.2l.6-3.7a1.64,1.64,0,0,1,.7-1.1,1.38,1.38,0,0,1,1.2-.3,1.64,1.64,0,0,1,1.1.7,1.38,1.38,0,0,1,.3,1.2Zm-.5-3.9c0-.2,0-.3-.1-.4a.52.52,0,0,0-.4-.2c-.2,0-.3,0-.4.1a.52.52,0,0,0-.2.4L404,708c0,.2,0,.3.1.4a.52.52,0,0,0,.4.2c.2,0,.3,0,.4-.1a.52.52,0,0,0,.2-.4Z"/><path class="cls-27" d="M409.53,707.6l-.8-4.2,1.1.2.4,2.6,1.1-2.3,1.1.2-2,3.8-.4,2.9-1-.2Z"/><rect class="cls-27" x="409.8" y="707.09" width="0.4" height="2.9" transform="translate(-351.62 1008.63) rotate(-81.45)"/><rect class="cls-27" x="409.57" y="708.11" width="0.4" height="2.9" transform="translate(-352.83 1009.26) rotate(-81.45)"/><path class="cls-28" d="M430.93,719.9c.3.1.7.3,1,.4V720a6.12,6.12,0,0,1-1.2-.5.1.1,0,0,0,.1.1c.2,0,.2.1.1.3Z"/><path class="cls-28" d="M416.13,709.4l1.7.2h.4l-.1-.3H418v.3h-.5l-.2-.9.4-.3.2.3h.1l-.2-.9h0l-.1-.9h-.1l-.1.3-1.4.2-.1-.2.2-.1.7-.5v-.2l-.8-.3-.2-.1v-.2l1.4-.2.1.3h.1l-.1-.6h0v-.2h-.1l-.1.3-1.8.2-.1-.2h-.1l.1.7,1.4.5-1.3.8h0l.1.7h.1l.1-.3,1.8-.2.2.4v.3l-1.8,1.3Zm-.2-2.7Zm1.5,1.7.2.9-1.4-.1Z"/><path class="cls-28" d="M422.23,711.9h0c0-.1,0-.1-.1-.1Z"/><path class="cls-28" d="M423.33,713.7a20.94,20.94,0,0,0,2.4,2.8c.1,0,.2-.1.3-.2a2.65,2.65,0,0,0-.6-.5h-.1v-.1a14.59,14.59,0,0,1-2.7-3.8l-.1.1-.1.1v.1l.3.6h0a6.78,6.78,0,0,0,.6.9h0c-.1-.1,0-.1,0,0Zm-.3-.6c.1,0,.1,0,.2.2Z"/><path class="cls-28" d="M422.43,711.6a12.23,12.23,0,0,1-1-2.4h-.1a.1.1,0,0,0-.1.1c0,.1,0,.1-.1.2a24.43,24.43,0,0,0,1,2.4.1.1,0,0,0,.1-.1C422.33,711.6,422.33,711.6,422.43,711.6Z"/><path class="cls-28" d="M429.13,718.8h0v.2l.2-.1h.4a18.31,18.31,0,0,1-3.6-2.6h-.4c.1.1.2.2.3.2h.2a.35.35,0,0,0-.1.2,19.52,19.52,0,0,0,2.3,1.7l.2-.09h0l.1.09h0a.1.1,0,0,1,.1.1h0l.3.3Z"/><path class="cls-28" d="M430.73,719.4a4.67,4.67,0,0,1-1-.5h-.1a.1.1,0,0,0-.1.1h-.3a9.14,9.14,0,0,0,1.4.7v-.2Z"/><path class="cls-28" d="M428.93,718.8l.1.1-.1-.1Z"/><path class="cls-28" d="M413.13,701.8h.4v-.2h-.2a.1.1,0,0,1,.1-.1h.1a1.7,1.7,0,0,1,.1-.7h0v-.2a19.42,19.42,0,0,1,.7-3.3,2.35,2.35,0,0,0,.2-.8l-.4-.1a1.85,1.85,0,0,0-.2.7,24.3,24.3,0,0,0-.8,4.7Z"/><path class="cls-28" d="M427.13,720.8h0v-.1s-.1,0,0,.1Z"/><path class="cls-28" d="M425.93,721.9h0l.8-1.2h.1v-.1l-.4-.2h-.2l.2.2-.4.6-.3-.2a1,1,0,0,0-.7-.2.51.51,0,0,0-.5.4c0,.1-.1.1-.1.2-.1.3.1.5.4.7l.3.2.6.4.1-.1-.2-.2.2-.2h-.1A1.24,1.24,0,0,1,425.93,721.9Zm-.5.2-.3-.2a.37.37,0,0,1-.2-.5c0-.1,0-.1.1-.2a.52.52,0,0,1,.8-.1l.3.2Z"/><path class="cls-28" d="M431.83,721.2c-.2-.1-.3-.1-.5-.2h0c0,.1.1.2,0,.3a.1.1,0,0,1-.1-.1v-.1c0-.1-.1-.1-.2,0h-.1c0-.1,0-.1.1-.1a17.72,17.72,0,0,1-3.1-1.5h0a31.55,31.55,0,0,1-2.9-2.2v.4h0v.1h0a17.94,17.94,0,0,0,6.7,3.9Z"/><path class="cls-28" d="M430.93,726.9a20.42,20.42,0,0,1-6-2.7h-.4a.1.1,0,0,1-.1-.1h0c-.1,0-.1-.1-.2-.1h-.1l-.1-.1h.3c-.6-.4-1.1-.8-1.6-1.2l-.1.1c0-.1-.1-.1-.1-.2a25.74,25.74,0,0,1-4.8-5.1h0c-.1,0-.2.1-.4.2a24.6,24.6,0,0,0,13.4,9.6Zm-.5-.1c.1,0,.1,0,.1.2C430.43,726.9,430.43,726.9,430.43,726.8Z"/><path class="cls-28" d="M423.83,720.8a1,1,0,0,0,.8-.5,2.09,2.09,0,0,0,.4-.6.81.81,0,0,0-.3-.9,1,1,0,0,0-1.5.1v.1h0c.1,0,.1,0,.2.1v.1c.2-.2.4-.4.6-.4a.71.71,0,0,1,.8.8c0,.2-.2.4-.3.6a.72.72,0,0,1-.6.4c-.2,0-.2.1-.1.2Z"/><path class="cls-28" d="M418.33,709.6h0l.1.2h.1l-.1-.3c.1,0,0,0-.1.1C418.43,709.5,418.33,709.5,418.33,709.6Z"/><path class="cls-28" d="M418.73,713.7l.1-.1v-.4h.2v.1h0c-.3.2-.3.3-.3.4Z"/><path class="cls-28" d="M417.53,712.8l-.1.1a.37.37,0,0,0,.1.3v-.4Z"/><polygon class="cls-28" points="419.02 711.11 419.13 711.11 418.73 710.11 418.63 710.21 418.63 710.5 416.93 711.21 416.73 710.71 417.02 710.5 416.93 710.3 416.43 710.5 417.13 712.3 417.63 712.11 417.52 712 417.23 712 417.02 711.5 418.82 710.8 419.02 711.11"/><path class="cls-28" d="M421.83,716h0l-.5-.9-.1.1.1.3-1.5,1.1-.2-.3a.1.1,0,0,0-.1.1l.5.7h.2l-.2-.3,1.5-1.1Z"/><path class="cls-28" d="M422.43,716.8c-.2,0-.4,0-.5.2s-.1.2-.2.2a.88.88,0,0,0,.1.7c.1.2.2.4.1.5s0,.1-.1.1a.39.39,0,0,1-.6-.1,1.44,1.44,0,0,1-.2-.3V718l.2-.2-.1-.1-.3.3a6.13,6.13,0,0,0,.4.6c.3.3.7.5,1,.2.1-.1.1-.2.2-.3a.88.88,0,0,0-.1-.7c-.1-.2-.2-.4-.1-.5s0-.1.1-.1a.49.49,0,0,1,.7.1h0V717A1.42,1.42,0,0,1,422.43,716.8Z"/><path class="cls-28" d="M419.53,713.4l.4-.2a4.08,4.08,0,0,0-.2-.7c-.2-.4-.5-.7-1-.4-.2.1-.2.2-.3.3v.7h.3v-.4a.22.22,0,0,1,.2-.2h.3a.45.45,0,0,1,.3.3,1,1,0,0,1,.1.4v.1l-.2.2Z"/><path class="cls-28" d="M420.23,717.6h0l.1.1.4-.3-.1-.1-.3.1C420.33,717.5,420.33,717.5,420.23,717.6Z"/><path class="cls-28" d="M418.63,713.2Z"/><path class="cls-28" d="M418.73,713.8h-.1v.1h0v.1h0c.1,0,.1,0,.2-.1C418.63,713.9,418.63,713.8,418.73,713.8Z"/><path class="cls-28" d="M424.73,717.3h0c.1,0,.1,0,.1-.1h0c.1,0,.1,0,.1-.1V717l-.2-.2a.22.22,0,0,1-.2-.2h0a2.65,2.65,0,0,1-.5-.6h-.1c-.1,0-.1,0-.1-.1h0a18.68,18.68,0,0,1-2.6-3.7c-.1,0-.1.1-.3.1.1-.1.1-.2.2-.2a16.16,16.16,0,0,1-1.7-4.8h-.2v-.1l-.1-.1h0l.2-.09v-.2c-.1.09-.1,0-.2-.1h0a18.31,18.31,0,0,0,3.1,7.8h.1c0,.09-.1.09-.1.09.8.9,1.6,1.8,2.5,2.7Z"/><path class="cls-28" d="M423.13,718l.3-.2a2.19,2.19,0,0,1-.3-.5v.7Z"/><path class="cls-28" d="M423,720.5a.91.91,0,0,0,.7.3v-.1c0-.1,0-.1-.1-.2a.76.76,0,0,1-.4-.2c-.2-.2-.3-.4-.2-.6s.1-.2.1-.3,0-.1-.1-.2h0c-.1,0-.1-.1,0-.2h0v-.1c-.1.2-.3.4-.3.5A1.07,1.07,0,0,0,423,720.5Z"/><path class="cls-28" d="M417.63,717.6h0a.31.31,0,0,1,.2-.1,24.49,24.49,0,0,1-4.3-15.6c-.1,0-.3.1-.4.1a24.09,24.09,0,0,0,4.4,15.7A.1.1,0,0,1,417.63,717.6Z"/><path class="cls-28" d="M419.43,716.4h0l.3-.4-.1-.1-.4.3.2.2Z"/><path class="cls-28" d="M419.13,705.7c0-.1-.1-.1,0,0l-.1-.1v-.1a.9.9,0,0,0,.1.5c-.1-.1,0-.1,0-.3Z"/><path class="cls-28" d="M433.93,707.3v-.2h0v-.2l-.2-.1v.1C433.83,707.1,433.83,707.2,433.93,707.3Z"/><path class="cls-28" d="M433,712.9a.37.37,0,0,1-.3-.1.37.37,0,0,0,.3.1Z"/><path class="cls-28" d="M419.43,700.6a14.16,14.16,0,0,1,.4-2,5.78,5.78,0,0,1,.5-1.4l-.4-.1a7.37,7.37,0,0,0-.4,1.4c-.1.4-.2.7-.3,1.1h0c0,.2-.1.4-.1.6v.4Z"/><path class="cls-28" d="M418.23,714h0v-.1h-.3l-.1-.1h0c0,.1-.1.1-.1.2C417.93,713.9,418,714,418.23,714Z"/><path class="cls-28" d="M419.33,705.7a16.11,16.11,0,0,1,.1-4.9h-.3a.37.37,0,0,1,.1.3c0,.1-.1.1,0,.2a.5.5,0,0,1,0,.6v-.1c0-.1-.1-.3-.1-.4a.37.37,0,0,0-.1-.3,19.67,19.67,0,0,0-.1,4.2c0,.1.1.1.1,0l.1-.1V705c.1,0,.1,0,0,.1v.2h0v.1c0,.2,0,.3.2.3Zm-.2-3.6h0C419.23,702,419.23,702.1,419.13,702.1Z"/><path class="cls-28" d="M428,711l2.7-9.8h-.1l-4.2,15.3.1.1L428,711Z"/><path class="cls-28" d="M432,714.8a1.27,1.27,0,0,1,.6-.1h.1l.1-.3h-.1a1,1,0,0,0-.9.1,1.21,1.21,0,0,0-.5.5,1.45,1.45,0,0,0,.7-.2Z"/><path class="cls-28" d="M421.23,708.8h0v-.4h0a18.57,18.57,0,0,1-.6-3.4h0l-.1.1h0a.1.1,0,0,1-.1.1,18,18,0,0,0,.8,3.9A.19.19,0,0,1,421.23,708.8Z"/><path class="cls-28" d="M415.33,703.6v.7h.1l.1-.3h1.9l.1.3h.1v-.9h-.1l-.1.3h-.7v-.3a1.45,1.45,0,0,0-.2-.7.85.85,0,0,0-.6-.2.63.63,0,0,0-.6.5v.6Zm.7-.8a.52.52,0,0,1,.4.2c.1.1.1.2.1.4v.3h-1v-.5A.51.51,0,0,1,416,702.8Z"/><path class="cls-28" d="M420.33,704.7h.1a15.89,15.89,0,0,1,.2-3.8h-.2a.1.1,0,0,1,.1-.1h.1a16.25,16.25,0,0,1,.4-1.9c.1-.4.2-.7.3-1.1v-.5h-.2c-.1.4-.3.7-.4,1.1h.2a.1.1,0,0,0-.1.1c0,.1,0,.1-.1.1h-.2v.1a19.1,19.1,0,0,0-.6,5.8C420.23,704.7,420.23,704.7,420.33,704.7Z"/><path class="cls-28" d="M419.43,706.6h0v.2h0c0-.2-.1-.3-.1-.5h0c0,.1-.1.1,0,.2A.1.1,0,0,0,419.43,706.6Z"/></svg>