<svg id="Слой_1" data-name="Слой 1" xmlns="http://www.w3.org/2000/svg" viewBox="0 0 90 90"><defs><style>.cls-1{fill:#70a7ff;}</style></defs><title>digital</title><path class="cls-1" d="M86.07,63.41l-1.82-.82a43.09,43.09,0,0,0-2.11-39.28l1.72-1A45.07,45.07,0,0,1,86.07,63.41Z"/><path class="cls-1" d="M79,18.61a43.06,43.06,0,0,0-51.9-12.7l-.83-1.82a45,45,0,0,1,54.3,13.3Z"/><path class="cls-1" d="M4.09,63.77a45,45,0,0,1,9.2-50.71l1.41,1.42A43,43,0,0,0,5.9,62.94Z"/><path class="cls-1" d="M83,90H7a3,3,0,0,1-3-3V39a3,3,0,0,1,3-3H60v2H7a1,1,0,0,0-1,1V87a1,1,0,0,0,1,1H83a1,1,0,0,0,1-1V39a1,1,0,0,0-1-1H69V36H83a3,3,0,0,1,3,3V87A3,3,0,0,1,83,90Z"/><path class="cls-1" d="M81,86H15a1,1,0,0,1-1-1V41a1,1,0,0,1,1-1H56v2H16V84H80V42H65V40H81a1,1,0,0,1,1,1V85A1,1,0,0,1,81,86Z"/><path class="cls-1" d="M10,69a6,6,0,1,1,6-6A6,6,0,0,1,10,69Zm0-10a4,4,0,1,0,4,4A4,4,0,0,0,10,59Z"/><rect class="cls-1" x="5" y="43" width="10" height="2"/><rect class="cls-1" x="5" y="53" width="10" height="2"/><rect class="cls-1" x="5" y="71" width="10" height="2"/><rect class="cls-1" x="5" y="81" width="10" height="2"/><rect class="cls-1" x="5" y="48" width="10" height="2"/><rect class="cls-1" x="5" y="76" width="10" height="2"/><rect class="cls-1" x="9" y="44" width="2" height="10"/><rect class="cls-1" x="9" y="72" width="2" height="10"/><path class="cls-1" d="M51.63,55.12a.85.85,0,0,1-.23,0,1,1,0,0,1-.72-.66L50,52.53,49,51.45l-1.9-.63a1,1,0,0,1-.63-1.27,1.06,1.06,0,0,1,.24-.39L80.61,15.22a1,1,0,0,1,1.42,0l4.24,4.25a1,1,0,0,1,0,1.41L52.33,54.82A1,1,0,0,1,51.63,55.12Zm-2.4-5.68.59.2a1,1,0,0,1,.39.24l1.42,1.41a1.06,1.06,0,0,1,.24.39l.2.59L84.16,20.18l-2.83-2.83Z"/><path class="cls-1" d="M44.56,57.94a1,1,0,0,1-.93-1.37l2.82-7.07,1.86.74-2,4.91,4.9-2L52,55.05l-7.07,2.82A.81.81,0,0,1,44.56,57.94Z"/><rect class="cls-1" x="78.2" y="19.3" width="2" height="6" transform="translate(7.43 62.53) rotate(-45)"/><rect class="cls-1" x="76.08" y="21.42" width="2" height="6" transform="translate(5.31 61.65) rotate(-45)"/><path class="cls-1" d="M32,24H14a1,1,0,0,1-1-1V5a1,1,0,0,1,1-1H32a1,1,0,0,1,1,1V23A1,1,0,0,1,32,24ZM15,22H31V6H15Z"/><path class="cls-1" d="M32,33A10,10,0,0,1,22,23h2a8,8,0,1,0,8-8V13a10,10,0,0,1,0,20Z"/><rect class="cls-1" x="22" y="1.27" width="2" height="25.46" transform="translate(-3.16 20.36) rotate(-45)"/><rect class="cls-1" x="25" y="2.52" width="2" height="16.97" transform="translate(-0.16 21.61) rotate(-45)"/><rect class="cls-1" x="19" y="8.51" width="2" height="16.97" transform="translate(-6.16 19.12) rotate(-45)"/><rect class="cls-1" x="28" y="3.76" width="2" height="8.48" transform="translate(2.84 22.85) rotate(-45)"/><rect class="cls-1" x="16" y="15.76" width="2" height="8.49" transform="translate(-9.16 17.88) rotate(-45)"/><path class="cls-1" d="M54,33H48a1,1,0,0,1-1-1V26a1,1,0,0,1,1-1h6a1,1,0,0,1,1,1v6A1,1,0,0,1,54,33Zm-5-2h4V27H49Z"/><path class="cls-1" d="M60.5,26A4.5,4.5,0,1,1,65,21.5,4.49,4.49,0,0,1,60.5,26Zm0-7A2.5,2.5,0,1,0,63,21.5,2.5,2.5,0,0,0,60.5,19Z"/><path class="cls-1" d="M55,16H47a1,1,0,0,1-1-1,1,1,0,0,1,.17-.56l4-6a1,1,0,0,1,1.45-.2,1,1,0,0,1,.21.2l4,6a1,1,0,0,1-.27,1.39A1,1,0,0,1,55,16Zm-6.13-2h4.26L51,10.8Z"/><rect class="cls-1" x="38" y="46.76" width="2" height="8.49" transform="translate(-24.64 42.51) rotate(-45)"/><rect class="cls-1" x="51" y="58.34" width="2" height="11.31" transform="translate(-30.02 55.52) rotate(-45)"/><rect class="cls-1" x="39" y="43.86" width="2" height="28.28" transform="translate(-29.3 45.27) rotate(-45)"/><rect class="cls-1" x="40" y="50.86" width="2" height="28.28" transform="translate(-33.95 48.03) rotate(-45)"/><rect class="cls-1" x="34.5" y="59.14" width="2" height="12.73" transform="translate(-35.92 44.29) rotate(-45)"/></svg>