<svg id="Слой_1" data-name="Слой 1" xmlns="http://www.w3.org/2000/svg" viewBox="0 0 74.38 84.13"><defs><style>.cls-1{fill:#70a7ff;}</style></defs><title>tradition</title><path class="cls-1" d="M71.94,13.57a12,12,0,0,1-6-6,2.47,2.47,0,0,0-4.4,0A15.7,15.7,0,0,1,60.12,10,8.08,8.08,0,0,0,55,8.17H39.89V4A3.13,3.13,0,0,0,36.77.86h-9A3.13,3.13,0,0,0,24.69,4V8.17H9.55a8.1,8.1,0,0,0-8.09,8.09v26.8a7.91,7.91,0,0,0,.6,3.06,8.07,8.07,0,0,0,7.49,5h4.37v2.11A3.2,3.2,0,0,0,15.2,55.8L3.41,79a2.65,2.65,0,0,0,2.36,3.84h7.07a2.64,2.64,0,0,0,2.36-1.45L26.49,59.18v21a2.65,2.65,0,0,0,2.65,2.65h6.3a2.65,2.65,0,0,0,2.65-2.65v-21L49.38,81.41a2.65,2.65,0,0,0,2.36,1.45h7.07A2.65,2.65,0,0,0,61.18,79L49.39,55.8a3.19,3.19,0,0,0,1.27-2.54V51.15H55a8.09,8.09,0,0,0,8.08-8.09V25.19a2.37,2.37,0,0,0,.65.09A2.44,2.44,0,0,0,66,23.94a12,12,0,0,1,6-6,2.46,2.46,0,0,0,0-4.39ZM26.69,4a1.14,1.14,0,0,1,1.13-1.13h9A1.13,1.13,0,0,1,37.89,4V8.17H26.69ZM3.46,16.26a6.09,6.09,0,0,1,6.09-6.09H55a6,6,0,0,1,3.73,1.3l0,0-.18.15c-.2.17-.41.34-.63.5l-.29.21c-.21.15-.43.29-.66.43l-.3.18c-.34.2-.69.4-1.07.59a2.46,2.46,0,0,0-1.35,2.2h0a2.49,2.49,0,0,0,.79,1.8,2.17,2.17,0,0,0,.56.39c.34.17.66.34,1,.52l.3.18.56.35.33.24.44.32.32.28.38.32c.11.1.21.21.31.31l.33.34c.1.12.19.24.29.35s.2.24.29.37.19.26.28.39l.27.4c.09.13.17.28.26.42a4,4,0,0,1,.2.35V34.51L53.69,26s0,0,0,0l-3.42-3.9a6.38,6.38,0,0,0-4.79-2.17h0a6.38,6.38,0,0,0-4.79,2.17L37.24,26v0L26,38.85l-1.48-1.68a0,0,0,0,0,0,0l-2.86-3.25a5.55,5.55,0,0,0-.48-.49,6.35,6.35,0,0,0-4.31-1.68h0A6.33,6.33,0,0,0,13.06,33a6.2,6.2,0,0,0-1,.92L9.19,37.15a0,0,0,0,0,0,0L3.51,43.63c0-.19,0-.38,0-.57Zm38.71,7.17a4.4,4.4,0,0,1,3.29-1.49h0a4.4,4.4,0,0,1,3.29,1.49l2.54,2.9a5.74,5.74,0,0,1-5.23-.85,1,1,0,0,0-1.2,0,5.72,5.72,0,0,1-5.23.85ZM13.57,35.21a3.69,3.69,0,0,1,.68-.63,4.29,4.29,0,0,1,2.6-.86,4.34,4.34,0,0,1,3.28,1.49L22,37.34a5.74,5.74,0,0,1-4.57-1,1,1,0,0,0-.6-.2.92.92,0,0,0-.6.2,5.77,5.77,0,0,1-4.55,1ZM8.67,49.08A2.3,2.3,0,0,1,8.39,49a4.78,4.78,0,0,1-.57-.12l-.32-.12A4,4,0,0,1,7,48.59l-.32-.16-.43-.25L6,48l-.4-.31-.26-.24c-.12-.12-.24-.24-.35-.37l-.23-.28c-.1-.13-.2-.27-.29-.41l-.19-.32-.08-.15L10.23,39a7.73,7.73,0,0,0,6.61-.68,7.55,7.55,0,0,0,4,1.14A7.68,7.68,0,0,0,23.46,39l8.9,10.15H9.55A6.4,6.4,0,0,1,8.67,49.08ZM13.42,80.5a.66.66,0,0,1-.58.36H5.77a.65.65,0,0,1-.58-.94L17.11,56.46h8.52Zm22.67-.29a.65.65,0,0,1-.65.65h-6.3a.65.65,0,0,1-.65-.65V56.46h7.6Zm23.27.34a.61.61,0,0,1-.55.31H51.74a.64.64,0,0,1-.57-.36L39,56.46h8.53L59.39,79.92A.62.62,0,0,1,59.36,80.55ZM48.66,53.26a1.19,1.19,0,0,1-.87,1.15,1.26,1.26,0,0,1-.33.05H17.12a1.39,1.39,0,0,1-.33-.05,1.19,1.19,0,0,1-.87-1.15V51.15H48.66Zm12.46-10.2A6.09,6.09,0,0,1,55,49.15H35l-7.71-8.79L38.24,27.91a7.79,7.79,0,0,0,7.22-.42,7.56,7.56,0,0,0,4,1.14,7.71,7.71,0,0,0,3.21-.71l8.44,9.62ZM71,16.18h0A14,14,0,0,0,64.18,23a.43.43,0,0,1-.41.25.45.45,0,0,1-.41-.24c-.11-.23-.24-.47-.36-.69a13.69,13.69,0,0,0-6.5-6.17.46.46,0,0,1-.25-.41.47.47,0,0,1,.25-.42A16.41,16.41,0,0,0,60.05,13c.32-.29.62-.59.91-.9a15.66,15.66,0,0,0,2.4-3.63.45.45,0,0,1,.41-.24.44.44,0,0,1,.41.24A13.88,13.88,0,0,0,71,15.35a.45.45,0,0,1,.25.42A.44.44,0,0,1,71,16.18Z"/><path class="cls-1" d="M21.33,26.5a4.22,4.22,0,1,0-4.21-4.21A4.22,4.22,0,0,0,21.33,26.5Zm0-6.43a2.22,2.22,0,1,1-2.21,2.22A2.22,2.22,0,0,1,21.33,20.07Z"/><path class="cls-1" d="M21.33,16.15a1,1,0,0,0,1-1v-.83a1,1,0,0,0-2,0v.83A1,1,0,0,0,21.33,16.15Z"/><path class="cls-1" d="M26.38,18.24a1,1,0,0,0,.71-.29l.59-.59A1,1,0,0,0,26.26,16l-.59.59a1,1,0,0,0,0,1.41A1,1,0,0,0,26.38,18.24Z"/><path class="cls-1" d="M27.47,22.29a1,1,0,0,0,1,1h.84a1,1,0,0,0,0-2h-.84A1,1,0,0,0,27.47,22.29Z"/><path class="cls-1" d="M27.09,26.63a1,1,0,0,0-1.42,0,1,1,0,0,0,0,1.41l.59.59a1,1,0,0,0,.71.3,1,1,0,0,0,.71-1.71Z"/><path class="cls-1" d="M21.33,28.42a1,1,0,0,0-1,1v.84a1,1,0,1,0,2,0v-.84A1,1,0,0,0,21.33,28.42Z"/><path class="cls-1" d="M15.58,26.63l-.59.59a1,1,0,0,0,.71,1.71,1,1,0,0,0,.71-.3L17,28a1,1,0,0,0,0-1.41A1,1,0,0,0,15.58,26.63Z"/><path class="cls-1" d="M13.36,23.29h.84a1,1,0,0,0,0-2h-.84a1,1,0,0,0,0,2Z"/><path class="cls-1" d="M15.58,18a1,1,0,0,0,.71.29,1,1,0,0,0,.71-1.7L16.41,16A1,1,0,0,0,15,17.36Z"/></svg>