<?xml version="1.0" encoding="UTF-8"?>
<!DOCTYPE svg PUBLIC "-//W3C//DTD SVG 1.1//EN" "http://www.w3.org/Graphics/SVG/1.1/DTD/svg11.dtd">
<!-- Creator: CorelDRAW 2017 -->
<svg xmlns="http://www.w3.org/2000/svg" xml:space="preserve" width="297mm" height="210mm" version="1.1" style="shape-rendering:geometricPrecision; text-rendering:geometricPrecision; image-rendering:optimizeQuality; fill-rule:evenodd; clip-rule:evenodd"
viewBox="0 0 29700 21000"
 xmlns:xlink="http://www.w3.org/1999/xlink"
 enable-background="new 0 0 100 100">
 <defs>
  <style type="text/css">
   <![CDATA[
    .fil0 {fill:black;fill-rule:nonzero}
   ]]>
  </style>
 </defs>
 <g id="Слой_x0020_1">
  <metadata id="CorelCorpID_0Corel-Layer"/>
  <path class="fil0" d="M28654.87 13703.99c0,-1586.53 -502.45,-2419.23 -1264.23,-2419.23 -853.63,0 -1285.85,1078.14 -1285.85,2515.67 0,1472.57 448.42,2471.83 1377.69,2471.83 459.24,0 815.81,-289.26 1069.75,-657.4l-378.2 -823.95c-221.51,254.19 -399.8,385.67 -610.51,385.67 -286.35,0 -475.44,-166.53 -518.66,-955.42l1588.41 0c10.8,-149.01 21.6,-368.15 21.6,-517.17zm-16774.24 -8869.61l-6072.17 -1929 -3841.23 4679.93 134.2 6541.83 5300.56 3874.78 3119.95 -754.83 1979.32 -469.67 2818.03 -687.73 352.25 -7045.05 -3790.91 -4210.26zm2734.15 10584.35l-2096.74 486.45 134.19 -3589.62 -2012.87 385.8 -83.87 3656.71 -2281.26 536.77 83.87 -6223.13 3472.21 -4428.32 3052.85 3321.24 -268.38 5854.1zm4800 -12480.67l-1215.6 0 -361.99 4058.38 -405.2 -4058.38 -1204.81 0 -243.13 6091.95 929.27 0 32.42 -2287.77c10.81,-832.7 0,-1516.42 -32.42,-2454.31l448.43 4110.98 918.46 0 421.42 -4110.98c-27.01,823.95 -21.62,1630.36 -10.81,2445.55l27.02 2296.53 945.47 0 -248.53 -6091.95zm-1651.82 13176.43l977.9 0 0 -5050.9c353.23,-11.16 1078.84,-36.06 1353.47,-65.85 836.01,-90.66 1338.89,-763.49 1546.39,-1967.73l805 -4671.95 -945.47 0 -443.03 3716.52 -367.38 -3716.52 -967.09 0 740.17 4671.95 340.37 0c-136.46,570.53 -344.49,809.5 -811.78,919.8 -317.74,74.99 -1656.63,69.74 -1673.24,72.72l-555.31 0 0 2322.84 -799.61 0 0 -2322.84 -977.88 0 0 6091.96 977.88 0 0 -2541.97 799.61 0 0 2541.97zm2663.55 -4829.73c-821.22,0 -1329.07,911.59 -1329.07,2489.37 0,1665.42 513.26,2498.13 1329.07,2498.13 821.21,0 1329.07,-911.6 1329.07,-2489.38 0,-1665.42 -518.67,-2498.12 -1329.07,-2498.12zm0 1113.19c248.52,0 361.98,350.62 361.98,1384.93 0,1016.79 -113.46,1384.94 -361.98,1384.94 -253.93,0 -361.98,-350.61 -361.98,-1393.69 0,-1008.03 113.45,-1376.18 361.98,-1376.18zm4673.36 -1113.19c-318.76,0 -561.88,236.65 -767.18,709.98 -108.06,-455.79 -324.17,-709.98 -599.71,-709.98 -307.95,0 -540.27,227.89 -745.57,683.69l-59.44 -525.92 -821.21 0 0 4671.96 929.27 0 0 -3234.43c91.85,-298.04 189.1,-455.82 297.15,-455.82 86.45,0 145.87,96.44 145.87,420.75l0 3269.5 923.87 0 0 -3234.43c91.85,-298.04 189.1,-455.82 297.15,-455.82 86.45,0 145.87,96.44 145.87,420.75l0 3269.5 929.27 0 0 -3471.11c0,-841.47 -275.54,-1358.62 -675.34,-1358.62zm2631.14 2051.09l-691.55 0c32.42,-841.47 151.27,-1069.38 361.98,-1069.38 259.33,0 329.57,376.91 329.57,1008.02l0 61.36z"/>
 </g>
</svg>
