<svg id="Слой_1" data-name="Слой 1" xmlns="http://www.w3.org/2000/svg" viewBox="0 0 69.74 80"><defs><style>.cls-1{fill:#70a7ff;}</style></defs><title>hert</title><path class="cls-1" d="M50.92,23.87a5.74,5.74,0,0,0-5.08-6.93,6.72,6.72,0,0,0-4.72,1.28l-28,20.55.13-7.23a5.67,5.67,0,0,0-1.75-4.26A6,6,0,0,0,6.9,25.65,6.84,6.84,0,0,0,.51,32.17L0,58.54A20.75,20.75,0,0,0,4,71.4,21.53,21.53,0,0,0,21.54,80a25.12,25.12,0,0,0,14.83-4.93l11.76-8.62a6.29,6.29,0,0,0,1.68-8.72,5.79,5.79,0,0,0-4.07-2.31l.25-.19a6.71,6.71,0,0,0,2.66-4.11,5.8,5.8,0,0,0-1-4.61,5.9,5.9,0,0,0-5-2.36,6.06,6.06,0,0,0-.19-6.66,5.82,5.82,0,0,0-4.07-2.32L48.27,28A6.7,6.7,0,0,0,50.92,23.87Zm-3.7,2.68L33.7,36.45l-7.91,5.79a.89.89,0,1,0,1.05,1.44l7.91-5.79a5,5,0,0,1,3.47-1,4,4,0,0,1,2.86,1.61,4.52,4.52,0,0,1-1.29,6.24l-7.91,5.79A.87.87,0,0,0,32,52.06l.11,0a.71.71,0,0,0,.25.06l.06,0,.13,0,.1,0a.86.86,0,0,0,.29-.14l7-5.1a4.52,4.52,0,0,1,6.33.66,4,4,0,0,1,.67,3.21,5,5,0,0,1-2,3l-6.83,5a.89.89,0,0,0,.53,1.6.83.83,0,0,0,.52-.17L42,58.13h0a5,5,0,0,1,3.47-1,4.08,4.08,0,0,1,2.86,1.61A4.53,4.53,0,0,1,47.08,65L35.32,73.63C25.45,80.86,12,79.39,5.41,70.35A19,19,0,0,1,1.78,58.58l.5-26.38A5,5,0,0,1,7,27.43a4.2,4.2,0,0,1,3.21,1.13,3.93,3.93,0,0,1,1.21,2.94l-.18,9a.89.89,0,0,0,1.42.73l29.5-21.6a5,5,0,0,1,3.47-1,4,4,0,0,1,3.54,4.83A5,5,0,0,1,47.22,26.55Z"/><path class="cls-1" d="M48.9,38.71l-.43-.24a37.69,37.69,0,0,1-3.23-2.06.89.89,0,1,1,1-1.46c1,.68,1.85,1.25,2.64,1.72,4.36-2.56,11-8.19,13.73-11.66,5.67-7.27,7-15.67,3.19-20a9.71,9.71,0,0,0-7-3.24,12.69,12.69,0,0,0-9.3,4l-.62.61-.62-.61a12.72,12.72,0,0,0-9.3-4A9.71,9.71,0,0,0,32,5c-2.79,3.15-2.86,8.7-.18,14.49a.89.89,0,1,1-1.61.75c-3-6.54-2.85-12.68.46-16.42A11.42,11.42,0,0,1,38.92,0a14.33,14.33,0,0,1,10,3.9,14.36,14.36,0,0,1,10-3.9,11.42,11.42,0,0,1,8.26,3.83c4.39,5,3.08,14.32-3.12,22.26a62.13,62.13,0,0,1-14.7,12.37Z"/></svg>