<svg id="Слой_1" data-name="Слой 1" xmlns="http://www.w3.org/2000/svg" viewBox="0 0 68.33 80"><defs><style>.cls-1{fill:#70a7ff;}</style></defs><title>kvad</title><path class="cls-1" d="M53.27,22.11a6,6,0,0,0-1-4.74A5.91,5.91,0,0,0,48.05,15a6.81,6.81,0,0,0-4.85,1.32l-29,21.23L14.35,30a5.85,5.85,0,0,0-1.8-4.38A6.08,6.08,0,0,0,7.88,24,7,7,0,0,0,1.3,30.67L.79,57.89A21.34,21.34,0,0,0,4.88,71.14,22.15,22.15,0,0,0,23,80a26,26,0,0,0,15.3-5.08L50.4,66a6.46,6.46,0,0,0,1.72-9,6,6,0,0,0-4.21-2.38h0l.31-.23a6.86,6.86,0,0,0,2.73-4.22A5.91,5.91,0,0,0,45.7,43.1a7.23,7.23,0,0,0-.93,0,6.86,6.86,0,0,0,.83-2.15,5.94,5.94,0,0,0-1-4.74,6,6,0,0,0-4.24-2.39l10.18-7.46A6.9,6.9,0,0,0,53.27,22.11ZM49.49,24.9l-14,10.22-8.16,6a.88.88,0,0,0-.2,1.24.9.9,0,0,0,1.25.19l8.16-6a4.7,4.7,0,0,1,6.58.68,4.24,4.24,0,0,1,.69,3.34,5.16,5.16,0,0,1-2,3.14l-8.16,6a.88.88,0,0,0-.2,1.24,1,1,0,0,0,.3.25l.11,0a1.1,1.1,0,0,0,.26.06h0l.13,0h.1a.83.83,0,0,0,.3-.14l7.18-5.26a5.07,5.07,0,0,1,3.6-1,4.2,4.2,0,0,1,3,1.67,4.15,4.15,0,0,1,.69,3.34,5.08,5.08,0,0,1-2,3.13l-7,5.16a.89.89,0,0,0,.52,1.61.93.93,0,0,0,.53-.17l3-2.17h0a5.12,5.12,0,0,1,3.6-1,4.22,4.22,0,0,1,3,1.67,4.71,4.71,0,0,1-1.34,6.48L37.22,73.48C27,81,13.15,79.43,6.31,70.09A19.66,19.66,0,0,1,2.56,57.93l.52-27.22a5.24,5.24,0,0,1,4.9-5,4.42,4.42,0,0,1,3.34,1.18A4.09,4.09,0,0,1,12.57,30l-.18,9.31a.89.89,0,0,0,1.42.74l30.44-22.3a5.12,5.12,0,0,1,3.6-1,4.11,4.11,0,0,1,3.67,5A5.11,5.11,0,0,1,49.49,24.9Z"/><path class="cls-1" d="M68.33,41.32H52.5a.89.89,0,0,1,0-1.78h14V1.78H28.79V20.66a.89.89,0,1,1-1.78,0V0H68.33V41.32Z"/></svg>