<svg id="Слой_1" data-name="Слой 1" xmlns="http://www.w3.org/2000/svg" viewBox="0 0 67.22 80"><defs><style>.cls-1{fill:#70a7ff;}</style></defs><title>star</title><path class="cls-1" d="M50.92,23.87a5.74,5.74,0,0,0-5.08-6.93,6.72,6.72,0,0,0-4.72,1.28l-28,20.55.13-7.23a5.69,5.69,0,0,0-1.75-4.26A6,6,0,0,0,6.9,25.65,6.84,6.84,0,0,0,.51,32.17L0,58.55A20.74,20.74,0,0,0,4,71.4,21.53,21.53,0,0,0,21.54,80a25.12,25.12,0,0,0,14.83-4.93l11.76-8.61a6.3,6.3,0,0,0,1.68-8.73,5.79,5.79,0,0,0-4.07-2.31l.25-.19a6.71,6.71,0,0,0,2.66-4.11,5.8,5.8,0,0,0-1-4.61,5.93,5.93,0,0,0-5-2.36,6.06,6.06,0,0,0-.19-6.66,5.82,5.82,0,0,0-4.07-2.32L48.27,28A6.75,6.75,0,0,0,50.92,23.87Zm-3.7,2.68L33.7,36.45l-7.91,5.8a.88.88,0,0,0-.2,1.24.9.9,0,0,0,1.25.19l7.91-5.79a5,5,0,0,1,3.47-1,4.08,4.08,0,0,1,2.86,1.61,4.52,4.52,0,0,1-1.29,6.24l-7.91,5.79A.87.87,0,0,0,32,52.06l.11,0a.54.54,0,0,0,.25.06l.06,0,.13,0,.1,0a1.08,1.08,0,0,0,.29-.13l7-5.1a4.51,4.51,0,0,1,6.33.65,4,4,0,0,1,.67,3.22,5,5,0,0,1-2,3l-6.83,5a.89.89,0,0,0,.53,1.6.83.83,0,0,0,.52-.17L42,58.13h0a5,5,0,0,1,3.47-1,4,4,0,0,1,2.86,1.6A4.53,4.53,0,0,1,47.08,65L35.32,73.63C25.45,80.86,12,79.39,5.41,70.35A19,19,0,0,1,1.78,58.58l.5-26.38A5,5,0,0,1,7,27.43a4.24,4.24,0,0,1,3.21,1.13,3.94,3.94,0,0,1,1.21,3l-.18,9a.89.89,0,0,0,1.42.73l29.5-21.6a5,5,0,0,1,3.47-1,4,4,0,0,1,3.54,4.83A5,5,0,0,1,47.22,26.55Z"/><path class="cls-1" d="M58.45,37.78a1.91,1.91,0,0,1-.93-.23L48.83,33a.93.93,0,0,1,.86-1.64l8.69,4.57a.14.14,0,0,0,.15,0,.15.15,0,0,0,.06-.14L56.68,24.64a2,2,0,0,1,.57-1.76L65.33,15a.13.13,0,0,0,0-.15.13.13,0,0,0-.12-.1L54.08,13.14a2,2,0,0,1-1.49-1.09l-5-10.12a.15.15,0,0,0-.26,0l-5,10.12a2,2,0,0,1-1.5,1.08L29.67,14.76a.13.13,0,0,0-.12.1.18.18,0,0,0,0,.15l4.19,4a.92.92,0,0,1-1.26,1.34l-4.21-4a2,2,0,0,1,1.1-3.41l11.16-1.62a.15.15,0,0,0,.11-.08l5-10.12A2,2,0,0,1,47.46,0a2,2,0,0,1,1.79,1.11l5,10.12a.15.15,0,0,0,.11.08l11.17,1.62a2,2,0,0,1,1.1,3.4L58.54,24.2a.16.16,0,0,0,0,.13l1.91,11.12a2,2,0,0,1-2,2.33Z"/></svg>