<svg id="Слой_1" data-name="Слой 1" xmlns="http://www.w3.org/2000/svg" viewBox="0 0 62 62"><defs><style>.cls-1{fill:#70a7ff;}</style></defs><title>design</title><rect class="cls-1" x="13" y="5.11" width="2" height="2"/><rect class="cls-1" x="17" y="5.11" width="2" height="2"/><rect class="cls-1" x="21" y="5.11" width="2" height="2"/><path class="cls-1" d="M2,61.11H33a1,1,0,0,0,1-1,1,1,0,0,0-.29-.71l-31-31a1,1,0,0,0-1.42,0,1.05,1.05,0,0,0-.29.71v31A1,1,0,0,0,2,61.11ZM3,31.52,30.59,59.11H3Z"/><path class="cls-1" d="M18.71,53.4l-10-10a1,1,0,0,0-1.42,0,1.05,1.05,0,0,0-.29.71v10a1,1,0,0,0,1,1H18a1,1,0,0,0,1-1A1,1,0,0,0,18.71,53.4ZM9,53.11V46.52l6.59,6.59Z"/><path class="cls-1" d="M59.88,9.65a3.83,3.83,0,0,0-5.42-5.42L53,5.73a5,5,0,0,0-5-4.62H14a5,5,0,0,0-5,5v26h2v-26a3,3,0,0,1,3-3H48a3,3,0,0,1,3,3V7.7l-9.41,9.41H34.24A11,11,0,1,0,23,32.06v4a1,1,0,0,0,1,1H46a1,1,0,0,0,1-1V22.52l4-4V39.11H28a1,1,0,0,0-1,1v8a1,1,0,0,0,1,1H51v1a3,3,0,0,1-3,3H32v2H48a5,5,0,0,0,5-5v-1h7a1,1,0,0,0,1-1v-8a1,1,0,0,0-1-1H53V16.52Zm-4-4a1.83,1.83,0,1,1,2.64,2.53l-.06.05L58,8.7,55.41,6.11ZM33,21.11a9,9,0,0,1-8,8.94V19.11h7.77A9,9,0,0,1,33,21.11Zm-10-3V30.05a9,9,0,1,1,9-12.94H24A1,1,0,0,0,23,18.11Zm22,17H25v-3A11,11,0,0,0,35,20.19a10,10,0,0,0-.15-1.08h4.78l-2.3,2.29a1,1,0,0,0-.27.51l-1,5a1,1,0,0,0,.78,1.18l.2,0,.2,0,5-1a1,1,0,0,0,.51-.27L45,24.52Zm-6.39-11L40,25.5l-1.7.34ZM55,41.11v2h2v-2h2v6H29v-6h2v2h2v-2h2v2h2v-2h2v2h2v-2h2v2h2v-2h2v2h2v-2h2v2h2v-2ZM42,24.7l-2.59-2.59L54,7.52l2.59,2.59Z"/></svg>