<svg id="Слой_1" data-name="Слой 1" xmlns="http://www.w3.org/2000/svg" viewBox="0 0 49.52 49.85"><defs><style>.cls-1{fill:none;}.cls-2{fill:#70a7ff;}</style></defs><title>corel</title><path class="cls-1" d="M43.59,18.13s1.79-2.17,3.36-4c-.08-.15-.15-.31-.23-.46a22.26,22.26,0,0,1-4.18,4.5,14.11,14.11,0,0,1,.91-1.24A31.73,31.73,0,0,0,46,12.28,26.68,26.68,0,0,0,44.38,10a79.39,79.39,0,0,1-2.28,8.35h-1s-1.49-5.07-2.16-7.64a28.69,28.69,0,0,1-.82-6.48A26.74,26.74,0,0,0,35,2.54a16.3,16.3,0,0,0,.53,5c1.11,4.29,5,10.57,5,10.57a27.17,27.17,0,0,1-3-3.12A23.11,23.11,0,0,1,33.22,6.9a12.63,12.63,0,0,1-.44-5.24c-.36-.13-.73-.24-1.1-.35C31,3.64,31.79,6.18,33,9c1.36,3.21,6.42,8.85,6.42,8.85s-.69-.6-2.35-2.35a36.2,36.2,0,0,1-5-7,10.56,10.56,0,0,1-1.24-7.22l.06-.22a24.86,24.86,0,0,0-19,2.85L33.93,26.21l3,15.39L21.34,38.5,1.07,17.86A25,25,0,0,0,0,25.09,24.76,24.76,0,1,0,47.14,14.47C45.53,16.23,43.59,18.13,43.59,18.13ZM43.07,23H39.75l-.67-3.09h4.73Z"/><path class="cls-1" d="M27.58,29.13V25.94L8.32,6.57a26.53,26.53,0,0,0-3,3.23L24.59,29.13Z"/><path class="cls-2" d="M36.92,41.6l-3-15.39L11.87,3.94A25.47,25.47,0,0,0,8.32,6.57L27.58,25.94v3.19h-3L5.28,9.8a24.64,24.64,0,0,0-4.21,8.06L21.34,38.5Z"/><path class="cls-2" d="M41.06,18.33h1A79.39,79.39,0,0,0,44.38,10a24.92,24.92,0,0,0-6.3-5.77,28.69,28.69,0,0,0,.82,6.48C39.57,13.26,41.06,18.33,41.06,18.33Z"/><path class="cls-2" d="M33.22,6.9A23.11,23.11,0,0,0,37.53,15a27.17,27.17,0,0,0,3,3.12s-3.84-6.28-5-10.57a16.3,16.3,0,0,1-.53-5c-.73-.33-1.47-.62-2.23-.88A12.63,12.63,0,0,0,33.22,6.9Z"/><path class="cls-2" d="M32.05,8.53a36.2,36.2,0,0,0,5,7c1.66,1.75,2.35,2.35,2.35,2.35S34.35,12.24,33,9c-1.2-2.85-2-5.39-1.31-7.72l-.81-.22-.06.22A10.56,10.56,0,0,0,32.05,8.53Z"/><path class="cls-2" d="M42.54,18.13a22.26,22.26,0,0,0,4.18-4.5c-.24-.46-.5-.91-.76-1.35a31.73,31.73,0,0,1-2.51,4.61A14.11,14.11,0,0,0,42.54,18.13Z"/><path class="cls-2" d="M47.14,14.47c-.06-.12-.13-.25-.19-.38-1.57,1.87-3.36,4-3.36,4S45.53,16.23,47.14,14.47Z"/><polygon class="cls-2" points="39.75 22.95 43.07 22.95 43.81 19.86 39.08 19.86 39.75 22.95"/><path class="cls-2" d="M24.76.33A24.76,24.76,0,1,0,49.52,25.09,24.76,24.76,0,0,0,24.76.33Zm0,47.62A22.86,22.86,0,1,1,47.62,25.09,22.87,22.87,0,0,1,24.76,48Z"/></svg>