<svg id="OBJECTS" xmlns="http://www.w3.org/2000/svg" viewBox="0 0 293.4 139.36"><defs><style>.cls-1{fill:#40bced;}</style></defs><title>cosial cet</title><path class="cls-1" d="M199.23,61.94h-24A19,19,0,0,1,156.3,43V19A19,19,0,0,1,175.25.05h24a19,19,0,0,1,19,19V43A19,19,0,0,1,199.23,61.94Zm-24-59.59A16.67,16.67,0,0,0,158.6,19V43a16.67,16.67,0,0,0,16.65,16.66h24A16.67,16.67,0,0,0,215.89,43V19A16.67,16.67,0,0,0,199.23,2.35Z"/><path class="cls-1" d="M193.6,16H180.88a8.64,8.64,0,0,0-8.64,8.64V37.35A8.65,8.65,0,0,0,180.88,46H193.6a8.66,8.66,0,0,0,8.65-8.65V24.63A8.65,8.65,0,0,0,193.6,16Zm5.59,21.36a5.6,5.6,0,0,1-5.59,5.59H180.88a5.59,5.59,0,0,1-5.58-5.59V24.63a5.58,5.58,0,0,1,5.58-5.58H193.6a5.59,5.59,0,0,1,5.59,5.58Z"/><path class="cls-1" d="M187.24,24a7,7,0,1,0,7,7A7,7,0,0,0,187.24,24Zm0,10.74A3.77,3.77,0,1,1,191,31,3.77,3.77,0,0,1,187.24,34.76Z"/><path class="cls-1" d="M195.05,21a2.07,2.07,0,1,0,2.07,2.07A2.07,2.07,0,0,0,195.05,21Z"/><path class="cls-1" d="M121.36,61.89h-24a19,19,0,0,1-18.95-19V19A19,19,0,0,1,97.38,0h24a19,19,0,0,1,19,19v24A19,19,0,0,1,121.36,61.89ZM97.38,2.3A16.67,16.67,0,0,0,80.73,19v24A16.67,16.67,0,0,0,97.38,59.59h24A16.67,16.67,0,0,0,138,42.93V19A16.67,16.67,0,0,0,121.36,2.3Z"/><path class="cls-1" d="M104,30.24h-1a5.32,5.32,0,0,0,5.32-5.32h0A5.32,5.32,0,0,0,103,19.61H92.33v21.9H104a5.15,5.15,0,0,0,5.15-5.15v-1A5.14,5.14,0,0,0,104,30.24Zm-7.24-6.66h4.93a2.65,2.65,0,0,1,2.65,2.66h0a2.65,2.65,0,0,1-2.65,2.66H96.73Zm5.6,14.24h-5.6V32.5h5.6a2.66,2.66,0,0,1,0,5.32Z"/><path class="cls-1" d="M121.88,36.82a4.09,4.09,0,0,1-3.24,1.65,4.27,4.27,0,0,1-4.06-3.31h11.74a9.71,9.71,0,0,0,.09-1.21,7.79,7.79,0,1,0-15.54,0,8.07,8.07,0,0,0,7.77,8.33,7.81,7.81,0,0,0,7.28-5.46Zm-3.24-7.46a4.24,4.24,0,0,1,3.67,2.22H115A4.23,4.23,0,0,1,118.64,29.36Z"/><rect class="cls-1" x="112.93" y="20.84" width="10.56" height="2.74"/><path class="cls-1" d="M42.93,61.88H19A19,19,0,0,1,0,42.93V19A19,19,0,0,1,19,0h24a19,19,0,0,1,19,19v24A19,19,0,0,1,42.93,61.88ZM19,2.3A16.67,16.67,0,0,0,2.3,19v24A16.67,16.67,0,0,0,19,59.59h24A16.67,16.67,0,0,0,59.59,42.93V19A16.67,16.67,0,0,0,42.93,2.3Z"/><path class="cls-1" d="M41.26,15.83,18.17,29.16a2.46,2.46,0,0,0,.42,4.45l6.12,2.13L38.56,24.89,29,37.22v7.17A.86.86,0,0,0,30.4,45L34,41.56l4.59,4.19a2.46,2.46,0,0,0,4.11-1.61l2.23-26A2.46,2.46,0,0,0,41.26,15.83Z"/><path class="cls-1" d="M42.93,139.36H19A19,19,0,0,1,0,120.41v-24a19,19,0,0,1,19-19h24a19,19,0,0,1,19,19v24A19,19,0,0,1,42.93,139.36ZM19,79.78A16.67,16.67,0,0,0,2.3,96.43v24A16.68,16.68,0,0,0,19,137.07h24a16.68,16.68,0,0,0,16.66-16.66v-24A16.67,16.67,0,0,0,42.93,79.78Z"/><rect class="cls-1" x="19.89" y="104.06" width="4.52" height="15.5"/><path class="cls-1" d="M22.15,97.29a2.48,2.48,0,1,0,2.48,2.47A2.48,2.48,0,0,0,22.15,97.29Z"/><path class="cls-1" d="M38.51,104a6.06,6.06,0,0,0-6.43,1.65h0l-.56-2H27.38v16h4.85V110.1a2.55,2.55,0,0,1,2.55-2.56h0a2.55,2.55,0,0,1,2.56,2.56v9.46h4.85v-8S42.73,105.19,38.51,104Z"/><path class="cls-1" d="M199.23,139.36h-24a19,19,0,0,1-18.95-19v-24a19,19,0,0,1,18.95-19h24a19,19,0,0,1,19,19v24A19,19,0,0,1,199.23,139.36Zm-24-59.58A16.67,16.67,0,0,0,158.6,96.43v24a16.68,16.68,0,0,0,16.65,16.66h24a16.68,16.68,0,0,0,16.66-16.66v-24a16.67,16.67,0,0,0-16.66-16.65Z"/><path class="cls-1" d="M195.5,92.08,190.69,92a7.1,7.1,0,0,0-5.1,2,7,7,0,0,0-2.12,5v4.57H179a.33.33,0,0,0-.33.33v5.75a.33.33,0,0,0,.33.33h4.48v14.53a.33.33,0,0,0,.33.33h5.93a.33.33,0,0,0,.33-.33V110h4.52a.34.34,0,0,0,.33-.29l.74-5.74a.34.34,0,0,0-.08-.26.3.3,0,0,0-.25-.12h-5.26v-2.9a3.33,3.33,0,0,1,.61-2.22,1.82,1.82,0,0,1,1.42-.55h3.41a.33.33,0,0,0,.33-.33V92.41A.34.34,0,0,0,195.5,92.08Z"/><path class="cls-1" d="M121.36,139.36h-24a19,19,0,0,1-18.95-19v-24a19,19,0,0,1,18.95-19h24a19,19,0,0,1,19,19v24A19,19,0,0,1,121.36,139.36Zm-24-59.58A16.67,16.67,0,0,0,80.73,96.43v24a16.68,16.68,0,0,0,16.65,16.66h24A16.68,16.68,0,0,0,138,120.41v-24a16.67,16.67,0,0,0-16.65-16.65Z"/><path class="cls-1" d="M111.53,100.15V94.09H106.7s.54,6-5.44,6.6v5.73h4v9.52a6.82,6.82,0,0,0,6.82,6.82h5.4v-6.31h-4.54a1.66,1.66,0,0,1-1.66-1.66v-8.44h6.2v-6.2Z"/><path class="cls-1" d="M274.45,61.88h-24a19,19,0,0,1-18.95-19V19A19,19,0,0,1,250.47,0h24A19,19,0,0,1,293.4,19v24A19,19,0,0,1,274.45,61.88Zm-24-59.58A16.67,16.67,0,0,0,233.82,19v24a16.67,16.67,0,0,0,16.65,16.66h24a16.67,16.67,0,0,0,16.66-16.66V19A16.67,16.67,0,0,0,274.45,2.3Z"/><path class="cls-1" d="M270,34.74l-3.14-1.44a.86.86,0,0,0-.86.08l-1.24.89a1.19,1.19,0,0,1-1.27.09,38.87,38.87,0,0,1-4.44-4.45,1.19,1.19,0,0,1,.09-1.27L260,27.4a.86.86,0,0,0,.08-.86l-1.44-3.14a1,1,0,0,0-.95-.6h-1a1,1,0,0,0-.38.07c-2,.83-1.82,3.24-1.82,3.24,0,3.57,3,6.87,4.37,8.24,1.23,1.31,4.68,4.58,8.44,4.58,0,0,2.41.13,3.24-1.82a1,1,0,0,0,.07-.38v-1A1,1,0,0,0,270,34.74Z"/><path class="cls-1" d="M244.54,48.86l3.12-9.73a17.48,17.48,0,1,1,6.62,6.62Zm10.15-6.53.61.38a14.34,14.34,0,1,0-4.61-4.6l.39.61L249.38,44Z"/></svg>