<svg id="Слой_1" data-name="Слой 1" xmlns="http://www.w3.org/2000/svg" viewBox="0 0 455 338"><defs><style>.cls-1{fill:#70a7ff;}</style></defs><title>hend</title><path class="cls-1" d="M429.64,72.57l-169-48a28,28,0,0,0-34.57,19.22L194.28,151.66l-6.35,5.18A52.82,52.82,0,0,0,169.28,206l-2.73,2.54L147.09,224.4A37.35,37.35,0,0,0,141.74,277h0l34.52,42.34a37.13,37.13,0,0,0,25.17,13.55,37.84,37.84,0,0,0,3.84.2,37.08,37.08,0,0,0,23.54-8.4l29.92-24.4A58.51,58.51,0,0,0,302,287.44l29.22-23.83,40.83,11.6a28,28,0,0,0,34.58-19.27v0l42.25-148.75a28,28,0,0,0-19.28-34.59h0ZM239.5,47.68A14,14,0,0,1,256.79,38h0l12.25,3.48-19.64,65.2L213.49,136Zm53.7,228.9a44.5,44.5,0,0,1-34.56,9.53,7,7,0,0,0-6.34,1.3L220,313.78a23.35,23.35,0,0,1-32.85-3.34L152.59,268.1a23.35,23.35,0,0,1,3.34-32.85h0l19.64-16a3.17,3.17,0,0,0,.34-.3l5.77-5.36a7,7,0,0,0,2-6.8,38.71,38.71,0,0,1,13.07-39.09l82.77-67.49a24.5,24.5,0,0,1-3.85,34l-28,22.8a7,7,0,0,0,8.85,10.85h0l23.54-19.19h0l58.21-47.46a8.17,8.17,0,0,1,10.34,12.66h0l-70,57a7,7,0,0,0,8.84,10.85h0l70-57h0l17.64-14.38a8.18,8.18,0,0,1,10.59,12.46l-.25.2-11.74,9.58h0L356.1,147h0l-58.2,47.46a7,7,0,1,0,8.77,10.9l.07,0,58.21-47.46h0l14.2-11.58,3.44-2.8a8.17,8.17,0,0,1,10.33,12.67l-20.58,16.78a6.49,6.49,0,0,0-1,1,20.76,20.76,0,0,0-2,1.42l-40.57,33.08a7,7,0,0,0,8.76,10.92l.08-.07,40.58-33.08a8.17,8.17,0,0,1,10.43,12.58l-.1.09ZM435.46,103.34,393.21,252.09a14,14,0,0,1-17.3,9.65l-31.41-8.93,52.92-43.14a22.14,22.14,0,0,0-3.22-36.54l7.56-6.16A22.16,22.16,0,0,0,398,130.11a22.16,22.16,0,0,0-31.63-30.62l-1.67,1.36a22.17,22.17,0,0,0-35.15-10.5l-30.79,25.1a38.24,38.24,0,0,0-8.66-24.54A13.44,13.44,0,0,0,271.14,89h0l-2.35,1.91,13.72-45.57L425.81,86a14,14,0,0,1,9.65,17.29h0Z"/><path class="cls-1" d="M207.36,25.06A7,7,0,0,0,209,11.25c-4.44-1.05-9-2-13.6-2.74l-.31,0L175.11,6l-.3,0a260.52,260.52,0,0,0-28.08-.68,7,7,0,1,0,.4,14h0a247.79,247.79,0,0,1,26.42.63l19.63,2.42c4.24.71,8.47,1.57,12.58,2.53A7.2,7.2,0,0,0,207.36,25.06Z"/><path class="cls-1" d="M107.44,23.27c6.22-1.05,12.48-1.91,18.6-2.55a7,7,0,0,0-1.47-13.93h0c-6.41.68-13,1.58-19.47,2.68a7,7,0,1,0,2.33,13.8Z"/><path class="cls-1" d="M71.48,17a256.07,256.07,0,0,0-31,10.51,7,7,0,1,0,5.6,12.83,245.74,245.74,0,0,1,29.17-9.85A7,7,0,0,0,71.48,17Z"/><path class="cls-1" d="M193.28,89.91a7,7,0,0,0,3.17-13.64l-.31-.06c-3.86-.81-7.82-1.53-11.78-2.14-4.39-.67-8.91-1.23-13.42-1.66a7,7,0,1,0-1.33,13.94c4.24.4,8.5.93,12.62,1.56C185.94,88.48,189.66,89.16,193.28,89.91Z"/><path class="cls-1" d="M106.63,88.2a6.73,6.73,0,0,0,1-.07,285.49,285.49,0,0,1,29.77-2.68,7,7,0,1,0-.25-14h-.26a300.06,300.06,0,0,0-31.24,2.81,7,7,0,0,0,1,13.93Z"/><path class="cls-1" d="M35.54,107a6.88,6.88,0,0,0,2.79-.59c.14-.06,15-6.49,38.08-12.19a7,7,0,0,0-3.36-13.59c-24.29,6-39.68,12.67-40.32,12.95A7,7,0,0,0,35.54,107Z"/><path class="cls-1" d="M145.46,159.14a215.73,215.73,0,0,1,27.35,4.16,7,7,0,0,0,3-13.67,230.67,230.67,0,0,0-29.13-4.44,7,7,0,0,0-1.4,13.93l.17,0Z"/><path class="cls-1" d="M106.18,144.82c-7.88.51-16,1.36-24,2.53a7,7,0,0,0,2,13.86c7.7-1.12,15.4-1.94,22.92-2.42a7,7,0,0,0-.91-14Z"/><path class="cls-1" d="M36.58,157.34a243.43,243.43,0,0,0-26.38,9.17,7,7,0,1,0,5.6,12.83h0a237,237,0,0,1,24.73-8.58,7,7,0,0,0-3.84-13.46l-.11,0Z"/></svg>