<svg id="OBJECTS" xmlns="http://www.w3.org/2000/svg" viewBox="0 0 61.88 61.88"><defs><style>.cls-1{fill:#40bced;}</style></defs><title>tel</title><path class="cls-1" d="M42.93,61.88H19A19,19,0,0,1,0,42.93V19A19,19,0,0,1,19,0h24a19,19,0,0,1,19,19v24A19,19,0,0,1,42.93,61.88ZM19,2.3A16.67,16.67,0,0,0,2.3,19v24A16.67,16.67,0,0,0,19,59.59h24A16.67,16.67,0,0,0,59.59,42.93V19A16.67,16.67,0,0,0,42.93,2.3Z"/><path class="cls-1" d="M41.26,15.83,18.17,29.16a2.46,2.46,0,0,0,.42,4.45l6.12,2.13L38.56,24.89,29,37.22v7.17A.86.86,0,0,0,30.4,45L34,41.56l4.59,4.19a2.46,2.46,0,0,0,4.11-1.61l2.23-26A2.46,2.46,0,0,0,41.26,15.83Z"/><path class="cls-1" d="M42.93,61.88H19A19,19,0,0,1,0,42.93V19A19,19,0,0,1,19,0h24a19,19,0,0,1,19,19v24A19,19,0,0,1,42.93,61.88ZM19,2.3A16.67,16.67,0,0,0,2.3,19v24A16.67,16.67,0,0,0,19,59.59h24A16.67,16.67,0,0,0,59.59,42.93V19A16.67,16.67,0,0,0,42.93,2.3Z"/><path class="cls-1" d="M41.26,15.83,18.17,29.16a2.46,2.46,0,0,0,.42,4.45l6.12,2.13L38.56,24.89,29,37.22v7.17A.86.86,0,0,0,30.4,45L34,41.56l4.59,4.19a2.46,2.46,0,0,0,4.11-1.61l2.23-26A2.46,2.46,0,0,0,41.26,15.83Z"/></svg>