<svg id="OBJECTS" xmlns="http://www.w3.org/2000/svg" viewBox="0 0 61.88 61.94"><defs><style>.cls-1{fill:#40bced;}</style></defs><title>vaber</title><path class="cls-1" d="M42.93,61.88H19A19,19,0,0,1,0,42.93V19A19,19,0,0,1,19,0h24a19,19,0,0,1,19,19v24A19,19,0,0,1,42.93,61.88ZM19,2.3A16.67,16.67,0,0,0,2.3,19v24A16.67,16.67,0,0,0,19,59.59h24A16.67,16.67,0,0,0,59.59,42.93V19A16.67,16.67,0,0,0,42.93,2.3Z"/><path class="cls-1" d="M38.48,34.74,35.34,33.3a.86.86,0,0,0-.86.08l-1.24.89a1.19,1.19,0,0,1-1.27.09,38.87,38.87,0,0,1-4.44-4.45,1.19,1.19,0,0,1,.09-1.27l.89-1.24a.86.86,0,0,0,.08-.86L27.15,23.4a1,1,0,0,0-.95-.6h-1a1,1,0,0,0-.38.07c-2,.83-1.82,3.24-1.82,3.24,0,3.57,2.95,6.87,4.37,8.24,1.23,1.31,4.68,4.58,8.44,4.58,0,0,2.41.13,3.24-1.82a1,1,0,0,0,.07-.38v-1A1,1,0,0,0,38.48,34.74Z"/><path class="cls-1" d="M13,48.86l3.12-9.73a17.48,17.48,0,1,1,6.62,6.62Zm10.15-6.53.61.38a14.34,14.34,0,1,0-4.61-4.6l.39.61L17.86,44Z"/></svg>